<?xml version="1.0" encoding="UTF-8" standalone="no"?>
<!DOCTYPE svg PUBLIC "-//W3C//DTD SVG 1.1//EN"
 "http://www.w3.org/Graphics/SVG/1.1/DTD/svg11.dtd">
<!-- Generated by graphviz version 12.2.1 (20241206.2353)
 -->
<!-- Title: dependency&#45;cruiser output Pages: 1 -->
<svg width="1090pt" height="1688pt"
 viewBox="0.00 0.00 1089.75 1688.45" xmlns="http://www.w3.org/2000/svg" xmlns:xlink="http://www.w3.org/1999/xlink">
<g id="graph0" class="graph" transform="scale(1 1) rotate(0) translate(4 1684.45)">
<title>dependency&#45;cruiser output</title>
<polygon fill="white" stroke="none" points="-4,4 -4,-1684.45 1085.75,-1684.45 1085.75,4 -4,4"/>
<g id="clust1" class="cluster">
<title>cluster_src</title>
<path fill="#ffffff" stroke="black" stroke-width="2" d="M20,-26.45C20,-26.45 1061.75,-26.45 1061.75,-26.45 1067.75,-26.45 1073.75,-32.45 1073.75,-38.45 1073.75,-38.45 1073.75,-1660.45 1073.75,-1660.45 1073.75,-1666.45 1067.75,-1672.45 1061.75,-1672.45 1061.75,-1672.45 20,-1672.45 20,-1672.45 14,-1672.45 8,-1666.45 8,-1660.45 8,-1660.45 8,-38.45 8,-38.45 8,-32.45 14,-26.45 20,-26.45"/>
<text text-anchor="middle" x="540.88" y="-1659.9" font-family="Helvetica,sans-Serif" font-weight="bold" font-size="9.00">src</text>
</g>
<g id="clust2" class="cluster">
<title>cluster_src/ts</title>
<path fill="#ffffff" stroke="black" stroke-width="2" d="M28,-34.45C28,-34.45 1053.75,-34.45 1053.75,-34.45 1059.75,-34.45 1065.75,-40.45 1065.75,-46.45 1065.75,-46.45 1065.75,-1633.45 1065.75,-1633.45 1065.75,-1639.45 1059.75,-1645.45 1053.75,-1645.45 1053.75,-1645.45 28,-1645.45 28,-1645.45 22,-1645.45 16,-1639.45 16,-1633.45 16,-1633.45 16,-46.45 16,-46.45 16,-40.45 22,-34.45 28,-34.45"/>
<text text-anchor="middle" x="540.88" y="-1632.9" font-family="Helvetica,sans-Serif" font-weight="bold" font-size="9.00">ts</text>
</g>
<g id="clust3" class="cluster">
<title>cluster_src/ts/hook</title>
<path fill="#ffffff" stroke="black" stroke-width="2" d="M542.62,-138.45C542.62,-138.45 634.62,-138.45 634.62,-138.45 640.62,-138.45 646.62,-144.45 646.62,-150.45 646.62,-150.45 646.62,-179.45 646.62,-179.45 646.62,-185.45 640.62,-191.45 634.62,-191.45 634.62,-191.45 542.62,-191.45 542.62,-191.45 536.62,-191.45 530.62,-185.45 530.62,-179.45 530.62,-179.45 530.62,-150.45 530.62,-150.45 530.62,-144.45 536.62,-138.45 542.62,-138.45"/>
<text text-anchor="middle" x="588.62" y="-178.9" font-family="Helvetica,sans-Serif" font-weight="bold" font-size="9.00">hook</text>
</g>
<g id="clust4" class="cluster">
<title>cluster_src/ts/motion</title>
<path fill="#ffffff" stroke="black" stroke-width="2" d="M720.5,-1534.45C720.5,-1534.45 913.88,-1534.45 913.88,-1534.45 919.88,-1534.45 925.88,-1540.45 925.88,-1546.45 925.88,-1546.45 925.88,-1606.45 925.88,-1606.45 925.88,-1612.45 919.88,-1618.45 913.88,-1618.45 913.88,-1618.45 720.5,-1618.45 720.5,-1618.45 714.5,-1618.45 708.5,-1612.45 708.5,-1606.45 708.5,-1606.45 708.5,-1546.45 708.5,-1546.45 708.5,-1540.45 714.5,-1534.45 720.5,-1534.45"/>
<text text-anchor="middle" x="817.19" y="-1605.9" font-family="Helvetica,sans-Serif" font-weight="bold" font-size="9.00">motion</text>
</g>
<g id="clust5" class="cluster">
<title>cluster_src/ts/store</title>
<path fill="#ffffff" stroke="black" stroke-width="2" d="M701.88,-42.45C701.88,-42.45 785.12,-42.45 785.12,-42.45 791.12,-42.45 797.12,-48.45 797.12,-54.45 797.12,-54.45 797.12,-179.45 797.12,-179.45 797.12,-185.45 791.12,-191.45 785.12,-191.45 785.12,-191.45 701.88,-191.45 701.88,-191.45 695.88,-191.45 689.88,-185.45 689.88,-179.45 689.88,-179.45 689.88,-54.45 689.88,-54.45 689.88,-48.45 695.88,-42.45 701.88,-42.45"/>
<text text-anchor="middle" x="743.5" y="-178.9" font-family="Helvetica,sans-Serif" font-weight="bold" font-size="9.00">store</text>
</g>
<g id="clust6" class="cluster">
<title>cluster_src/ts/store/project</title>
<path fill="#ffffff" stroke="black" stroke-width="2" d="M710.25,-50.45C710.25,-50.45 776.75,-50.45 776.75,-50.45 782.75,-50.45 788.75,-56.45 788.75,-62.45 788.75,-62.45 788.75,-91.45 788.75,-91.45 788.75,-97.45 782.75,-103.45 776.75,-103.45 776.75,-103.45 710.25,-103.45 710.25,-103.45 704.25,-103.45 698.25,-97.45 698.25,-91.45 698.25,-91.45 698.25,-62.45 698.25,-62.45 698.25,-56.45 704.25,-50.45 710.25,-50.45"/>
<text text-anchor="middle" x="743.5" y="-90.9" font-family="Helvetica,sans-Serif" font-weight="bold" font-size="9.00">project</text>
</g>
<g id="clust7" class="cluster">
<title>cluster_src/ts/store/uiState</title>
<path fill="#ffffff" stroke="black" stroke-width="2" d="M709.88,-111.45C709.88,-111.45 777.12,-111.45 777.12,-111.45 783.12,-111.45 789.12,-117.45 789.12,-123.45 789.12,-123.45 789.12,-152.45 789.12,-152.45 789.12,-158.45 783.12,-164.45 777.12,-164.45 777.12,-164.45 709.88,-164.45 709.88,-164.45 703.88,-164.45 697.88,-158.45 697.88,-152.45 697.88,-152.45 697.88,-123.45 697.88,-123.45 697.88,-117.45 703.88,-111.45 709.88,-111.45"/>
<text text-anchor="middle" x="743.5" y="-151.9" font-family="Helvetica,sans-Serif" font-weight="bold" font-size="9.00">uiState</text>
</g>
<g id="clust8" class="cluster">
<title>cluster_src/ts/types</title>
<path fill="#ffffff" stroke="black" stroke-width="2" d="M865.5,-94.45C865.5,-94.45 1045.75,-94.45 1045.75,-94.45 1051.75,-94.45 1057.75,-100.45 1057.75,-106.45 1057.75,-106.45 1057.75,-166.45 1057.75,-166.45 1057.75,-172.45 1051.75,-178.45 1045.75,-178.45 1045.75,-178.45 865.5,-178.45 865.5,-178.45 859.5,-178.45 853.5,-172.45 853.5,-166.45 853.5,-166.45 853.5,-106.45 853.5,-106.45 853.5,-100.45 859.5,-94.45 865.5,-94.45"/>
<text text-anchor="middle" x="955.62" y="-165.9" font-family="Helvetica,sans-Serif" font-weight="bold" font-size="9.00">types</text>
</g>
<g id="clust9" class="cluster">
<title>cluster_src/ts/ui</title>
<path fill="#ffffff" stroke="black" stroke-width="2" d="M119.5,-199.45C119.5,-199.45 975.75,-199.45 975.75,-199.45 981.75,-199.45 987.75,-205.45 987.75,-211.45 987.75,-211.45 987.75,-1514.45 987.75,-1514.45 987.75,-1520.45 981.75,-1526.45 975.75,-1526.45 975.75,-1526.45 119.5,-1526.45 119.5,-1526.45 113.5,-1526.45 107.5,-1520.45 107.5,-1514.45 107.5,-1514.45 107.5,-211.45 107.5,-211.45 107.5,-205.45 113.5,-199.45 119.5,-199.45"/>
<text text-anchor="middle" x="547.62" y="-1513.9" font-family="Helvetica,sans-Serif" font-weight="bold" font-size="9.00">ui</text>
</g>
<g id="clust10" class="cluster">
<title>cluster_src/ts/ui/background</title>
<path fill="#ffffff" stroke="black" stroke-width="2" d="M127.5,-543.45C127.5,-543.45 646.88,-543.45 646.88,-543.45 652.88,-543.45 658.88,-549.45 658.88,-555.45 658.88,-555.45 658.88,-868.45 658.88,-868.45 658.88,-874.45 652.88,-880.45 646.88,-880.45 646.88,-880.45 127.5,-880.45 127.5,-880.45 121.5,-880.45 115.5,-874.45 115.5,-868.45 115.5,-868.45 115.5,-555.45 115.5,-555.45 115.5,-549.45 121.5,-543.45 127.5,-543.45"/>
<text text-anchor="middle" x="387.19" y="-867.9" font-family="Helvetica,sans-Serif" font-weight="bold" font-size="9.00">background</text>
</g>
<g id="clust11" class="cluster">
<title>cluster_src/ts/ui/background/camera</title>
<path fill="#ffffff" stroke="black" stroke-width="2" d="M407.12,-551.45C407.12,-551.45 496.88,-551.45 496.88,-551.45 502.88,-551.45 508.88,-557.45 508.88,-563.45 508.88,-563.45 508.88,-592.45 508.88,-592.45 508.88,-598.45 502.88,-604.45 496.88,-604.45 496.88,-604.45 407.12,-604.45 407.12,-604.45 401.12,-604.45 395.12,-598.45 395.12,-592.45 395.12,-592.45 395.12,-563.45 395.12,-563.45 395.12,-557.45 401.12,-551.45 407.12,-551.45"/>
<text text-anchor="middle" x="452" y="-591.9" font-family="Helvetica,sans-Serif" font-weight="bold" font-size="9.00">camera</text>
</g>
<g id="clust12" class="cluster">
<title>cluster_src/ts/ui/background/content</title>
<path fill="#ffffff" stroke="black" stroke-width="2" d="M407.5,-612.45C407.5,-612.45 638.88,-612.45 638.88,-612.45 644.88,-612.45 650.88,-618.45 650.88,-624.45 650.88,-624.45 650.88,-719.45 650.88,-719.45 650.88,-725.45 644.88,-731.45 638.88,-731.45 638.88,-731.45 407.5,-731.45 407.5,-731.45 401.5,-731.45 395.5,-725.45 395.5,-719.45 395.5,-719.45 395.5,-624.45 395.5,-624.45 395.5,-618.45 401.5,-612.45 407.5,-612.45"/>
<text text-anchor="middle" x="523.19" y="-718.9" font-family="Helvetica,sans-Serif" font-weight="bold" font-size="9.00">content</text>
</g>
<g id="clust13" class="cluster">
<title>cluster_src/ts/ui/background/content/cursor</title>
<path fill="#ffffff" stroke="black" stroke-width="2" d="M546.38,-620.45C546.38,-620.45 630.88,-620.45 630.88,-620.45 636.88,-620.45 642.88,-626.45 642.88,-632.45 642.88,-632.45 642.88,-692.45 642.88,-692.45 642.88,-698.45 636.88,-704.45 630.88,-704.45 630.88,-704.45 546.38,-704.45 546.38,-704.45 540.38,-704.45 534.38,-698.45 534.38,-692.45 534.38,-692.45 534.38,-632.45 534.38,-632.45 534.38,-626.45 540.38,-620.45 546.38,-620.45"/>
<text text-anchor="middle" x="588.62" y="-691.9" font-family="Helvetica,sans-Serif" font-weight="bold" font-size="9.00">cursor</text>
</g>
<g id="clust14" class="cluster">
<title>cluster_src/ts/ui/background/light</title>
<path fill="#ffffff" stroke="black" stroke-width="2" d="M413.5,-739.45C413.5,-739.45 490.5,-739.45 490.5,-739.45 496.5,-739.45 502.5,-745.45 502.5,-751.45 502.5,-751.45 502.5,-780.45 502.5,-780.45 502.5,-786.45 496.5,-792.45 490.5,-792.45 490.5,-792.45 413.5,-792.45 413.5,-792.45 407.5,-792.45 401.5,-786.45 401.5,-780.45 401.5,-780.45 401.5,-751.45 401.5,-751.45 401.5,-745.45 407.5,-739.45 413.5,-739.45"/>
<text text-anchor="middle" x="452" y="-779.9" font-family="Helvetica,sans-Serif" font-weight="bold" font-size="9.00">light</text>
</g>
<g id="clust15" class="cluster">
<title>cluster_src/ts/ui/background/render</title>
<path fill="#ffffff" stroke="black" stroke-width="2" d="M408.25,-800.45C408.25,-800.45 495.75,-800.45 495.75,-800.45 501.75,-800.45 507.75,-806.45 507.75,-812.45 507.75,-812.45 507.75,-841.45 507.75,-841.45 507.75,-847.45 501.75,-853.45 495.75,-853.45 495.75,-853.45 408.25,-853.45 408.25,-853.45 402.25,-853.45 396.25,-847.45 396.25,-841.45 396.25,-841.45 396.25,-812.45 396.25,-812.45 396.25,-806.45 402.25,-800.45 408.25,-800.45"/>
<text text-anchor="middle" x="452" y="-840.9" font-family="Helvetica,sans-Serif" font-weight="bold" font-size="9.00">render</text>
</g>
<g id="clust16" class="cluster">
<title>cluster_src/ts/ui/component</title>
<path fill="#ffffff" stroke="black" stroke-width="2" d="M389.25,-1193.45C389.25,-1193.45 967.75,-1193.45 967.75,-1193.45 973.75,-1193.45 979.75,-1199.45 979.75,-1205.45 979.75,-1205.45 979.75,-1487.45 979.75,-1487.45 979.75,-1493.45 973.75,-1499.45 967.75,-1499.45 967.75,-1499.45 389.25,-1499.45 389.25,-1499.45 383.25,-1499.45 377.25,-1493.45 377.25,-1487.45 377.25,-1487.45 377.25,-1205.45 377.25,-1205.45 377.25,-1199.45 383.25,-1193.45 389.25,-1193.45"/>
<text text-anchor="middle" x="678.5" y="-1486.9" font-family="Helvetica,sans-Serif" font-weight="bold" font-size="9.00">component</text>
</g>
<g id="clust17" class="cluster">
<title>cluster_src/ts/ui/component/button</title>
<path fill="#ffffff" stroke="black" stroke-width="2" d="M397.25,-1201.45C397.25,-1201.45 801.25,-1201.45 801.25,-1201.45 807.25,-1201.45 813.25,-1207.45 813.25,-1213.45 813.25,-1213.45 813.25,-1277.45 813.25,-1277.45 813.25,-1283.45 807.25,-1289.45 801.25,-1289.45 801.25,-1289.45 397.25,-1289.45 397.25,-1289.45 391.25,-1289.45 385.25,-1283.45 385.25,-1277.45 385.25,-1277.45 385.25,-1213.45 385.25,-1213.45 385.25,-1207.45 391.25,-1201.45 397.25,-1201.45"/>
<text text-anchor="middle" x="599.25" y="-1276.9" font-family="Helvetica,sans-Serif" font-weight="bold" font-size="9.00">button</text>
</g>
<g id="clust18" class="cluster">
<title>cluster_src/ts/ui/component/button/text</title>
<path fill="#ffffff" stroke="black" stroke-width="2" d="M405.25,-1209.45C405.25,-1209.45 793.25,-1209.45 793.25,-1209.45 799.25,-1209.45 805.25,-1215.45 805.25,-1221.45 805.25,-1221.45 805.25,-1250.45 805.25,-1250.45 805.25,-1256.45 799.25,-1262.45 793.25,-1262.45 793.25,-1262.45 405.25,-1262.45 405.25,-1262.45 399.25,-1262.45 393.25,-1256.45 393.25,-1250.45 393.25,-1250.45 393.25,-1221.45 393.25,-1221.45 393.25,-1215.45 399.25,-1209.45 405.25,-1209.45"/>
<text text-anchor="middle" x="599.25" y="-1249.9" font-family="Helvetica,sans-Serif" font-weight="bold" font-size="9.00">text</text>
</g>
<g id="clust19" class="cluster">
<title>cluster_src/ts/ui/component/viewer</title>
<path fill="#ffffff" stroke="black" stroke-width="2" d="M400,-1297.45C400,-1297.45 959.75,-1297.45 959.75,-1297.45 965.75,-1297.45 971.75,-1303.45 971.75,-1309.45 971.75,-1309.45 971.75,-1460.45 971.75,-1460.45 971.75,-1466.45 965.75,-1472.45 959.75,-1472.45 959.75,-1472.45 400,-1472.45 400,-1472.45 394,-1472.45 388,-1466.45 388,-1460.45 388,-1460.45 388,-1309.45 388,-1309.45 388,-1303.45 394,-1297.45 400,-1297.45"/>
<text text-anchor="middle" x="679.88" y="-1459.9" font-family="Helvetica,sans-Serif" font-weight="bold" font-size="9.00">viewer</text>
</g>
<g id="clust20" class="cluster">
<title>cluster_src/ts/ui/component/viewer/holder</title>
<path fill="#ffffff" stroke="black" stroke-width="2" d="M711.38,-1331.45C711.38,-1331.45 938.25,-1331.45 938.25,-1331.45 944.25,-1331.45 950.25,-1337.45 950.25,-1343.45 950.25,-1343.45 950.25,-1372.45 950.25,-1372.45 950.25,-1378.45 944.25,-1384.45 938.25,-1384.45 938.25,-1384.45 711.38,-1384.45 711.38,-1384.45 705.38,-1384.45 699.38,-1378.45 699.38,-1372.45 699.38,-1372.45 699.38,-1343.45 699.38,-1343.45 699.38,-1337.45 705.38,-1331.45 711.38,-1331.45"/>
<text text-anchor="middle" x="824.81" y="-1371.9" font-family="Helvetica,sans-Serif" font-weight="bold" font-size="9.00">holder</text>
</g>
<g id="clust21" class="cluster">
<title>cluster_src/ts/ui/component/viewer/navigation</title>
<path fill="#ffffff" stroke="black" stroke-width="2" d="M697.88,-1392.45C697.88,-1392.45 951.75,-1392.45 951.75,-1392.45 957.75,-1392.45 963.75,-1398.45 963.75,-1404.45 963.75,-1404.45 963.75,-1433.45 963.75,-1433.45 963.75,-1439.45 957.75,-1445.45 951.75,-1445.45 951.75,-1445.45 697.88,-1445.45 697.88,-1445.45 691.88,-1445.45 685.88,-1439.45 685.88,-1433.45 685.88,-1433.45 685.88,-1404.45 685.88,-1404.45 685.88,-1398.45 691.88,-1392.45 697.88,-1392.45"/>
<text text-anchor="middle" x="824.81" y="-1432.9" font-family="Helvetica,sans-Serif" font-weight="bold" font-size="9.00">navigation</text>
</g>
<g id="clust22" class="cluster">
<title>cluster_src/ts/ui/overlay</title>
<path fill="#ffffff" stroke="black" stroke-width="2" d="M136.88,-207.45C136.88,-207.45 664.5,-207.45 664.5,-207.45 670.5,-207.45 676.5,-213.45 676.5,-219.45 676.5,-219.45 676.5,-523.45 676.5,-523.45 676.5,-529.45 670.5,-535.45 664.5,-535.45 664.5,-535.45 136.88,-535.45 136.88,-535.45 130.88,-535.45 124.88,-529.45 124.88,-523.45 124.88,-523.45 124.88,-219.45 124.88,-219.45 124.88,-213.45 130.88,-207.45 136.88,-207.45"/>
<text text-anchor="middle" x="400.69" y="-522.9" font-family="Helvetica,sans-Serif" font-weight="bold" font-size="9.00">overlay</text>
</g>
<g id="clust23" class="cluster">
<title>cluster_src/ts/ui/overlay/site&#45;control</title>
<path fill="#ffffff" stroke="black" stroke-width="2" d="M242.75,-302.45C242.75,-302.45 656.5,-302.45 656.5,-302.45 662.5,-302.45 668.5,-308.45 668.5,-314.45 668.5,-314.45 668.5,-496.45 668.5,-496.45 668.5,-502.45 662.5,-508.45 656.5,-508.45 656.5,-508.45 242.75,-508.45 242.75,-508.45 236.75,-508.45 230.75,-502.45 230.75,-496.45 230.75,-496.45 230.75,-314.45 230.75,-314.45 230.75,-308.45 236.75,-302.45 242.75,-302.45"/>
<text text-anchor="middle" x="449.62" y="-495.9" font-family="Helvetica,sans-Serif" font-weight="bold" font-size="9.00">site&#45;control</text>
</g>
<g id="clust24" class="cluster">
<title>cluster_src/ts/ui/overlay/site&#45;control/scroll</title>
<path fill="#ffffff" stroke="black" stroke-width="2" d="M411.25,-397.45C411.25,-397.45 647,-397.45 647,-397.45 653,-397.45 659,-403.45 659,-409.45 659,-409.45 659,-469.45 659,-469.45 659,-475.45 653,-481.45 647,-481.45 647,-481.45 411.25,-481.45 411.25,-481.45 405.25,-481.45 399.25,-475.45 399.25,-469.45 399.25,-469.45 399.25,-409.45 399.25,-409.45 399.25,-403.45 405.25,-397.45 411.25,-397.45"/>
<text text-anchor="middle" x="529.12" y="-468.9" font-family="Helvetica,sans-Serif" font-weight="bold" font-size="9.00">scroll</text>
</g>
<g id="clust25" class="cluster">
<title>cluster_src/ts/ui/overlay/site&#45;control/theme</title>
<path fill="#ffffff" stroke="black" stroke-width="2" d="M250.75,-310.45C250.75,-310.45 648.5,-310.45 648.5,-310.45 654.5,-310.45 660.5,-316.45 660.5,-322.45 660.5,-322.45 660.5,-351.45 660.5,-351.45 660.5,-357.45 654.5,-363.45 648.5,-363.45 648.5,-363.45 250.75,-363.45 250.75,-363.45 244.75,-363.45 238.75,-357.45 238.75,-351.45 238.75,-351.45 238.75,-322.45 238.75,-322.45 238.75,-316.45 244.75,-310.45 250.75,-310.45"/>
<text text-anchor="middle" x="449.62" y="-350.9" font-family="Helvetica,sans-Serif" font-weight="bold" font-size="9.00">theme</text>
</g>
<g id="clust26" class="cluster">
<title>cluster_src/ts/ui/overlay/surface</title>
<path fill="#ffffff" stroke="black" stroke-width="2" d="M260.88,-241.45C260.88,-241.45 354.38,-241.45 354.38,-241.45 360.38,-241.45 366.38,-247.45 366.38,-253.45 366.38,-253.45 366.38,-282.45 366.38,-282.45 366.38,-288.45 360.38,-294.45 354.38,-294.45 354.38,-294.45 260.88,-294.45 260.88,-294.45 254.88,-294.45 248.88,-288.45 248.88,-282.45 248.88,-282.45 248.88,-253.45 248.88,-253.45 248.88,-247.45 254.88,-241.45 260.88,-241.45"/>
<text text-anchor="middle" x="307.62" y="-281.9" font-family="Helvetica,sans-Serif" font-weight="bold" font-size="9.00">surface</text>
</g>
<g id="clust27" class="cluster">
<title>cluster_src/ts/ui/site</title>
<path fill="#ffffff" stroke="black" stroke-width="2" d="M266,-914.45C266,-914.45 663.38,-914.45 663.38,-914.45 669.38,-914.45 675.38,-920.45 675.38,-926.45 675.38,-926.45 675.38,-1173.45 675.38,-1173.45 675.38,-1179.45 669.38,-1185.45 663.38,-1185.45 663.38,-1185.45 266,-1185.45 266,-1185.45 260,-1185.45 254,-1179.45 254,-1173.45 254,-1173.45 254,-926.45 254,-926.45 254,-920.45 260,-914.45 266,-914.45"/>
<text text-anchor="middle" x="464.69" y="-1172.9" font-family="Helvetica,sans-Serif" font-weight="bold" font-size="9.00">site</text>
</g>
<g id="clust28" class="cluster">
<title>cluster_src/ts/ui/site/footer</title>
<path fill="#ffffff" stroke="black" stroke-width="2" d="M276.25,-922.45C276.25,-922.45 501,-922.45 501,-922.45 507,-922.45 513,-928.45 513,-934.45 513,-934.45 513,-963.45 513,-963.45 513,-969.45 507,-975.45 501,-975.45 501,-975.45 276.25,-975.45 276.25,-975.45 270.25,-975.45 264.25,-969.45 264.25,-963.45 264.25,-963.45 264.25,-934.45 264.25,-934.45 264.25,-928.45 270.25,-922.45 276.25,-922.45"/>
<text text-anchor="middle" x="388.62" y="-962.9" font-family="Helvetica,sans-Serif" font-weight="bold" font-size="9.00">footer</text>
</g>
<g id="clust29" class="cluster">
<title>cluster_src/ts/ui/site/header</title>
<path fill="#ffffff" stroke="black" stroke-width="2" d="M274,-983.45C274,-983.45 503.25,-983.45 503.25,-983.45 509.25,-983.45 515.25,-989.45 515.25,-995.45 515.25,-995.45 515.25,-1024.45 515.25,-1024.45 515.25,-1030.45 509.25,-1036.45 503.25,-1036.45 503.25,-1036.45 274,-1036.45 274,-1036.45 268,-1036.45 262,-1030.45 262,-1024.45 262,-1024.45 262,-995.45 262,-995.45 262,-989.45 268,-983.45 274,-983.45"/>
<text text-anchor="middle" x="388.62" y="-1023.9" font-family="Helvetica,sans-Serif" font-weight="bold" font-size="9.00">header</text>
</g>
<g id="clust30" class="cluster">
<title>cluster_src/ts/ui/site/project</title>
<path fill="#ffffff" stroke="black" stroke-width="2" d="M274.75,-1044.45C274.75,-1044.45 655.38,-1044.45 655.38,-1044.45 661.38,-1044.45 667.38,-1050.45 667.38,-1056.45 667.38,-1056.45 667.38,-1146.45 667.38,-1146.45 667.38,-1152.45 661.38,-1158.45 655.38,-1158.45 655.38,-1158.45 274.75,-1158.45 274.75,-1158.45 268.75,-1158.45 262.75,-1152.45 262.75,-1146.45 262.75,-1146.45 262.75,-1056.45 262.75,-1056.45 262.75,-1050.45 268.75,-1044.45 274.75,-1044.45"/>
<text text-anchor="middle" x="465.06" y="-1145.9" font-family="Helvetica,sans-Serif" font-weight="bold" font-size="9.00">project</text>
</g>
<g id="clust31" class="cluster">
<title>cluster_src/ts/ui/site/project/text</title>
<path fill="#ffffff" stroke="black" stroke-width="2" d="M410.88,-1078.45C410.88,-1078.45 647.38,-1078.45 647.38,-1078.45 653.38,-1078.45 659.38,-1084.45 659.38,-1090.45 659.38,-1090.45 659.38,-1119.45 659.38,-1119.45 659.38,-1125.45 653.38,-1131.45 647.38,-1131.45 647.38,-1131.45 410.88,-1131.45 410.88,-1131.45 404.88,-1131.45 398.88,-1125.45 398.88,-1119.45 398.88,-1119.45 398.88,-1090.45 398.88,-1090.45 398.88,-1084.45 404.88,-1078.45 410.88,-1078.45"/>
<text text-anchor="middle" x="529.12" y="-1118.9" font-family="Helvetica,sans-Serif" font-weight="bold" font-size="9.00">text</text>
</g>
<!-- src/ts/Application.module.css -->
<g id="node1" class="node">
<title>src/ts/Application.module.css</title>
<g id="a_node1"><a xlink:href="src/ts/Application.module.css" xlink:title="Application.module.css">
<path fill="#ffffcc" stroke="black" d="M216.58,-191.7C216.58,-191.7 118.42,-191.7 118.42,-191.7 115.33,-191.7 112.25,-188.62 112.25,-185.54 112.25,-185.54 112.25,-179.37 112.25,-179.37 112.25,-176.29 115.33,-173.2 118.42,-173.2 118.42,-173.2 216.58,-173.2 216.58,-173.2 219.67,-173.2 222.75,-176.29 222.75,-179.37 222.75,-179.37 222.75,-185.54 222.75,-185.54 222.75,-188.62 219.67,-191.7 216.58,-191.7"/>
<text text-anchor="start" x="120.25" y="-179.15" font-family="Helvetica,sans-Serif" font-size="9.00">Application.module.css</text>
</a>
</g>
</g>
<!-- src/ts/Application.tsx -->
<g id="node2" class="node">
<title>src/ts/Application.tsx</title>
<g id="a_node2"><a xlink:href="src/ts/Application.tsx" xlink:title="Application.tsx">
<path fill="#bbfeff" stroke="black" d="M93.08,-267.7C93.08,-267.7 30.17,-267.7 30.17,-267.7 27.08,-267.7 24,-264.62 24,-261.54 24,-261.54 24,-255.37 24,-255.37 24,-252.29 27.08,-249.2 30.17,-249.2 30.17,-249.2 93.08,-249.2 93.08,-249.2 96.17,-249.2 99.25,-252.29 99.25,-255.37 99.25,-255.37 99.25,-261.54 99.25,-261.54 99.25,-264.62 96.17,-267.7 93.08,-267.7"/>
<text text-anchor="start" x="32" y="-255.15" font-family="Helvetica,sans-Serif" font-size="9.00">Application.tsx</text>
</a>
</g>
</g>
<!-- src/ts/Application.tsx&#45;&gt;src/ts/Application.module.css -->
<g id="edge1" class="edge">
<title>src/ts/Application.tsx&#45;&gt;src/ts/Application.module.css</title>
<path fill="none" stroke="#000000" stroke-width="2" stroke-opacity="0.200000" d="M68.43,-248.75C76.02,-236.79 90.4,-216.59 107.5,-204.45 112.29,-201.05 117.67,-198.11 123.18,-195.58"/>
<polygon fill="#000000" fill-opacity="0.200000" stroke="#000000" stroke-width="2" stroke-opacity="0.200000" points="123.79,-197.61 128.51,-193.35 122.16,-193.73 123.79,-197.61"/>
</g>
<!-- src/ts/ui/overlay/UIOverlay.tsx -->
<g id="node3" class="node">
<title>src/ts/ui/overlay/UIOverlay.tsx</title>
<g id="a_node3"><a xlink:href="src/ts/ui/overlay/UIOverlay.tsx" xlink:title="UIOverlay.tsx">
<path fill="#bbfeff" stroke="black" d="M195.96,-267.7C195.96,-267.7 139.04,-267.7 139.04,-267.7 135.96,-267.7 132.88,-264.62 132.88,-261.54 132.88,-261.54 132.88,-255.37 132.88,-255.37 132.88,-252.29 135.96,-249.2 139.04,-249.2 139.04,-249.2 195.96,-249.2 195.96,-249.2 199.04,-249.2 202.12,-252.29 202.12,-255.37 202.12,-255.37 202.12,-261.54 202.12,-261.54 202.12,-264.62 199.04,-267.7 195.96,-267.7"/>
<text text-anchor="start" x="140.88" y="-255.15" font-family="Helvetica,sans-Serif" font-size="9.00">UIOverlay.tsx</text>
</a>
</g>
</g>
<!-- src/ts/Application.tsx&#45;&gt;src/ts/ui/overlay/UIOverlay.tsx -->
<g id="edge2" class="edge">
<title>src/ts/Application.tsx&#45;&gt;src/ts/ui/overlay/UIOverlay.tsx</title>
<path fill="none" stroke="#000000" stroke-width="2" stroke-opacity="0.200000" d="M99.54,-258.45C107.34,-258.45 115.63,-258.45 123.62,-258.45"/>
<polygon fill="#000000" fill-opacity="0.200000" stroke="#000000" stroke-width="2" stroke-opacity="0.200000" points="123.45,-260.55 129.45,-258.45 123.45,-256.35 123.45,-260.55"/>
</g>
<!-- src/ts/ui/UIContainer.tsx -->
<g id="node4" class="node">
<title>src/ts/ui/UIContainer.tsx</title>
<g id="a_node4"><a xlink:href="src/ts/ui/UIContainer.tsx" xlink:title="UIContainer.tsx">
<path fill="#bbfeff" stroke="black" d="M200.46,-927.7C200.46,-927.7 134.54,-927.7 134.54,-927.7 131.46,-927.7 128.38,-924.62 128.38,-921.54 128.38,-921.54 128.38,-915.37 128.38,-915.37 128.38,-912.29 131.46,-909.2 134.54,-909.2 134.54,-909.2 200.46,-909.2 200.46,-909.2 203.54,-909.2 206.62,-912.29 206.62,-915.37 206.62,-915.37 206.62,-921.54 206.62,-921.54 206.62,-924.62 203.54,-927.7 200.46,-927.7"/>
<text text-anchor="start" x="136.38" y="-915.15" font-family="Helvetica,sans-Serif" font-size="9.00">UIContainer.tsx</text>
</a>
</g>
</g>
<!-- src/ts/Application.tsx&#45;&gt;src/ts/ui/UIContainer.tsx -->
<g id="edge3" class="edge">
<title>src/ts/Application.tsx&#45;&gt;src/ts/ui/UIContainer.tsx</title>
<path fill="none" stroke="#000000" stroke-width="2" stroke-opacity="0.200000" d="M62.78,-267.83C64.05,-341.71 73.69,-828.74 107.5,-883.45 113.02,-892.39 121.74,-899.32 130.79,-904.57"/>
<polygon fill="#000000" fill-opacity="0.200000" stroke="#000000" stroke-width="2" stroke-opacity="0.200000" points="129.8,-906.42 136.09,-907.35 131.75,-902.7 129.8,-906.42"/>
</g>
<!-- src/ts/ui/overlay/UIOverlay.module.css -->
<g id="node37" class="node">
<title>src/ts/ui/overlay/UIOverlay.module.css</title>
<g id="a_node37"><a xlink:href="src/ts/ui/overlay/UIOverlay.module.css" xlink:title="UIOverlay.module.css">
<path fill="#ffffcc" stroke="black" d="M353.71,-233.7C353.71,-233.7 261.54,-233.7 261.54,-233.7 258.46,-233.7 255.38,-230.62 255.38,-227.54 255.38,-227.54 255.38,-221.37 255.38,-221.37 255.38,-218.29 258.46,-215.2 261.54,-215.2 261.54,-215.2 353.71,-215.2 353.71,-215.2 356.79,-215.2 359.88,-218.29 359.88,-221.37 359.88,-221.37 359.88,-227.54 359.88,-227.54 359.88,-230.62 356.79,-233.7 353.71,-233.7"/>
<text text-anchor="start" x="263.38" y="-221.15" font-family="Helvetica,sans-Serif" font-size="9.00">UIOverlay.module.css</text>
</a>
</g>
</g>
<!-- src/ts/ui/overlay/UIOverlay.tsx&#45;&gt;src/ts/ui/overlay/UIOverlay.module.css -->
<g id="edge38" class="edge">
<title>src/ts/ui/overlay/UIOverlay.tsx&#45;&gt;src/ts/ui/overlay/UIOverlay.module.css</title>
<path fill="none" stroke="#000000" stroke-width="2" stroke-opacity="0.200000" d="M202.4,-253C209.36,-251.15 216.47,-248.7 222.75,-245.45 226.95,-243.28 226.5,-240.51 230.75,-238.45 235.74,-236.04 241.09,-234.04 246.56,-232.39"/>
<polygon fill="#000000" fill-opacity="0.200000" stroke="#000000" stroke-width="2" stroke-opacity="0.200000" points="247.05,-234.43 252.3,-230.84 245.96,-230.37 247.05,-234.43"/>
</g>
<!-- src/ts/ui/overlay/site&#45;control/UISiteControl.tsx -->
<g id="node38" class="node">
<title>src/ts/ui/overlay/site&#45;control/UISiteControl.tsx</title>
<g id="a_node38"><a xlink:href="src/ts/ui/overlay/site-control/UISiteControl.tsx" xlink:title="UISiteControl.tsx">
<path fill="#bbfeff" stroke="black" d="M343.58,-389.7C343.58,-389.7 271.67,-389.7 271.67,-389.7 268.58,-389.7 265.5,-386.62 265.5,-383.54 265.5,-383.54 265.5,-377.37 265.5,-377.37 265.5,-374.29 268.58,-371.2 271.67,-371.2 271.67,-371.2 343.58,-371.2 343.58,-371.2 346.67,-371.2 349.75,-374.29 349.75,-377.37 349.75,-377.37 349.75,-383.54 349.75,-383.54 349.75,-386.62 346.67,-389.7 343.58,-389.7"/>
<text text-anchor="start" x="273.5" y="-377.15" font-family="Helvetica,sans-Serif" font-size="9.00">UISiteControl.tsx</text>
</a>
</g>
</g>
<!-- src/ts/ui/overlay/UIOverlay.tsx&#45;&gt;src/ts/ui/overlay/site&#45;control/UISiteControl.tsx -->
<g id="edge36" class="edge">
<title>src/ts/ui/overlay/UIOverlay.tsx&#45;&gt;src/ts/ui/overlay/site&#45;control/UISiteControl.tsx</title>
<path fill="none" stroke="#000000" stroke-width="2" stroke-opacity="0.200000" d="M171.06,-268.11C177.29,-289.61 195.4,-341.47 230.75,-366.45 238.29,-371.78 247.28,-375.26 256.38,-377.49"/>
<polygon fill="#000000" fill-opacity="0.200000" stroke="#000000" stroke-width="2" stroke-opacity="0.200000" points="255.84,-379.52 262.14,-378.66 256.68,-375.41 255.84,-379.52"/>
</g>
<!-- src/ts/ui/overlay/surface/UIOverlaySurface.tsx -->
<g id="node39" class="node">
<title>src/ts/ui/overlay/surface/UIOverlaySurface.tsx</title>
<g id="a_node39"><a xlink:href="src/ts/ui/overlay/surface/UIOverlaySurface.tsx" xlink:title="UIOverlaySurface.tsx">
<path fill="#bbfeff" stroke="black" d="M352.21,-267.7C352.21,-267.7 263.04,-267.7 263.04,-267.7 259.96,-267.7 256.88,-264.62 256.88,-261.54 256.88,-261.54 256.88,-255.37 256.88,-255.37 256.88,-252.29 259.96,-249.2 263.04,-249.2 263.04,-249.2 352.21,-249.2 352.21,-249.2 355.29,-249.2 358.38,-252.29 358.38,-255.37 358.38,-255.37 358.38,-261.54 358.38,-261.54 358.38,-264.62 355.29,-267.7 352.21,-267.7"/>
<text text-anchor="start" x="264.88" y="-255.15" font-family="Helvetica,sans-Serif" font-size="9.00">UIOverlaySurface.tsx</text>
</a>
</g>
</g>
<!-- src/ts/ui/overlay/UIOverlay.tsx&#45;&gt;src/ts/ui/overlay/surface/UIOverlaySurface.tsx -->
<g id="edge37" class="edge">
<title>src/ts/ui/overlay/UIOverlay.tsx&#45;&gt;src/ts/ui/overlay/surface/UIOverlaySurface.tsx</title>
<path fill="none" stroke="#000000" stroke-width="2" stroke-opacity="0.200000" d="M202.29,-258.45C215.91,-258.45 232.03,-258.45 247.48,-258.45"/>
<polygon fill="#000000" fill-opacity="0.200000" stroke="#000000" stroke-width="2" stroke-opacity="0.200000" points="247.44,-260.55 253.44,-258.45 247.44,-256.35 247.44,-260.55"/>
</g>
<!-- src/ts/store/project/projectStore.ts -->
<g id="node9" class="node">
<title>src/ts/store/project/projectStore.ts</title>
<g id="a_node9"><a xlink:href="src/ts/store/project/projectStore.ts" xlink:title="projectStore.ts">
<path fill="#ddfeff" stroke="black" d="M774.58,-76.7C774.58,-76.7 712.42,-76.7 712.42,-76.7 709.33,-76.7 706.25,-73.62 706.25,-70.54 706.25,-70.54 706.25,-64.37 706.25,-64.37 706.25,-61.29 709.33,-58.2 712.42,-58.2 712.42,-58.2 774.58,-58.2 774.58,-58.2 777.67,-58.2 780.75,-61.29 780.75,-64.37 780.75,-64.37 780.75,-70.54 780.75,-70.54 780.75,-73.62 777.67,-76.7 774.58,-76.7"/>
<text text-anchor="start" x="714.25" y="-64.15" font-family="Helvetica,sans-Serif" font-size="9.00">projectStore.ts</text>
</a>
</g>
</g>
<!-- src/ts/ui/UIContainer.tsx&#45;&gt;src/ts/store/project/projectStore.ts -->
<g id="edge8" class="edge">
<title>src/ts/ui/UIContainer.tsx&#45;&gt;src/ts/store/project/projectStore.ts</title>
<path fill="none" stroke="#000000" stroke-width="2" stroke-opacity="0.200000" d="M193.79,-908.71C204.73,-903.09 216.46,-894.83 222.75,-883.45 241,-850.43 215.71,-239.05 230.75,-204.45 266.64,-121.85 293.66,-97.97 377.25,-64.45 485.2,-21.17 625.94,-41.44 697.09,-56.42"/>
<polygon fill="#000000" fill-opacity="0.200000" stroke="#000000" stroke-width="2" stroke-opacity="0.200000" points="696.56,-58.46 702.87,-57.67 697.44,-54.35 696.56,-58.46"/>
</g>
<!-- src/ts/ui/UIContainer.module.css -->
<g id="node14" class="node">
<title>src/ts/ui/UIContainer.module.css</title>
<g id="a_node14"><a xlink:href="src/ts/ui/UIContainer.module.css" xlink:title="UIContainer.module.css">
<path fill="#ffffcc" stroke="black" d="M358.21,-906.7C358.21,-906.7 257.04,-906.7 257.04,-906.7 253.96,-906.7 250.88,-903.62 250.88,-900.54 250.88,-900.54 250.88,-894.37 250.88,-894.37 250.88,-891.29 253.96,-888.2 257.04,-888.2 257.04,-888.2 358.21,-888.2 358.21,-888.2 361.29,-888.2 364.38,-891.29 364.38,-894.37 364.38,-894.37 364.38,-900.54 364.38,-900.54 364.38,-903.62 361.29,-906.7 358.21,-906.7"/>
<text text-anchor="start" x="258.88" y="-894.15" font-family="Helvetica,sans-Serif" font-size="9.00">UIContainer.module.css</text>
</a>
</g>
</g>
<!-- src/ts/ui/UIContainer.tsx&#45;&gt;src/ts/ui/UIContainer.module.css -->
<g id="edge12" class="edge">
<title>src/ts/ui/UIContainer.tsx&#45;&gt;src/ts/ui/UIContainer.module.css</title>
<path fill="none" stroke="#000000" stroke-width="2" stroke-opacity="0.200000" d="M206.98,-912.6C217.83,-910.95 229.95,-909.11 241.9,-907.29"/>
<polygon fill="#000000" fill-opacity="0.200000" stroke="#000000" stroke-width="2" stroke-opacity="0.200000" points="241.93,-909.41 247.55,-906.43 241.3,-905.26 241.93,-909.41"/>
</g>
<!-- src/ts/ui/site/footer/SiteFooter.tsx -->
<g id="node15" class="node">
<title>src/ts/ui/site/footer/SiteFooter.tsx</title>
<g id="a_node15"><a xlink:href="src/ts/ui/site/footer/SiteFooter.tsx" xlink:title="SiteFooter.tsx">
<path fill="#bbfeff" stroke="black" d="M336.83,-948.7C336.83,-948.7 278.42,-948.7 278.42,-948.7 275.33,-948.7 272.25,-945.62 272.25,-942.54 272.25,-942.54 272.25,-936.37 272.25,-936.37 272.25,-933.29 275.33,-930.2 278.42,-930.2 278.42,-930.2 336.83,-930.2 336.83,-930.2 339.92,-930.2 343,-933.29 343,-936.37 343,-936.37 343,-942.54 343,-942.54 343,-945.62 339.92,-948.7 336.83,-948.7"/>
<text text-anchor="start" x="280.25" y="-936.15" font-family="Helvetica,sans-Serif" font-size="9.00">SiteFooter.tsx</text>
</a>
</g>
</g>
<!-- src/ts/ui/UIContainer.tsx&#45;&gt;src/ts/ui/site/footer/SiteFooter.tsx -->
<g id="edge9" class="edge">
<title>src/ts/ui/UIContainer.tsx&#45;&gt;src/ts/ui/site/footer/SiteFooter.tsx</title>
<path fill="none" stroke="#000000" stroke-width="2" stroke-opacity="0.200000" d="M206.98,-924.3C224.54,-926.97 245.4,-930.15 263.5,-932.9"/>
<polygon fill="#000000" fill-opacity="0.200000" stroke="#000000" stroke-width="2" stroke-opacity="0.200000" points="262.89,-934.93 269.13,-933.75 263.52,-930.77 262.89,-934.93"/>
</g>
<!-- src/ts/ui/site/header/SiteHeader.tsx -->
<g id="node16" class="node">
<title>src/ts/ui/site/header/SiteHeader.tsx</title>
<g id="a_node16"><a xlink:href="src/ts/ui/site/header/SiteHeader.tsx" xlink:title="SiteHeader.tsx">
<path fill="#bbfeff" stroke="black" d="M339.08,-1009.7C339.08,-1009.7 276.17,-1009.7 276.17,-1009.7 273.08,-1009.7 270,-1006.62 270,-1003.54 270,-1003.54 270,-997.37 270,-997.37 270,-994.29 273.08,-991.2 276.17,-991.2 276.17,-991.2 339.08,-991.2 339.08,-991.2 342.17,-991.2 345.25,-994.29 345.25,-997.37 345.25,-997.37 345.25,-1003.54 345.25,-1003.54 345.25,-1006.62 342.17,-1009.7 339.08,-1009.7"/>
<text text-anchor="start" x="278" y="-997.15" font-family="Helvetica,sans-Serif" font-size="9.00">SiteHeader.tsx</text>
</a>
</g>
</g>
<!-- src/ts/ui/UIContainer.tsx&#45;&gt;src/ts/ui/site/header/SiteHeader.tsx -->
<g id="edge10" class="edge">
<title>src/ts/ui/UIContainer.tsx&#45;&gt;src/ts/ui/site/header/SiteHeader.tsx</title>
<path fill="none" stroke="#000000" stroke-width="2" stroke-opacity="0.200000" d="M175.87,-928.04C186.56,-941.29 207.62,-965.07 230.75,-978.45 240.02,-983.82 250.7,-987.96 261.07,-991.12"/>
<polygon fill="#000000" fill-opacity="0.200000" stroke="#000000" stroke-width="2" stroke-opacity="0.200000" points="260.4,-993.12 266.75,-992.73 261.55,-989.08 260.4,-993.12"/>
</g>
<!-- src/ts/ui/site/project/SiteProject.tsx -->
<g id="node17" class="node">
<title>src/ts/ui/site/project/SiteProject.tsx</title>
<g id="a_node17"><a xlink:href="src/ts/ui/site/project/SiteProject.tsx" xlink:title="SiteProject.tsx">
<path fill="#bbfeff" stroke="black" d="M338.33,-1117.7C338.33,-1117.7 276.92,-1117.7 276.92,-1117.7 273.83,-1117.7 270.75,-1114.62 270.75,-1111.54 270.75,-1111.54 270.75,-1105.37 270.75,-1105.37 270.75,-1102.29 273.83,-1099.2 276.92,-1099.2 276.92,-1099.2 338.33,-1099.2 338.33,-1099.2 341.42,-1099.2 344.5,-1102.29 344.5,-1105.37 344.5,-1105.37 344.5,-1111.54 344.5,-1111.54 344.5,-1114.62 341.42,-1117.7 338.33,-1117.7"/>
<text text-anchor="start" x="278.75" y="-1105.15" font-family="Helvetica,sans-Serif" font-size="9.00">SiteProject.tsx</text>
</a>
</g>
</g>
<!-- src/ts/ui/UIContainer.tsx&#45;&gt;src/ts/ui/site/project/SiteProject.tsx -->
<g id="edge11" class="edge">
<title>src/ts/ui/UIContainer.tsx&#45;&gt;src/ts/ui/site/project/SiteProject.tsx</title>
<path fill="none" stroke="#000000" stroke-width="2" stroke-opacity="0.200000" d="M172.01,-927.91C180.18,-949.19 202.01,-1001.95 230.75,-1039.45 246.91,-1060.53 269.99,-1080.47 286.45,-1093.44"/>
<polygon fill="#000000" fill-opacity="0.200000" stroke="#000000" stroke-width="2" stroke-opacity="0.200000" points="285.07,-1095.03 291.1,-1097.04 287.64,-1091.71 285.07,-1095.03"/>
</g>
<!-- src/ts/hook/useScrollProgress.ts -->
<g id="node5" class="node">
<title>src/ts/hook/useScrollProgress.ts</title>
<g id="a_node5"><a xlink:href="src/ts/hook/useScrollProgress.ts" xlink:title="useScrollProgress.ts">
<path fill="#ddfeff" stroke="black" d="M632.46,-164.7C632.46,-164.7 544.79,-164.7 544.79,-164.7 541.71,-164.7 538.62,-161.62 538.62,-158.54 538.62,-158.54 538.62,-152.37 538.62,-152.37 538.62,-149.29 541.71,-146.2 544.79,-146.2 544.79,-146.2 632.46,-146.2 632.46,-146.2 635.54,-146.2 638.62,-149.29 638.62,-152.37 638.62,-152.37 638.62,-158.54 638.62,-158.54 638.62,-161.62 635.54,-164.7 632.46,-164.7"/>
<text text-anchor="start" x="546.62" y="-152.15" font-family="Helvetica,sans-Serif" font-size="9.00">useScrollProgress.ts</text>
</a>
</g>
</g>
<!-- src/ts/motion/duration.ts -->
<g id="node6" class="node">
<title>src/ts/motion/duration.ts</title>
<g id="a_node6"><a xlink:href="src/ts/motion/duration.ts" xlink:title="duration.ts">
<path fill="#ddfeff" stroke="black" d="M911.71,-1575.7C911.71,-1575.7 865.29,-1575.7 865.29,-1575.7 862.21,-1575.7 859.12,-1572.62 859.12,-1569.54 859.12,-1569.54 859.12,-1563.37 859.12,-1563.37 859.12,-1560.29 862.21,-1557.2 865.29,-1557.2 865.29,-1557.2 911.71,-1557.2 911.71,-1557.2 914.79,-1557.2 917.88,-1560.29 917.88,-1563.37 917.88,-1563.37 917.88,-1569.54 917.88,-1569.54 917.88,-1572.62 914.79,-1575.7 911.71,-1575.7"/>
<text text-anchor="start" x="867.12" y="-1563.15" font-family="Helvetica,sans-Serif" font-size="9.00">duration.ts</text>
</a>
</g>
</g>
<!-- src/ts/motion/ease.ts -->
<g id="node7" class="node">
<title>src/ts/motion/ease.ts</title>
<g id="a_node7"><a xlink:href="src/ts/motion/ease.ts" xlink:title="ease.ts">
<path fill="#ddfeff" stroke="black" d="M764.33,-1560.7C764.33,-1560.7 722.67,-1560.7 722.67,-1560.7 719.58,-1560.7 716.5,-1557.62 716.5,-1554.54 716.5,-1554.54 716.5,-1548.37 716.5,-1548.37 716.5,-1545.29 719.58,-1542.2 722.67,-1542.2 722.67,-1542.2 764.33,-1542.2 764.33,-1542.2 767.42,-1542.2 770.5,-1545.29 770.5,-1548.37 770.5,-1548.37 770.5,-1554.54 770.5,-1554.54 770.5,-1557.62 767.42,-1560.7 764.33,-1560.7"/>
<text text-anchor="start" x="728.88" y="-1548.15" font-family="Helvetica,sans-Serif" font-size="9.00">ease.ts</text>
</a>
</g>
</g>
<!-- src/ts/motion/fade.ts -->
<g id="node8" class="node">
<title>src/ts/motion/fade.ts</title>
<g id="a_node8"><a xlink:href="src/ts/motion/fade.ts" xlink:title="fade.ts">
<path fill="#ddfeff" stroke="black" d="M764.33,-1591.7C764.33,-1591.7 722.67,-1591.7 722.67,-1591.7 719.58,-1591.7 716.5,-1588.62 716.5,-1585.54 716.5,-1585.54 716.5,-1579.37 716.5,-1579.37 716.5,-1576.29 719.58,-1573.2 722.67,-1573.2 722.67,-1573.2 764.33,-1573.2 764.33,-1573.2 767.42,-1573.2 770.5,-1576.29 770.5,-1579.37 770.5,-1579.37 770.5,-1585.54 770.5,-1585.54 770.5,-1588.62 767.42,-1591.7 764.33,-1591.7"/>
<text text-anchor="start" x="730" y="-1579.15" font-family="Helvetica,sans-Serif" font-size="9.00">fade.ts</text>
</a>
</g>
</g>
<!-- src/ts/motion/fade.ts&#45;&gt;src/ts/motion/duration.ts -->
<g id="edge4" class="edge">
<title>src/ts/motion/fade.ts&#45;&gt;src/ts/motion/duration.ts</title>
<path fill="none" stroke="#000000" stroke-width="2" stroke-opacity="0.200000" d="M770.73,-1579.52C792.99,-1577.03 825.2,-1573.42 850.15,-1570.63"/>
<polygon fill="#000000" fill-opacity="0.200000" stroke="#000000" stroke-width="2" stroke-opacity="0.200000" points="850.25,-1572.73 855.98,-1569.98 849.78,-1568.56 850.25,-1572.73"/>
</g>
<!-- src/ts/store/uiState/uiStateStore.ts -->
<g id="node10" class="node">
<title>src/ts/store/uiState/uiStateStore.ts</title>
<g id="a_node10"><a xlink:href="src/ts/store/uiState/uiStateStore.ts" xlink:title="uiStateStore.ts">
<path fill="#ddfeff" stroke="black" d="M774.96,-137.7C774.96,-137.7 712.04,-137.7 712.04,-137.7 708.96,-137.7 705.88,-134.62 705.88,-131.54 705.88,-131.54 705.88,-125.37 705.88,-125.37 705.88,-122.29 708.96,-119.2 712.04,-119.2 712.04,-119.2 774.96,-119.2 774.96,-119.2 778.04,-119.2 781.12,-122.29 781.12,-125.37 781.12,-125.37 781.12,-131.54 781.12,-131.54 781.12,-134.62 778.04,-137.7 774.96,-137.7"/>
<text text-anchor="start" x="713.88" y="-125.15" font-family="Helvetica,sans-Serif" font-size="9.00">uiStateStore.ts</text>
</a>
</g>
</g>
<!-- src/ts/types/index.ts -->
<g id="node11" class="node">
<title>src/ts/types/index.ts</title>
<g id="a_node11"><a xlink:href="src/ts/types/index.ts" xlink:title="index.ts">
<path fill="#ddfeff" stroke="black" d="M909.33,-144.7C909.33,-144.7 867.67,-144.7 867.67,-144.7 864.58,-144.7 861.5,-141.62 861.5,-138.54 861.5,-138.54 861.5,-132.37 861.5,-132.37 861.5,-129.29 864.58,-126.2 867.67,-126.2 867.67,-126.2 909.33,-126.2 909.33,-126.2 912.42,-126.2 915.5,-129.29 915.5,-132.37 915.5,-132.37 915.5,-138.54 915.5,-138.54 915.5,-141.62 912.42,-144.7 909.33,-144.7"/>
<text text-anchor="start" x="872.75" y="-132.15" font-family="Helvetica,sans-Serif" font-size="9.00">index.ts</text>
</a>
</g>
</g>
<!-- src/ts/store/uiState/uiStateStore.ts&#45;&gt;src/ts/types/index.ts -->
<g id="edge5" class="edge">
<title>src/ts/store/uiState/uiStateStore.ts&#45;&gt;src/ts/types/index.ts</title>
<path fill="none" stroke="#000000" stroke-width="2" stroke-opacity="0.200000" d="M781.33,-130.26C803.19,-131.33 830.77,-132.68 852.34,-133.73"/>
<polygon fill="#000000" fill-opacity="0.200000" stroke="#000000" stroke-width="2" stroke-opacity="0.200000" points="852.06,-135.82 858.16,-134.02 852.27,-131.63 852.06,-135.82"/>
</g>
<!-- src/ts/types/project.ts -->
<g id="node12" class="node">
<title>src/ts/types/project.ts</title>
<g id="a_node12"><a xlink:href="src/ts/types/project.ts" xlink:title="project.ts">
<path fill="#ddfeff" stroke="black" d="M1043.58,-120.7C1043.58,-120.7 1001.92,-120.7 1001.92,-120.7 998.83,-120.7 995.75,-117.62 995.75,-114.54 995.75,-114.54 995.75,-108.37 995.75,-108.37 995.75,-105.29 998.83,-102.2 1001.92,-102.2 1001.92,-102.2 1043.58,-102.2 1043.58,-102.2 1046.67,-102.2 1049.75,-105.29 1049.75,-108.37 1049.75,-108.37 1049.75,-114.54 1049.75,-114.54 1049.75,-117.62 1046.67,-120.7 1043.58,-120.7"/>
<text text-anchor="start" x="1004.38" y="-108.15" font-family="Helvetica,sans-Serif" font-size="9.00">project.ts</text>
</a>
</g>
</g>
<!-- src/ts/types/index.ts&#45;&gt;src/ts/types/project.ts -->
<g id="edge6" class="edge">
<title>src/ts/types/index.ts&#45;&gt;src/ts/types/project.ts</title>
<path fill="none" stroke="#000000" stroke-width="2" stroke-opacity="0.200000" d="M915.94,-130.65C936.76,-126.88 965.89,-121.59 988.32,-117.52"/>
<polygon fill="#000000" fill-opacity="0.200000" stroke="#000000" stroke-width="2" stroke-opacity="0.200000" points="994.74,-118.49 988.46,-117.49 993.99,-114.36 994.74,-118.49"/>
</g>
<!-- src/ts/types/theme.ts -->
<g id="node13" class="node">
<title>src/ts/types/theme.ts</title>
<g id="a_node13"><a xlink:href="src/ts/types/theme.ts" xlink:title="theme.ts">
<path fill="#ddfeff" stroke="black" d="M1043.58,-151.7C1043.58,-151.7 1001.92,-151.7 1001.92,-151.7 998.83,-151.7 995.75,-148.62 995.75,-145.54 995.75,-145.54 995.75,-139.37 995.75,-139.37 995.75,-136.29 998.83,-133.2 1001.92,-133.2 1001.92,-133.2 1043.58,-133.2 1043.58,-133.2 1046.67,-133.2 1049.75,-136.29 1049.75,-139.37 1049.75,-139.37 1049.75,-145.54 1049.75,-145.54 1049.75,-148.62 1046.67,-151.7 1043.58,-151.7"/>
<text text-anchor="start" x="1005.5" y="-139.15" font-family="Helvetica,sans-Serif" font-size="9.00">theme.ts</text>
</a>
</g>
</g>
<!-- src/ts/types/index.ts&#45;&gt;src/ts/types/theme.ts -->
<g id="edge7" class="edge">
<title>src/ts/types/index.ts&#45;&gt;src/ts/types/theme.ts</title>
<path fill="none" stroke="#000000" stroke-width="2" stroke-opacity="0.200000" d="M915.94,-136.85C936.76,-137.95 965.89,-139.5 988.32,-140.68"/>
<polygon fill="#000000" fill-opacity="0.200000" stroke="#000000" stroke-width="2" stroke-opacity="0.200000" points="994.24,-143.1 988.36,-140.69 994.46,-138.91 994.24,-143.1"/>
</g>
<!-- src/ts/ui/component/button/text/ButtonText.tsx -->
<g id="node29" class="node">
<title>src/ts/ui/component/button/text/ButtonText.tsx</title>
<g id="a_node29"><a xlink:href="src/ts/ui/component/button/text/ButtonText.tsx" xlink:title="ButtonText.tsx">
<path fill="#bbfeff" stroke="black" d="M618.58,-1235.7C618.58,-1235.7 558.67,-1235.7 558.67,-1235.7 555.58,-1235.7 552.5,-1232.62 552.5,-1229.54 552.5,-1229.54 552.5,-1223.37 552.5,-1223.37 552.5,-1220.29 555.58,-1217.2 558.67,-1217.2 558.67,-1217.2 618.58,-1217.2 618.58,-1217.2 621.67,-1217.2 624.75,-1220.29 624.75,-1223.37 624.75,-1223.37 624.75,-1229.54 624.75,-1229.54 624.75,-1232.62 621.67,-1235.7 618.58,-1235.7"/>
<text text-anchor="start" x="560.5" y="-1223.15" font-family="Helvetica,sans-Serif" font-size="9.00">ButtonText.tsx</text>
</a>
</g>
</g>
<!-- src/ts/ui/site/footer/SiteFooter.tsx&#45;&gt;src/ts/ui/component/button/text/ButtonText.tsx -->
<g id="edge52" class="edge">
<title>src/ts/ui/site/footer/SiteFooter.tsx&#45;&gt;src/ts/ui/component/button/text/ButtonText.tsx</title>
<path fill="none" stroke="#000000" stroke-width="2" stroke-opacity="0.200000" d="M332.82,-949.07C346.11,-955.74 361.45,-966.04 369.25,-980.45 382.34,-1004.64 357.65,-1456.16 377.25,-1475.45 399.11,-1496.96 493,-1496.56 515.25,-1475.45 529.86,-1461.59 516.92,-1313.01 524.75,-1294.45 533.83,-1272.94 552.84,-1253.95 567.6,-1241.54"/>
<polygon fill="#000000" fill-opacity="0.200000" stroke="#000000" stroke-width="2" stroke-opacity="0.200000" points="568.75,-1243.32 572.08,-1237.91 566.1,-1240.05 568.75,-1243.32"/>
</g>
<!-- src/ts/ui/site/footer/SiteFooter.module.css -->
<g id="node47" class="node">
<title>src/ts/ui/site/footer/SiteFooter.module.css</title>
<g id="a_node47"><a xlink:href="src/ts/ui/site/footer/SiteFooter.module.css" xlink:title="SiteFooter.module.css">
<path fill="#ffffcc" stroke="black" d="M498.83,-948.7C498.83,-948.7 405.17,-948.7 405.17,-948.7 402.08,-948.7 399,-945.62 399,-942.54 399,-942.54 399,-936.37 399,-936.37 399,-933.29 402.08,-930.2 405.17,-930.2 405.17,-930.2 498.83,-930.2 498.83,-930.2 501.92,-930.2 505,-933.29 505,-936.37 505,-936.37 505,-942.54 505,-942.54 505,-945.62 501.92,-948.7 498.83,-948.7"/>
<text text-anchor="start" x="407" y="-936.15" font-family="Helvetica,sans-Serif" font-size="9.00">SiteFooter.module.css</text>
</a>
</g>
</g>
<!-- src/ts/ui/site/footer/SiteFooter.tsx&#45;&gt;src/ts/ui/site/footer/SiteFooter.module.css -->
<g id="edge53" class="edge">
<title>src/ts/ui/site/footer/SiteFooter.tsx&#45;&gt;src/ts/ui/site/footer/SiteFooter.module.css</title>
<path fill="none" stroke="#000000" stroke-width="2" stroke-opacity="0.200000" d="M343.45,-939.45C357.48,-939.45 374.09,-939.45 390.01,-939.45"/>
<polygon fill="#000000" fill-opacity="0.200000" stroke="#000000" stroke-width="2" stroke-opacity="0.200000" points="389.73,-941.55 395.73,-939.45 389.73,-937.35 389.73,-941.55"/>
</g>
<!-- src/ts/ui/site/header/SiteHeader.module.css -->
<g id="node48" class="node">
<title>src/ts/ui/site/header/SiteHeader.module.css</title>
<g id="a_node48"><a xlink:href="src/ts/ui/site/header/SiteHeader.module.css" xlink:title="SiteHeader.module.css">
<path fill="#ffffcc" stroke="black" d="M501.08,-1009.7C501.08,-1009.7 402.92,-1009.7 402.92,-1009.7 399.83,-1009.7 396.75,-1006.62 396.75,-1003.54 396.75,-1003.54 396.75,-997.37 396.75,-997.37 396.75,-994.29 399.83,-991.2 402.92,-991.2 402.92,-991.2 501.08,-991.2 501.08,-991.2 504.17,-991.2 507.25,-994.29 507.25,-997.37 507.25,-997.37 507.25,-1003.54 507.25,-1003.54 507.25,-1006.62 504.17,-1009.7 501.08,-1009.7"/>
<text text-anchor="start" x="404.75" y="-997.15" font-family="Helvetica,sans-Serif" font-size="9.00">SiteHeader.module.css</text>
</a>
</g>
</g>
<!-- src/ts/ui/site/header/SiteHeader.tsx&#45;&gt;src/ts/ui/site/header/SiteHeader.module.css -->
<g id="edge54" class="edge">
<title>src/ts/ui/site/header/SiteHeader.tsx&#45;&gt;src/ts/ui/site/header/SiteHeader.module.css</title>
<path fill="none" stroke="#000000" stroke-width="2" stroke-opacity="0.200000" d="M345.66,-1000.45C358.49,-1000.45 373.25,-1000.45 387.59,-1000.45"/>
<polygon fill="#000000" fill-opacity="0.200000" stroke="#000000" stroke-width="2" stroke-opacity="0.200000" points="387.42,-1002.55 393.42,-1000.45 387.42,-998.35 387.42,-1002.55"/>
</g>
<!-- src/ts/ui/site/project/SiteProject.tsx&#45;&gt;src/ts/motion/duration.ts -->
<g id="edge55" class="edge">
<title>src/ts/ui/site/project/SiteProject.tsx&#45;&gt;src/ts/motion/duration.ts</title>
<path fill="none" stroke="#000000" stroke-width="2" stroke-opacity="0.200000" d="M308.8,-1118.09C310.01,-1175.62 319.09,-1473.33 377.25,-1538.45 507.5,-1684.3 621.52,-1635.87 813.25,-1597.45 830.2,-1594.06 848.1,-1586.7 862.09,-1580.01"/>
<polygon fill="#000000" fill-opacity="0.200000" stroke="#000000" stroke-width="2" stroke-opacity="0.200000" points="862.67,-1582.07 867.12,-1577.52 860.81,-1578.3 862.67,-1582.07"/>
</g>
<!-- src/ts/ui/site/project/SiteProject.tsx&#45;&gt;src/ts/motion/ease.ts -->
<g id="edge56" class="edge">
<title>src/ts/ui/site/project/SiteProject.tsx&#45;&gt;src/ts/motion/ease.ts</title>
<path fill="none" stroke="#000000" stroke-width="2" stroke-opacity="0.200000" d="M308.82,-1118.13C310.12,-1173.36 319.49,-1448.04 377.25,-1503.45 467.98,-1590.5 634.76,-1572.16 707.28,-1558.96"/>
<polygon fill="#000000" fill-opacity="0.200000" stroke="#000000" stroke-width="2" stroke-opacity="0.200000" points="707.57,-1561.04 713.08,-1557.87 706.79,-1556.92 707.57,-1561.04"/>
</g>
<!-- src/ts/ui/component/viewer/MediaViewer.tsx -->
<g id="node32" class="node">
<title>src/ts/ui/component/viewer/MediaViewer.tsx</title>
<g id="a_node32"><a xlink:href="src/ts/ui/component/viewer/MediaViewer.tsx" xlink:title="MediaViewer.tsx">
<path fill="#bbfeff" stroke="black" d="M623.83,-1431.7C623.83,-1431.7 553.42,-1431.7 553.42,-1431.7 550.33,-1431.7 547.25,-1428.62 547.25,-1425.54 547.25,-1425.54 547.25,-1419.37 547.25,-1419.37 547.25,-1416.29 550.33,-1413.2 553.42,-1413.2 553.42,-1413.2 623.83,-1413.2 623.83,-1413.2 626.92,-1413.2 630,-1416.29 630,-1419.37 630,-1419.37 630,-1425.54 630,-1425.54 630,-1428.62 626.92,-1431.7 623.83,-1431.7"/>
<text text-anchor="start" x="555.25" y="-1419.15" font-family="Helvetica,sans-Serif" font-size="9.00">MediaViewer.tsx</text>
</a>
</g>
</g>
<!-- src/ts/ui/site/project/SiteProject.tsx&#45;&gt;src/ts/ui/component/viewer/MediaViewer.tsx -->
<g id="edge57" class="edge">
<title>src/ts/ui/site/project/SiteProject.tsx&#45;&gt;src/ts/ui/component/viewer/MediaViewer.tsx</title>
<path fill="none" stroke="#000000" stroke-width="2" stroke-opacity="0.200000" d="M308.78,-1117.86C309.87,-1171.52 318.23,-1438.16 377.25,-1487.45 424.32,-1526.77 457.98,-1509.4 515.25,-1487.45 540.69,-1477.71 562.8,-1454.44 575.68,-1438.56"/>
<polygon fill="#000000" fill-opacity="0.200000" stroke="#000000" stroke-width="2" stroke-opacity="0.200000" points="577.02,-1440.26 579.06,-1434.24 573.71,-1437.67 577.02,-1440.26"/>
</g>
<!-- src/ts/ui/site/project/SiteProject.module.css -->
<g id="node49" class="node">
<title>src/ts/ui/site/project/SiteProject.module.css</title>
<g id="a_node49"><a xlink:href="src/ts/ui/site/project/SiteProject.module.css" xlink:title="SiteProject.module.css">
<path fill="#ffffcc" stroke="black" d="M500.33,-1070.7C500.33,-1070.7 403.67,-1070.7 403.67,-1070.7 400.58,-1070.7 397.5,-1067.62 397.5,-1064.54 397.5,-1064.54 397.5,-1058.37 397.5,-1058.37 397.5,-1055.29 400.58,-1052.2 403.67,-1052.2 403.67,-1052.2 500.33,-1052.2 500.33,-1052.2 503.42,-1052.2 506.5,-1055.29 506.5,-1058.37 506.5,-1058.37 506.5,-1064.54 506.5,-1064.54 506.5,-1067.62 503.42,-1070.7 500.33,-1070.7"/>
<text text-anchor="start" x="405.5" y="-1058.15" font-family="Helvetica,sans-Serif" font-size="9.00">SiteProject.module.css</text>
</a>
</g>
</g>
<!-- src/ts/ui/site/project/SiteProject.tsx&#45;&gt;src/ts/ui/site/project/SiteProject.module.css -->
<g id="edge58" class="edge">
<title>src/ts/ui/site/project/SiteProject.tsx&#45;&gt;src/ts/ui/site/project/SiteProject.module.css</title>
<path fill="none" stroke="#000000" stroke-width="2" stroke-opacity="0.200000" d="M325.59,-1098.75C339.17,-1091.37 358.92,-1081.49 377.25,-1075.45 380.9,-1074.25 384.69,-1073.14 388.53,-1072.12"/>
<polygon fill="#000000" fill-opacity="0.200000" stroke="#000000" stroke-width="2" stroke-opacity="0.200000" points="388.76,-1074.23 394.07,-1070.74 387.74,-1070.15 388.76,-1074.23"/>
</g>
<!-- src/ts/ui/site/project/text/SiteProjectText.tsx -->
<g id="node50" class="node">
<title>src/ts/ui/site/project/text/SiteProjectText.tsx</title>
<g id="a_node50"><a xlink:href="src/ts/ui/site/project/text/SiteProjectText.tsx" xlink:title="SiteProjectText.tsx">
<path fill="#bbfeff" stroke="black" d="M490.96,-1104.7C490.96,-1104.7 413.04,-1104.7 413.04,-1104.7 409.96,-1104.7 406.88,-1101.62 406.88,-1098.54 406.88,-1098.54 406.88,-1092.37 406.88,-1092.37 406.88,-1089.29 409.96,-1086.2 413.04,-1086.2 413.04,-1086.2 490.96,-1086.2 490.96,-1086.2 494.04,-1086.2 497.12,-1089.29 497.12,-1092.37 497.12,-1092.37 497.12,-1098.54 497.12,-1098.54 497.12,-1101.62 494.04,-1104.7 490.96,-1104.7"/>
<text text-anchor="start" x="414.88" y="-1092.15" font-family="Helvetica,sans-Serif" font-size="9.00">SiteProjectText.tsx</text>
</a>
</g>
</g>
<!-- src/ts/ui/site/project/SiteProject.tsx&#45;&gt;src/ts/ui/site/project/text/SiteProjectText.tsx -->
<g id="edge59" class="edge">
<title>src/ts/ui/site/project/SiteProject.tsx&#45;&gt;src/ts/ui/site/project/text/SiteProjectText.tsx</title>
<path fill="none" stroke="#000000" stroke-width="2" stroke-opacity="0.200000" d="M344.92,-1105.14C361.06,-1103.66 380.39,-1101.9 398.09,-1100.28"/>
<polygon fill="#000000" fill-opacity="0.200000" stroke="#000000" stroke-width="2" stroke-opacity="0.200000" points="397.83,-1102.42 403.62,-1099.78 397.45,-1098.23 397.83,-1102.42"/>
</g>
<!-- src/ts/ui/background/BackgroundController.ts -->
<g id="node18" class="node">
<title>src/ts/ui/background/BackgroundController.ts</title>
<g id="a_node18"><a xlink:href="src/ts/ui/background/BackgroundController.ts" xlink:title="BackgroundController.ts">
<path fill="#ddfeff" stroke="black" d="M358.58,-611.7C358.58,-611.7 256.67,-611.7 256.67,-611.7 253.58,-611.7 250.5,-608.62 250.5,-605.54 250.5,-605.54 250.5,-599.37 250.5,-599.37 250.5,-596.29 253.58,-593.2 256.67,-593.2 256.67,-593.2 358.58,-593.2 358.58,-593.2 361.67,-593.2 364.75,-596.29 364.75,-599.37 364.75,-599.37 364.75,-605.54 364.75,-605.54 364.75,-608.62 361.67,-611.7 358.58,-611.7"/>
<text text-anchor="start" x="258.5" y="-599.15" font-family="Helvetica,sans-Serif" font-size="9.00">BackgroundController.ts</text>
</a>
</g>
</g>
<!-- src/ts/ui/background/BackgroundController.ts&#45;&gt;src/ts/store/uiState/uiStateStore.ts -->
<g id="edge13" class="edge">
<title>src/ts/ui/background/BackgroundController.ts&#45;&gt;src/ts/store/uiState/uiStateStore.ts</title>
<path fill="none" stroke="#000000" stroke-width="2" stroke-opacity="0.200000" d="M317.76,-592.79C331.87,-577.15 358.48,-544.68 369.25,-511.45 383.24,-468.3 362.08,-350.21 377.25,-307.45 413.82,-204.37 426.94,-159.41 524.75,-110.45 584.85,-80.37 666.07,-100.55 710.38,-115.83"/>
<polygon fill="#000000" fill-opacity="0.200000" stroke="#000000" stroke-width="2" stroke-opacity="0.200000" points="709.53,-117.76 715.88,-117.79 710.94,-113.8 709.53,-117.76"/>
</g>
<!-- src/ts/ui/background/camera/CameraController.ts -->
<g id="node19" class="node">
<title>src/ts/ui/background/camera/CameraController.ts</title>
<g id="a_node19"><a xlink:href="src/ts/ui/background/camera/CameraController.ts" xlink:title="CameraController.ts">
<path fill="#ddfeff" stroke="black" d="M494.71,-577.7C494.71,-577.7 409.29,-577.7 409.29,-577.7 406.21,-577.7 403.12,-574.62 403.12,-571.54 403.12,-571.54 403.12,-565.37 403.12,-565.37 403.12,-562.29 406.21,-559.2 409.29,-559.2 409.29,-559.2 494.71,-559.2 494.71,-559.2 497.79,-559.2 500.88,-562.29 500.88,-565.37 500.88,-565.37 500.88,-571.54 500.88,-571.54 500.88,-574.62 497.79,-577.7 494.71,-577.7"/>
<text text-anchor="start" x="411.12" y="-565.15" font-family="Helvetica,sans-Serif" font-size="9.00">CameraController.ts</text>
</a>
</g>
</g>
<!-- src/ts/ui/background/BackgroundController.ts&#45;&gt;src/ts/ui/background/camera/CameraController.ts -->
<g id="edge14" class="edge">
<title>src/ts/ui/background/BackgroundController.ts&#45;&gt;src/ts/ui/background/camera/CameraController.ts</title>
<path fill="none" stroke="#000000" stroke-width="2" stroke-opacity="0.200000" d="M349.42,-592.71C365.66,-588.83 384.49,-584.34 401.49,-580.28"/>
<polygon fill="#000000" fill-opacity="0.200000" stroke="#000000" stroke-width="2" stroke-opacity="0.200000" points="401.9,-582.34 407.25,-578.9 400.93,-578.25 401.9,-582.34"/>
</g>
<!-- src/ts/ui/background/content/ContentController.ts -->
<g id="node20" class="node">
<title>src/ts/ui/background/content/ContentController.ts</title>
<g id="a_node20"><a xlink:href="src/ts/ui/background/content/ContentController.ts" xlink:title="ContentController.ts">
<path fill="#ddfeff" stroke="black" d="M494.33,-646.7C494.33,-646.7 409.67,-646.7 409.67,-646.7 406.58,-646.7 403.5,-643.62 403.5,-640.54 403.5,-640.54 403.5,-634.37 403.5,-634.37 403.5,-631.29 406.58,-628.2 409.67,-628.2 409.67,-628.2 494.33,-628.2 494.33,-628.2 497.42,-628.2 500.5,-631.29 500.5,-634.37 500.5,-634.37 500.5,-640.54 500.5,-640.54 500.5,-643.62 497.42,-646.7 494.33,-646.7"/>
<text text-anchor="start" x="411.5" y="-634.15" font-family="Helvetica,sans-Serif" font-size="9.00">ContentController.ts</text>
</a>
</g>
</g>
<!-- src/ts/ui/background/BackgroundController.ts&#45;&gt;src/ts/ui/background/content/ContentController.ts -->
<g id="edge15" class="edge">
<title>src/ts/ui/background/BackgroundController.ts&#45;&gt;src/ts/ui/background/content/ContentController.ts</title>
<path fill="none" stroke="#000000" stroke-width="2" stroke-opacity="0.200000" d="M348.28,-612.2C365.25,-616.37 385.22,-621.28 403.02,-625.66"/>
<polygon fill="#000000" fill-opacity="0.200000" stroke="#000000" stroke-width="2" stroke-opacity="0.200000" points="402.29,-627.64 408.61,-627.03 403.29,-623.56 402.29,-627.64"/>
</g>
<!-- src/ts/ui/background/light/LightController.ts -->
<g id="node21" class="node">
<title>src/ts/ui/background/light/LightController.ts</title>
<g id="a_node21"><a xlink:href="src/ts/ui/background/light/LightController.ts" xlink:title="LightController.ts">
<path fill="#ddfeff" stroke="black" d="M488.33,-765.7C488.33,-765.7 415.67,-765.7 415.67,-765.7 412.58,-765.7 409.5,-762.62 409.5,-759.54 409.5,-759.54 409.5,-753.37 409.5,-753.37 409.5,-750.29 412.58,-747.2 415.67,-747.2 415.67,-747.2 488.33,-747.2 488.33,-747.2 491.42,-747.2 494.5,-750.29 494.5,-753.37 494.5,-753.37 494.5,-759.54 494.5,-759.54 494.5,-762.62 491.42,-765.7 488.33,-765.7"/>
<text text-anchor="start" x="417.5" y="-753.15" font-family="Helvetica,sans-Serif" font-size="9.00">LightController.ts</text>
</a>
</g>
</g>
<!-- src/ts/ui/background/BackgroundController.ts&#45;&gt;src/ts/ui/background/light/LightController.ts -->
<g id="edge16" class="edge">
<title>src/ts/ui/background/BackgroundController.ts&#45;&gt;src/ts/ui/background/light/LightController.ts</title>
<path fill="none" stroke="#000000" stroke-width="2" stroke-opacity="0.200000" d="M362.35,-612.14C364.9,-613.93 367.24,-616.02 369.25,-618.45 385.71,-638.37 361.11,-714.28 377.25,-734.45 383.26,-741.96 391.72,-746.99 400.77,-750.33"/>
<polygon fill="#000000" fill-opacity="0.200000" stroke="#000000" stroke-width="2" stroke-opacity="0.200000" points="399.96,-752.28 406.32,-752.06 401.21,-748.27 399.96,-752.28"/>
</g>
<!-- src/ts/ui/background/render/RenderController.ts -->
<g id="node22" class="node">
<title>src/ts/ui/background/render/RenderController.ts</title>
<g id="a_node22"><a xlink:href="src/ts/ui/background/render/RenderController.ts" xlink:title="RenderController.ts">
<path fill="#ddfeff" stroke="black" d="M493.58,-826.7C493.58,-826.7 410.42,-826.7 410.42,-826.7 407.33,-826.7 404.25,-823.62 404.25,-820.54 404.25,-820.54 404.25,-814.37 404.25,-814.37 404.25,-811.29 407.33,-808.2 410.42,-808.2 410.42,-808.2 493.58,-808.2 493.58,-808.2 496.67,-808.2 499.75,-811.29 499.75,-814.37 499.75,-814.37 499.75,-820.54 499.75,-820.54 499.75,-823.62 496.67,-826.7 493.58,-826.7"/>
<text text-anchor="start" x="412.25" y="-814.15" font-family="Helvetica,sans-Serif" font-size="9.00">RenderController.ts</text>
</a>
</g>
</g>
<!-- src/ts/ui/background/BackgroundController.ts&#45;&gt;src/ts/ui/background/render/RenderController.ts -->
<g id="edge17" class="edge">
<title>src/ts/ui/background/BackgroundController.ts&#45;&gt;src/ts/ui/background/render/RenderController.ts</title>
<path fill="none" stroke="#000000" stroke-width="2" stroke-opacity="0.200000" d="M362.42,-612.09C364.96,-613.89 367.27,-616 369.25,-618.45 381.61,-633.77 365.13,-779.94 377.25,-795.45 382.14,-801.72 388.74,-806.26 395.99,-809.54"/>
<polygon fill="#000000" fill-opacity="0.200000" stroke="#000000" stroke-width="2" stroke-opacity="0.200000" points="394.88,-811.36 401.24,-811.54 396.38,-807.44 394.88,-811.36"/>
</g>
<!-- src/ts/ui/background/content/cursor/Cursor.ts -->
<g id="node25" class="node">
<title>src/ts/ui/background/content/cursor/Cursor.ts</title>
<g id="a_node25"><a xlink:href="src/ts/ui/background/content/cursor/Cursor.ts" xlink:title="Cursor.ts">
<path fill="#ddfeff" stroke="black" d="M609.46,-677.7C609.46,-677.7 567.79,-677.7 567.79,-677.7 564.71,-677.7 561.62,-674.62 561.62,-671.54 561.62,-671.54 561.62,-665.37 561.62,-665.37 561.62,-662.29 564.71,-659.2 567.79,-659.2 567.79,-659.2 609.46,-659.2 609.46,-659.2 612.54,-659.2 615.62,-662.29 615.62,-665.37 615.62,-665.37 615.62,-671.54 615.62,-671.54 615.62,-674.62 612.54,-677.7 609.46,-677.7"/>
<text text-anchor="start" x="570.62" y="-665.15" font-family="Helvetica,sans-Serif" font-size="9.00">Cursor.ts</text>
</a>
</g>
</g>
<!-- src/ts/ui/background/content/ContentController.ts&#45;&gt;src/ts/ui/background/content/cursor/Cursor.ts -->
<g id="edge21" class="edge">
<title>src/ts/ui/background/content/ContentController.ts&#45;&gt;src/ts/ui/background/content/cursor/Cursor.ts</title>
<path fill="none" stroke="#000000" stroke-width="2" stroke-opacity="0.200000" d="M495.23,-647.18C513.61,-651.41 534.91,-656.32 552.43,-660.35"/>
<polygon fill="#000000" fill-opacity="0.200000" stroke="#000000" stroke-width="2" stroke-opacity="0.200000" points="551.93,-662.39 558.25,-661.69 552.88,-658.3 551.93,-662.39"/>
</g>
<!-- src/ts/ui/background/content/cursor/CursorController.ts -->
<g id="node26" class="node">
<title>src/ts/ui/background/content/cursor/CursorController.ts</title>
<g id="a_node26"><a xlink:href="src/ts/ui/background/content/cursor/CursorController.ts" xlink:title="CursorController.ts">
<path fill="#ddfeff" stroke="black" d="M628.71,-646.7C628.71,-646.7 548.54,-646.7 548.54,-646.7 545.46,-646.7 542.38,-643.62 542.38,-640.54 542.38,-640.54 542.38,-634.37 542.38,-634.37 542.38,-631.29 545.46,-628.2 548.54,-628.2 548.54,-628.2 628.71,-628.2 628.71,-628.2 631.79,-628.2 634.88,-631.29 634.88,-634.37 634.88,-634.37 634.88,-640.54 634.88,-640.54 634.88,-643.62 631.79,-646.7 628.71,-646.7"/>
<text text-anchor="start" x="550.38" y="-634.15" font-family="Helvetica,sans-Serif" font-size="9.00">CursorController.ts</text>
</a>
</g>
</g>
<!-- src/ts/ui/background/content/ContentController.ts&#45;&gt;src/ts/ui/background/content/cursor/CursorController.ts -->
<g id="edge22" class="edge">
<title>src/ts/ui/background/content/ContentController.ts&#45;&gt;src/ts/ui/background/content/cursor/CursorController.ts</title>
<path fill="none" stroke="#000000" stroke-width="2" stroke-opacity="0.200000" d="M500.84,-637.45C511.35,-637.45 522.56,-637.45 533.3,-637.45"/>
<polygon fill="#000000" fill-opacity="0.200000" stroke="#000000" stroke-width="2" stroke-opacity="0.200000" points="533.16,-639.55 539.16,-637.45 533.16,-635.35 533.16,-639.55"/>
</g>
<!-- src/ts/ui/background/UIBackground.module.css -->
<g id="node23" class="node">
<title>src/ts/ui/background/UIBackground.module.css</title>
<g id="a_node23"><a xlink:href="src/ts/ui/background/UIBackground.module.css" xlink:title="UIBackground.module.css">
<path fill="#ffffcc" stroke="black" d="M363.08,-642.7C363.08,-642.7 252.17,-642.7 252.17,-642.7 249.08,-642.7 246,-639.62 246,-636.54 246,-636.54 246,-630.37 246,-630.37 246,-627.29 249.08,-624.2 252.17,-624.2 252.17,-624.2 363.08,-624.2 363.08,-624.2 366.17,-624.2 369.25,-627.29 369.25,-630.37 369.25,-630.37 369.25,-636.54 369.25,-636.54 369.25,-639.62 366.17,-642.7 363.08,-642.7"/>
<text text-anchor="start" x="254" y="-630.15" font-family="Helvetica,sans-Serif" font-size="9.00">UIBackground.module.css</text>
</a>
</g>
</g>
<!-- src/ts/ui/background/UIBackground.tsx -->
<g id="node24" class="node">
<title>src/ts/ui/background/UIBackground.tsx</title>
<g id="a_node24"><a xlink:href="src/ts/ui/background/UIBackground.tsx" xlink:title="UIBackground.tsx">
<path fill="#bbfeff" stroke="black" d="M205.33,-611.7C205.33,-611.7 129.67,-611.7 129.67,-611.7 126.58,-611.7 123.5,-608.62 123.5,-605.54 123.5,-605.54 123.5,-599.37 123.5,-599.37 123.5,-596.29 126.58,-593.2 129.67,-593.2 129.67,-593.2 205.33,-593.2 205.33,-593.2 208.42,-593.2 211.5,-596.29 211.5,-599.37 211.5,-599.37 211.5,-605.54 211.5,-605.54 211.5,-608.62 208.42,-611.7 205.33,-611.7"/>
<text text-anchor="start" x="131.5" y="-599.15" font-family="Helvetica,sans-Serif" font-size="9.00">UIBackground.tsx</text>
</a>
</g>
</g>
<!-- src/ts/ui/background/UIBackground.tsx&#45;&gt;src/ts/store/uiState/uiStateStore.ts -->
<g id="edge18" class="edge">
<title>src/ts/ui/background/UIBackground.tsx&#45;&gt;src/ts/store/uiState/uiStateStore.ts</title>
<path fill="none" stroke="#000000" stroke-width="2" stroke-opacity="0.200000" d="M180.27,-593.08C193.46,-581.76 214.13,-561.36 222.75,-538.45 227.48,-525.89 221.18,-64.86 230.75,-55.45 284.73,-2.36 554.46,39.58 676.5,-64.45 690.96,-76.78 672.28,-91.9 684.5,-106.45 688.09,-110.73 692.6,-114.18 697.52,-116.95"/>
<polygon fill="#000000" fill-opacity="0.200000" stroke="#000000" stroke-width="2" stroke-opacity="0.200000" points="696.46,-118.77 702.78,-119.48 698.28,-114.99 696.46,-118.77"/>
</g>
<!-- src/ts/ui/background/UIBackground.tsx&#45;&gt;src/ts/ui/background/BackgroundController.ts -->
<g id="edge19" class="edge">
<title>src/ts/ui/background/UIBackground.tsx&#45;&gt;src/ts/ui/background/BackgroundController.ts</title>
<path fill="none" stroke="#000000" stroke-width="2" stroke-opacity="0.200000" d="M211.82,-602.45C221.25,-602.45 231.42,-602.45 241.48,-602.45"/>
<polygon fill="#000000" fill-opacity="0.200000" stroke="#000000" stroke-width="2" stroke-opacity="0.200000" points="241.24,-604.55 247.24,-602.45 241.24,-600.35 241.24,-604.55"/>
</g>
<!-- src/ts/ui/background/UIBackground.tsx&#45;&gt;src/ts/ui/background/UIBackground.module.css -->
<g id="edge20" class="edge">
<title>src/ts/ui/background/UIBackground.tsx&#45;&gt;src/ts/ui/background/UIBackground.module.css</title>
<path fill="none" stroke="#000000" stroke-width="2" stroke-opacity="0.200000" d="M209.09,-612.13C213.7,-613.25 218.33,-614.37 222.75,-615.45 226.31,-616.32 227.18,-616.63 230.75,-617.45 237.21,-618.94 243.99,-620.45 250.72,-621.91"/>
<polygon fill="#000000" fill-opacity="0.200000" stroke="#000000" stroke-width="2" stroke-opacity="0.200000" points="249.94,-623.89 256.25,-623.1 250.83,-619.79 249.94,-623.89"/>
</g>
<!-- src/ts/ui/background/content/cursor/CursorController.ts&#45;&gt;src/ts/store/uiState/uiStateStore.ts -->
<g id="edge23" class="edge">
<title>src/ts/ui/background/content/cursor/CursorController.ts&#45;&gt;src/ts/store/uiState/uiStateStore.ts</title>
<path fill="none" stroke="#000000" stroke-width="2" stroke-opacity="0.200000" d="M596.52,-627.98C613.07,-604.78 655.25,-542.7 676.5,-484.45 721.73,-360.49 737.16,-200.43 741.25,-146.84"/>
<polygon fill="#000000" fill-opacity="0.200000" stroke="#000000" stroke-width="2" stroke-opacity="0.200000" points="743.33,-147.27 741.67,-141.13 739.14,-146.96 743.33,-147.27"/>
</g>
<!-- src/ts/ui/component/button/text/ButtonText.module.css -->
<g id="node27" class="node">
<title>src/ts/ui/component/button/text/ButtonText.module.css</title>
<g id="a_node27"><a xlink:href="src/ts/ui/component/button/text/ButtonText.module.css" xlink:title="ButtonText.module.css">
<path fill="#ffffcc" stroke="black" d="M791.08,-1235.7C791.08,-1235.7 695.92,-1235.7 695.92,-1235.7 692.83,-1235.7 689.75,-1232.62 689.75,-1229.54 689.75,-1229.54 689.75,-1223.37 689.75,-1223.37 689.75,-1220.29 692.83,-1217.2 695.92,-1217.2 695.92,-1217.2 791.08,-1217.2 791.08,-1217.2 794.17,-1217.2 797.25,-1220.29 797.25,-1223.37 797.25,-1223.37 797.25,-1229.54 797.25,-1229.54 797.25,-1232.62 794.17,-1235.7 791.08,-1235.7"/>
<text text-anchor="start" x="697.75" y="-1223.15" font-family="Helvetica,sans-Serif" font-size="9.00">ButtonText.module.css</text>
</a>
</g>
</g>
<!-- src/ts/ui/component/button/text/ButtonText.stories.tsx -->
<g id="node28" class="node">
<title>src/ts/ui/component/button/text/ButtonText.stories.tsx</title>
<g id="a_node28"><a xlink:href="src/ts/ui/component/button/text/ButtonText.stories.tsx" xlink:title="ButtonText.stories.tsx">
<path fill="#bbfeff" stroke="black" d="M496.58,-1235.7C496.58,-1235.7 407.42,-1235.7 407.42,-1235.7 404.33,-1235.7 401.25,-1232.62 401.25,-1229.54 401.25,-1229.54 401.25,-1223.37 401.25,-1223.37 401.25,-1220.29 404.33,-1217.2 407.42,-1217.2 407.42,-1217.2 496.58,-1217.2 496.58,-1217.2 499.67,-1217.2 502.75,-1220.29 502.75,-1223.37 502.75,-1223.37 502.75,-1229.54 502.75,-1229.54 502.75,-1232.62 499.67,-1235.7 496.58,-1235.7"/>
<text text-anchor="start" x="409.25" y="-1223.15" font-family="Helvetica,sans-Serif" font-size="9.00">ButtonText.stories.tsx</text>
</a>
</g>
</g>
<!-- src/ts/ui/component/button/text/ButtonText.stories.tsx&#45;&gt;src/ts/ui/component/button/text/ButtonText.tsx -->
<g id="edge24" class="edge">
<title>src/ts/ui/component/button/text/ButtonText.stories.tsx&#45;&gt;src/ts/ui/component/button/text/ButtonText.tsx</title>
<path fill="none" stroke="#000000" stroke-width="2" stroke-opacity="0.200000" d="M503.13,-1226.45C516.37,-1226.45 530.56,-1226.45 543.46,-1226.45"/>
<polygon fill="#000000" fill-opacity="0.200000" stroke="#000000" stroke-width="2" stroke-opacity="0.200000" points="543.13,-1228.55 549.13,-1226.45 543.13,-1224.35 543.13,-1228.55"/>
</g>
<!-- src/ts/ui/component/button/text/ButtonText.tsx&#45;&gt;src/ts/motion/duration.ts -->
<g id="edge25" class="edge">
<title>src/ts/ui/component/button/text/ButtonText.tsx&#45;&gt;src/ts/motion/duration.ts</title>
<path fill="none" stroke="#000000" stroke-width="2" stroke-opacity="0.200000" d="M610.37,-1236.09C631.2,-1247 662.19,-1266.92 676.5,-1294.45 692.3,-1324.86 664.88,-1420.35 684.5,-1448.45 720.12,-1499.47 760.32,-1470.73 813.25,-1503.45 835.25,-1517.05 857.47,-1536.89 871.79,-1550.66"/>
<polygon fill="#000000" fill-opacity="0.200000" stroke="#000000" stroke-width="2" stroke-opacity="0.200000" points="870.23,-1552.07 875.99,-1554.76 873.16,-1549.07 870.23,-1552.07"/>
</g>
<!-- src/ts/ui/component/button/text/ButtonText.tsx&#45;&gt;src/ts/motion/ease.ts -->
<g id="edge26" class="edge">
<title>src/ts/ui/component/button/text/ButtonText.tsx&#45;&gt;src/ts/motion/ease.ts</title>
<path fill="none" stroke="#000000" stroke-width="2" stroke-opacity="0.200000" d="M610.45,-1236.05C631.34,-1246.93 662.38,-1266.82 676.5,-1294.45 697.55,-1335.64 664.22,-1460.88 684.5,-1502.45 691.54,-1516.88 705,-1528.66 717.18,-1537.06"/>
<polygon fill="#000000" fill-opacity="0.200000" stroke="#000000" stroke-width="2" stroke-opacity="0.200000" points="715.82,-1538.68 721.99,-1540.19 718.11,-1535.16 715.82,-1538.68"/>
</g>
<!-- src/ts/ui/component/button/text/ButtonText.tsx&#45;&gt;src/ts/ui/component/button/text/ButtonText.module.css -->
<g id="edge27" class="edge">
<title>src/ts/ui/component/button/text/ButtonText.tsx&#45;&gt;src/ts/ui/component/button/text/ButtonText.module.css</title>
<path fill="none" stroke="#000000" stroke-width="2" stroke-opacity="0.200000" d="M625.08,-1226.45C641.61,-1226.45 661.76,-1226.45 680.67,-1226.45"/>
<polygon fill="#000000" fill-opacity="0.200000" stroke="#000000" stroke-width="2" stroke-opacity="0.200000" points="680.51,-1228.55 686.51,-1226.45 680.51,-1224.35 680.51,-1228.55"/>
</g>
<!-- src/ts/ui/component/viewer/MediaViewer.module.css -->
<g id="node30" class="node">
<title>src/ts/ui/component/viewer/MediaViewer.module.css</title>
<g id="a_node30"><a xlink:href="src/ts/ui/component/viewer/MediaViewer.module.css" xlink:title="MediaViewer.module.css">
<path fill="#ffffcc" stroke="black" d="M796.33,-1323.7C796.33,-1323.7 690.67,-1323.7 690.67,-1323.7 687.58,-1323.7 684.5,-1320.62 684.5,-1317.54 684.5,-1317.54 684.5,-1311.37 684.5,-1311.37 684.5,-1308.29 687.58,-1305.2 690.67,-1305.2 690.67,-1305.2 796.33,-1305.2 796.33,-1305.2 799.42,-1305.2 802.5,-1308.29 802.5,-1311.37 802.5,-1311.37 802.5,-1317.54 802.5,-1317.54 802.5,-1320.62 799.42,-1323.7 796.33,-1323.7"/>
<text text-anchor="start" x="692.5" y="-1311.15" font-family="Helvetica,sans-Serif" font-size="9.00">MediaViewer.module.css</text>
</a>
</g>
</g>
<!-- src/ts/ui/component/viewer/MediaViewer.stories.tsx -->
<g id="node31" class="node">
<title>src/ts/ui/component/viewer/MediaViewer.stories.tsx</title>
<g id="a_node31"><a xlink:href="src/ts/ui/component/viewer/MediaViewer.stories.tsx" xlink:title="MediaViewer.stories.tsx">
<path fill="#bbfeff" stroke="black" d="M501.83,-1431.7C501.83,-1431.7 402.17,-1431.7 402.17,-1431.7 399.08,-1431.7 396,-1428.62 396,-1425.54 396,-1425.54 396,-1419.37 396,-1419.37 396,-1416.29 399.08,-1413.2 402.17,-1413.2 402.17,-1413.2 501.83,-1413.2 501.83,-1413.2 504.92,-1413.2 508,-1416.29 508,-1419.37 508,-1419.37 508,-1425.54 508,-1425.54 508,-1428.62 504.92,-1431.7 501.83,-1431.7"/>
<text text-anchor="start" x="404" y="-1419.15" font-family="Helvetica,sans-Serif" font-size="9.00">MediaViewer.stories.tsx</text>
</a>
</g>
</g>
<!-- src/ts/ui/component/viewer/MediaViewer.stories.tsx&#45;&gt;src/ts/ui/component/viewer/MediaViewer.tsx -->
<g id="edge28" class="edge">
<title>src/ts/ui/component/viewer/MediaViewer.stories.tsx&#45;&gt;src/ts/ui/component/viewer/MediaViewer.tsx</title>
<path fill="none" stroke="#000000" stroke-width="2" stroke-opacity="0.200000" d="M508.15,-1422.45C518.04,-1422.45 528.3,-1422.45 538.03,-1422.45"/>
<polygon fill="#000000" fill-opacity="0.200000" stroke="#000000" stroke-width="2" stroke-opacity="0.200000" points="537.76,-1424.55 543.76,-1422.45 537.76,-1420.35 537.76,-1424.55"/>
</g>
<!-- src/ts/ui/component/viewer/MediaViewer.tsx&#45;&gt;src/ts/motion/duration.ts -->
<g id="edge29" class="edge">
<title>src/ts/ui/component/viewer/MediaViewer.tsx&#45;&gt;src/ts/motion/duration.ts</title>
<path fill="none" stroke="#000000" stroke-width="2" stroke-opacity="0.200000" d="M598.29,-1432.16C613.88,-1449.02 648.37,-1483.67 684.5,-1502.45 737.01,-1529.75 757.09,-1517.77 813.25,-1536.45 828.11,-1541.39 844.26,-1547.79 857.7,-1553.41"/>
<polygon fill="#000000" fill-opacity="0.200000" stroke="#000000" stroke-width="2" stroke-opacity="0.200000" points="856.55,-1555.21 862.89,-1555.61 858.18,-1551.34 856.55,-1555.21"/>
</g>
<!-- src/ts/ui/component/viewer/MediaViewer.tsx&#45;&gt;src/ts/motion/ease.ts -->
<g id="edge30" class="edge">
<title>src/ts/ui/component/viewer/MediaViewer.tsx&#45;&gt;src/ts/motion/ease.ts</title>
<path fill="none" stroke="#000000" stroke-width="2" stroke-opacity="0.200000" d="M596.5,-1432.04C610.91,-1451.6 646.16,-1496.58 684.5,-1524.45 691.71,-1529.69 700.1,-1534.3 708.22,-1538.16"/>
<polygon fill="#000000" fill-opacity="0.200000" stroke="#000000" stroke-width="2" stroke-opacity="0.200000" points="707.11,-1539.96 713.44,-1540.52 708.83,-1536.13 707.11,-1539.96"/>
</g>
<!-- src/ts/ui/component/viewer/MediaViewer.tsx&#45;&gt;src/ts/ui/component/viewer/MediaViewer.module.css -->
<g id="edge32" class="edge">
<title>src/ts/ui/component/viewer/MediaViewer.tsx&#45;&gt;src/ts/ui/component/viewer/MediaViewer.module.css</title>
<path fill="none" stroke="#000000" stroke-width="2" stroke-opacity="0.200000" d="M596.49,-1412.74C610.63,-1393.49 645.01,-1350.48 684.5,-1328.45 684.86,-1328.25 685.23,-1328.05 685.59,-1327.86"/>
<polygon fill="#000000" fill-opacity="0.200000" stroke="#000000" stroke-width="2" stroke-opacity="0.200000" points="686.32,-1329.83 690.89,-1325.41 684.56,-1326.02 686.32,-1329.83"/>
</g>
<!-- src/ts/ui/component/viewer/holder/MediaItem.tsx -->
<g id="node33" class="node">
<title>src/ts/ui/component/viewer/holder/MediaItem.tsx</title>
<g id="a_node33"><a xlink:href="src/ts/ui/component/viewer/holder/MediaItem.tsx" xlink:title="MediaItem.tsx">
<path fill="#bbfeff" stroke="black" d="M773.46,-1357.7C773.46,-1357.7 713.54,-1357.7 713.54,-1357.7 710.46,-1357.7 707.38,-1354.62 707.38,-1351.54 707.38,-1351.54 707.38,-1345.37 707.38,-1345.37 707.38,-1342.29 710.46,-1339.2 713.54,-1339.2 713.54,-1339.2 773.46,-1339.2 773.46,-1339.2 776.54,-1339.2 779.62,-1342.29 779.62,-1345.37 779.62,-1345.37 779.62,-1351.54 779.62,-1351.54 779.62,-1354.62 776.54,-1357.7 773.46,-1357.7"/>
<text text-anchor="start" x="715.38" y="-1345.15" font-family="Helvetica,sans-Serif" font-size="9.00">MediaItem.tsx</text>
</a>
</g>
</g>
<!-- src/ts/ui/component/viewer/MediaViewer.tsx&#45;&gt;src/ts/ui/component/viewer/holder/MediaItem.tsx -->
<g id="edge31" class="edge">
<title>src/ts/ui/component/viewer/MediaViewer.tsx&#45;&gt;src/ts/ui/component/viewer/holder/MediaItem.tsx</title>
<path fill="none" stroke="#000000" stroke-width="2" stroke-opacity="0.200000" d="M609.61,-1412.78C636.39,-1399.82 684.06,-1376.74 714.43,-1362.04"/>
<polygon fill="#000000" fill-opacity="0.200000" stroke="#000000" stroke-width="2" stroke-opacity="0.200000" points="715.3,-1363.95 719.78,-1359.45 713.47,-1360.17 715.3,-1363.95"/>
</g>
<!-- src/ts/ui/component/viewer/navigation/MediaNavigation.tsx -->
<g id="node34" class="node">
<title>src/ts/ui/component/viewer/navigation/MediaNavigation.tsx</title>
<g id="a_node34"><a xlink:href="src/ts/ui/component/viewer/navigation/MediaNavigation.tsx" xlink:title="MediaNavigation.tsx">
<path fill="#bbfeff" stroke="black" d="M786.96,-1418.7C786.96,-1418.7 700.04,-1418.7 700.04,-1418.7 696.96,-1418.7 693.88,-1415.62 693.88,-1412.54 693.88,-1412.54 693.88,-1406.37 693.88,-1406.37 693.88,-1403.29 696.96,-1400.2 700.04,-1400.2 700.04,-1400.2 786.96,-1400.2 786.96,-1400.2 790.04,-1400.2 793.12,-1403.29 793.12,-1406.37 793.12,-1406.37 793.12,-1412.54 793.12,-1412.54 793.12,-1415.62 790.04,-1418.7 786.96,-1418.7"/>
<text text-anchor="start" x="701.88" y="-1406.15" font-family="Helvetica,sans-Serif" font-size="9.00">MediaNavigation.tsx</text>
</a>
</g>
</g>
<!-- src/ts/ui/component/viewer/MediaViewer.tsx&#45;&gt;src/ts/ui/component/viewer/navigation/MediaNavigation.tsx -->
<g id="edge33" class="edge">
<title>src/ts/ui/component/viewer/MediaViewer.tsx&#45;&gt;src/ts/ui/component/viewer/navigation/MediaNavigation.tsx</title>
<path fill="none" stroke="#000000" stroke-width="2" stroke-opacity="0.200000" d="M630.19,-1419C646.92,-1417.58 666.6,-1415.91 684.78,-1414.36"/>
<polygon fill="#000000" fill-opacity="0.200000" stroke="#000000" stroke-width="2" stroke-opacity="0.200000" points="684.75,-1416.47 690.55,-1413.87 684.4,-1412.29 684.75,-1416.47"/>
</g>
<!-- src/ts/ui/component/viewer/holder/MediaItem.module.css -->
<g id="node35" class="node">
<title>src/ts/ui/component/viewer/holder/MediaItem.module.css</title>
<g id="a_node35"><a xlink:href="src/ts/ui/component/viewer/holder/MediaItem.module.css" xlink:title="MediaItem.module.css">
<path fill="#ffffcc" stroke="black" d="M936.08,-1357.7C936.08,-1357.7 840.92,-1357.7 840.92,-1357.7 837.83,-1357.7 834.75,-1354.62 834.75,-1351.54 834.75,-1351.54 834.75,-1345.37 834.75,-1345.37 834.75,-1342.29 837.83,-1339.2 840.92,-1339.2 840.92,-1339.2 936.08,-1339.2 936.08,-1339.2 939.17,-1339.2 942.25,-1342.29 942.25,-1345.37 942.25,-1345.37 942.25,-1351.54 942.25,-1351.54 942.25,-1354.62 939.17,-1357.7 936.08,-1357.7"/>
<text text-anchor="start" x="842.75" y="-1345.15" font-family="Helvetica,sans-Serif" font-size="9.00">MediaItem.module.css</text>
</a>
</g>
</g>
<!-- src/ts/ui/component/viewer/holder/MediaItem.tsx&#45;&gt;src/ts/ui/component/viewer/holder/MediaItem.module.css -->
<g id="edge34" class="edge">
<title>src/ts/ui/component/viewer/holder/MediaItem.tsx&#45;&gt;src/ts/ui/component/viewer/holder/MediaItem.module.css</title>
<path fill="none" stroke="#000000" stroke-width="2" stroke-opacity="0.200000" d="M779.85,-1348.45C793.74,-1348.45 810.09,-1348.45 825.8,-1348.45"/>
<polygon fill="#000000" fill-opacity="0.200000" stroke="#000000" stroke-width="2" stroke-opacity="0.200000" points="825.42,-1350.55 831.42,-1348.45 825.42,-1346.35 825.42,-1350.55"/>
</g>
<!-- src/ts/ui/component/viewer/navigation/MediaNavigation.module.css -->
<g id="node36" class="node">
<title>src/ts/ui/component/viewer/navigation/MediaNavigation.module.css</title>
<g id="a_node36"><a xlink:href="src/ts/ui/component/viewer/navigation/MediaNavigation.module.css" xlink:title="MediaNavigation.module.css">
<path fill="#ffffcc" stroke="black" d="M949.58,-1418.7C949.58,-1418.7 827.42,-1418.7 827.42,-1418.7 824.33,-1418.7 821.25,-1415.62 821.25,-1412.54 821.25,-1412.54 821.25,-1406.37 821.25,-1406.37 821.25,-1403.29 824.33,-1400.2 827.42,-1400.2 827.42,-1400.2 949.58,-1400.2 949.58,-1400.2 952.67,-1400.2 955.75,-1403.29 955.75,-1406.37 955.75,-1406.37 955.75,-1412.54 955.75,-1412.54 955.75,-1415.62 952.67,-1418.7 949.58,-1418.7"/>
<text text-anchor="start" x="829.25" y="-1406.15" font-family="Helvetica,sans-Serif" font-size="9.00">MediaNavigation.module.css</text>
</a>
</g>
</g>
<!-- src/ts/ui/component/viewer/navigation/MediaNavigation.tsx&#45;&gt;src/ts/ui/component/viewer/navigation/MediaNavigation.module.css -->
<g id="edge35" class="edge">
<title>src/ts/ui/component/viewer/navigation/MediaNavigation.tsx&#45;&gt;src/ts/ui/component/viewer/navigation/MediaNavigation.module.css</title>
<path fill="none" stroke="#000000" stroke-width="2" stroke-opacity="0.200000" d="M793.31,-1409.45C799.43,-1409.45 805.8,-1409.45 812.2,-1409.45"/>
<polygon fill="#000000" fill-opacity="0.200000" stroke="#000000" stroke-width="2" stroke-opacity="0.200000" points="811.92,-1411.55 817.92,-1409.45 811.92,-1407.35 811.92,-1411.55"/>
</g>
<!-- src/ts/ui/overlay/site&#45;control/UISiteControl.tsx&#45;&gt;src/ts/motion/fade.ts -->
<g id="edge39" class="edge">
<title>src/ts/ui/overlay/site&#45;control/UISiteControl.tsx&#45;&gt;src/ts/motion/fade.ts</title>
<path fill="none" stroke="#000000" stroke-width="2" stroke-opacity="0.200000" d="M313.55,-389.85C325.9,-414.01 358.03,-480.6 369.25,-540.45 371.64,-553.22 369.44,-1465.08 377.25,-1475.45 456.15,-1580.17 632.19,-1586.84 707.37,-1584.54"/>
<polygon fill="#000000" fill-opacity="0.200000" stroke="#000000" stroke-width="2" stroke-opacity="0.200000" points="707.08,-1586.65 713,-1584.33 706.92,-1582.46 707.08,-1586.65"/>
</g>
<!-- src/ts/ui/overlay/site&#45;control/UISiteControl.module.css -->
<g id="node40" class="node">
<title>src/ts/ui/overlay/site&#45;control/UISiteControl.module.css</title>
<g id="a_node40"><a xlink:href="src/ts/ui/overlay/site-control/UISiteControl.module.css" xlink:title="UISiteControl.module.css">
<path fill="#ffffcc" stroke="black" d="M505.58,-389.7C505.58,-389.7 398.42,-389.7 398.42,-389.7 395.33,-389.7 392.25,-386.62 392.25,-383.54 392.25,-383.54 392.25,-377.37 392.25,-377.37 392.25,-374.29 395.33,-371.2 398.42,-371.2 398.42,-371.2 505.58,-371.2 505.58,-371.2 508.67,-371.2 511.75,-374.29 511.75,-377.37 511.75,-377.37 511.75,-383.54 511.75,-383.54 511.75,-386.62 508.67,-389.7 505.58,-389.7"/>
<text text-anchor="start" x="400.25" y="-377.15" font-family="Helvetica,sans-Serif" font-size="9.00">UISiteControl.module.css</text>
</a>
</g>
</g>
<!-- src/ts/ui/overlay/site&#45;control/UISiteControl.tsx&#45;&gt;src/ts/ui/overlay/site&#45;control/UISiteControl.module.css -->
<g id="edge42" class="edge">
<title>src/ts/ui/overlay/site&#45;control/UISiteControl.tsx&#45;&gt;src/ts/ui/overlay/site&#45;control/UISiteControl.module.css</title>
<path fill="none" stroke="#000000" stroke-width="2" stroke-opacity="0.200000" d="M350.19,-380.45C360.49,-380.45 371.79,-380.45 382.99,-380.45"/>
<polygon fill="#000000" fill-opacity="0.200000" stroke="#000000" stroke-width="2" stroke-opacity="0.200000" points="382.9,-382.55 388.9,-380.45 382.9,-378.35 382.9,-382.55"/>
</g>
<!-- src/ts/ui/overlay/site&#45;control/scroll/ScrollProgress.tsx -->
<g id="node41" class="node">
<title>src/ts/ui/overlay/site&#45;control/scroll/ScrollProgress.tsx</title>
<g id="a_node41"><a xlink:href="src/ts/ui/overlay/site-control/scroll/ScrollProgress.tsx" xlink:title="ScrollProgress.tsx">
<path fill="#bbfeff" stroke="black" d="M490.58,-423.7C490.58,-423.7 413.42,-423.7 413.42,-423.7 410.33,-423.7 407.25,-420.62 407.25,-417.54 407.25,-417.54 407.25,-411.37 407.25,-411.37 407.25,-408.29 410.33,-405.2 413.42,-405.2 413.42,-405.2 490.58,-405.2 490.58,-405.2 493.67,-405.2 496.75,-408.29 496.75,-411.37 496.75,-411.37 496.75,-417.54 496.75,-417.54 496.75,-420.62 493.67,-423.7 490.58,-423.7"/>
<text text-anchor="start" x="415.25" y="-411.15" font-family="Helvetica,sans-Serif" font-size="9.00">ScrollProgress.tsx</text>
</a>
</g>
</g>
<!-- src/ts/ui/overlay/site&#45;control/UISiteControl.tsx&#45;&gt;src/ts/ui/overlay/site&#45;control/scroll/ScrollProgress.tsx -->
<g id="edge40" class="edge">
<title>src/ts/ui/overlay/site&#45;control/UISiteControl.tsx&#45;&gt;src/ts/ui/overlay/site&#45;control/scroll/ScrollProgress.tsx</title>
<path fill="none" stroke="#000000" stroke-width="2" stroke-opacity="0.200000" d="M337.46,-390.14C349.64,-394 364.04,-398.28 377.25,-401.45 384.16,-403.11 391.47,-404.65 398.71,-406.05"/>
<polygon fill="#000000" fill-opacity="0.200000" stroke="#000000" stroke-width="2" stroke-opacity="0.200000" points="397.88,-408.04 404.16,-407.08 398.65,-403.91 397.88,-408.04"/>
</g>
<!-- src/ts/ui/overlay/site&#45;control/theme/ThemeSwitcher.tsx -->
<g id="node42" class="node">
<title>src/ts/ui/overlay/site&#45;control/theme/ThemeSwitcher.tsx</title>
<g id="a_node42"><a xlink:href="src/ts/ui/overlay/site-control/theme/ThemeSwitcher.tsx" xlink:title="ThemeSwitcher.tsx">
<path fill="#bbfeff" stroke="black" d="M492.08,-336.7C492.08,-336.7 411.92,-336.7 411.92,-336.7 408.83,-336.7 405.75,-333.62 405.75,-330.54 405.75,-330.54 405.75,-324.37 405.75,-324.37 405.75,-321.29 408.83,-318.2 411.92,-318.2 411.92,-318.2 492.08,-318.2 492.08,-318.2 495.17,-318.2 498.25,-321.29 498.25,-324.37 498.25,-324.37 498.25,-330.54 498.25,-330.54 498.25,-333.62 495.17,-336.7 492.08,-336.7"/>
<text text-anchor="start" x="413.75" y="-324.15" font-family="Helvetica,sans-Serif" font-size="9.00">ThemeSwitcher.tsx</text>
</a>
</g>
</g>
<!-- src/ts/ui/overlay/site&#45;control/UISiteControl.tsx&#45;&gt;src/ts/ui/overlay/site&#45;control/theme/ThemeSwitcher.tsx -->
<g id="edge41" class="edge">
<title>src/ts/ui/overlay/site&#45;control/UISiteControl.tsx&#45;&gt;src/ts/ui/overlay/site&#45;control/theme/ThemeSwitcher.tsx</title>
<path fill="none" stroke="#000000" stroke-width="2" stroke-opacity="0.200000" d="M349.99,-376.99C357.08,-374.79 363.87,-371.46 369.25,-366.45 378.1,-358.22 368.19,-348.46 377.25,-340.45 382.85,-335.5 389.66,-332.12 396.85,-329.85"/>
<polygon fill="#000000" fill-opacity="0.200000" stroke="#000000" stroke-width="2" stroke-opacity="0.200000" points="397.18,-331.94 402.48,-328.42 396.14,-327.87 397.18,-331.94"/>
</g>
<!-- src/ts/ui/overlay/surface/UIOverlaySurface.tsx&#45;&gt;src/ts/store/uiState/uiStateStore.ts -->
<g id="edge51" class="edge">
<title>src/ts/ui/overlay/surface/UIOverlaySurface.tsx&#45;&gt;src/ts/store/uiState/uiStateStore.ts</title>
<path fill="none" stroke="#000000" stroke-width="2" stroke-opacity="0.200000" d="M358.75,-253.61C362.72,-251.56 366.32,-248.9 369.25,-245.45 380.92,-231.72 364.2,-95.88 377.25,-83.45 401.33,-60.53 649.4,-64.19 676.5,-83.45 685.32,-89.72 676.95,-98.69 684.5,-106.45 688.29,-110.35 692.85,-113.57 697.72,-116.23"/>
<polygon fill="#000000" fill-opacity="0.200000" stroke="#000000" stroke-width="2" stroke-opacity="0.200000" points="696.51,-117.98 702.83,-118.65 698.31,-114.18 696.51,-117.98"/>
</g>
<!-- src/ts/ui/overlay/site&#45;control/scroll/ScrollProgress.tsx&#45;&gt;src/ts/hook/useScrollProgress.ts -->
<g id="edge43" class="edge">
<title>src/ts/ui/overlay/site&#45;control/scroll/ScrollProgress.tsx&#45;&gt;src/ts/hook/useScrollProgress.ts</title>
<path fill="none" stroke="#000000" stroke-width="2" stroke-opacity="0.200000" d="M497.23,-412.45C504.07,-410.25 510.45,-406.79 515.25,-401.45 529.3,-385.85 519.63,-327.81 524.75,-307.45 537.51,-256.72 564.2,-200.77 578.35,-173.04"/>
<polygon fill="#000000" fill-opacity="0.200000" stroke="#000000" stroke-width="2" stroke-opacity="0.200000" points="580.19,-174.05 581.08,-167.76 576.46,-172.13 580.19,-174.05"/>
</g>
<!-- src/ts/ui/overlay/site&#45;control/scroll/ScrollProgress.module.css -->
<g id="node43" class="node">
<title>src/ts/ui/overlay/site&#45;control/scroll/ScrollProgress.module.css</title>
<g id="a_node43"><a xlink:href="src/ts/ui/overlay/site-control/scroll/ScrollProgress.module.css" xlink:title="ScrollProgress.module.css">
<path fill="#ffffcc" stroke="black" d="M644.83,-454.7C644.83,-454.7 532.42,-454.7 532.42,-454.7 529.33,-454.7 526.25,-451.62 526.25,-448.54 526.25,-448.54 526.25,-442.37 526.25,-442.37 526.25,-439.29 529.33,-436.2 532.42,-436.2 532.42,-436.2 644.83,-436.2 644.83,-436.2 647.92,-436.2 651,-439.29 651,-442.37 651,-442.37 651,-448.54 651,-448.54 651,-451.62 647.92,-454.7 644.83,-454.7"/>
<text text-anchor="start" x="534.25" y="-442.15" font-family="Helvetica,sans-Serif" font-size="9.00">ScrollProgress.module.css</text>
</a>
</g>
</g>
<!-- src/ts/ui/overlay/site&#45;control/scroll/ScrollProgress.tsx&#45;&gt;src/ts/ui/overlay/site&#45;control/scroll/ScrollProgress.module.css -->
<g id="edge44" class="edge">
<title>src/ts/ui/overlay/site&#45;control/scroll/ScrollProgress.tsx&#45;&gt;src/ts/ui/overlay/site&#45;control/scroll/ScrollProgress.module.css</title>
<path fill="none" stroke="#000000" stroke-width="2" stroke-opacity="0.200000" d="M495.23,-424.18C508.51,-427.23 523.31,-430.64 537.11,-433.82"/>
<polygon fill="#000000" fill-opacity="0.200000" stroke="#000000" stroke-width="2" stroke-opacity="0.200000" points="536.28,-435.78 542.6,-435.08 537.22,-431.69 536.28,-435.78"/>
</g>
<!-- src/ts/ui/overlay/site&#45;control/scroll/ScrollProgressAnimator.ts -->
<g id="node44" class="node">
<title>src/ts/ui/overlay/site&#45;control/scroll/ScrollProgressAnimator.ts</title>
<g id="a_node44"><a xlink:href="src/ts/ui/overlay/site-control/scroll/ScrollProgressAnimator.ts" xlink:title="ScrollProgressAnimator.ts">
<path fill="#ddfeff" stroke="black" d="M642.96,-423.7C642.96,-423.7 534.29,-423.7 534.29,-423.7 531.21,-423.7 528.12,-420.62 528.12,-417.54 528.12,-417.54 528.12,-411.37 528.12,-411.37 528.12,-408.29 531.21,-405.2 534.29,-405.2 534.29,-405.2 642.96,-405.2 642.96,-405.2 646.04,-405.2 649.12,-408.29 649.12,-411.37 649.12,-411.37 649.12,-417.54 649.12,-417.54 649.12,-420.62 646.04,-423.7 642.96,-423.7"/>
<text text-anchor="start" x="536.12" y="-411.15" font-family="Helvetica,sans-Serif" font-size="9.00">ScrollProgressAnimator.ts</text>
</a>
</g>
</g>
<!-- src/ts/ui/overlay/site&#45;control/scroll/ScrollProgress.tsx&#45;&gt;src/ts/ui/overlay/site&#45;control/scroll/ScrollProgressAnimator.ts -->
<g id="edge45" class="edge">
<title>src/ts/ui/overlay/site&#45;control/scroll/ScrollProgress.tsx&#45;&gt;src/ts/ui/overlay/site&#45;control/scroll/ScrollProgressAnimator.ts</title>
<path fill="none" stroke="#000000" stroke-width="2" stroke-opacity="0.200000" d="M497.08,-414.45C504.14,-414.45 511.58,-414.45 519.04,-414.45"/>
<polygon fill="#000000" fill-opacity="0.200000" stroke="#000000" stroke-width="2" stroke-opacity="0.200000" points="518.77,-416.55 524.77,-414.45 518.77,-412.35 518.77,-416.55"/>
</g>
<!-- src/ts/ui/overlay/site&#45;control/theme/ThemeSwitcher.tsx&#45;&gt;src/ts/store/uiState/uiStateStore.ts -->
<g id="edge48" class="edge">
<title>src/ts/ui/overlay/site&#45;control/theme/ThemeSwitcher.tsx&#45;&gt;src/ts/store/uiState/uiStateStore.ts</title>
<path fill="none" stroke="#000000" stroke-width="2" stroke-opacity="0.200000" d="M452.89,-318.06C453.09,-284.79 458.78,-172.03 524.75,-125.45 551.43,-106.62 641.26,-114.57 696.87,-121.73"/>
<polygon fill="#000000" fill-opacity="0.200000" stroke="#000000" stroke-width="2" stroke-opacity="0.200000" points="696.26,-123.77 702.48,-122.48 696.81,-119.61 696.26,-123.77"/>
</g>
<!-- src/ts/ui/overlay/site&#45;control/theme/ThemeSwitcher.tsx&#45;&gt;src/ts/types/index.ts -->
<g id="edge49" class="edge">
<title>src/ts/ui/overlay/site&#45;control/theme/ThemeSwitcher.tsx&#45;&gt;src/ts/types/index.ts</title>
<path fill="none" stroke="#000000" stroke-width="2" stroke-opacity="0.200000" d="M453.08,-318.06C453.94,-285.83 461.6,-179.27 524.75,-135.45 538.6,-125.84 663.21,-125.08 676.5,-135.45 688.06,-144.47 672.94,-158.43 684.5,-167.45 729.6,-202.67 757.21,-179.02 813.25,-167.45 830.49,-163.9 848.65,-156.15 862.7,-149.16"/>
<polygon fill="#000000" fill-opacity="0.200000" stroke="#000000" stroke-width="2" stroke-opacity="0.200000" points="863.39,-151.17 867.77,-146.56 861.47,-147.44 863.39,-151.17"/>
</g>
<!-- src/ts/ui/overlay/site&#45;control/theme/ThemeSwitcher.module.css -->
<g id="node45" class="node">
<title>src/ts/ui/overlay/site&#45;control/theme/ThemeSwitcher.module.css</title>
<g id="a_node45"><a xlink:href="src/ts/ui/overlay/site-control/theme/ThemeSwitcher.module.css" xlink:title="ThemeSwitcher.module.css">
<path fill="#ffffcc" stroke="black" d="M646.33,-336.7C646.33,-336.7 530.92,-336.7 530.92,-336.7 527.83,-336.7 524.75,-333.62 524.75,-330.54 524.75,-330.54 524.75,-324.37 524.75,-324.37 524.75,-321.29 527.83,-318.2 530.92,-318.2 530.92,-318.2 646.33,-318.2 646.33,-318.2 649.42,-318.2 652.5,-321.29 652.5,-324.37 652.5,-324.37 652.5,-330.54 652.5,-330.54 652.5,-333.62 649.42,-336.7 646.33,-336.7"/>
<text text-anchor="start" x="532.75" y="-324.15" font-family="Helvetica,sans-Serif" font-size="9.00">ThemeSwitcher.module.css</text>
</a>
</g>
</g>
<!-- src/ts/ui/overlay/site&#45;control/theme/ThemeSwitcher.tsx&#45;&gt;src/ts/ui/overlay/site&#45;control/theme/ThemeSwitcher.module.css -->
<g id="edge50" class="edge">
<title>src/ts/ui/overlay/site&#45;control/theme/ThemeSwitcher.tsx&#45;&gt;src/ts/ui/overlay/site&#45;control/theme/ThemeSwitcher.module.css</title>
<path fill="none" stroke="#000000" stroke-width="2" stroke-opacity="0.200000" d="M498.58,-327.45C504.22,-327.45 510.08,-327.45 515.99,-327.45"/>
<polygon fill="#000000" fill-opacity="0.200000" stroke="#000000" stroke-width="2" stroke-opacity="0.200000" points="515.63,-329.55 521.63,-327.45 515.63,-325.35 515.63,-329.55"/>
</g>
<!-- src/ts/ui/overlay/site&#45;control/theme/ThemeSwitcher.stories.tsx -->
<g id="node46" class="node">
<title>src/ts/ui/overlay/site&#45;control/theme/ThemeSwitcher.stories.tsx</title>
<g id="a_node46"><a xlink:href="src/ts/ui/overlay/site-control/theme/ThemeSwitcher.stories.tsx" xlink:title="ThemeSwitcher.stories.tsx">
<path fill="#bbfeff" stroke="black" d="M362.33,-336.7C362.33,-336.7 252.92,-336.7 252.92,-336.7 249.83,-336.7 246.75,-333.62 246.75,-330.54 246.75,-330.54 246.75,-324.37 246.75,-324.37 246.75,-321.29 249.83,-318.2 252.92,-318.2 252.92,-318.2 362.33,-318.2 362.33,-318.2 365.42,-318.2 368.5,-321.29 368.5,-324.37 368.5,-324.37 368.5,-330.54 368.5,-330.54 368.5,-333.62 365.42,-336.7 362.33,-336.7"/>
<text text-anchor="start" x="254.75" y="-324.15" font-family="Helvetica,sans-Serif" font-size="9.00">ThemeSwitcher.stories.tsx</text>
</a>
</g>
</g>
<!-- src/ts/ui/overlay/site&#45;control/theme/ThemeSwitcher.stories.tsx&#45;&gt;src/ts/store/uiState/uiStateStore.ts -->
<g id="edge46" class="edge">
<title>src/ts/ui/overlay/site&#45;control/theme/ThemeSwitcher.stories.tsx&#45;&gt;src/ts/store/uiState/uiStateStore.ts</title>
<path fill="none" stroke="#000000" stroke-width="2" stroke-opacity="0.200000" d="M343.51,-317.74C353.47,-313.22 363.24,-306.71 369.25,-297.45 381.36,-278.8 361.21,-112.86 377.25,-97.45 401.23,-74.42 646.17,-83.83 676.5,-97.45 681.38,-99.65 680.09,-103.42 684.5,-106.45 689.39,-109.82 694.85,-112.76 700.43,-115.29"/>
<polygon fill="#000000" fill-opacity="0.200000" stroke="#000000" stroke-width="2" stroke-opacity="0.200000" points="699.48,-117.17 705.83,-117.55 701.1,-113.3 699.48,-117.17"/>
</g>
<!-- src/ts/ui/overlay/site&#45;control/theme/ThemeSwitcher.stories.tsx&#45;&gt;src/ts/ui/overlay/site&#45;control/theme/ThemeSwitcher.tsx -->
<g id="edge47" class="edge">
<title>src/ts/ui/overlay/site&#45;control/theme/ThemeSwitcher.stories.tsx&#45;&gt;src/ts/ui/overlay/site&#45;control/theme/ThemeSwitcher.tsx</title>
<path fill="none" stroke="#000000" stroke-width="2" stroke-opacity="0.200000" d="M368.59,-327.45C377.83,-327.45 387.32,-327.45 396.43,-327.45"/>
<polygon fill="#000000" fill-opacity="0.200000" stroke="#000000" stroke-width="2" stroke-opacity="0.200000" points="396.35,-329.55 402.35,-327.45 396.35,-325.35 396.35,-329.55"/>
</g>
<!-- src/ts/ui/site/project/text/SiteProjectText.tsx&#45;&gt;src/ts/ui/component/button/text/ButtonText.tsx -->
<g id="edge60" class="edge">
<title>src/ts/ui/site/project/text/SiteProjectText.tsx&#45;&gt;src/ts/ui/component/button/text/ButtonText.tsx</title>
<path fill="none" stroke="#000000" stroke-width="2" stroke-opacity="0.200000" d="M462.68,-1104.87C485.57,-1127.14 543.19,-1183.21 571.47,-1210.73"/>
<polygon fill="#000000" fill-opacity="0.200000" stroke="#000000" stroke-width="2" stroke-opacity="0.200000" points="569.73,-1211.97 575.5,-1214.65 572.66,-1208.96 569.73,-1211.97"/>
</g>
<!-- src/ts/ui/site/project/text/SiteProjectText.module.css -->
<g id="node51" class="node">
<title>src/ts/ui/site/project/text/SiteProjectText.module.css</title>
<g id="a_node51"><a xlink:href="src/ts/ui/site/project/text/SiteProjectText.module.css" xlink:title="SiteProjectText.module.css">
<path fill="#ffffcc" stroke="black" d="M645.21,-1104.7C645.21,-1104.7 532.04,-1104.7 532.04,-1104.7 528.96,-1104.7 525.88,-1101.62 525.88,-1098.54 525.88,-1098.54 525.88,-1092.37 525.88,-1092.37 525.88,-1089.29 528.96,-1086.2 532.04,-1086.2 532.04,-1086.2 645.21,-1086.2 645.21,-1086.2 648.29,-1086.2 651.38,-1089.29 651.38,-1092.37 651.38,-1092.37 651.38,-1098.54 651.38,-1098.54 651.38,-1101.62 648.29,-1104.7 645.21,-1104.7"/>
<text text-anchor="start" x="533.88" y="-1092.15" font-family="Helvetica,sans-Serif" font-size="9.00">SiteProjectText.module.css</text>
</a>
</g>
</g>
<!-- src/ts/ui/site/project/text/SiteProjectText.tsx&#45;&gt;src/ts/ui/site/project/text/SiteProjectText.module.css -->
<g id="edge61" class="edge">
<title>src/ts/ui/site/project/text/SiteProjectText.tsx&#45;&gt;src/ts/ui/site/project/text/SiteProjectText.module.css</title>
<path fill="none" stroke="#000000" stroke-width="2" stroke-opacity="0.200000" d="M497.45,-1095.45C503.67,-1095.45 510.18,-1095.45 516.73,-1095.45"/>
<polygon fill="#000000" fill-opacity="0.200000" stroke="#000000" stroke-width="2" stroke-opacity="0.200000" points="516.64,-1097.55 522.64,-1095.45 516.64,-1093.35 516.64,-1097.55"/>
</g>
</g>
</svg>
