<?xml version="1.0" encoding="UTF-8" standalone="no"?>
<!DOCTYPE svg PUBLIC "-//W3C//DTD SVG 1.1//EN"
 "http://www.w3.org/Graphics/SVG/1.1/DTD/svg11.dtd">
<!-- Generated by graphviz version 12.2.1 (20241206.2353)
 -->
<!-- Title: dependency&#45;cruiser output Pages: 1 -->
<svg width="1024pt" height="1398pt"
 viewBox="0.00 0.00 1023.75 1397.91" xmlns="http://www.w3.org/2000/svg" xmlns:xlink="http://www.w3.org/1999/xlink">
<g id="graph0" class="graph" transform="scale(1 1) rotate(0) translate(4 1393.91)">
<title>dependency&#45;cruiser output</title>
<polygon fill="white" stroke="none" points="-4,4 -4,-1393.91 1019.75,-1393.91 1019.75,4 -4,4"/>
<g id="clust1" class="cluster">
<title>cluster_src</title>
<path fill="#ffffff" stroke="black" stroke-width="2" d="M20,-39.91C20,-39.91 995.75,-39.91 995.75,-39.91 1001.75,-39.91 1007.75,-45.91 1007.75,-51.91 1007.75,-51.91 1007.75,-1369.91 1007.75,-1369.91 1007.75,-1375.91 1001.75,-1381.91 995.75,-1381.91 995.75,-1381.91 20,-1381.91 20,-1381.91 14,-1381.91 8,-1375.91 8,-1369.91 8,-1369.91 8,-51.91 8,-51.91 8,-45.91 14,-39.91 20,-39.91"/>
<text text-anchor="middle" x="507.88" y="-1369.36" font-family="Helvetica,sans-Serif" font-weight="bold" font-size="9.00">src</text>
</g>
<g id="clust2" class="cluster">
<title>cluster_src/ts</title>
<path fill="#ffffff" stroke="black" stroke-width="2" d="M28,-47.91C28,-47.91 987.75,-47.91 987.75,-47.91 993.75,-47.91 999.75,-53.91 999.75,-59.91 999.75,-59.91 999.75,-1342.91 999.75,-1342.91 999.75,-1348.91 993.75,-1354.91 987.75,-1354.91 987.75,-1354.91 28,-1354.91 28,-1354.91 22,-1354.91 16,-1348.91 16,-1342.91 16,-1342.91 16,-59.91 16,-59.91 16,-53.91 22,-47.91 28,-47.91"/>
<text text-anchor="middle" x="507.88" y="-1342.36" font-family="Helvetica,sans-Serif" font-weight="bold" font-size="9.00">ts</text>
</g>
<g id="clust3" class="cluster">
<title>cluster_src/ts/hook</title>
<path fill="#ffffff" stroke="black" stroke-width="2" d="M546.62,-1117.91C546.62,-1117.91 638.62,-1117.91 638.62,-1117.91 644.62,-1117.91 650.62,-1123.91 650.62,-1129.91 650.62,-1129.91 650.62,-1158.91 650.62,-1158.91 650.62,-1164.91 644.62,-1170.91 638.62,-1170.91 638.62,-1170.91 546.62,-1170.91 546.62,-1170.91 540.62,-1170.91 534.62,-1164.91 534.62,-1158.91 534.62,-1158.91 534.62,-1129.91 534.62,-1129.91 534.62,-1123.91 540.62,-1117.91 546.62,-1117.91"/>
<text text-anchor="middle" x="592.62" y="-1158.36" font-family="Helvetica,sans-Serif" font-weight="bold" font-size="9.00">hook</text>
</g>
<g id="clust4" class="cluster">
<title>cluster_src/ts/motion</title>
<path fill="#ffffff" stroke="black" stroke-width="2" d="M724.5,-61.91C724.5,-61.91 917.88,-61.91 917.88,-61.91 923.88,-61.91 929.88,-67.91 929.88,-73.91 929.88,-73.91 929.88,-133.91 929.88,-133.91 929.88,-139.91 923.88,-145.91 917.88,-145.91 917.88,-145.91 724.5,-145.91 724.5,-145.91 718.5,-145.91 712.5,-139.91 712.5,-133.91 712.5,-133.91 712.5,-73.91 712.5,-73.91 712.5,-67.91 718.5,-61.91 724.5,-61.91"/>
<text text-anchor="middle" x="821.19" y="-133.36" font-family="Helvetica,sans-Serif" font-weight="bold" font-size="9.00">motion</text>
</g>
<g id="clust5" class="cluster">
<title>cluster_src/ts/store</title>
<path fill="#ffffff" stroke="black" stroke-width="2" d="M551,-1178.91C551,-1178.91 634.25,-1178.91 634.25,-1178.91 640.25,-1178.91 646.25,-1184.91 646.25,-1190.91 646.25,-1190.91 646.25,-1315.91 646.25,-1315.91 646.25,-1321.91 640.25,-1327.91 634.25,-1327.91 634.25,-1327.91 551,-1327.91 551,-1327.91 545,-1327.91 539,-1321.91 539,-1315.91 539,-1315.91 539,-1190.91 539,-1190.91 539,-1184.91 545,-1178.91 551,-1178.91"/>
<text text-anchor="middle" x="592.62" y="-1315.36" font-family="Helvetica,sans-Serif" font-weight="bold" font-size="9.00">store</text>
</g>
<g id="clust6" class="cluster">
<title>cluster_src/ts/store/project</title>
<path fill="#ffffff" stroke="black" stroke-width="2" d="M559.38,-1247.91C559.38,-1247.91 625.88,-1247.91 625.88,-1247.91 631.88,-1247.91 637.88,-1253.91 637.88,-1259.91 637.88,-1259.91 637.88,-1288.91 637.88,-1288.91 637.88,-1294.91 631.88,-1300.91 625.88,-1300.91 625.88,-1300.91 559.38,-1300.91 559.38,-1300.91 553.38,-1300.91 547.38,-1294.91 547.38,-1288.91 547.38,-1288.91 547.38,-1259.91 547.38,-1259.91 547.38,-1253.91 553.38,-1247.91 559.38,-1247.91"/>
<text text-anchor="middle" x="592.62" y="-1288.36" font-family="Helvetica,sans-Serif" font-weight="bold" font-size="9.00">project</text>
</g>
<g id="clust7" class="cluster">
<title>cluster_src/ts/store/uiState</title>
<path fill="#ffffff" stroke="black" stroke-width="2" d="M559,-1186.91C559,-1186.91 626.25,-1186.91 626.25,-1186.91 632.25,-1186.91 638.25,-1192.91 638.25,-1198.91 638.25,-1198.91 638.25,-1227.91 638.25,-1227.91 638.25,-1233.91 632.25,-1239.91 626.25,-1239.91 626.25,-1239.91 559,-1239.91 559,-1239.91 553,-1239.91 547,-1233.91 547,-1227.91 547,-1227.91 547,-1198.91 547,-1198.91 547,-1192.91 553,-1186.91 559,-1186.91"/>
<text text-anchor="middle" x="592.62" y="-1227.36" font-family="Helvetica,sans-Serif" font-weight="bold" font-size="9.00">uiState</text>
</g>
<g id="clust8" class="cluster">
<title>cluster_src/ts/types</title>
<path fill="#ffffff" stroke="black" stroke-width="2" d="M724.5,-1151.91C724.5,-1151.91 915.5,-1151.91 915.5,-1151.91 921.5,-1151.91 927.5,-1157.91 927.5,-1163.91 927.5,-1163.91 927.5,-1223.91 927.5,-1223.91 927.5,-1229.91 921.5,-1235.91 915.5,-1235.91 915.5,-1235.91 724.5,-1235.91 724.5,-1235.91 718.5,-1235.91 712.5,-1229.91 712.5,-1223.91 712.5,-1223.91 712.5,-1163.91 712.5,-1163.91 712.5,-1157.91 718.5,-1151.91 724.5,-1151.91"/>
<text text-anchor="middle" x="820" y="-1223.36" font-family="Helvetica,sans-Serif" font-weight="bold" font-size="9.00">types</text>
</g>
<g id="clust9" class="cluster">
<title>cluster_src/ts/ui</title>
<path fill="#ffffff" stroke="black" stroke-width="2" d="M119.25,-153.91C119.25,-153.91 979.75,-153.91 979.75,-153.91 985.75,-153.91 991.75,-159.91 991.75,-165.91 991.75,-165.91 991.75,-1097.91 991.75,-1097.91 991.75,-1103.91 985.75,-1109.91 979.75,-1109.91 979.75,-1109.91 119.25,-1109.91 119.25,-1109.91 113.25,-1109.91 107.25,-1103.91 107.25,-1097.91 107.25,-1097.91 107.25,-165.91 107.25,-165.91 107.25,-159.91 113.25,-153.91 119.25,-153.91"/>
<text text-anchor="middle" x="549.5" y="-1097.36" font-family="Helvetica,sans-Serif" font-weight="bold" font-size="9.00">ui</text>
</g>
<g id="clust10" class="cluster">
<title>cluster_src/ts/ui/component</title>
<path fill="#ffffff" stroke="black" stroke-width="2" d="M393.25,-440.91C393.25,-440.91 971.75,-440.91 971.75,-440.91 977.75,-440.91 983.75,-446.91 983.75,-452.91 983.75,-452.91 983.75,-734.91 983.75,-734.91 983.75,-740.91 977.75,-746.91 971.75,-746.91 971.75,-746.91 393.25,-746.91 393.25,-746.91 387.25,-746.91 381.25,-740.91 381.25,-734.91 381.25,-734.91 381.25,-452.91 381.25,-452.91 381.25,-446.91 387.25,-440.91 393.25,-440.91"/>
<text text-anchor="middle" x="682.5" y="-734.36" font-family="Helvetica,sans-Serif" font-weight="bold" font-size="9.00">component</text>
</g>
<g id="clust11" class="cluster">
<title>cluster_src/ts/ui/component/button</title>
<path fill="#ffffff" stroke="black" stroke-width="2" d="M401.25,-448.91C401.25,-448.91 805.25,-448.91 805.25,-448.91 811.25,-448.91 817.25,-454.91 817.25,-460.91 817.25,-460.91 817.25,-524.91 817.25,-524.91 817.25,-530.91 811.25,-536.91 805.25,-536.91 805.25,-536.91 401.25,-536.91 401.25,-536.91 395.25,-536.91 389.25,-530.91 389.25,-524.91 389.25,-524.91 389.25,-460.91 389.25,-460.91 389.25,-454.91 395.25,-448.91 401.25,-448.91"/>
<text text-anchor="middle" x="603.25" y="-524.36" font-family="Helvetica,sans-Serif" font-weight="bold" font-size="9.00">button</text>
</g>
<g id="clust12" class="cluster">
<title>cluster_src/ts/ui/component/button/text</title>
<path fill="#ffffff" stroke="black" stroke-width="2" d="M409.25,-456.91C409.25,-456.91 797.25,-456.91 797.25,-456.91 803.25,-456.91 809.25,-462.91 809.25,-468.91 809.25,-468.91 809.25,-497.91 809.25,-497.91 809.25,-503.91 803.25,-509.91 797.25,-509.91 797.25,-509.91 409.25,-509.91 409.25,-509.91 403.25,-509.91 397.25,-503.91 397.25,-497.91 397.25,-497.91 397.25,-468.91 397.25,-468.91 397.25,-462.91 403.25,-456.91 409.25,-456.91"/>
<text text-anchor="middle" x="603.25" y="-497.36" font-family="Helvetica,sans-Serif" font-weight="bold" font-size="9.00">text</text>
</g>
<g id="clust13" class="cluster">
<title>cluster_src/ts/ui/component/viewer</title>
<path fill="#ffffff" stroke="black" stroke-width="2" d="M404,-544.91C404,-544.91 963.75,-544.91 963.75,-544.91 969.75,-544.91 975.75,-550.91 975.75,-556.91 975.75,-556.91 975.75,-707.91 975.75,-707.91 975.75,-713.91 969.75,-719.91 963.75,-719.91 963.75,-719.91 404,-719.91 404,-719.91 398,-719.91 392,-713.91 392,-707.91 392,-707.91 392,-556.91 392,-556.91 392,-550.91 398,-544.91 404,-544.91"/>
<text text-anchor="middle" x="683.88" y="-707.36" font-family="Helvetica,sans-Serif" font-weight="bold" font-size="9.00">viewer</text>
</g>
<g id="clust14" class="cluster">
<title>cluster_src/ts/ui/component/viewer/holder</title>
<path fill="#ffffff" stroke="black" stroke-width="2" d="M702.62,-578.91C702.62,-578.91 955,-578.91 955,-578.91 961,-578.91 967,-584.91 967,-590.91 967,-590.91 967,-619.91 967,-619.91 967,-625.91 961,-631.91 955,-631.91 955,-631.91 702.62,-631.91 702.62,-631.91 696.62,-631.91 690.62,-625.91 690.62,-619.91 690.62,-619.91 690.62,-590.91 690.62,-590.91 690.62,-584.91 696.62,-578.91 702.62,-578.91"/>
<text text-anchor="middle" x="828.81" y="-619.36" font-family="Helvetica,sans-Serif" font-weight="bold" font-size="9.00">holder</text>
</g>
<g id="clust15" class="cluster">
<title>cluster_src/ts/ui/component/viewer/navigation</title>
<path fill="#ffffff" stroke="black" stroke-width="2" d="M701.88,-639.91C701.88,-639.91 955.75,-639.91 955.75,-639.91 961.75,-639.91 967.75,-645.91 967.75,-651.91 967.75,-651.91 967.75,-680.91 967.75,-680.91 967.75,-686.91 961.75,-692.91 955.75,-692.91 955.75,-692.91 701.88,-692.91 701.88,-692.91 695.88,-692.91 689.88,-686.91 689.88,-680.91 689.88,-680.91 689.88,-651.91 689.88,-651.91 689.88,-645.91 695.88,-639.91 701.88,-639.91"/>
<text text-anchor="middle" x="828.81" y="-680.36" font-family="Helvetica,sans-Serif" font-weight="bold" font-size="9.00">navigation</text>
</g>
<g id="clust16" class="cluster">
<title>cluster_src/ts/ui/overlay</title>
<path fill="#ffffff" stroke="black" stroke-width="2" d="M127.25,-754.91C127.25,-754.91 668.5,-754.91 668.5,-754.91 674.5,-754.91 680.5,-760.91 680.5,-766.91 680.5,-766.91 680.5,-1070.91 680.5,-1070.91 680.5,-1076.91 674.5,-1082.91 668.5,-1082.91 668.5,-1082.91 127.25,-1082.91 127.25,-1082.91 121.25,-1082.91 115.25,-1076.91 115.25,-1070.91 115.25,-1070.91 115.25,-766.91 115.25,-766.91 115.25,-760.91 121.25,-754.91 127.25,-754.91"/>
<text text-anchor="middle" x="397.88" y="-1070.36" font-family="Helvetica,sans-Serif" font-weight="bold" font-size="9.00">overlay</text>
</g>
<g id="clust17" class="cluster">
<title>cluster_src/ts/ui/overlay/site&#45;control</title>
<path fill="#ffffff" stroke="black" stroke-width="2" d="M135.25,-762.91C135.25,-762.91 660.5,-762.91 660.5,-762.91 666.5,-762.91 672.5,-768.91 672.5,-774.91 672.5,-774.91 672.5,-956.91 672.5,-956.91 672.5,-962.91 666.5,-968.91 660.5,-968.91 660.5,-968.91 135.25,-968.91 135.25,-968.91 129.25,-968.91 123.25,-962.91 123.25,-956.91 123.25,-956.91 123.25,-774.91 123.25,-774.91 123.25,-768.91 129.25,-762.91 135.25,-762.91"/>
<text text-anchor="middle" x="397.88" y="-956.36" font-family="Helvetica,sans-Serif" font-weight="bold" font-size="9.00">site&#45;control</text>
</g>
<g id="clust18" class="cluster">
<title>cluster_src/ts/ui/overlay/site&#45;control/scroll</title>
<path fill="#ffffff" stroke="black" stroke-width="2" d="M415.25,-796.91C415.25,-796.91 651,-796.91 651,-796.91 657,-796.91 663,-802.91 663,-808.91 663,-808.91 663,-868.91 663,-868.91 663,-874.91 657,-880.91 651,-880.91 651,-880.91 415.25,-880.91 415.25,-880.91 409.25,-880.91 403.25,-874.91 403.25,-868.91 403.25,-868.91 403.25,-808.91 403.25,-808.91 403.25,-802.91 409.25,-796.91 415.25,-796.91"/>
<text text-anchor="middle" x="533.12" y="-868.36" font-family="Helvetica,sans-Serif" font-weight="bold" font-size="9.00">scroll</text>
</g>
<g id="clust19" class="cluster">
<title>cluster_src/ts/ui/overlay/site&#45;control/theme</title>
<path fill="#ffffff" stroke="black" stroke-width="2" d="M413.75,-888.91C413.75,-888.91 652.5,-888.91 652.5,-888.91 658.5,-888.91 664.5,-894.91 664.5,-900.91 664.5,-900.91 664.5,-929.91 664.5,-929.91 664.5,-935.91 658.5,-941.91 652.5,-941.91 652.5,-941.91 413.75,-941.91 413.75,-941.91 407.75,-941.91 401.75,-935.91 401.75,-929.91 401.75,-929.91 401.75,-900.91 401.75,-900.91 401.75,-894.91 407.75,-888.91 413.75,-888.91"/>
<text text-anchor="middle" x="533.12" y="-929.36" font-family="Helvetica,sans-Serif" font-weight="bold" font-size="9.00">theme</text>
</g>
<g id="clust20" class="cluster">
<title>cluster_src/ts/ui/overlay/surface</title>
<path fill="#ffffff" stroke="black" stroke-width="2" d="M267.75,-1002.91C267.75,-1002.91 361.25,-1002.91 361.25,-1002.91 367.25,-1002.91 373.25,-1008.91 373.25,-1014.91 373.25,-1014.91 373.25,-1043.91 373.25,-1043.91 373.25,-1049.91 367.25,-1055.91 361.25,-1055.91 361.25,-1055.91 267.75,-1055.91 267.75,-1055.91 261.75,-1055.91 255.75,-1049.91 255.75,-1043.91 255.75,-1043.91 255.75,-1014.91 255.75,-1014.91 255.75,-1008.91 261.75,-1002.91 267.75,-1002.91"/>
<text text-anchor="middle" x="314.5" y="-1043.36" font-family="Helvetica,sans-Serif" font-weight="bold" font-size="9.00">surface</text>
</g>
<g id="clust21" class="cluster">
<title>cluster_src/ts/ui/site</title>
<path fill="#ffffff" stroke="black" stroke-width="2" d="M272.88,-161.91C272.88,-161.91 667.38,-161.91 667.38,-161.91 673.38,-161.91 679.38,-167.91 679.38,-173.91 679.38,-173.91 679.38,-420.91 679.38,-420.91 679.38,-426.91 673.38,-432.91 667.38,-432.91 667.38,-432.91 272.88,-432.91 272.88,-432.91 266.88,-432.91 260.88,-426.91 260.88,-420.91 260.88,-420.91 260.88,-173.91 260.88,-173.91 260.88,-167.91 266.88,-161.91 272.88,-161.91"/>
<text text-anchor="middle" x="470.12" y="-420.36" font-family="Helvetica,sans-Serif" font-weight="bold" font-size="9.00">site</text>
</g>
<g id="clust22" class="cluster">
<title>cluster_src/ts/ui/site/footer</title>
<path fill="#ffffff" stroke="black" stroke-width="2" d="M283.12,-230.91C283.12,-230.91 505,-230.91 505,-230.91 511,-230.91 517,-236.91 517,-242.91 517,-242.91 517,-271.91 517,-271.91 517,-277.91 511,-283.91 505,-283.91 505,-283.91 283.12,-283.91 283.12,-283.91 277.12,-283.91 271.12,-277.91 271.12,-271.91 271.12,-271.91 271.12,-242.91 271.12,-242.91 271.12,-236.91 277.12,-230.91 283.12,-230.91"/>
<text text-anchor="middle" x="394.06" y="-271.36" font-family="Helvetica,sans-Serif" font-weight="bold" font-size="9.00">footer</text>
</g>
<g id="clust23" class="cluster">
<title>cluster_src/ts/ui/site/header</title>
<path fill="#ffffff" stroke="black" stroke-width="2" d="M280.88,-169.91C280.88,-169.91 507.25,-169.91 507.25,-169.91 513.25,-169.91 519.25,-175.91 519.25,-181.91 519.25,-181.91 519.25,-210.91 519.25,-210.91 519.25,-216.91 513.25,-222.91 507.25,-222.91 507.25,-222.91 280.88,-222.91 280.88,-222.91 274.88,-222.91 268.88,-216.91 268.88,-210.91 268.88,-210.91 268.88,-181.91 268.88,-181.91 268.88,-175.91 274.88,-169.91 280.88,-169.91"/>
<text text-anchor="middle" x="394.06" y="-210.36" font-family="Helvetica,sans-Serif" font-weight="bold" font-size="9.00">header</text>
</g>
<g id="clust24" class="cluster">
<title>cluster_src/ts/ui/site/project</title>
<path fill="#ffffff" stroke="black" stroke-width="2" d="M281.62,-291.91C281.62,-291.91 659.38,-291.91 659.38,-291.91 665.38,-291.91 671.38,-297.91 671.38,-303.91 671.38,-303.91 671.38,-393.91 671.38,-393.91 671.38,-399.91 665.38,-405.91 659.38,-405.91 659.38,-405.91 281.62,-405.91 281.62,-405.91 275.62,-405.91 269.62,-399.91 269.62,-393.91 269.62,-393.91 269.62,-303.91 269.62,-303.91 269.62,-297.91 275.62,-291.91 281.62,-291.91"/>
<text text-anchor="middle" x="470.5" y="-393.36" font-family="Helvetica,sans-Serif" font-weight="bold" font-size="9.00">project</text>
</g>
<g id="clust25" class="cluster">
<title>cluster_src/ts/ui/site/project/text</title>
<path fill="#ffffff" stroke="black" stroke-width="2" d="M414.88,-325.91C414.88,-325.91 651.38,-325.91 651.38,-325.91 657.38,-325.91 663.38,-331.91 663.38,-337.91 663.38,-337.91 663.38,-366.91 663.38,-366.91 663.38,-372.91 657.38,-378.91 651.38,-378.91 651.38,-378.91 414.88,-378.91 414.88,-378.91 408.88,-378.91 402.88,-372.91 402.88,-366.91 402.88,-366.91 402.88,-337.91 402.88,-337.91 402.88,-331.91 408.88,-325.91 414.88,-325.91"/>
<text text-anchor="middle" x="533.12" y="-366.36" font-family="Helvetica,sans-Serif" font-weight="bold" font-size="9.00">text</text>
</g>
<!-- src/ts/Application.module.css -->
<g id="node1" class="node">
<title>src/ts/Application.module.css</title>
<g id="a_node1"><a xlink:href="src/ts/Application.module.css" xlink:title="Application.module.css">
<path fill="#ffffcc" stroke="black" d="M237.08,-146.16C237.08,-146.16 138.92,-146.16 138.92,-146.16 135.83,-146.16 132.75,-143.08 132.75,-139.99 132.75,-139.99 132.75,-133.83 132.75,-133.83 132.75,-130.74 135.83,-127.66 138.92,-127.66 138.92,-127.66 237.08,-127.66 237.08,-127.66 240.17,-127.66 243.25,-130.74 243.25,-133.83 243.25,-133.83 243.25,-139.99 243.25,-139.99 243.25,-143.08 240.17,-146.16 237.08,-146.16"/>
<text text-anchor="start" x="140.75" y="-133.61" font-family="Helvetica,sans-Serif" font-size="9.00">Application.module.css</text>
</a>
</g>
</g>
<!-- src/ts/Application.tsx -->
<g id="node2" class="node">
<title>src/ts/Application.tsx</title>
<g id="a_node2"><a xlink:href="src/ts/Application.tsx" xlink:title="Application.tsx">
<path fill="#bbfeff" stroke="black" d="M93.08,-318.16C93.08,-318.16 30.17,-318.16 30.17,-318.16 27.08,-318.16 24,-315.08 24,-311.99 24,-311.99 24,-305.83 24,-305.83 24,-302.74 27.08,-299.66 30.17,-299.66 30.17,-299.66 93.08,-299.66 93.08,-299.66 96.17,-299.66 99.25,-302.74 99.25,-305.83 99.25,-305.83 99.25,-311.99 99.25,-311.99 99.25,-315.08 96.17,-318.16 93.08,-318.16"/>
<text text-anchor="start" x="32" y="-305.61" font-family="Helvetica,sans-Serif" font-size="9.00">Application.tsx</text>
</a>
</g>
</g>
<!-- src/ts/Application.tsx&#45;&gt;src/ts/Application.module.css -->
<g id="edge1" class="edge">
<title>src/ts/Application.tsx&#45;&gt;src/ts/Application.module.css</title>
<path fill="none" stroke="#000000" stroke-width="2" stroke-opacity="0.200000" d="M62.13,-299.33C61.26,-271.65 62.83,-191.03 107.25,-150.91 112.13,-146.5 117.88,-143.24 124.03,-140.85"/>
<polygon fill="#000000" fill-opacity="0.200000" stroke="#000000" stroke-width="2" stroke-opacity="0.200000" points="124.66,-142.85 129.73,-139.03 123.38,-138.85 124.66,-142.85"/>
</g>
<!-- src/ts/ui/overlay/UIOverlay.tsx -->
<g id="node3" class="node">
<title>src/ts/ui/overlay/UIOverlay.tsx</title>
<g id="a_node3"><a xlink:href="src/ts/ui/overlay/UIOverlay.tsx" xlink:title="UIOverlay.tsx">
<path fill="#bbfeff" stroke="black" d="M216.46,-995.16C216.46,-995.16 159.54,-995.16 159.54,-995.16 156.46,-995.16 153.38,-992.08 153.38,-988.99 153.38,-988.99 153.38,-982.83 153.38,-982.83 153.38,-979.74 156.46,-976.66 159.54,-976.66 159.54,-976.66 216.46,-976.66 216.46,-976.66 219.54,-976.66 222.62,-979.74 222.62,-982.83 222.62,-982.83 222.62,-988.99 222.62,-988.99 222.62,-992.08 219.54,-995.16 216.46,-995.16"/>
<text text-anchor="start" x="161.38" y="-982.61" font-family="Helvetica,sans-Serif" font-size="9.00">UIOverlay.tsx</text>
</a>
</g>
</g>
<!-- src/ts/Application.tsx&#45;&gt;src/ts/ui/overlay/UIOverlay.tsx -->
<g id="edge2" class="edge">
<title>src/ts/Application.tsx&#45;&gt;src/ts/ui/overlay/UIOverlay.tsx</title>
<path fill="none" stroke="#000000" stroke-width="2" stroke-opacity="0.200000" d="M62.57,-318.48C62.22,-396.13 61.56,-921.07 107.25,-971.91 116.5,-982.2 130.43,-986.65 144.07,-988.22"/>
<polygon fill="#000000" fill-opacity="0.200000" stroke="#000000" stroke-width="2" stroke-opacity="0.200000" points="143.78,-990.31 149.92,-988.65 144.09,-986.12 143.78,-990.31"/>
</g>
<!-- src/ts/ui/UIContainer.tsx -->
<g id="node4" class="node">
<title>src/ts/ui/UIContainer.tsx</title>
<g id="a_node4"><a xlink:href="src/ts/ui/UIContainer.tsx" xlink:title="UIContainer.tsx">
<path fill="#bbfeff" stroke="black" d="M220.96,-318.16C220.96,-318.16 155.04,-318.16 155.04,-318.16 151.96,-318.16 148.88,-315.08 148.88,-311.99 148.88,-311.99 148.88,-305.83 148.88,-305.83 148.88,-302.74 151.96,-299.66 155.04,-299.66 155.04,-299.66 220.96,-299.66 220.96,-299.66 224.04,-299.66 227.12,-302.74 227.12,-305.83 227.12,-305.83 227.12,-311.99 227.12,-311.99 227.12,-315.08 224.04,-318.16 220.96,-318.16"/>
<text text-anchor="start" x="156.88" y="-305.61" font-family="Helvetica,sans-Serif" font-size="9.00">UIContainer.tsx</text>
</a>
</g>
</g>
<!-- src/ts/Application.tsx&#45;&gt;src/ts/ui/UIContainer.tsx -->
<g id="edge3" class="edge">
<title>src/ts/Application.tsx&#45;&gt;src/ts/ui/UIContainer.tsx</title>
<path fill="none" stroke="#000000" stroke-width="2" stroke-opacity="0.200000" d="M99.6,-308.91C112.17,-308.91 126.39,-308.91 139.66,-308.91"/>
<polygon fill="#000000" fill-opacity="0.200000" stroke="#000000" stroke-width="2" stroke-opacity="0.200000" points="139.63,-311.01 145.63,-308.91 139.63,-306.81 139.63,-311.01"/>
</g>
<!-- src/ts/ui/overlay/UIOverlay.module.css -->
<g id="node29" class="node">
<title>src/ts/ui/overlay/UIOverlay.module.css</title>
<g id="a_node29"><a xlink:href="src/ts/ui/overlay/UIOverlay.module.css" xlink:title="UIOverlay.module.css">
<path fill="#ffffcc" stroke="black" d="M360.58,-995.16C360.58,-995.16 268.42,-995.16 268.42,-995.16 265.33,-995.16 262.25,-992.08 262.25,-988.99 262.25,-988.99 262.25,-982.83 262.25,-982.83 262.25,-979.74 265.33,-976.66 268.42,-976.66 268.42,-976.66 360.58,-976.66 360.58,-976.66 363.67,-976.66 366.75,-979.74 366.75,-982.83 366.75,-982.83 366.75,-988.99 366.75,-988.99 366.75,-992.08 363.67,-995.16 360.58,-995.16"/>
<text text-anchor="start" x="270.25" y="-982.61" font-family="Helvetica,sans-Serif" font-size="9.00">UIOverlay.module.css</text>
</a>
</g>
</g>
<!-- src/ts/ui/overlay/UIOverlay.tsx&#45;&gt;src/ts/ui/overlay/UIOverlay.module.css -->
<g id="edge25" class="edge">
<title>src/ts/ui/overlay/UIOverlay.tsx&#45;&gt;src/ts/ui/overlay/UIOverlay.module.css</title>
<path fill="none" stroke="#000000" stroke-width="2" stroke-opacity="0.200000" d="M223.02,-985.91C232.26,-985.91 242.56,-985.91 252.8,-985.91"/>
<polygon fill="#000000" fill-opacity="0.200000" stroke="#000000" stroke-width="2" stroke-opacity="0.200000" points="252.73,-988.01 258.73,-985.91 252.73,-983.81 252.73,-988.01"/>
</g>
<!-- src/ts/ui/overlay/site&#45;control/UISiteControl.tsx -->
<g id="node30" class="node">
<title>src/ts/ui/overlay/site&#45;control/UISiteControl.tsx</title>
<g id="a_node30"><a xlink:href="src/ts/ui/overlay/site-control/UISiteControl.tsx" xlink:title="UISiteControl.tsx">
<path fill="#bbfeff" stroke="black" d="M350.46,-854.16C350.46,-854.16 278.54,-854.16 278.54,-854.16 275.46,-854.16 272.38,-851.08 272.38,-847.99 272.38,-847.99 272.38,-841.83 272.38,-841.83 272.38,-838.74 275.46,-835.66 278.54,-835.66 278.54,-835.66 350.46,-835.66 350.46,-835.66 353.54,-835.66 356.62,-838.74 356.62,-841.83 356.62,-841.83 356.62,-847.99 356.62,-847.99 356.62,-851.08 353.54,-854.16 350.46,-854.16"/>
<text text-anchor="start" x="280.38" y="-841.61" font-family="Helvetica,sans-Serif" font-size="9.00">UISiteControl.tsx</text>
</a>
</g>
</g>
<!-- src/ts/ui/overlay/UIOverlay.tsx&#45;&gt;src/ts/ui/overlay/site&#45;control/UISiteControl.tsx -->
<g id="edge23" class="edge">
<title>src/ts/ui/overlay/UIOverlay.tsx&#45;&gt;src/ts/ui/overlay/site&#45;control/UISiteControl.tsx</title>
<path fill="none" stroke="#000000" stroke-width="2" stroke-opacity="0.200000" d="M222.99,-984.12C231.21,-982.04 239.22,-978.34 244.75,-971.91 261.35,-952.62 238.91,-877 255.75,-857.91 258.13,-855.21 260.94,-853.01 264.01,-851.22"/>
<polygon fill="#000000" fill-opacity="0.200000" stroke="#000000" stroke-width="2" stroke-opacity="0.200000" points="264.75,-853.19 269.36,-848.8 263.02,-849.36 264.75,-853.19"/>
</g>
<!-- src/ts/ui/overlay/surface/UIOverlaySurface.tsx -->
<g id="node31" class="node">
<title>src/ts/ui/overlay/surface/UIOverlaySurface.tsx</title>
<g id="a_node31"><a xlink:href="src/ts/ui/overlay/surface/UIOverlaySurface.tsx" xlink:title="UIOverlaySurface.tsx">
<path fill="#bbfeff" stroke="black" d="M359.08,-1029.16C359.08,-1029.16 269.92,-1029.16 269.92,-1029.16 266.83,-1029.16 263.75,-1026.08 263.75,-1022.99 263.75,-1022.99 263.75,-1016.83 263.75,-1016.83 263.75,-1013.74 266.83,-1010.66 269.92,-1010.66 269.92,-1010.66 359.08,-1010.66 359.08,-1010.66 362.17,-1010.66 365.25,-1013.74 365.25,-1016.83 365.25,-1016.83 365.25,-1022.99 365.25,-1022.99 365.25,-1026.08 362.17,-1029.16 359.08,-1029.16"/>
<text text-anchor="start" x="271.75" y="-1016.61" font-family="Helvetica,sans-Serif" font-size="9.00">UIOverlaySurface.tsx</text>
</a>
</g>
</g>
<!-- src/ts/ui/overlay/UIOverlay.tsx&#45;&gt;src/ts/ui/overlay/surface/UIOverlaySurface.tsx -->
<g id="edge24" class="edge">
<title>src/ts/ui/overlay/UIOverlay.tsx&#45;&gt;src/ts/ui/overlay/surface/UIOverlaySurface.tsx</title>
<path fill="none" stroke="#000000" stroke-width="2" stroke-opacity="0.200000" d="M218.09,-995.64C229.73,-999.38 243.32,-1003.56 255.75,-1006.91 257.18,-1007.3 258.64,-1007.68 260.11,-1008.06"/>
<polygon fill="#000000" fill-opacity="0.200000" stroke="#000000" stroke-width="2" stroke-opacity="0.200000" points="259.37,-1010.04 265.7,-1009.46 260.39,-1005.97 259.37,-1010.04"/>
</g>
<!-- src/ts/store/project/projectStore.ts -->
<g id="node9" class="node">
<title>src/ts/store/project/projectStore.ts</title>
<g id="a_node9"><a xlink:href="src/ts/store/project/projectStore.ts" xlink:title="projectStore.ts">
<path fill="#ddfeff" stroke="black" d="M623.71,-1274.16C623.71,-1274.16 561.54,-1274.16 561.54,-1274.16 558.46,-1274.16 555.38,-1271.08 555.38,-1267.99 555.38,-1267.99 555.38,-1261.83 555.38,-1261.83 555.38,-1258.74 558.46,-1255.66 561.54,-1255.66 561.54,-1255.66 623.71,-1255.66 623.71,-1255.66 626.79,-1255.66 629.88,-1258.74 629.88,-1261.83 629.88,-1261.83 629.88,-1267.99 629.88,-1267.99 629.88,-1271.08 626.79,-1274.16 623.71,-1274.16"/>
<text text-anchor="start" x="563.38" y="-1261.61" font-family="Helvetica,sans-Serif" font-size="9.00">projectStore.ts</text>
</a>
</g>
</g>
<!-- src/ts/ui/UIContainer.tsx&#45;&gt;src/ts/store/project/projectStore.ts -->
<g id="edge8" class="edge">
<title>src/ts/ui/UIContainer.tsx&#45;&gt;src/ts/store/project/projectStore.ts</title>
<path fill="none" stroke="#000000" stroke-width="2" stroke-opacity="0.200000" d="M190.48,-318.4C197.82,-365.81 230.49,-581.78 244.75,-759.91 247.4,-793.05 239.6,-1029.85 255.75,-1058.91 318.3,-1171.47 470.47,-1229.88 546.64,-1252.91"/>
<polygon fill="#000000" fill-opacity="0.200000" stroke="#000000" stroke-width="2" stroke-opacity="0.200000" points="545.85,-1254.87 552.2,-1254.56 547.04,-1250.84 545.85,-1254.87"/>
</g>
<!-- src/ts/ui/UIContainer.module.css -->
<g id="node15" class="node">
<title>src/ts/ui/UIContainer.module.css</title>
<g id="a_node15"><a xlink:href="src/ts/ui/UIContainer.module.css" xlink:title="UIContainer.module.css">
<path fill="#ffffcc" stroke="black" d="M365.08,-459.16C365.08,-459.16 263.92,-459.16 263.92,-459.16 260.83,-459.16 257.75,-456.08 257.75,-452.99 257.75,-452.99 257.75,-446.83 257.75,-446.83 257.75,-443.74 260.83,-440.66 263.92,-440.66 263.92,-440.66 365.08,-440.66 365.08,-440.66 368.17,-440.66 371.25,-443.74 371.25,-446.83 371.25,-446.83 371.25,-452.99 371.25,-452.99 371.25,-456.08 368.17,-459.16 365.08,-459.16"/>
<text text-anchor="start" x="265.75" y="-446.61" font-family="Helvetica,sans-Serif" font-size="9.00">UIContainer.module.css</text>
</a>
</g>
</g>
<!-- src/ts/ui/UIContainer.tsx&#45;&gt;src/ts/ui/UIContainer.module.css -->
<g id="edge12" class="edge">
<title>src/ts/ui/UIContainer.tsx&#45;&gt;src/ts/ui/UIContainer.module.css</title>
<path fill="none" stroke="#000000" stroke-width="2" stroke-opacity="0.200000" d="M193.88,-318.55C203.75,-337.41 227.53,-379.87 255.75,-408.91 265.54,-418.99 278.1,-428.24 289,-435.39"/>
<polygon fill="#000000" fill-opacity="0.200000" stroke="#000000" stroke-width="2" stroke-opacity="0.200000" points="287.84,-437.14 294.03,-438.59 290.09,-433.59 287.84,-437.14"/>
</g>
<!-- src/ts/ui/site/footer/SiteFooter.tsx -->
<g id="node16" class="node">
<title>src/ts/ui/site/footer/SiteFooter.tsx</title>
<g id="a_node16"><a xlink:href="src/ts/ui/site/footer/SiteFooter.tsx" xlink:title="SiteFooter.tsx">
<path fill="#bbfeff" stroke="black" d="M343.71,-257.16C343.71,-257.16 285.29,-257.16 285.29,-257.16 282.21,-257.16 279.12,-254.08 279.12,-250.99 279.12,-250.99 279.12,-244.83 279.12,-244.83 279.12,-241.74 282.21,-238.66 285.29,-238.66 285.29,-238.66 343.71,-238.66 343.71,-238.66 346.79,-238.66 349.88,-241.74 349.88,-244.83 349.88,-244.83 349.88,-250.99 349.88,-250.99 349.88,-254.08 346.79,-257.16 343.71,-257.16"/>
<text text-anchor="start" x="287.12" y="-244.61" font-family="Helvetica,sans-Serif" font-size="9.00">SiteFooter.tsx</text>
</a>
</g>
</g>
<!-- src/ts/ui/UIContainer.tsx&#45;&gt;src/ts/ui/site/footer/SiteFooter.tsx -->
<g id="edge9" class="edge">
<title>src/ts/ui/UIContainer.tsx&#45;&gt;src/ts/ui/site/footer/SiteFooter.tsx</title>
<path fill="none" stroke="#000000" stroke-width="2" stroke-opacity="0.200000" d="M227.42,-301.99C233.35,-300.34 239.3,-298.34 244.75,-295.91 247.41,-294.73 273.53,-276.32 292.79,-262.65"/>
<polygon fill="#000000" fill-opacity="0.200000" stroke="#000000" stroke-width="2" stroke-opacity="0.200000" points="293.89,-264.45 297.56,-259.26 291.45,-261.03 293.89,-264.45"/>
</g>
<!-- src/ts/ui/site/header/SiteHeader.tsx -->
<g id="node17" class="node">
<title>src/ts/ui/site/header/SiteHeader.tsx</title>
<g id="a_node17"><a xlink:href="src/ts/ui/site/header/SiteHeader.tsx" xlink:title="SiteHeader.tsx">
<path fill="#bbfeff" stroke="black" d="M345.96,-196.16C345.96,-196.16 283.04,-196.16 283.04,-196.16 279.96,-196.16 276.88,-193.08 276.88,-189.99 276.88,-189.99 276.88,-183.83 276.88,-183.83 276.88,-180.74 279.96,-177.66 283.04,-177.66 283.04,-177.66 345.96,-177.66 345.96,-177.66 349.04,-177.66 352.12,-180.74 352.12,-183.83 352.12,-183.83 352.12,-189.99 352.12,-189.99 352.12,-193.08 349.04,-196.16 345.96,-196.16"/>
<text text-anchor="start" x="284.88" y="-183.61" font-family="Helvetica,sans-Serif" font-size="9.00">SiteHeader.tsx</text>
</a>
</g>
</g>
<!-- src/ts/ui/UIContainer.tsx&#45;&gt;src/ts/ui/site/header/SiteHeader.tsx -->
<g id="edge10" class="edge">
<title>src/ts/ui/UIContainer.tsx&#45;&gt;src/ts/ui/site/header/SiteHeader.tsx</title>
<path fill="none" stroke="#000000" stroke-width="2" stroke-opacity="0.200000" d="M227.58,-306.17C234.04,-304.08 240.14,-300.85 244.75,-295.91 265.64,-273.53 239.57,-253.9 255.75,-227.91 262.71,-216.74 273.94,-207.74 284.66,-201.05"/>
<polygon fill="#000000" fill-opacity="0.200000" stroke="#000000" stroke-width="2" stroke-opacity="0.200000" points="285.56,-202.96 289.69,-198.12 283.45,-199.33 285.56,-202.96"/>
</g>
<!-- src/ts/ui/site/project/SiteProject.tsx -->
<g id="node18" class="node">
<title>src/ts/ui/site/project/SiteProject.tsx</title>
<g id="a_node18"><a xlink:href="src/ts/ui/site/project/SiteProject.tsx" xlink:title="SiteProject.tsx">
<path fill="#bbfeff" stroke="black" d="M345.21,-318.16C345.21,-318.16 283.79,-318.16 283.79,-318.16 280.71,-318.16 277.62,-315.08 277.62,-311.99 277.62,-311.99 277.62,-305.83 277.62,-305.83 277.62,-302.74 280.71,-299.66 283.79,-299.66 283.79,-299.66 345.21,-299.66 345.21,-299.66 348.29,-299.66 351.38,-302.74 351.38,-305.83 351.38,-305.83 351.38,-311.99 351.38,-311.99 351.38,-315.08 348.29,-318.16 345.21,-318.16"/>
<text text-anchor="start" x="285.62" y="-305.61" font-family="Helvetica,sans-Serif" font-size="9.00">SiteProject.tsx</text>
</a>
</g>
</g>
<!-- src/ts/ui/UIContainer.tsx&#45;&gt;src/ts/ui/site/project/SiteProject.tsx -->
<g id="edge11" class="edge">
<title>src/ts/ui/UIContainer.tsx&#45;&gt;src/ts/ui/site/project/SiteProject.tsx</title>
<path fill="none" stroke="#000000" stroke-width="2" stroke-opacity="0.200000" d="M227.37,-308.91C240.38,-308.91 255.03,-308.91 268.51,-308.91"/>
<polygon fill="#000000" fill-opacity="0.200000" stroke="#000000" stroke-width="2" stroke-opacity="0.200000" points="268.14,-311.01 274.14,-308.91 268.14,-306.81 268.14,-311.01"/>
</g>
<!-- src/ts/hook/useScrollProgress.ts -->
<g id="node5" class="node">
<title>src/ts/hook/useScrollProgress.ts</title>
<g id="a_node5"><a xlink:href="src/ts/hook/useScrollProgress.ts" xlink:title="useScrollProgress.ts">
<path fill="#ddfeff" stroke="black" d="M636.46,-1144.16C636.46,-1144.16 548.79,-1144.16 548.79,-1144.16 545.71,-1144.16 542.62,-1141.08 542.62,-1137.99 542.62,-1137.99 542.62,-1131.83 542.62,-1131.83 542.62,-1128.74 545.71,-1125.66 548.79,-1125.66 548.79,-1125.66 636.46,-1125.66 636.46,-1125.66 639.54,-1125.66 642.62,-1128.74 642.62,-1131.83 642.62,-1131.83 642.62,-1137.99 642.62,-1137.99 642.62,-1141.08 639.54,-1144.16 636.46,-1144.16"/>
<text text-anchor="start" x="550.62" y="-1131.61" font-family="Helvetica,sans-Serif" font-size="9.00">useScrollProgress.ts</text>
</a>
</g>
</g>
<!-- src/ts/motion/duration.ts -->
<g id="node6" class="node">
<title>src/ts/motion/duration.ts</title>
<g id="a_node6"><a xlink:href="src/ts/motion/duration.ts" xlink:title="duration.ts">
<path fill="#ddfeff" stroke="black" d="M915.71,-119.16C915.71,-119.16 869.29,-119.16 869.29,-119.16 866.21,-119.16 863.12,-116.08 863.12,-112.99 863.12,-112.99 863.12,-106.83 863.12,-106.83 863.12,-103.74 866.21,-100.66 869.29,-100.66 869.29,-100.66 915.71,-100.66 915.71,-100.66 918.79,-100.66 921.88,-103.74 921.88,-106.83 921.88,-106.83 921.88,-112.99 921.88,-112.99 921.88,-116.08 918.79,-119.16 915.71,-119.16"/>
<text text-anchor="start" x="871.12" y="-106.61" font-family="Helvetica,sans-Serif" font-size="9.00">duration.ts</text>
</a>
</g>
</g>
<!-- src/ts/motion/ease.ts -->
<g id="node7" class="node">
<title>src/ts/motion/ease.ts</title>
<g id="a_node7"><a xlink:href="src/ts/motion/ease.ts" xlink:title="ease.ts">
<path fill="#ddfeff" stroke="black" d="M768.33,-88.16C768.33,-88.16 726.67,-88.16 726.67,-88.16 723.58,-88.16 720.5,-85.08 720.5,-81.99 720.5,-81.99 720.5,-75.83 720.5,-75.83 720.5,-72.74 723.58,-69.66 726.67,-69.66 726.67,-69.66 768.33,-69.66 768.33,-69.66 771.42,-69.66 774.5,-72.74 774.5,-75.83 774.5,-75.83 774.5,-81.99 774.5,-81.99 774.5,-85.08 771.42,-88.16 768.33,-88.16"/>
<text text-anchor="start" x="732.88" y="-75.61" font-family="Helvetica,sans-Serif" font-size="9.00">ease.ts</text>
</a>
</g>
</g>
<!-- src/ts/motion/fade.ts -->
<g id="node8" class="node">
<title>src/ts/motion/fade.ts</title>
<g id="a_node8"><a xlink:href="src/ts/motion/fade.ts" xlink:title="fade.ts">
<path fill="#ddfeff" stroke="black" d="M768.33,-119.16C768.33,-119.16 726.67,-119.16 726.67,-119.16 723.58,-119.16 720.5,-116.08 720.5,-112.99 720.5,-112.99 720.5,-106.83 720.5,-106.83 720.5,-103.74 723.58,-100.66 726.67,-100.66 726.67,-100.66 768.33,-100.66 768.33,-100.66 771.42,-100.66 774.5,-103.74 774.5,-106.83 774.5,-106.83 774.5,-112.99 774.5,-112.99 774.5,-116.08 771.42,-119.16 768.33,-119.16"/>
<text text-anchor="start" x="734" y="-106.61" font-family="Helvetica,sans-Serif" font-size="9.00">fade.ts</text>
</a>
</g>
</g>
<!-- src/ts/motion/fade.ts&#45;&gt;src/ts/motion/duration.ts -->
<g id="edge4" class="edge">
<title>src/ts/motion/fade.ts&#45;&gt;src/ts/motion/duration.ts</title>
<path fill="none" stroke="#000000" stroke-width="2" stroke-opacity="0.200000" d="M774.73,-109.91C796.99,-109.91 829.2,-109.91 854.15,-109.91"/>
<polygon fill="#000000" fill-opacity="0.200000" stroke="#000000" stroke-width="2" stroke-opacity="0.200000" points="853.96,-112.01 859.96,-109.91 853.96,-107.81 853.96,-112.01"/>
</g>
<!-- src/ts/store/uiState/uiStateStore.ts -->
<g id="node10" class="node">
<title>src/ts/store/uiState/uiStateStore.ts</title>
<g id="a_node10"><a xlink:href="src/ts/store/uiState/uiStateStore.ts" xlink:title="uiStateStore.ts">
<path fill="#ddfeff" stroke="black" d="M624.08,-1213.16C624.08,-1213.16 561.17,-1213.16 561.17,-1213.16 558.08,-1213.16 555,-1210.08 555,-1206.99 555,-1206.99 555,-1200.83 555,-1200.83 555,-1197.74 558.08,-1194.66 561.17,-1194.66 561.17,-1194.66 624.08,-1194.66 624.08,-1194.66 627.17,-1194.66 630.25,-1197.74 630.25,-1200.83 630.25,-1200.83 630.25,-1206.99 630.25,-1206.99 630.25,-1210.08 627.17,-1213.16 624.08,-1213.16"/>
<text text-anchor="start" x="563" y="-1200.61" font-family="Helvetica,sans-Serif" font-size="9.00">uiStateStore.ts</text>
</a>
</g>
</g>
<!-- src/ts/types/index.ts -->
<g id="node11" class="node">
<title>src/ts/types/index.ts</title>
<g id="a_node11"><a xlink:href="src/ts/types/index.ts" xlink:title="index.ts">
<path fill="#ddfeff" stroke="black" d="M768.33,-1178.16C768.33,-1178.16 726.67,-1178.16 726.67,-1178.16 723.58,-1178.16 720.5,-1175.08 720.5,-1171.99 720.5,-1171.99 720.5,-1165.83 720.5,-1165.83 720.5,-1162.74 723.58,-1159.66 726.67,-1159.66 726.67,-1159.66 768.33,-1159.66 768.33,-1159.66 771.42,-1159.66 774.5,-1162.74 774.5,-1165.83 774.5,-1165.83 774.5,-1171.99 774.5,-1171.99 774.5,-1175.08 771.42,-1178.16 768.33,-1178.16"/>
<text text-anchor="start" x="731.75" y="-1165.61" font-family="Helvetica,sans-Serif" font-size="9.00">index.ts</text>
</a>
</g>
</g>
<!-- src/ts/store/uiState/uiStateStore.ts&#45;&gt;src/ts/types/index.ts -->
<g id="edge5" class="edge">
<title>src/ts/store/uiState/uiStateStore.ts&#45;&gt;src/ts/types/index.ts</title>
<path fill="none" stroke="#000000" stroke-width="2" stroke-opacity="0.200000" d="M630.63,-1195.44C655.34,-1189.78 687.63,-1182.39 711.84,-1176.85"/>
<polygon fill="#000000" fill-opacity="0.200000" stroke="#000000" stroke-width="2" stroke-opacity="0.200000" points="712.04,-1178.95 717.42,-1175.57 711.1,-1174.86 712.04,-1178.95"/>
</g>
<!-- src/ts/types/project.ts -->
<g id="node12" class="node">
<title>src/ts/types/project.ts</title>
<g id="a_node12"><a xlink:href="src/ts/types/project.ts" xlink:title="project.ts">
<path fill="#ddfeff" stroke="black" d="M913.33,-1178.16C913.33,-1178.16 871.67,-1178.16 871.67,-1178.16 868.58,-1178.16 865.5,-1175.08 865.5,-1171.99 865.5,-1171.99 865.5,-1165.83 865.5,-1165.83 865.5,-1162.74 868.58,-1159.66 871.67,-1159.66 871.67,-1159.66 913.33,-1159.66 913.33,-1159.66 916.42,-1159.66 919.5,-1162.74 919.5,-1165.83 919.5,-1165.83 919.5,-1171.99 919.5,-1171.99 919.5,-1175.08 916.42,-1178.16 913.33,-1178.16"/>
<text text-anchor="start" x="874.12" y="-1165.61" font-family="Helvetica,sans-Serif" font-size="9.00">project.ts</text>
</a>
</g>
</g>
<!-- src/ts/types/index.ts&#45;&gt;src/ts/types/project.ts -->
<g id="edge6" class="edge">
<title>src/ts/types/index.ts&#45;&gt;src/ts/types/project.ts</title>
<path fill="none" stroke="#000000" stroke-width="2" stroke-opacity="0.200000" d="M774.73,-1168.91C798.31,-1168.91 833.06,-1168.91 858.52,-1168.91"/>
<polygon fill="#000000" fill-opacity="0.200000" stroke="#000000" stroke-width="2" stroke-opacity="0.200000" points="864.44,-1171.01 858.44,-1168.91 864.44,-1166.81 864.44,-1171.01"/>
</g>
<!-- src/ts/types/theme.ts -->
<g id="node13" class="node">
<title>src/ts/types/theme.ts</title>
<g id="a_node13"><a xlink:href="src/ts/types/theme.ts" xlink:title="theme.ts">
<path fill="#ddfeff" stroke="black" d="M913.33,-1209.16C913.33,-1209.16 871.67,-1209.16 871.67,-1209.16 868.58,-1209.16 865.5,-1206.08 865.5,-1202.99 865.5,-1202.99 865.5,-1196.83 865.5,-1196.83 865.5,-1193.74 868.58,-1190.66 871.67,-1190.66 871.67,-1190.66 913.33,-1190.66 913.33,-1190.66 916.42,-1190.66 919.5,-1193.74 919.5,-1196.83 919.5,-1196.83 919.5,-1202.99 919.5,-1202.99 919.5,-1206.08 916.42,-1209.16 913.33,-1209.16"/>
<text text-anchor="start" x="875.25" y="-1196.61" font-family="Helvetica,sans-Serif" font-size="9.00">theme.ts</text>
</a>
</g>
</g>
<!-- src/ts/types/index.ts&#45;&gt;src/ts/types/theme.ts -->
<g id="edge7" class="edge">
<title>src/ts/types/index.ts&#45;&gt;src/ts/types/theme.ts</title>
<path fill="none" stroke="#000000" stroke-width="2" stroke-opacity="0.200000" d="M774.73,-1174.6C798.31,-1179.71 833.06,-1187.24 858.52,-1192.76"/>
<polygon fill="#000000" fill-opacity="0.200000" stroke="#000000" stroke-width="2" stroke-opacity="0.200000" points="864.02,-1196.1 858.6,-1192.78 864.91,-1192 864.02,-1196.1"/>
</g>
<!-- src/ts/types/vector.ts -->
<g id="node14" class="node">
<title>src/ts/types/vector.ts</title>
<g id="a_node14"><a xlink:href="src/ts/types/vector.ts" xlink:title="vector.ts">
<path fill="#ccffcc" stroke="black" d="M768.33,-1209.16C768.33,-1209.16 726.67,-1209.16 726.67,-1209.16 723.58,-1209.16 720.5,-1206.08 720.5,-1202.99 720.5,-1202.99 720.5,-1196.83 720.5,-1196.83 720.5,-1193.74 723.58,-1190.66 726.67,-1190.66 726.67,-1190.66 768.33,-1190.66 768.33,-1190.66 771.42,-1190.66 774.5,-1193.74 774.5,-1196.83 774.5,-1196.83 774.5,-1202.99 774.5,-1202.99 774.5,-1206.08 771.42,-1209.16 768.33,-1209.16"/>
<text text-anchor="start" x="731" y="-1196.61" font-family="Helvetica,sans-Serif" font-size="9.00">vector.ts</text>
</a>
</g>
</g>
<!-- src/ts/ui/component/button/text/ButtonText.tsx -->
<g id="node21" class="node">
<title>src/ts/ui/component/button/text/ButtonText.tsx</title>
<g id="a_node21"><a xlink:href="src/ts/ui/component/button/text/ButtonText.tsx" xlink:title="ButtonText.tsx">
<path fill="#bbfeff" stroke="black" d="M622.58,-483.16C622.58,-483.16 562.67,-483.16 562.67,-483.16 559.58,-483.16 556.5,-480.08 556.5,-476.99 556.5,-476.99 556.5,-470.83 556.5,-470.83 556.5,-467.74 559.58,-464.66 562.67,-464.66 562.67,-464.66 622.58,-464.66 622.58,-464.66 625.67,-464.66 628.75,-467.74 628.75,-470.83 628.75,-470.83 628.75,-476.99 628.75,-476.99 628.75,-480.08 625.67,-483.16 622.58,-483.16"/>
<text text-anchor="start" x="564.5" y="-470.61" font-family="Helvetica,sans-Serif" font-size="9.00">ButtonText.tsx</text>
</a>
</g>
</g>
<!-- src/ts/ui/site/footer/SiteFooter.tsx&#45;&gt;src/ts/ui/component/button/text/ButtonText.tsx -->
<g id="edge38" class="edge">
<title>src/ts/ui/site/footer/SiteFooter.tsx&#45;&gt;src/ts/ui/component/button/text/ButtonText.tsx</title>
<path fill="none" stroke="#000000" stroke-width="2" stroke-opacity="0.200000" d="M338.27,-257.66C351.01,-264.42 365.78,-274.78 373.25,-288.91 384.51,-310.23 364.04,-706.02 381.25,-722.91 425.02,-765.88 474.76,-765.13 519.25,-722.91 533.86,-709.05 520.92,-560.46 528.75,-541.91 537.83,-520.4 556.84,-501.41 571.6,-489"/>
<polygon fill="#000000" fill-opacity="0.200000" stroke="#000000" stroke-width="2" stroke-opacity="0.200000" points="572.75,-490.77 576.08,-485.36 570.1,-487.51 572.75,-490.77"/>
</g>
<!-- src/ts/ui/site/footer/SiteFooter.module.css -->
<g id="node39" class="node">
<title>src/ts/ui/site/footer/SiteFooter.module.css</title>
<g id="a_node39"><a xlink:href="src/ts/ui/site/footer/SiteFooter.module.css" xlink:title="SiteFooter.module.css">
<path fill="#ffffcc" stroke="black" d="M502.83,-257.16C502.83,-257.16 409.17,-257.16 409.17,-257.16 406.08,-257.16 403,-254.08 403,-250.99 403,-250.99 403,-244.83 403,-244.83 403,-241.74 406.08,-238.66 409.17,-238.66 409.17,-238.66 502.83,-238.66 502.83,-238.66 505.92,-238.66 509,-241.74 509,-244.83 509,-244.83 509,-250.99 509,-250.99 509,-254.08 505.92,-257.16 502.83,-257.16"/>
<text text-anchor="start" x="411" y="-244.61" font-family="Helvetica,sans-Serif" font-size="9.00">SiteFooter.module.css</text>
</a>
</g>
</g>
<!-- src/ts/ui/site/footer/SiteFooter.tsx&#45;&gt;src/ts/ui/site/footer/SiteFooter.module.css -->
<g id="edge39" class="edge">
<title>src/ts/ui/site/footer/SiteFooter.tsx&#45;&gt;src/ts/ui/site/footer/SiteFooter.module.css</title>
<path fill="none" stroke="#000000" stroke-width="2" stroke-opacity="0.200000" d="M350.34,-247.91C363.56,-247.91 379.04,-247.91 393.98,-247.91"/>
<polygon fill="#000000" fill-opacity="0.200000" stroke="#000000" stroke-width="2" stroke-opacity="0.200000" points="393.66,-250.01 399.66,-247.91 393.66,-245.81 393.66,-250.01"/>
</g>
<!-- src/ts/ui/site/header/SiteHeader.module.css -->
<g id="node40" class="node">
<title>src/ts/ui/site/header/SiteHeader.module.css</title>
<g id="a_node40"><a xlink:href="src/ts/ui/site/header/SiteHeader.module.css" xlink:title="SiteHeader.module.css">
<path fill="#ffffcc" stroke="black" d="M505.08,-196.16C505.08,-196.16 406.92,-196.16 406.92,-196.16 403.83,-196.16 400.75,-193.08 400.75,-189.99 400.75,-189.99 400.75,-183.83 400.75,-183.83 400.75,-180.74 403.83,-177.66 406.92,-177.66 406.92,-177.66 505.08,-177.66 505.08,-177.66 508.17,-177.66 511.25,-180.74 511.25,-183.83 511.25,-183.83 511.25,-189.99 511.25,-189.99 511.25,-193.08 508.17,-196.16 505.08,-196.16"/>
<text text-anchor="start" x="408.75" y="-183.61" font-family="Helvetica,sans-Serif" font-size="9.00">SiteHeader.module.css</text>
</a>
</g>
</g>
<!-- src/ts/ui/site/header/SiteHeader.tsx&#45;&gt;src/ts/ui/site/header/SiteHeader.module.css -->
<g id="edge40" class="edge">
<title>src/ts/ui/site/header/SiteHeader.tsx&#45;&gt;src/ts/ui/site/header/SiteHeader.module.css</title>
<path fill="none" stroke="#000000" stroke-width="2" stroke-opacity="0.200000" d="M352.52,-186.91C364.57,-186.91 378.3,-186.91 391.72,-186.91"/>
<polygon fill="#000000" fill-opacity="0.200000" stroke="#000000" stroke-width="2" stroke-opacity="0.200000" points="391.44,-189.01 397.44,-186.91 391.44,-184.81 391.44,-189.01"/>
</g>
<!-- src/ts/ui/site/project/SiteProject.tsx&#45;&gt;src/ts/motion/duration.ts -->
<g id="edge41" class="edge">
<title>src/ts/ui/site/project/SiteProject.tsx&#45;&gt;src/ts/motion/duration.ts</title>
<path fill="none" stroke="#000000" stroke-width="2" stroke-opacity="0.200000" d="M351.86,-302.26C360.16,-299 368.05,-294.14 373.25,-286.91 386.49,-268.49 365.39,-99.13 381.25,-82.91 516.85,55.78 630.7,-10.81 817.25,-63.91 838.36,-69.92 859.34,-83.84 873.59,-94.81"/>
<polygon fill="#000000" fill-opacity="0.200000" stroke="#000000" stroke-width="2" stroke-opacity="0.200000" points="872.01,-96.24 878.02,-98.33 874.63,-92.95 872.01,-96.24"/>
</g>
<!-- src/ts/ui/site/project/SiteProject.tsx&#45;&gt;src/ts/motion/ease.ts -->
<g id="edge42" class="edge">
<title>src/ts/ui/site/project/SiteProject.tsx&#45;&gt;src/ts/motion/ease.ts</title>
<path fill="none" stroke="#000000" stroke-width="2" stroke-opacity="0.200000" d="M351.8,-302.22C360.1,-298.96 368.02,-294.11 373.25,-286.91 383.71,-272.51 369.18,-139.99 381.25,-126.91 425.19,-79.27 628.45,-76.98 711.25,-78.09"/>
<polygon fill="#000000" fill-opacity="0.200000" stroke="#000000" stroke-width="2" stroke-opacity="0.200000" points="710.98,-80.18 717.01,-78.18 711.05,-75.99 710.98,-80.18"/>
</g>
<!-- src/ts/ui/component/viewer/MediaViewer.tsx -->
<g id="node24" class="node">
<title>src/ts/ui/component/viewer/MediaViewer.tsx</title>
<g id="a_node24"><a xlink:href="src/ts/ui/component/viewer/MediaViewer.tsx" xlink:title="MediaViewer.tsx">
<path fill="#bbfeff" stroke="black" d="M627.83,-588.16C627.83,-588.16 557.42,-588.16 557.42,-588.16 554.33,-588.16 551.25,-585.08 551.25,-581.99 551.25,-581.99 551.25,-575.83 551.25,-575.83 551.25,-572.74 554.33,-569.66 557.42,-569.66 557.42,-569.66 627.83,-569.66 627.83,-569.66 630.92,-569.66 634,-572.74 634,-575.83 634,-575.83 634,-581.99 634,-581.99 634,-585.08 630.92,-588.16 627.83,-588.16"/>
<text text-anchor="start" x="559.25" y="-575.61" font-family="Helvetica,sans-Serif" font-size="9.00">MediaViewer.tsx</text>
</a>
</g>
</g>
<!-- src/ts/ui/site/project/SiteProject.tsx&#45;&gt;src/ts/ui/component/viewer/MediaViewer.tsx -->
<g id="edge43" class="edge">
<title>src/ts/ui/site/project/SiteProject.tsx&#45;&gt;src/ts/ui/component/viewer/MediaViewer.tsx</title>
<path fill="none" stroke="#000000" stroke-width="2" stroke-opacity="0.200000" d="M351.69,-310.22C359.79,-312.21 367.63,-315.77 373.25,-321.91 391.41,-341.76 365.81,-359.88 381.25,-381.91 420.95,-438.56 478.79,-397.8 519.25,-453.91 534.79,-475.45 516.95,-489.12 528.75,-512.91 538.9,-533.38 557.6,-551.75 571.98,-563.88"/>
<polygon fill="#000000" fill-opacity="0.200000" stroke="#000000" stroke-width="2" stroke-opacity="0.200000" points="570.31,-565.23 576.29,-567.4 572.97,-561.98 570.31,-565.23"/>
</g>
<!-- src/ts/ui/site/project/SiteProject.module.css -->
<g id="node41" class="node">
<title>src/ts/ui/site/project/SiteProject.module.css</title>
<g id="a_node41"><a xlink:href="src/ts/ui/site/project/SiteProject.module.css" xlink:title="SiteProject.module.css">
<path fill="#ffffcc" stroke="black" d="M504.33,-318.16C504.33,-318.16 407.67,-318.16 407.67,-318.16 404.58,-318.16 401.5,-315.08 401.5,-311.99 401.5,-311.99 401.5,-305.83 401.5,-305.83 401.5,-302.74 404.58,-299.66 407.67,-299.66 407.67,-299.66 504.33,-299.66 504.33,-299.66 507.42,-299.66 510.5,-302.74 510.5,-305.83 510.5,-305.83 510.5,-311.99 510.5,-311.99 510.5,-315.08 507.42,-318.16 504.33,-318.16"/>
<text text-anchor="start" x="409.5" y="-305.61" font-family="Helvetica,sans-Serif" font-size="9.00">SiteProject.module.css</text>
</a>
</g>
</g>
<!-- src/ts/ui/site/project/SiteProject.tsx&#45;&gt;src/ts/ui/site/project/SiteProject.module.css -->
<g id="edge44" class="edge">
<title>src/ts/ui/site/project/SiteProject.tsx&#45;&gt;src/ts/ui/site/project/SiteProject.module.css</title>
<path fill="none" stroke="#000000" stroke-width="2" stroke-opacity="0.200000" d="M351.79,-308.91C364.11,-308.91 378.25,-308.91 392.03,-308.91"/>
<polygon fill="#000000" fill-opacity="0.200000" stroke="#000000" stroke-width="2" stroke-opacity="0.200000" points="391.99,-311.01 397.99,-308.91 391.99,-306.81 391.99,-311.01"/>
</g>
<!-- src/ts/ui/site/project/text/SiteProjectText.tsx -->
<g id="node42" class="node">
<title>src/ts/ui/site/project/text/SiteProjectText.tsx</title>
<g id="a_node42"><a xlink:href="src/ts/ui/site/project/text/SiteProjectText.tsx" xlink:title="SiteProjectText.tsx">
<path fill="#bbfeff" stroke="black" d="M494.96,-352.16C494.96,-352.16 417.04,-352.16 417.04,-352.16 413.96,-352.16 410.88,-349.08 410.88,-345.99 410.88,-345.99 410.88,-339.83 410.88,-339.83 410.88,-336.74 413.96,-333.66 417.04,-333.66 417.04,-333.66 494.96,-333.66 494.96,-333.66 498.04,-333.66 501.12,-336.74 501.12,-339.83 501.12,-339.83 501.12,-345.99 501.12,-345.99 501.12,-349.08 498.04,-352.16 494.96,-352.16"/>
<text text-anchor="start" x="418.88" y="-339.61" font-family="Helvetica,sans-Serif" font-size="9.00">SiteProjectText.tsx</text>
</a>
</g>
</g>
<!-- src/ts/ui/site/project/SiteProject.tsx&#45;&gt;src/ts/ui/site/project/text/SiteProjectText.tsx -->
<g id="edge45" class="edge">
<title>src/ts/ui/site/project/SiteProject.tsx&#45;&gt;src/ts/ui/site/project/text/SiteProjectText.tsx</title>
<path fill="none" stroke="#000000" stroke-width="2" stroke-opacity="0.200000" d="M351.77,-313.79C359.16,-315.68 366.68,-318.29 373.25,-321.91 377.65,-324.34 376.79,-327.59 381.25,-329.91 387.72,-333.28 394.89,-335.79 402.14,-337.67"/>
<polygon fill="#000000" fill-opacity="0.200000" stroke="#000000" stroke-width="2" stroke-opacity="0.200000" points="401.4,-339.65 407.71,-338.92 402.32,-335.55 401.4,-339.65"/>
</g>
<!-- src/ts/ui/component/button/text/ButtonText.module.css -->
<g id="node19" class="node">
<title>src/ts/ui/component/button/text/ButtonText.module.css</title>
<g id="a_node19"><a xlink:href="src/ts/ui/component/button/text/ButtonText.module.css" xlink:title="ButtonText.module.css">
<path fill="#ffffcc" stroke="black" d="M795.08,-483.16C795.08,-483.16 699.92,-483.16 699.92,-483.16 696.83,-483.16 693.75,-480.08 693.75,-476.99 693.75,-476.99 693.75,-470.83 693.75,-470.83 693.75,-467.74 696.83,-464.66 699.92,-464.66 699.92,-464.66 795.08,-464.66 795.08,-464.66 798.17,-464.66 801.25,-467.74 801.25,-470.83 801.25,-470.83 801.25,-476.99 801.25,-476.99 801.25,-480.08 798.17,-483.16 795.08,-483.16"/>
<text text-anchor="start" x="701.75" y="-470.61" font-family="Helvetica,sans-Serif" font-size="9.00">ButtonText.module.css</text>
</a>
</g>
</g>
<!-- src/ts/ui/component/button/text/ButtonText.stories.tsx -->
<g id="node20" class="node">
<title>src/ts/ui/component/button/text/ButtonText.stories.tsx</title>
<g id="a_node20"><a xlink:href="src/ts/ui/component/button/text/ButtonText.stories.tsx" xlink:title="ButtonText.stories.tsx">
<path fill="#bbfeff" stroke="black" d="M500.58,-483.16C500.58,-483.16 411.42,-483.16 411.42,-483.16 408.33,-483.16 405.25,-480.08 405.25,-476.99 405.25,-476.99 405.25,-470.83 405.25,-470.83 405.25,-467.74 408.33,-464.66 411.42,-464.66 411.42,-464.66 500.58,-464.66 500.58,-464.66 503.67,-464.66 506.75,-467.74 506.75,-470.83 506.75,-470.83 506.75,-476.99 506.75,-476.99 506.75,-480.08 503.67,-483.16 500.58,-483.16"/>
<text text-anchor="start" x="413.25" y="-470.61" font-family="Helvetica,sans-Serif" font-size="9.00">ButtonText.stories.tsx</text>
</a>
</g>
</g>
<!-- src/ts/ui/component/button/text/ButtonText.stories.tsx&#45;&gt;src/ts/ui/component/button/text/ButtonText.tsx -->
<g id="edge13" class="edge">
<title>src/ts/ui/component/button/text/ButtonText.stories.tsx&#45;&gt;src/ts/ui/component/button/text/ButtonText.tsx</title>
<path fill="none" stroke="#000000" stroke-width="2" stroke-opacity="0.200000" d="M507.13,-473.91C520.37,-473.91 534.56,-473.91 547.46,-473.91"/>
<polygon fill="#000000" fill-opacity="0.200000" stroke="#000000" stroke-width="2" stroke-opacity="0.200000" points="547.13,-476.01 553.13,-473.91 547.13,-471.81 547.13,-476.01"/>
</g>
<!-- src/ts/ui/component/button/text/ButtonText.tsx&#45;&gt;src/ts/motion/duration.ts -->
<g id="edge14" class="edge">
<title>src/ts/ui/component/button/text/ButtonText.tsx&#45;&gt;src/ts/motion/duration.ts</title>
<path fill="none" stroke="#000000" stroke-width="2" stroke-opacity="0.200000" d="M603.33,-464.26C619.74,-447.82 653.78,-413.11 680.5,-381.91 760.29,-288.76 847.75,-170.15 879.31,-126.77"/>
<polygon fill="#000000" fill-opacity="0.200000" stroke="#000000" stroke-width="2" stroke-opacity="0.200000" points="880.93,-128.11 882.76,-122.02 877.53,-125.64 880.93,-128.11"/>
</g>
<!-- src/ts/ui/component/button/text/ButtonText.tsx&#45;&gt;src/ts/motion/ease.ts -->
<g id="edge15" class="edge">
<title>src/ts/ui/component/button/text/ButtonText.tsx&#45;&gt;src/ts/motion/ease.ts</title>
<path fill="none" stroke="#000000" stroke-width="2" stroke-opacity="0.200000" d="M607.71,-464.31C628.16,-449.43 665.3,-418.65 680.5,-381.91 686.6,-367.17 678.66,-107.46 688.5,-94.91 694.11,-87.76 702.6,-83.62 711.37,-81.27"/>
<polygon fill="#000000" fill-opacity="0.200000" stroke="#000000" stroke-width="2" stroke-opacity="0.200000" points="711.72,-83.34 717.17,-80.08 710.88,-79.23 711.72,-83.34"/>
</g>
<!-- src/ts/ui/component/button/text/ButtonText.tsx&#45;&gt;src/ts/ui/component/button/text/ButtonText.module.css -->
<g id="edge16" class="edge">
<title>src/ts/ui/component/button/text/ButtonText.tsx&#45;&gt;src/ts/ui/component/button/text/ButtonText.module.css</title>
<path fill="none" stroke="#000000" stroke-width="2" stroke-opacity="0.200000" d="M629.08,-473.91C645.61,-473.91 665.76,-473.91 684.67,-473.91"/>
<polygon fill="#000000" fill-opacity="0.200000" stroke="#000000" stroke-width="2" stroke-opacity="0.200000" points="684.51,-476.01 690.51,-473.91 684.51,-471.81 684.51,-476.01"/>
</g>
<!-- src/ts/ui/component/viewer/MediaViewer.module.css -->
<g id="node22" class="node">
<title>src/ts/ui/component/viewer/MediaViewer.module.css</title>
<g id="a_node22"><a xlink:href="src/ts/ui/component/viewer/MediaViewer.module.css" xlink:title="MediaViewer.module.css">
<path fill="#ffffcc" stroke="black" d="M800.33,-571.16C800.33,-571.16 694.67,-571.16 694.67,-571.16 691.58,-571.16 688.5,-568.08 688.5,-564.99 688.5,-564.99 688.5,-558.83 688.5,-558.83 688.5,-555.74 691.58,-552.66 694.67,-552.66 694.67,-552.66 800.33,-552.66 800.33,-552.66 803.42,-552.66 806.5,-555.74 806.5,-558.83 806.5,-558.83 806.5,-564.99 806.5,-564.99 806.5,-568.08 803.42,-571.16 800.33,-571.16"/>
<text text-anchor="start" x="696.5" y="-558.61" font-family="Helvetica,sans-Serif" font-size="9.00">MediaViewer.module.css</text>
</a>
</g>
</g>
<!-- src/ts/ui/component/viewer/MediaViewer.stories.tsx -->
<g id="node23" class="node">
<title>src/ts/ui/component/viewer/MediaViewer.stories.tsx</title>
<g id="a_node23"><a xlink:href="src/ts/ui/component/viewer/MediaViewer.stories.tsx" xlink:title="MediaViewer.stories.tsx">
<path fill="#bbfeff" stroke="black" d="M505.83,-588.16C505.83,-588.16 406.17,-588.16 406.17,-588.16 403.08,-588.16 400,-585.08 400,-581.99 400,-581.99 400,-575.83 400,-575.83 400,-572.74 403.08,-569.66 406.17,-569.66 406.17,-569.66 505.83,-569.66 505.83,-569.66 508.92,-569.66 512,-572.74 512,-575.83 512,-575.83 512,-581.99 512,-581.99 512,-585.08 508.92,-588.16 505.83,-588.16"/>
<text text-anchor="start" x="408" y="-575.61" font-family="Helvetica,sans-Serif" font-size="9.00">MediaViewer.stories.tsx</text>
</a>
</g>
</g>
<!-- src/ts/ui/component/viewer/MediaViewer.stories.tsx&#45;&gt;src/ts/ui/component/viewer/MediaViewer.tsx -->
<g id="edge17" class="edge">
<title>src/ts/ui/component/viewer/MediaViewer.stories.tsx&#45;&gt;src/ts/ui/component/viewer/MediaViewer.tsx</title>
<path fill="none" stroke="#000000" stroke-width="2" stroke-opacity="0.200000" d="M512.15,-578.91C522.04,-578.91 532.3,-578.91 542.03,-578.91"/>
<polygon fill="#000000" fill-opacity="0.200000" stroke="#000000" stroke-width="2" stroke-opacity="0.200000" points="541.76,-581.01 547.76,-578.91 541.76,-576.81 541.76,-581.01"/>
</g>
<!-- src/ts/ui/component/viewer/MediaViewer.tsx&#45;&gt;src/ts/ui/component/viewer/MediaViewer.module.css -->
<g id="edge19" class="edge">
<title>src/ts/ui/component/viewer/MediaViewer.tsx&#45;&gt;src/ts/ui/component/viewer/MediaViewer.module.css</title>
<path fill="none" stroke="#000000" stroke-width="2" stroke-opacity="0.200000" d="M634.19,-574.4C648.02,-572.86 663.87,-571.1 679.22,-569.39"/>
<polygon fill="#000000" fill-opacity="0.200000" stroke="#000000" stroke-width="2" stroke-opacity="0.200000" points="679.45,-571.48 685.18,-568.73 678.98,-567.31 679.45,-571.48"/>
</g>
<!-- src/ts/ui/component/viewer/holder/MediaItemImage.tsx -->
<g id="node25" class="node">
<title>src/ts/ui/component/viewer/holder/MediaItemImage.tsx</title>
<g id="a_node25"><a xlink:href="src/ts/ui/component/viewer/holder/MediaItemImage.tsx" xlink:title="MediaItemImage.tsx">
<path fill="#bbfeff" stroke="black" d="M790.21,-605.16C790.21,-605.16 704.79,-605.16 704.79,-605.16 701.71,-605.16 698.62,-602.08 698.62,-598.99 698.62,-598.99 698.62,-592.83 698.62,-592.83 698.62,-589.74 701.71,-586.66 704.79,-586.66 704.79,-586.66 790.21,-586.66 790.21,-586.66 793.29,-586.66 796.38,-589.74 796.38,-592.83 796.38,-592.83 796.38,-598.99 796.38,-598.99 796.38,-602.08 793.29,-605.16 790.21,-605.16"/>
<text text-anchor="start" x="706.62" y="-592.61" font-family="Helvetica,sans-Serif" font-size="9.00">MediaItemImage.tsx</text>
</a>
</g>
</g>
<!-- src/ts/ui/component/viewer/MediaViewer.tsx&#45;&gt;src/ts/ui/component/viewer/holder/MediaItemImage.tsx -->
<g id="edge18" class="edge">
<title>src/ts/ui/component/viewer/MediaViewer.tsx&#45;&gt;src/ts/ui/component/viewer/holder/MediaItemImage.tsx</title>
<path fill="none" stroke="#000000" stroke-width="2" stroke-opacity="0.200000" d="M634.19,-583.42C651.14,-585.31 671.14,-587.53 689.53,-589.57"/>
<polygon fill="#000000" fill-opacity="0.200000" stroke="#000000" stroke-width="2" stroke-opacity="0.200000" points="689.2,-591.65 695.39,-590.23 689.66,-587.48 689.2,-591.65"/>
</g>
<!-- src/ts/ui/component/viewer/navigation/MediaNavigation.tsx -->
<g id="node26" class="node">
<title>src/ts/ui/component/viewer/navigation/MediaNavigation.tsx</title>
<g id="a_node26"><a xlink:href="src/ts/ui/component/viewer/navigation/MediaNavigation.tsx" xlink:title="MediaNavigation.tsx">
<path fill="#bbfeff" stroke="black" d="M790.96,-666.16C790.96,-666.16 704.04,-666.16 704.04,-666.16 700.96,-666.16 697.88,-663.08 697.88,-659.99 697.88,-659.99 697.88,-653.83 697.88,-653.83 697.88,-650.74 700.96,-647.66 704.04,-647.66 704.04,-647.66 790.96,-647.66 790.96,-647.66 794.04,-647.66 797.12,-650.74 797.12,-653.83 797.12,-653.83 797.12,-659.99 797.12,-659.99 797.12,-663.08 794.04,-666.16 790.96,-666.16"/>
<text text-anchor="start" x="705.88" y="-653.61" font-family="Helvetica,sans-Serif" font-size="9.00">MediaNavigation.tsx</text>
</a>
</g>
</g>
<!-- src/ts/ui/component/viewer/MediaViewer.tsx&#45;&gt;src/ts/ui/component/viewer/navigation/MediaNavigation.tsx -->
<g id="edge20" class="edge">
<title>src/ts/ui/component/viewer/MediaViewer.tsx&#45;&gt;src/ts/ui/component/viewer/navigation/MediaNavigation.tsx</title>
<path fill="none" stroke="#000000" stroke-width="2" stroke-opacity="0.200000" d="M608.31,-588.65C626.59,-600.52 659.02,-620.75 688.5,-634.91 695.27,-638.16 702.65,-641.27 709.81,-644.08"/>
<polygon fill="#000000" fill-opacity="0.200000" stroke="#000000" stroke-width="2" stroke-opacity="0.200000" points="708.88,-645.97 715.24,-646.15 710.38,-642.05 708.88,-645.97"/>
</g>
<!-- src/ts/ui/component/viewer/holder/MediaItemImage.module.css -->
<g id="node27" class="node">
<title>src/ts/ui/component/viewer/holder/MediaItemImage.module.css</title>
<g id="a_node27"><a xlink:href="src/ts/ui/component/viewer/holder/MediaItemImage.module.css" xlink:title="MediaItemImage.module.css">
<path fill="#ffffcc" stroke="black" d="M952.83,-605.16C952.83,-605.16 832.17,-605.16 832.17,-605.16 829.08,-605.16 826,-602.08 826,-598.99 826,-598.99 826,-592.83 826,-592.83 826,-589.74 829.08,-586.66 832.17,-586.66 832.17,-586.66 952.83,-586.66 952.83,-586.66 955.92,-586.66 959,-589.74 959,-592.83 959,-592.83 959,-598.99 959,-598.99 959,-602.08 955.92,-605.16 952.83,-605.16"/>
<text text-anchor="start" x="834" y="-592.61" font-family="Helvetica,sans-Serif" font-size="9.00">MediaItemImage.module.css</text>
</a>
</g>
</g>
<!-- src/ts/ui/component/viewer/holder/MediaItemImage.tsx&#45;&gt;src/ts/ui/component/viewer/holder/MediaItemImage.module.css -->
<g id="edge21" class="edge">
<title>src/ts/ui/component/viewer/holder/MediaItemImage.tsx&#45;&gt;src/ts/ui/component/viewer/holder/MediaItemImage.module.css</title>
<path fill="none" stroke="#000000" stroke-width="2" stroke-opacity="0.200000" d="M796.51,-595.91C803.08,-595.91 809.93,-595.91 816.83,-595.91"/>
<polygon fill="#000000" fill-opacity="0.200000" stroke="#000000" stroke-width="2" stroke-opacity="0.200000" points="816.54,-598.01 822.54,-595.91 816.54,-593.81 816.54,-598.01"/>
</g>
<!-- src/ts/ui/component/viewer/navigation/MediaNavigation.module.css -->
<g id="node28" class="node">
<title>src/ts/ui/component/viewer/navigation/MediaNavigation.module.css</title>
<g id="a_node28"><a xlink:href="src/ts/ui/component/viewer/navigation/MediaNavigation.module.css" xlink:title="MediaNavigation.module.css">
<path fill="#ffffcc" stroke="black" d="M953.58,-666.16C953.58,-666.16 831.42,-666.16 831.42,-666.16 828.33,-666.16 825.25,-663.08 825.25,-659.99 825.25,-659.99 825.25,-653.83 825.25,-653.83 825.25,-650.74 828.33,-647.66 831.42,-647.66 831.42,-647.66 953.58,-647.66 953.58,-647.66 956.67,-647.66 959.75,-650.74 959.75,-653.83 959.75,-653.83 959.75,-659.99 959.75,-659.99 959.75,-663.08 956.67,-666.16 953.58,-666.16"/>
<text text-anchor="start" x="833.25" y="-653.61" font-family="Helvetica,sans-Serif" font-size="9.00">MediaNavigation.module.css</text>
</a>
</g>
</g>
<!-- src/ts/ui/component/viewer/navigation/MediaNavigation.tsx&#45;&gt;src/ts/ui/component/viewer/navigation/MediaNavigation.module.css -->
<g id="edge22" class="edge">
<title>src/ts/ui/component/viewer/navigation/MediaNavigation.tsx&#45;&gt;src/ts/ui/component/viewer/navigation/MediaNavigation.module.css</title>
<path fill="none" stroke="#000000" stroke-width="2" stroke-opacity="0.200000" d="M797.31,-656.91C803.43,-656.91 809.8,-656.91 816.2,-656.91"/>
<polygon fill="#000000" fill-opacity="0.200000" stroke="#000000" stroke-width="2" stroke-opacity="0.200000" points="815.92,-659.01 821.92,-656.91 815.92,-654.81 815.92,-659.01"/>
</g>
<!-- src/ts/ui/overlay/site&#45;control/UISiteControl.tsx&#45;&gt;src/ts/motion/fade.ts -->
<g id="edge27" class="edge">
<title>src/ts/ui/overlay/site&#45;control/UISiteControl.tsx&#45;&gt;src/ts/motion/fade.ts</title>
<path fill="none" stroke="#000000" stroke-width="2" stroke-opacity="0.200000" d="M356.95,-842.67C363.25,-840.49 369.05,-837.1 373.25,-831.91 384.88,-817.55 369.15,-180.87 381.25,-166.91 423.89,-117.71 628.37,-110.69 711.37,-109.9"/>
<polygon fill="#000000" fill-opacity="0.200000" stroke="#000000" stroke-width="2" stroke-opacity="0.200000" points="711.17,-112 717.15,-109.86 711.14,-107.8 711.17,-112"/>
</g>
<!-- src/ts/ui/overlay/site&#45;control/UISiteControl.module.css -->
<g id="node32" class="node">
<title>src/ts/ui/overlay/site&#45;control/UISiteControl.module.css</title>
<g id="a_node32"><a xlink:href="src/ts/ui/overlay/site-control/UISiteControl.module.css" xlink:title="UISiteControl.module.css">
<path fill="#ffffcc" stroke="black" d="M509.58,-789.16C509.58,-789.16 402.42,-789.16 402.42,-789.16 399.33,-789.16 396.25,-786.08 396.25,-782.99 396.25,-782.99 396.25,-776.83 396.25,-776.83 396.25,-773.74 399.33,-770.66 402.42,-770.66 402.42,-770.66 509.58,-770.66 509.58,-770.66 512.67,-770.66 515.75,-773.74 515.75,-776.83 515.75,-776.83 515.75,-782.99 515.75,-782.99 515.75,-786.08 512.67,-789.16 509.58,-789.16"/>
<text text-anchor="start" x="404.25" y="-776.61" font-family="Helvetica,sans-Serif" font-size="9.00">UISiteControl.module.css</text>
</a>
</g>
</g>
<!-- src/ts/ui/overlay/site&#45;control/UISiteControl.tsx&#45;&gt;src/ts/ui/overlay/site&#45;control/UISiteControl.module.css -->
<g id="edge30" class="edge">
<title>src/ts/ui/overlay/site&#45;control/UISiteControl.tsx&#45;&gt;src/ts/ui/overlay/site&#45;control/UISiteControl.module.css</title>
<path fill="none" stroke="#000000" stroke-width="2" stroke-opacity="0.200000" d="M357.02,-841.64C363.08,-839.55 368.78,-836.45 373.25,-831.91 385.37,-819.62 368.93,-805.99 381.25,-793.91 383.34,-791.86 385.64,-790.06 388.09,-788.48"/>
<polygon fill="#000000" fill-opacity="0.200000" stroke="#000000" stroke-width="2" stroke-opacity="0.200000" points="388.82,-790.47 393.14,-785.81 386.86,-786.75 388.82,-790.47"/>
</g>
<!-- src/ts/ui/overlay/site&#45;control/scroll/ScrollProgress.tsx -->
<g id="node34" class="node">
<title>src/ts/ui/overlay/site&#45;control/scroll/ScrollProgress.tsx</title>
<g id="a_node34"><a xlink:href="src/ts/ui/overlay/site-control/scroll/ScrollProgress.tsx" xlink:title="ScrollProgress.tsx">
<path fill="#bbfeff" stroke="black" d="M494.58,-854.16C494.58,-854.16 417.42,-854.16 417.42,-854.16 414.33,-854.16 411.25,-851.08 411.25,-847.99 411.25,-847.99 411.25,-841.83 411.25,-841.83 411.25,-838.74 414.33,-835.66 417.42,-835.66 417.42,-835.66 494.58,-835.66 494.58,-835.66 497.67,-835.66 500.75,-838.74 500.75,-841.83 500.75,-841.83 500.75,-847.99 500.75,-847.99 500.75,-851.08 497.67,-854.16 494.58,-854.16"/>
<text text-anchor="start" x="419.25" y="-841.61" font-family="Helvetica,sans-Serif" font-size="9.00">ScrollProgress.tsx</text>
</a>
</g>
</g>
<!-- src/ts/ui/overlay/site&#45;control/UISiteControl.tsx&#45;&gt;src/ts/ui/overlay/site&#45;control/scroll/ScrollProgress.tsx -->
<g id="edge28" class="edge">
<title>src/ts/ui/overlay/site&#45;control/UISiteControl.tsx&#45;&gt;src/ts/ui/overlay/site&#45;control/scroll/ScrollProgress.tsx</title>
<path fill="none" stroke="#000000" stroke-width="2" stroke-opacity="0.200000" d="M356.98,-844.91C371.21,-844.91 387.33,-844.91 402.33,-844.91"/>
<polygon fill="#000000" fill-opacity="0.200000" stroke="#000000" stroke-width="2" stroke-opacity="0.200000" points="401.99,-847.01 407.99,-844.91 401.99,-842.81 401.99,-847.01"/>
</g>
<!-- src/ts/ui/overlay/site&#45;control/theme/ThemeSwitcher.tsx -->
<g id="node35" class="node">
<title>src/ts/ui/overlay/site&#45;control/theme/ThemeSwitcher.tsx</title>
<g id="a_node35"><a xlink:href="src/ts/ui/overlay/site-control/theme/ThemeSwitcher.tsx" xlink:title="ThemeSwitcher.tsx">
<path fill="#bbfeff" stroke="black" d="M496.08,-915.16C496.08,-915.16 415.92,-915.16 415.92,-915.16 412.83,-915.16 409.75,-912.08 409.75,-908.99 409.75,-908.99 409.75,-902.83 409.75,-902.83 409.75,-899.74 412.83,-896.66 415.92,-896.66 415.92,-896.66 496.08,-896.66 496.08,-896.66 499.17,-896.66 502.25,-899.74 502.25,-902.83 502.25,-902.83 502.25,-908.99 502.25,-908.99 502.25,-912.08 499.17,-915.16 496.08,-915.16"/>
<text text-anchor="start" x="417.75" y="-902.61" font-family="Helvetica,sans-Serif" font-size="9.00">ThemeSwitcher.tsx</text>
</a>
</g>
</g>
<!-- src/ts/ui/overlay/site&#45;control/UISiteControl.tsx&#45;&gt;src/ts/ui/overlay/site&#45;control/theme/ThemeSwitcher.tsx -->
<g id="edge29" class="edge">
<title>src/ts/ui/overlay/site&#45;control/UISiteControl.tsx&#45;&gt;src/ts/ui/overlay/site&#45;control/theme/ThemeSwitcher.tsx</title>
<path fill="none" stroke="#000000" stroke-width="2" stroke-opacity="0.200000" d="M356.97,-848.63C362.96,-850.68 368.65,-853.65 373.25,-857.91 382.12,-866.12 372.66,-875.4 381.25,-883.91 386.89,-889.51 393.9,-893.69 401.32,-896.81"/>
<polygon fill="#000000" fill-opacity="0.200000" stroke="#000000" stroke-width="2" stroke-opacity="0.200000" points="400.3,-898.68 406.66,-898.77 401.75,-894.73 400.3,-898.68"/>
</g>
<!-- src/ts/ui/overlay/surface/UIOverlaySurface.tsx&#45;&gt;src/ts/store/uiState/uiStateStore.ts -->
<g id="edge37" class="edge">
<title>src/ts/ui/overlay/surface/UIOverlaySurface.tsx&#45;&gt;src/ts/store/uiState/uiStateStore.ts</title>
<path fill="none" stroke="#000000" stroke-width="2" stroke-opacity="0.200000" d="M327.01,-1029.38C358.2,-1054.76 447.44,-1125.69 528.75,-1173.91 538.85,-1179.9 550.32,-1185.66 560.69,-1190.5"/>
<polygon fill="#000000" fill-opacity="0.200000" stroke="#000000" stroke-width="2" stroke-opacity="0.200000" points="559.63,-1192.33 565.96,-1192.92 561.38,-1188.51 559.63,-1192.33"/>
</g>
<!-- src/ts/ui/overlay/site&#45;control/UISiteControl.stories.tsx -->
<g id="node33" class="node">
<title>src/ts/ui/overlay/site&#45;control/UISiteControl.stories.tsx</title>
<g id="a_node33"><a xlink:href="src/ts/ui/overlay/site-control/UISiteControl.stories.tsx" xlink:title="UISiteControl.stories.tsx">
<path fill="#bbfeff" stroke="black" d="M238.58,-854.16C238.58,-854.16 137.42,-854.16 137.42,-854.16 134.33,-854.16 131.25,-851.08 131.25,-847.99 131.25,-847.99 131.25,-841.83 131.25,-841.83 131.25,-838.74 134.33,-835.66 137.42,-835.66 137.42,-835.66 238.58,-835.66 238.58,-835.66 241.67,-835.66 244.75,-838.74 244.75,-841.83 244.75,-841.83 244.75,-847.99 244.75,-847.99 244.75,-851.08 241.67,-854.16 238.58,-854.16"/>
<text text-anchor="start" x="139.25" y="-841.61" font-family="Helvetica,sans-Serif" font-size="9.00">UISiteControl.stories.tsx</text>
</a>
</g>
</g>
<!-- src/ts/ui/overlay/site&#45;control/UISiteControl.stories.tsx&#45;&gt;src/ts/ui/overlay/site&#45;control/UISiteControl.tsx -->
<g id="edge26" class="edge">
<title>src/ts/ui/overlay/site&#45;control/UISiteControl.stories.tsx&#45;&gt;src/ts/ui/overlay/site&#45;control/UISiteControl.tsx</title>
<path fill="none" stroke="#000000" stroke-width="2" stroke-opacity="0.200000" d="M245.06,-844.91C251.13,-844.91 257.28,-844.91 263.28,-844.91"/>
<polygon fill="#000000" fill-opacity="0.200000" stroke="#000000" stroke-width="2" stroke-opacity="0.200000" points="262.89,-847.01 268.89,-844.91 262.89,-842.81 262.89,-847.01"/>
</g>
<!-- src/ts/ui/overlay/site&#45;control/scroll/ScrollProgress.tsx&#45;&gt;src/ts/hook/useScrollProgress.ts -->
<g id="edge31" class="edge">
<title>src/ts/ui/overlay/site&#45;control/scroll/ScrollProgress.tsx&#45;&gt;src/ts/hook/useScrollProgress.ts</title>
<path fill="none" stroke="#000000" stroke-width="2" stroke-opacity="0.200000" d="M480.45,-854.51C493.96,-861.27 510.04,-871.67 519.25,-885.91 533.67,-908.21 522.45,-919.11 528.75,-944.91 544.5,-1009.39 571.76,-1083.44 584.58,-1116.87"/>
<polygon fill="#000000" fill-opacity="0.200000" stroke="#000000" stroke-width="2" stroke-opacity="0.200000" points="582.58,-1117.52 586.7,-1122.36 586.49,-1116 582.58,-1117.52"/>
</g>
<!-- src/ts/ui/overlay/site&#45;control/scroll/ScrollProgress.module.css -->
<g id="node36" class="node">
<title>src/ts/ui/overlay/site&#45;control/scroll/ScrollProgress.module.css</title>
<g id="a_node36"><a xlink:href="src/ts/ui/overlay/site-control/scroll/ScrollProgress.module.css" xlink:title="ScrollProgress.module.css">
<path fill="#ffffcc" stroke="black" d="M648.83,-823.16C648.83,-823.16 536.42,-823.16 536.42,-823.16 533.33,-823.16 530.25,-820.08 530.25,-816.99 530.25,-816.99 530.25,-810.83 530.25,-810.83 530.25,-807.74 533.33,-804.66 536.42,-804.66 536.42,-804.66 648.83,-804.66 648.83,-804.66 651.92,-804.66 655,-807.74 655,-810.83 655,-810.83 655,-816.99 655,-816.99 655,-820.08 651.92,-823.16 648.83,-823.16"/>
<text text-anchor="start" x="538.25" y="-810.61" font-family="Helvetica,sans-Serif" font-size="9.00">ScrollProgress.module.css</text>
</a>
</g>
</g>
<!-- src/ts/ui/overlay/site&#45;control/scroll/ScrollProgress.tsx&#45;&gt;src/ts/ui/overlay/site&#45;control/scroll/ScrollProgress.module.css -->
<g id="edge32" class="edge">
<title>src/ts/ui/overlay/site&#45;control/scroll/ScrollProgress.tsx&#45;&gt;src/ts/ui/overlay/site&#45;control/scroll/ScrollProgress.module.css</title>
<path fill="none" stroke="#000000" stroke-width="2" stroke-opacity="0.200000" d="M500.92,-835.96C507.08,-834.64 513.33,-833.26 519.25,-831.91 527.68,-829.98 536.63,-827.84 545.26,-825.72"/>
<polygon fill="#000000" fill-opacity="0.200000" stroke="#000000" stroke-width="2" stroke-opacity="0.200000" points="545.49,-827.82 550.81,-824.34 544.48,-823.75 545.49,-827.82"/>
</g>
<!-- src/ts/ui/overlay/site&#45;control/scroll/ScrollProgressAnimator.ts -->
<g id="node37" class="node">
<title>src/ts/ui/overlay/site&#45;control/scroll/ScrollProgressAnimator.ts</title>
<g id="a_node37"><a xlink:href="src/ts/ui/overlay/site-control/scroll/ScrollProgressAnimator.ts" xlink:title="ScrollProgressAnimator.ts">
<path fill="#ddfeff" stroke="black" d="M646.96,-854.16C646.96,-854.16 538.29,-854.16 538.29,-854.16 535.21,-854.16 532.12,-851.08 532.12,-847.99 532.12,-847.99 532.12,-841.83 532.12,-841.83 532.12,-838.74 535.21,-835.66 538.29,-835.66 538.29,-835.66 646.96,-835.66 646.96,-835.66 650.04,-835.66 653.12,-838.74 653.12,-841.83 653.12,-841.83 653.12,-847.99 653.12,-847.99 653.12,-851.08 650.04,-854.16 646.96,-854.16"/>
<text text-anchor="start" x="540.12" y="-841.61" font-family="Helvetica,sans-Serif" font-size="9.00">ScrollProgressAnimator.ts</text>
</a>
</g>
</g>
<!-- src/ts/ui/overlay/site&#45;control/scroll/ScrollProgress.tsx&#45;&gt;src/ts/ui/overlay/site&#45;control/scroll/ScrollProgressAnimator.ts -->
<g id="edge33" class="edge">
<title>src/ts/ui/overlay/site&#45;control/scroll/ScrollProgress.tsx&#45;&gt;src/ts/ui/overlay/site&#45;control/scroll/ScrollProgressAnimator.ts</title>
<path fill="none" stroke="#000000" stroke-width="2" stroke-opacity="0.200000" d="M501.08,-844.91C508.14,-844.91 515.58,-844.91 523.04,-844.91"/>
<polygon fill="#000000" fill-opacity="0.200000" stroke="#000000" stroke-width="2" stroke-opacity="0.200000" points="522.77,-847.01 528.77,-844.91 522.77,-842.81 522.77,-847.01"/>
</g>
<!-- src/ts/ui/overlay/site&#45;control/theme/ThemeSwitcher.tsx&#45;&gt;src/ts/store/uiState/uiStateStore.ts -->
<g id="edge34" class="edge">
<title>src/ts/ui/overlay/site&#45;control/theme/ThemeSwitcher.tsx&#45;&gt;src/ts/store/uiState/uiStateStore.ts</title>
<path fill="none" stroke="#000000" stroke-width="2" stroke-opacity="0.200000" d="M461.15,-915.56C472.48,-942.34 504.11,-1020.12 519.25,-1087.91 523.44,-1106.67 517.61,-1158.24 528.75,-1173.91 533.69,-1180.86 540.68,-1186.26 548.21,-1190.43"/>
<polygon fill="#000000" fill-opacity="0.200000" stroke="#000000" stroke-width="2" stroke-opacity="0.200000" points="546.84,-1192.1 553.15,-1192.87 548.7,-1188.33 546.84,-1192.1"/>
</g>
<!-- src/ts/ui/overlay/site&#45;control/theme/ThemeSwitcher.tsx&#45;&gt;src/ts/types/index.ts -->
<g id="edge35" class="edge">
<title>src/ts/ui/overlay/site&#45;control/theme/ThemeSwitcher.tsx&#45;&gt;src/ts/types/index.ts</title>
<path fill="none" stroke="#000000" stroke-width="2" stroke-opacity="0.200000" d="M467.65,-915.58C511.19,-955.14 675.93,-1104.8 729.54,-1153.5"/>
<polygon fill="#000000" fill-opacity="0.200000" stroke="#000000" stroke-width="2" stroke-opacity="0.200000" points="727.97,-1154.91 733.82,-1157.39 730.79,-1151.8 727.97,-1154.91"/>
</g>
<!-- src/ts/ui/overlay/site&#45;control/theme/ThemeSwitcher.module.css -->
<g id="node38" class="node">
<title>src/ts/ui/overlay/site&#45;control/theme/ThemeSwitcher.module.css</title>
<g id="a_node38"><a xlink:href="src/ts/ui/overlay/site-control/theme/ThemeSwitcher.module.css" xlink:title="ThemeSwitcher.module.css">
<path fill="#ffffcc" stroke="black" d="M650.33,-915.16C650.33,-915.16 534.92,-915.16 534.92,-915.16 531.83,-915.16 528.75,-912.08 528.75,-908.99 528.75,-908.99 528.75,-902.83 528.75,-902.83 528.75,-899.74 531.83,-896.66 534.92,-896.66 534.92,-896.66 650.33,-896.66 650.33,-896.66 653.42,-896.66 656.5,-899.74 656.5,-902.83 656.5,-902.83 656.5,-908.99 656.5,-908.99 656.5,-912.08 653.42,-915.16 650.33,-915.16"/>
<text text-anchor="start" x="536.75" y="-902.61" font-family="Helvetica,sans-Serif" font-size="9.00">ThemeSwitcher.module.css</text>
</a>
</g>
</g>
<!-- src/ts/ui/overlay/site&#45;control/theme/ThemeSwitcher.tsx&#45;&gt;src/ts/ui/overlay/site&#45;control/theme/ThemeSwitcher.module.css -->
<g id="edge36" class="edge">
<title>src/ts/ui/overlay/site&#45;control/theme/ThemeSwitcher.tsx&#45;&gt;src/ts/ui/overlay/site&#45;control/theme/ThemeSwitcher.module.css</title>
<path fill="none" stroke="#000000" stroke-width="2" stroke-opacity="0.200000" d="M502.58,-905.91C508.22,-905.91 514.08,-905.91 519.99,-905.91"/>
<polygon fill="#000000" fill-opacity="0.200000" stroke="#000000" stroke-width="2" stroke-opacity="0.200000" points="519.63,-908.01 525.63,-905.91 519.63,-903.81 519.63,-908.01"/>
</g>
<!-- src/ts/ui/site/project/text/SiteProjectText.tsx&#45;&gt;src/ts/ui/component/button/text/ButtonText.tsx -->
<g id="edge46" class="edge">
<title>src/ts/ui/site/project/text/SiteProjectText.tsx&#45;&gt;src/ts/ui/component/button/text/ButtonText.tsx</title>
<path fill="none" stroke="#000000" stroke-width="2" stroke-opacity="0.200000" d="M466.68,-352.33C489.57,-374.6 547.19,-430.67 575.47,-458.19"/>
<polygon fill="#000000" fill-opacity="0.200000" stroke="#000000" stroke-width="2" stroke-opacity="0.200000" points="573.73,-459.43 579.5,-462.11 576.66,-456.42 573.73,-459.43"/>
</g>
<!-- src/ts/ui/site/project/text/SiteProjectText.module.css -->
<g id="node43" class="node">
<title>src/ts/ui/site/project/text/SiteProjectText.module.css</title>
<g id="a_node43"><a xlink:href="src/ts/ui/site/project/text/SiteProjectText.module.css" xlink:title="SiteProjectText.module.css">
<path fill="#ffffcc" stroke="black" d="M649.21,-352.16C649.21,-352.16 536.04,-352.16 536.04,-352.16 532.96,-352.16 529.88,-349.08 529.88,-345.99 529.88,-345.99 529.88,-339.83 529.88,-339.83 529.88,-336.74 532.96,-333.66 536.04,-333.66 536.04,-333.66 649.21,-333.66 649.21,-333.66 652.29,-333.66 655.38,-336.74 655.38,-339.83 655.38,-339.83 655.38,-345.99 655.38,-345.99 655.38,-349.08 652.29,-352.16 649.21,-352.16"/>
<text text-anchor="start" x="537.88" y="-339.61" font-family="Helvetica,sans-Serif" font-size="9.00">SiteProjectText.module.css</text>
</a>
</g>
</g>
<!-- src/ts/ui/site/project/text/SiteProjectText.tsx&#45;&gt;src/ts/ui/site/project/text/SiteProjectText.module.css -->
<g id="edge47" class="edge">
<title>src/ts/ui/site/project/text/SiteProjectText.tsx&#45;&gt;src/ts/ui/site/project/text/SiteProjectText.module.css</title>
<path fill="none" stroke="#000000" stroke-width="2" stroke-opacity="0.200000" d="M501.45,-342.91C507.67,-342.91 514.18,-342.91 520.73,-342.91"/>
<polygon fill="#000000" fill-opacity="0.200000" stroke="#000000" stroke-width="2" stroke-opacity="0.200000" points="520.64,-345.01 526.64,-342.91 520.64,-340.81 520.64,-345.01"/>
</g>
</g>
</svg>
