<?xml version="1.0" encoding="UTF-8" standalone="no"?>
<!DOCTYPE svg PUBLIC "-//W3C//DTD SVG 1.1//EN"
 "http://www.w3.org/Graphics/SVG/1.1/DTD/svg11.dtd">
<!-- Generated by graphviz version 12.2.1 (20241206.2353)
 -->
<!-- Title: dependency&#45;cruiser output Pages: 1 -->
<svg width="1019pt" height="1362pt"
 viewBox="0.00 0.00 1019.00 1362.00" xmlns="http://www.w3.org/2000/svg" xmlns:xlink="http://www.w3.org/1999/xlink">
<g id="graph0" class="graph" transform="scale(1 1) rotate(0) translate(4 1358)">
<title>dependency&#45;cruiser output</title>
<polygon fill="white" stroke="none" points="-4,4 -4,-1358 1015,-1358 1015,4 -4,4"/>
<g id="clust1" class="cluster">
<title>cluster_src</title>
<path fill="#ffffff" stroke="black" stroke-width="2" d="M20,-8C20,-8 991,-8 991,-8 997,-8 1003,-14 1003,-20 1003,-20 1003,-1334 1003,-1334 1003,-1340 997,-1346 991,-1346 991,-1346 20,-1346 20,-1346 14,-1346 8,-1340 8,-1334 8,-1334 8,-20 8,-20 8,-14 14,-8 20,-8"/>
<text text-anchor="middle" x="505.5" y="-1333.45" font-family="Helvetica,sans-Serif" font-weight="bold" font-size="9.00">src</text>
</g>
<g id="clust2" class="cluster">
<title>cluster_src/ts</title>
<path fill="#ffffff" stroke="black" stroke-width="2" d="M28,-16C28,-16 983,-16 983,-16 989,-16 995,-22 995,-28 995,-28 995,-1307 995,-1307 995,-1313 989,-1319 983,-1319 983,-1319 28,-1319 28,-1319 22,-1319 16,-1313 16,-1307 16,-1307 16,-28 16,-28 16,-22 22,-16 28,-16"/>
<text text-anchor="middle" x="505.5" y="-1306.45" font-family="Helvetica,sans-Serif" font-weight="bold" font-size="9.00">ts</text>
</g>
<g id="clust3" class="cluster">
<title>cluster_src/ts/hook</title>
<path fill="#ffffff" stroke="black" stroke-width="2" d="M541.88,-233C541.88,-233 633.88,-233 633.88,-233 639.88,-233 645.88,-239 645.88,-245 645.88,-245 645.88,-274 645.88,-274 645.88,-280 639.88,-286 633.88,-286 633.88,-286 541.88,-286 541.88,-286 535.88,-286 529.88,-280 529.88,-274 529.88,-274 529.88,-245 529.88,-245 529.88,-239 535.88,-233 541.88,-233"/>
<text text-anchor="middle" x="587.88" y="-273.45" font-family="Helvetica,sans-Serif" font-weight="bold" font-size="9.00">hook</text>
</g>
<g id="clust4" class="cluster">
<title>cluster_src/ts/motion</title>
<path fill="#ffffff" stroke="black" stroke-width="2" d="M719.75,-202C719.75,-202 913.12,-202 913.12,-202 919.12,-202 925.12,-208 925.12,-214 925.12,-214 925.12,-274 925.12,-274 925.12,-280 919.12,-286 913.12,-286 913.12,-286 719.75,-286 719.75,-286 713.75,-286 707.75,-280 707.75,-274 707.75,-274 707.75,-214 707.75,-214 707.75,-208 713.75,-202 719.75,-202"/>
<text text-anchor="middle" x="816.44" y="-273.45" font-family="Helvetica,sans-Serif" font-weight="bold" font-size="9.00">motion</text>
</g>
<g id="clust5" class="cluster">
<title>cluster_src/ts/store</title>
<path fill="#ffffff" stroke="black" stroke-width="2" d="M546.25,-24C546.25,-24 629.5,-24 629.5,-24 635.5,-24 641.5,-30 641.5,-36 641.5,-36 641.5,-161 641.5,-161 641.5,-167 635.5,-173 629.5,-173 629.5,-173 546.25,-173 546.25,-173 540.25,-173 534.25,-167 534.25,-161 534.25,-161 534.25,-36 534.25,-36 534.25,-30 540.25,-24 546.25,-24"/>
<text text-anchor="middle" x="587.88" y="-160.45" font-family="Helvetica,sans-Serif" font-weight="bold" font-size="9.00">store</text>
</g>
<g id="clust6" class="cluster">
<title>cluster_src/ts/store/project</title>
<path fill="#ffffff" stroke="black" stroke-width="2" d="M554.62,-32C554.62,-32 621.12,-32 621.12,-32 627.12,-32 633.12,-38 633.12,-44 633.12,-44 633.12,-73 633.12,-73 633.12,-79 627.12,-85 621.12,-85 621.12,-85 554.62,-85 554.62,-85 548.62,-85 542.62,-79 542.62,-73 542.62,-73 542.62,-44 542.62,-44 542.62,-38 548.62,-32 554.62,-32"/>
<text text-anchor="middle" x="587.88" y="-72.45" font-family="Helvetica,sans-Serif" font-weight="bold" font-size="9.00">project</text>
</g>
<g id="clust7" class="cluster">
<title>cluster_src/ts/store/uiState</title>
<path fill="#ffffff" stroke="black" stroke-width="2" d="M554.25,-93C554.25,-93 621.5,-93 621.5,-93 627.5,-93 633.5,-99 633.5,-105 633.5,-105 633.5,-134 633.5,-134 633.5,-140 627.5,-146 621.5,-146 621.5,-146 554.25,-146 554.25,-146 548.25,-146 542.25,-140 542.25,-134 542.25,-134 542.25,-105 542.25,-105 542.25,-99 548.25,-93 554.25,-93"/>
<text text-anchor="middle" x="587.88" y="-133.45" font-family="Helvetica,sans-Serif" font-weight="bold" font-size="9.00">uiState</text>
</g>
<g id="clust8" class="cluster">
<title>cluster_src/ts/types</title>
<path fill="#ffffff" stroke="black" stroke-width="2" d="M719.75,-90C719.75,-90 910.75,-90 910.75,-90 916.75,-90 922.75,-96 922.75,-102 922.75,-102 922.75,-162 922.75,-162 922.75,-168 916.75,-174 910.75,-174 910.75,-174 719.75,-174 719.75,-174 713.75,-174 707.75,-168 707.75,-162 707.75,-162 707.75,-102 707.75,-102 707.75,-96 713.75,-90 719.75,-90"/>
<text text-anchor="middle" x="815.25" y="-161.45" font-family="Helvetica,sans-Serif" font-weight="bold" font-size="9.00">types</text>
</g>
<g id="clust9" class="cluster">
<title>cluster_src/ts/ui</title>
<path fill="#ffffff" stroke="black" stroke-width="2" d="M128.88,-294C128.88,-294 975,-294 975,-294 981,-294 987,-300 987,-306 987,-306 987,-1280 987,-1280 987,-1286 981,-1292 975,-1292 975,-1292 128.88,-1292 128.88,-1292 122.88,-1292 116.88,-1286 116.88,-1280 116.88,-1280 116.88,-306 116.88,-306 116.88,-300 122.88,-294 128.88,-294"/>
<text text-anchor="middle" x="551.94" y="-1279.45" font-family="Helvetica,sans-Serif" font-weight="bold" font-size="9.00">ui</text>
</g>
<g id="clust10" class="cluster">
<title>cluster_src/ts/ui/component</title>
<path fill="#ffffff" stroke="black" stroke-width="2" d="M388.5,-654C388.5,-654 967,-654 967,-654 973,-654 979,-660 979,-666 979,-666 979,-948 979,-948 979,-954 973,-960 967,-960 967,-960 388.5,-960 388.5,-960 382.5,-960 376.5,-954 376.5,-948 376.5,-948 376.5,-666 376.5,-666 376.5,-660 382.5,-654 388.5,-654"/>
<text text-anchor="middle" x="677.75" y="-947.45" font-family="Helvetica,sans-Serif" font-weight="bold" font-size="9.00">component</text>
</g>
<g id="clust11" class="cluster">
<title>cluster_src/ts/ui/component/button</title>
<path fill="#ffffff" stroke="black" stroke-width="2" d="M396.5,-845C396.5,-845 800.5,-845 800.5,-845 806.5,-845 812.5,-851 812.5,-857 812.5,-857 812.5,-921 812.5,-921 812.5,-927 806.5,-933 800.5,-933 800.5,-933 396.5,-933 396.5,-933 390.5,-933 384.5,-927 384.5,-921 384.5,-921 384.5,-857 384.5,-857 384.5,-851 390.5,-845 396.5,-845"/>
<text text-anchor="middle" x="598.5" y="-920.45" font-family="Helvetica,sans-Serif" font-weight="bold" font-size="9.00">button</text>
</g>
<g id="clust12" class="cluster">
<title>cluster_src/ts/ui/component/button/text</title>
<path fill="#ffffff" stroke="black" stroke-width="2" d="M404.5,-853C404.5,-853 792.5,-853 792.5,-853 798.5,-853 804.5,-859 804.5,-865 804.5,-865 804.5,-894 804.5,-894 804.5,-900 798.5,-906 792.5,-906 792.5,-906 404.5,-906 404.5,-906 398.5,-906 392.5,-900 392.5,-894 392.5,-894 392.5,-865 392.5,-865 392.5,-859 398.5,-853 404.5,-853"/>
<text text-anchor="middle" x="598.5" y="-893.45" font-family="Helvetica,sans-Serif" font-weight="bold" font-size="9.00">text</text>
</g>
<g id="clust13" class="cluster">
<title>cluster_src/ts/ui/component/viewer</title>
<path fill="#ffffff" stroke="black" stroke-width="2" d="M399.25,-662C399.25,-662 959,-662 959,-662 965,-662 971,-668 971,-674 971,-674 971,-825 971,-825 971,-831 965,-837 959,-837 959,-837 399.25,-837 399.25,-837 393.25,-837 387.25,-831 387.25,-825 387.25,-825 387.25,-674 387.25,-674 387.25,-668 393.25,-662 399.25,-662"/>
<text text-anchor="middle" x="679.12" y="-824.45" font-family="Helvetica,sans-Serif" font-weight="bold" font-size="9.00">viewer</text>
</g>
<g id="clust14" class="cluster">
<title>cluster_src/ts/ui/component/viewer/holder</title>
<path fill="#ffffff" stroke="black" stroke-width="2" d="M710.62,-696C710.62,-696 937.5,-696 937.5,-696 943.5,-696 949.5,-702 949.5,-708 949.5,-708 949.5,-737 949.5,-737 949.5,-743 943.5,-749 937.5,-749 937.5,-749 710.62,-749 710.62,-749 704.62,-749 698.62,-743 698.62,-737 698.62,-737 698.62,-708 698.62,-708 698.62,-702 704.62,-696 710.62,-696"/>
<text text-anchor="middle" x="824.06" y="-736.45" font-family="Helvetica,sans-Serif" font-weight="bold" font-size="9.00">holder</text>
</g>
<g id="clust15" class="cluster">
<title>cluster_src/ts/ui/component/viewer/navigation</title>
<path fill="#ffffff" stroke="black" stroke-width="2" d="M697.12,-757C697.12,-757 951,-757 951,-757 957,-757 963,-763 963,-769 963,-769 963,-798 963,-798 963,-804 957,-810 951,-810 951,-810 697.12,-810 697.12,-810 691.12,-810 685.12,-804 685.12,-798 685.12,-798 685.12,-769 685.12,-769 685.12,-763 691.12,-757 697.12,-757"/>
<text text-anchor="middle" x="824.06" y="-797.45" font-family="Helvetica,sans-Serif" font-weight="bold" font-size="9.00">navigation</text>
</g>
<g id="clust16" class="cluster">
<title>cluster_src/ts/ui/overlay</title>
<path fill="#ffffff" stroke="black" stroke-width="2" d="M136.88,-302C136.88,-302 663.75,-302 663.75,-302 669.75,-302 675.75,-308 675.75,-314 675.75,-314 675.75,-618 675.75,-618 675.75,-624 669.75,-630 663.75,-630 663.75,-630 136.88,-630 136.88,-630 130.88,-630 124.88,-624 124.88,-618 124.88,-618 124.88,-314 124.88,-314 124.88,-308 130.88,-302 136.88,-302"/>
<text text-anchor="middle" x="400.31" y="-617.45" font-family="Helvetica,sans-Serif" font-weight="bold" font-size="9.00">overlay</text>
</g>
<g id="clust17" class="cluster">
<title>cluster_src/ts/ui/overlay/site&#45;control</title>
<path fill="#ffffff" stroke="black" stroke-width="2" d="M242.75,-397C242.75,-397 655.75,-397 655.75,-397 661.75,-397 667.75,-403 667.75,-409 667.75,-409 667.75,-591 667.75,-591 667.75,-597 661.75,-603 655.75,-603 655.75,-603 242.75,-603 242.75,-603 236.75,-603 230.75,-597 230.75,-591 230.75,-591 230.75,-409 230.75,-409 230.75,-403 236.75,-397 242.75,-397"/>
<text text-anchor="middle" x="449.25" y="-590.45" font-family="Helvetica,sans-Serif" font-weight="bold" font-size="9.00">site&#45;control</text>
</g>
<g id="clust18" class="cluster">
<title>cluster_src/ts/ui/overlay/site&#45;control/scroll</title>
<path fill="#ffffff" stroke="black" stroke-width="2" d="M410.5,-492C410.5,-492 646.25,-492 646.25,-492 652.25,-492 658.25,-498 658.25,-504 658.25,-504 658.25,-564 658.25,-564 658.25,-570 652.25,-576 646.25,-576 646.25,-576 410.5,-576 410.5,-576 404.5,-576 398.5,-570 398.5,-564 398.5,-564 398.5,-504 398.5,-504 398.5,-498 404.5,-492 410.5,-492"/>
<text text-anchor="middle" x="528.38" y="-563.45" font-family="Helvetica,sans-Serif" font-weight="bold" font-size="9.00">scroll</text>
</g>
<g id="clust19" class="cluster">
<title>cluster_src/ts/ui/overlay/site&#45;control/theme</title>
<path fill="#ffffff" stroke="black" stroke-width="2" d="M250.75,-405C250.75,-405 647.75,-405 647.75,-405 653.75,-405 659.75,-411 659.75,-417 659.75,-417 659.75,-446 659.75,-446 659.75,-452 653.75,-458 647.75,-458 647.75,-458 250.75,-458 250.75,-458 244.75,-458 238.75,-452 238.75,-446 238.75,-446 238.75,-417 238.75,-417 238.75,-411 244.75,-405 250.75,-405"/>
<text text-anchor="middle" x="449.25" y="-445.45" font-family="Helvetica,sans-Serif" font-weight="bold" font-size="9.00">theme</text>
</g>
<g id="clust20" class="cluster">
<title>cluster_src/ts/ui/overlay/surface</title>
<path fill="#ffffff" stroke="black" stroke-width="2" d="M260.88,-336C260.88,-336 354.38,-336 354.38,-336 360.38,-336 366.38,-342 366.38,-348 366.38,-348 366.38,-377 366.38,-377 366.38,-383 360.38,-389 354.38,-389 354.38,-389 260.88,-389 260.88,-389 254.88,-389 248.88,-383 248.88,-377 248.88,-377 248.88,-348 248.88,-348 248.88,-342 254.88,-336 260.88,-336"/>
<text text-anchor="middle" x="307.62" y="-376.45" font-family="Helvetica,sans-Serif" font-weight="bold" font-size="9.00">surface</text>
</g>
<g id="clust21" class="cluster">
<title>cluster_src/ts/ui/site</title>
<path fill="#ffffff" stroke="black" stroke-width="2" d="M266,-968C266,-968 662.62,-968 662.62,-968 668.62,-968 674.62,-974 674.62,-980 674.62,-980 674.62,-1227 674.62,-1227 674.62,-1233 668.62,-1239 662.62,-1239 662.62,-1239 266,-1239 266,-1239 260,-1239 254,-1233 254,-1227 254,-1227 254,-980 254,-980 254,-974 260,-968 266,-968"/>
<text text-anchor="middle" x="464.31" y="-1226.45" font-family="Helvetica,sans-Serif" font-weight="bold" font-size="9.00">site</text>
</g>
<g id="clust22" class="cluster">
<title>cluster_src/ts/ui/site/footer</title>
<path fill="#ffffff" stroke="black" stroke-width="2" d="M276.25,-976C276.25,-976 500.25,-976 500.25,-976 506.25,-976 512.25,-982 512.25,-988 512.25,-988 512.25,-1017 512.25,-1017 512.25,-1023 506.25,-1029 500.25,-1029 500.25,-1029 276.25,-1029 276.25,-1029 270.25,-1029 264.25,-1023 264.25,-1017 264.25,-1017 264.25,-988 264.25,-988 264.25,-982 270.25,-976 276.25,-976"/>
<text text-anchor="middle" x="388.25" y="-1016.45" font-family="Helvetica,sans-Serif" font-weight="bold" font-size="9.00">footer</text>
</g>
<g id="clust23" class="cluster">
<title>cluster_src/ts/ui/site/header</title>
<path fill="#ffffff" stroke="black" stroke-width="2" d="M274,-1037C274,-1037 502.5,-1037 502.5,-1037 508.5,-1037 514.5,-1043 514.5,-1049 514.5,-1049 514.5,-1078 514.5,-1078 514.5,-1084 508.5,-1090 502.5,-1090 502.5,-1090 274,-1090 274,-1090 268,-1090 262,-1084 262,-1078 262,-1078 262,-1049 262,-1049 262,-1043 268,-1037 274,-1037"/>
<text text-anchor="middle" x="388.25" y="-1077.45" font-family="Helvetica,sans-Serif" font-weight="bold" font-size="9.00">header</text>
</g>
<g id="clust24" class="cluster">
<title>cluster_src/ts/ui/site/project</title>
<path fill="#ffffff" stroke="black" stroke-width="2" d="M274.75,-1098C274.75,-1098 654.62,-1098 654.62,-1098 660.62,-1098 666.62,-1104 666.62,-1110 666.62,-1110 666.62,-1200 666.62,-1200 666.62,-1206 660.62,-1212 654.62,-1212 654.62,-1212 274.75,-1212 274.75,-1212 268.75,-1212 262.75,-1206 262.75,-1200 262.75,-1200 262.75,-1110 262.75,-1110 262.75,-1104 268.75,-1098 274.75,-1098"/>
<text text-anchor="middle" x="464.69" y="-1199.45" font-family="Helvetica,sans-Serif" font-weight="bold" font-size="9.00">project</text>
</g>
<g id="clust25" class="cluster">
<title>cluster_src/ts/ui/site/project/text</title>
<path fill="#ffffff" stroke="black" stroke-width="2" d="M410.12,-1132C410.12,-1132 646.62,-1132 646.62,-1132 652.62,-1132 658.62,-1138 658.62,-1144 658.62,-1144 658.62,-1173 658.62,-1173 658.62,-1179 652.62,-1185 646.62,-1185 646.62,-1185 410.12,-1185 410.12,-1185 404.12,-1185 398.12,-1179 398.12,-1173 398.12,-1173 398.12,-1144 398.12,-1144 398.12,-1138 404.12,-1132 410.12,-1132"/>
<text text-anchor="middle" x="528.38" y="-1172.45" font-family="Helvetica,sans-Serif" font-weight="bold" font-size="9.00">text</text>
</g>
<!-- src/ts/Application.module.css -->
<g id="node1" class="node">
<title>src/ts/Application.module.css</title>
<g id="a_node1"><a xlink:href="src/ts/Application.module.css" xlink:title="Application.module.css">
<path fill="#ffffcc" stroke="black" d="M216.58,-286.25C216.58,-286.25 118.42,-286.25 118.42,-286.25 115.33,-286.25 112.25,-283.17 112.25,-280.08 112.25,-280.08 112.25,-273.92 112.25,-273.92 112.25,-270.83 115.33,-267.75 118.42,-267.75 118.42,-267.75 216.58,-267.75 216.58,-267.75 219.67,-267.75 222.75,-270.83 222.75,-273.92 222.75,-273.92 222.75,-280.08 222.75,-280.08 222.75,-283.17 219.67,-286.25 216.58,-286.25"/>
<text text-anchor="start" x="120.25" y="-273.7" font-family="Helvetica,sans-Serif" font-size="9.00">Application.module.css</text>
</a>
</g>
</g>
<!-- src/ts/Application.tsx -->
<g id="node2" class="node">
<title>src/ts/Application.tsx</title>
<g id="a_node2"><a xlink:href="src/ts/Application.tsx" xlink:title="Application.tsx">
<path fill="#bbfeff" stroke="black" d="M93.08,-362.25C93.08,-362.25 30.17,-362.25 30.17,-362.25 27.08,-362.25 24,-359.17 24,-356.08 24,-356.08 24,-349.92 24,-349.92 24,-346.83 27.08,-343.75 30.17,-343.75 30.17,-343.75 93.08,-343.75 93.08,-343.75 96.17,-343.75 99.25,-346.83 99.25,-349.92 99.25,-349.92 99.25,-356.08 99.25,-356.08 99.25,-359.17 96.17,-362.25 93.08,-362.25"/>
<text text-anchor="start" x="32" y="-349.7" font-family="Helvetica,sans-Serif" font-size="9.00">Application.tsx</text>
</a>
</g>
</g>
<!-- src/ts/Application.tsx&#45;&gt;src/ts/Application.module.css -->
<g id="edge1" class="edge">
<title>src/ts/Application.tsx&#45;&gt;src/ts/Application.module.css</title>
<path fill="none" stroke="#000000" stroke-width="2" stroke-opacity="0.200000" d="M69.34,-343.41C78.04,-331.57 94.26,-311.48 112.25,-299 117.02,-295.69 122.36,-292.76 127.78,-290.21"/>
<polygon fill="#000000" fill-opacity="0.200000" stroke="#000000" stroke-width="2" stroke-opacity="0.200000" points="128.29,-292.28 132.95,-287.96 126.61,-288.43 128.29,-292.28"/>
</g>
<!-- src/ts/ui/overlay/UIOverlay.tsx -->
<g id="node3" class="node">
<title>src/ts/ui/overlay/UIOverlay.tsx</title>
<g id="a_node3"><a xlink:href="src/ts/ui/overlay/UIOverlay.tsx" xlink:title="UIOverlay.tsx">
<path fill="#bbfeff" stroke="black" d="M195.96,-362.25C195.96,-362.25 139.04,-362.25 139.04,-362.25 135.96,-362.25 132.88,-359.17 132.88,-356.08 132.88,-356.08 132.88,-349.92 132.88,-349.92 132.88,-346.83 135.96,-343.75 139.04,-343.75 139.04,-343.75 195.96,-343.75 195.96,-343.75 199.04,-343.75 202.12,-346.83 202.12,-349.92 202.12,-349.92 202.12,-356.08 202.12,-356.08 202.12,-359.17 199.04,-362.25 195.96,-362.25"/>
<text text-anchor="start" x="140.88" y="-349.7" font-family="Helvetica,sans-Serif" font-size="9.00">UIOverlay.tsx</text>
</a>
</g>
</g>
<!-- src/ts/Application.tsx&#45;&gt;src/ts/ui/overlay/UIOverlay.tsx -->
<g id="edge2" class="edge">
<title>src/ts/Application.tsx&#45;&gt;src/ts/ui/overlay/UIOverlay.tsx</title>
<path fill="none" stroke="#000000" stroke-width="2" stroke-opacity="0.200000" d="M99.54,-353C107.34,-353 115.63,-353 123.62,-353"/>
<polygon fill="#000000" fill-opacity="0.200000" stroke="#000000" stroke-width="2" stroke-opacity="0.200000" points="123.45,-355.1 129.45,-353 123.45,-350.9 123.45,-355.1"/>
</g>
<!-- src/ts/ui/UIContainer.tsx -->
<g id="node4" class="node">
<title>src/ts/ui/UIContainer.tsx</title>
<g id="a_node4"><a xlink:href="src/ts/ui/UIContainer.tsx" xlink:title="UIContainer.tsx">
<path fill="#bbfeff" stroke="black" d="M200.46,-1032.25C200.46,-1032.25 134.54,-1032.25 134.54,-1032.25 131.46,-1032.25 128.38,-1029.17 128.38,-1026.08 128.38,-1026.08 128.38,-1019.92 128.38,-1019.92 128.38,-1016.83 131.46,-1013.75 134.54,-1013.75 134.54,-1013.75 200.46,-1013.75 200.46,-1013.75 203.54,-1013.75 206.62,-1016.83 206.62,-1019.92 206.62,-1019.92 206.62,-1026.08 206.62,-1026.08 206.62,-1029.17 203.54,-1032.25 200.46,-1032.25"/>
<text text-anchor="start" x="136.38" y="-1019.7" font-family="Helvetica,sans-Serif" font-size="9.00">UIContainer.tsx</text>
</a>
</g>
</g>
<!-- src/ts/Application.tsx&#45;&gt;src/ts/ui/UIContainer.tsx -->
<g id="edge3" class="edge">
<title>src/ts/Application.tsx&#45;&gt;src/ts/ui/UIContainer.tsx</title>
<path fill="none" stroke="#000000" stroke-width="2" stroke-opacity="0.200000" d="M64.13,-362.73C75.54,-436.32 148.23,-905.17 163.63,-1004.52"/>
<polygon fill="#000000" fill-opacity="0.200000" stroke="#000000" stroke-width="2" stroke-opacity="0.200000" points="161.56,-1004.82 164.55,-1010.42 165.71,-1004.17 161.56,-1004.82"/>
</g>
<!-- src/ts/ui/overlay/UIOverlay.module.css -->
<g id="node28" class="node">
<title>src/ts/ui/overlay/UIOverlay.module.css</title>
<g id="a_node28"><a xlink:href="src/ts/ui/overlay/UIOverlay.module.css" xlink:title="UIOverlay.module.css">
<path fill="#ffffcc" stroke="black" d="M353.71,-328.25C353.71,-328.25 261.54,-328.25 261.54,-328.25 258.46,-328.25 255.38,-325.17 255.38,-322.08 255.38,-322.08 255.38,-315.92 255.38,-315.92 255.38,-312.83 258.46,-309.75 261.54,-309.75 261.54,-309.75 353.71,-309.75 353.71,-309.75 356.79,-309.75 359.88,-312.83 359.88,-315.92 359.88,-315.92 359.88,-322.08 359.88,-322.08 359.88,-325.17 356.79,-328.25 353.71,-328.25"/>
<text text-anchor="start" x="263.38" y="-315.7" font-family="Helvetica,sans-Serif" font-size="9.00">UIOverlay.module.css</text>
</a>
</g>
</g>
<!-- src/ts/ui/overlay/UIOverlay.tsx&#45;&gt;src/ts/ui/overlay/UIOverlay.module.css -->
<g id="edge27" class="edge">
<title>src/ts/ui/overlay/UIOverlay.tsx&#45;&gt;src/ts/ui/overlay/UIOverlay.module.css</title>
<path fill="none" stroke="#000000" stroke-width="2" stroke-opacity="0.200000" d="M202.4,-347.54C209.36,-345.7 216.47,-343.25 222.75,-340 226.95,-337.83 226.5,-335.06 230.75,-333 235.74,-330.59 241.09,-328.59 246.56,-326.93"/>
<polygon fill="#000000" fill-opacity="0.200000" stroke="#000000" stroke-width="2" stroke-opacity="0.200000" points="247.05,-328.98 252.3,-325.39 245.96,-324.92 247.05,-328.98"/>
</g>
<!-- src/ts/ui/overlay/site&#45;control/UISiteControl.tsx -->
<g id="node29" class="node">
<title>src/ts/ui/overlay/site&#45;control/UISiteControl.tsx</title>
<g id="a_node29"><a xlink:href="src/ts/ui/overlay/site-control/UISiteControl.tsx" xlink:title="UISiteControl.tsx">
<path fill="#bbfeff" stroke="black" d="M343.58,-484.25C343.58,-484.25 271.67,-484.25 271.67,-484.25 268.58,-484.25 265.5,-481.17 265.5,-478.08 265.5,-478.08 265.5,-471.92 265.5,-471.92 265.5,-468.83 268.58,-465.75 271.67,-465.75 271.67,-465.75 343.58,-465.75 343.58,-465.75 346.67,-465.75 349.75,-468.83 349.75,-471.92 349.75,-471.92 349.75,-478.08 349.75,-478.08 349.75,-481.17 346.67,-484.25 343.58,-484.25"/>
<text text-anchor="start" x="273.5" y="-471.7" font-family="Helvetica,sans-Serif" font-size="9.00">UISiteControl.tsx</text>
</a>
</g>
</g>
<!-- src/ts/ui/overlay/UIOverlay.tsx&#45;&gt;src/ts/ui/overlay/site&#45;control/UISiteControl.tsx -->
<g id="edge25" class="edge">
<title>src/ts/ui/overlay/UIOverlay.tsx&#45;&gt;src/ts/ui/overlay/site&#45;control/UISiteControl.tsx</title>
<path fill="none" stroke="#000000" stroke-width="2" stroke-opacity="0.200000" d="M202.44,-354.5C210.15,-356.48 217.57,-359.98 222.75,-366 236.56,-382.07 216.52,-445.3 230.75,-461 237.5,-468.45 246.81,-472.73 256.6,-475.07"/>
<polygon fill="#000000" fill-opacity="0.200000" stroke="#000000" stroke-width="2" stroke-opacity="0.200000" points="256.01,-477.1 262.29,-476.11 256.77,-472.96 256.01,-477.1"/>
</g>
<!-- src/ts/ui/overlay/surface/UIOverlaySurface.tsx -->
<g id="node30" class="node">
<title>src/ts/ui/overlay/surface/UIOverlaySurface.tsx</title>
<g id="a_node30"><a xlink:href="src/ts/ui/overlay/surface/UIOverlaySurface.tsx" xlink:title="UIOverlaySurface.tsx">
<path fill="#bbfeff" stroke="black" d="M352.21,-362.25C352.21,-362.25 263.04,-362.25 263.04,-362.25 259.96,-362.25 256.88,-359.17 256.88,-356.08 256.88,-356.08 256.88,-349.92 256.88,-349.92 256.88,-346.83 259.96,-343.75 263.04,-343.75 263.04,-343.75 352.21,-343.75 352.21,-343.75 355.29,-343.75 358.38,-346.83 358.38,-349.92 358.38,-349.92 358.38,-356.08 358.38,-356.08 358.38,-359.17 355.29,-362.25 352.21,-362.25"/>
<text text-anchor="start" x="264.88" y="-349.7" font-family="Helvetica,sans-Serif" font-size="9.00">UIOverlaySurface.tsx</text>
</a>
</g>
</g>
<!-- src/ts/ui/overlay/UIOverlay.tsx&#45;&gt;src/ts/ui/overlay/surface/UIOverlaySurface.tsx -->
<g id="edge26" class="edge">
<title>src/ts/ui/overlay/UIOverlay.tsx&#45;&gt;src/ts/ui/overlay/surface/UIOverlaySurface.tsx</title>
<path fill="none" stroke="#000000" stroke-width="2" stroke-opacity="0.200000" d="M202.29,-353C215.91,-353 232.03,-353 247.48,-353"/>
<polygon fill="#000000" fill-opacity="0.200000" stroke="#000000" stroke-width="2" stroke-opacity="0.200000" points="247.44,-355.1 253.44,-353 247.44,-350.9 247.44,-355.1"/>
</g>
<!-- src/ts/store/project/projectStore.ts -->
<g id="node9" class="node">
<title>src/ts/store/project/projectStore.ts</title>
<g id="a_node9"><a xlink:href="src/ts/store/project/projectStore.ts" xlink:title="projectStore.ts">
<path fill="#ddfeff" stroke="black" d="M618.96,-58.25C618.96,-58.25 556.79,-58.25 556.79,-58.25 553.71,-58.25 550.62,-55.17 550.62,-52.08 550.62,-52.08 550.62,-45.92 550.62,-45.92 550.62,-42.83 553.71,-39.75 556.79,-39.75 556.79,-39.75 618.96,-39.75 618.96,-39.75 622.04,-39.75 625.12,-42.83 625.12,-45.92 625.12,-45.92 625.12,-52.08 625.12,-52.08 625.12,-55.17 622.04,-58.25 618.96,-58.25"/>
<text text-anchor="start" x="558.62" y="-45.7" font-family="Helvetica,sans-Serif" font-size="9.00">projectStore.ts</text>
</a>
</g>
</g>
<!-- src/ts/ui/UIContainer.tsx&#45;&gt;src/ts/store/project/projectStore.ts -->
<g id="edge8" class="edge">
<title>src/ts/ui/UIContainer.tsx&#45;&gt;src/ts/store/project/projectStore.ts</title>
<path fill="none" stroke="#000000" stroke-width="2" stroke-opacity="0.200000" d="M170.25,-1013.4C178.11,-969.75 210.35,-785.62 222.75,-633 225.76,-596 218.79,-334.14 230.75,-299 266.07,-195.22 285.3,-160.83 376.5,-100 426.52,-66.64 496.18,-55.06 541.4,-51.06"/>
<polygon fill="#000000" fill-opacity="0.200000" stroke="#000000" stroke-width="2" stroke-opacity="0.200000" points="541.55,-53.16 547.36,-50.58 541.21,-48.97 541.55,-53.16"/>
</g>
<!-- src/ts/ui/UIContainer.module.css -->
<g id="node14" class="node">
<title>src/ts/ui/UIContainer.module.css</title>
<g id="a_node14"><a xlink:href="src/ts/ui/UIContainer.module.css" xlink:title="UIContainer.module.css">
<path fill="#ffffcc" stroke="black" d="M358.21,-1265.25C358.21,-1265.25 257.04,-1265.25 257.04,-1265.25 253.96,-1265.25 250.88,-1262.17 250.88,-1259.08 250.88,-1259.08 250.88,-1252.92 250.88,-1252.92 250.88,-1249.83 253.96,-1246.75 257.04,-1246.75 257.04,-1246.75 358.21,-1246.75 358.21,-1246.75 361.29,-1246.75 364.38,-1249.83 364.38,-1252.92 364.38,-1252.92 364.38,-1259.08 364.38,-1259.08 364.38,-1262.17 361.29,-1265.25 358.21,-1265.25"/>
<text text-anchor="start" x="258.88" y="-1252.7" font-family="Helvetica,sans-Serif" font-size="9.00">UIContainer.module.css</text>
</a>
</g>
</g>
<!-- src/ts/ui/UIContainer.tsx&#45;&gt;src/ts/ui/UIContainer.module.css -->
<g id="edge12" class="edge">
<title>src/ts/ui/UIContainer.tsx&#45;&gt;src/ts/ui/UIContainer.module.css</title>
<path fill="none" stroke="#000000" stroke-width="2" stroke-opacity="0.200000" d="M169.14,-1032.58C171.61,-1062.82 182.98,-1157.65 230.75,-1215 240.92,-1227.21 255.71,-1236.35 269.53,-1242.86"/>
<polygon fill="#000000" fill-opacity="0.200000" stroke="#000000" stroke-width="2" stroke-opacity="0.200000" points="268.41,-1244.66 274.74,-1245.17 270.11,-1240.82 268.41,-1244.66"/>
</g>
<!-- src/ts/ui/site/footer/SiteFooter.tsx -->
<g id="node15" class="node">
<title>src/ts/ui/site/footer/SiteFooter.tsx</title>
<g id="a_node15"><a xlink:href="src/ts/ui/site/footer/SiteFooter.tsx" xlink:title="SiteFooter.tsx">
<path fill="#bbfeff" stroke="black" d="M336.83,-1002.25C336.83,-1002.25 278.42,-1002.25 278.42,-1002.25 275.33,-1002.25 272.25,-999.17 272.25,-996.08 272.25,-996.08 272.25,-989.92 272.25,-989.92 272.25,-986.83 275.33,-983.75 278.42,-983.75 278.42,-983.75 336.83,-983.75 336.83,-983.75 339.92,-983.75 343,-986.83 343,-989.92 343,-989.92 343,-996.08 343,-996.08 343,-999.17 339.92,-1002.25 336.83,-1002.25"/>
<text text-anchor="start" x="280.25" y="-989.7" font-family="Helvetica,sans-Serif" font-size="9.00">SiteFooter.tsx</text>
</a>
</g>
</g>
<!-- src/ts/ui/UIContainer.tsx&#45;&gt;src/ts/ui/site/footer/SiteFooter.tsx -->
<g id="edge9" class="edge">
<title>src/ts/ui/UIContainer.tsx&#45;&gt;src/ts/ui/site/footer/SiteFooter.tsx</title>
<path fill="none" stroke="#000000" stroke-width="2" stroke-opacity="0.200000" d="M206.98,-1014.64C224.54,-1010.83 245.4,-1006.3 263.5,-1002.37"/>
<polygon fill="#000000" fill-opacity="0.200000" stroke="#000000" stroke-width="2" stroke-opacity="0.200000" points="263.75,-1004.46 269.17,-1001.14 262.86,-1000.36 263.75,-1004.46"/>
</g>
<!-- src/ts/ui/site/header/SiteHeader.tsx -->
<g id="node16" class="node">
<title>src/ts/ui/site/header/SiteHeader.tsx</title>
<g id="a_node16"><a xlink:href="src/ts/ui/site/header/SiteHeader.tsx" xlink:title="SiteHeader.tsx">
<path fill="#bbfeff" stroke="black" d="M339.08,-1063.25C339.08,-1063.25 276.17,-1063.25 276.17,-1063.25 273.08,-1063.25 270,-1060.17 270,-1057.08 270,-1057.08 270,-1050.92 270,-1050.92 270,-1047.83 273.08,-1044.75 276.17,-1044.75 276.17,-1044.75 339.08,-1044.75 339.08,-1044.75 342.17,-1044.75 345.25,-1047.83 345.25,-1050.92 345.25,-1050.92 345.25,-1057.08 345.25,-1057.08 345.25,-1060.17 342.17,-1063.25 339.08,-1063.25"/>
<text text-anchor="start" x="278" y="-1050.7" font-family="Helvetica,sans-Serif" font-size="9.00">SiteHeader.tsx</text>
</a>
</g>
</g>
<!-- src/ts/ui/UIContainer.tsx&#45;&gt;src/ts/ui/site/header/SiteHeader.tsx -->
<g id="edge10" class="edge">
<title>src/ts/ui/UIContainer.tsx&#45;&gt;src/ts/ui/site/header/SiteHeader.tsx</title>
<path fill="none" stroke="#000000" stroke-width="2" stroke-opacity="0.200000" d="M206.98,-1031.64C223.85,-1035.42 243.78,-1039.9 261.36,-1043.84"/>
<polygon fill="#000000" fill-opacity="0.200000" stroke="#000000" stroke-width="2" stroke-opacity="0.200000" points="260.52,-1045.8 266.83,-1045.07 261.43,-1041.71 260.52,-1045.8"/>
</g>
<!-- src/ts/ui/site/project/SiteProject.tsx -->
<g id="node17" class="node">
<title>src/ts/ui/site/project/SiteProject.tsx</title>
<g id="a_node17"><a xlink:href="src/ts/ui/site/project/SiteProject.tsx" xlink:title="SiteProject.tsx">
<path fill="#bbfeff" stroke="black" d="M338.33,-1124.25C338.33,-1124.25 276.92,-1124.25 276.92,-1124.25 273.83,-1124.25 270.75,-1121.17 270.75,-1118.08 270.75,-1118.08 270.75,-1111.92 270.75,-1111.92 270.75,-1108.83 273.83,-1105.75 276.92,-1105.75 276.92,-1105.75 338.33,-1105.75 338.33,-1105.75 341.42,-1105.75 344.5,-1108.83 344.5,-1111.92 344.5,-1111.92 344.5,-1118.08 344.5,-1118.08 344.5,-1121.17 341.42,-1124.25 338.33,-1124.25"/>
<text text-anchor="start" x="278.75" y="-1111.7" font-family="Helvetica,sans-Serif" font-size="9.00">SiteProject.tsx</text>
</a>
</g>
</g>
<!-- src/ts/ui/UIContainer.tsx&#45;&gt;src/ts/ui/site/project/SiteProject.tsx -->
<g id="edge11" class="edge">
<title>src/ts/ui/UIContainer.tsx&#45;&gt;src/ts/ui/site/project/SiteProject.tsx</title>
<path fill="none" stroke="#000000" stroke-width="2" stroke-opacity="0.200000" d="M174.5,-1032.71C184.36,-1047.85 205.45,-1077.03 230.75,-1093 240.18,-1098.95 251.26,-1103.34 262.01,-1106.56"/>
<polygon fill="#000000" fill-opacity="0.200000" stroke="#000000" stroke-width="2" stroke-opacity="0.200000" points="261.25,-1108.53 267.6,-1108.1 262.37,-1104.48 261.25,-1108.53"/>
</g>
<!-- src/ts/hook/useScrollProgress.ts -->
<g id="node5" class="node">
<title>src/ts/hook/useScrollProgress.ts</title>
<g id="a_node5"><a xlink:href="src/ts/hook/useScrollProgress.ts" xlink:title="useScrollProgress.ts">
<path fill="#ddfeff" stroke="black" d="M631.71,-259.25C631.71,-259.25 544.04,-259.25 544.04,-259.25 540.96,-259.25 537.88,-256.17 537.88,-253.08 537.88,-253.08 537.88,-246.92 537.88,-246.92 537.88,-243.83 540.96,-240.75 544.04,-240.75 544.04,-240.75 631.71,-240.75 631.71,-240.75 634.79,-240.75 637.88,-243.83 637.88,-246.92 637.88,-246.92 637.88,-253.08 637.88,-253.08 637.88,-256.17 634.79,-259.25 631.71,-259.25"/>
<text text-anchor="start" x="545.88" y="-246.7" font-family="Helvetica,sans-Serif" font-size="9.00">useScrollProgress.ts</text>
</a>
</g>
</g>
<!-- src/ts/motion/duration.ts -->
<g id="node6" class="node">
<title>src/ts/motion/duration.ts</title>
<g id="a_node6"><a xlink:href="src/ts/motion/duration.ts" xlink:title="duration.ts">
<path fill="#ddfeff" stroke="black" d="M910.96,-243.25C910.96,-243.25 864.54,-243.25 864.54,-243.25 861.46,-243.25 858.38,-240.17 858.38,-237.08 858.38,-237.08 858.38,-230.92 858.38,-230.92 858.38,-227.83 861.46,-224.75 864.54,-224.75 864.54,-224.75 910.96,-224.75 910.96,-224.75 914.04,-224.75 917.12,-227.83 917.12,-230.92 917.12,-230.92 917.12,-237.08 917.12,-237.08 917.12,-240.17 914.04,-243.25 910.96,-243.25"/>
<text text-anchor="start" x="866.38" y="-230.7" font-family="Helvetica,sans-Serif" font-size="9.00">duration.ts</text>
</a>
</g>
</g>
<!-- src/ts/motion/ease.ts -->
<g id="node7" class="node">
<title>src/ts/motion/ease.ts</title>
<g id="a_node7"><a xlink:href="src/ts/motion/ease.ts" xlink:title="ease.ts">
<path fill="#ddfeff" stroke="black" d="M763.58,-259.25C763.58,-259.25 721.92,-259.25 721.92,-259.25 718.83,-259.25 715.75,-256.17 715.75,-253.08 715.75,-253.08 715.75,-246.92 715.75,-246.92 715.75,-243.83 718.83,-240.75 721.92,-240.75 721.92,-240.75 763.58,-240.75 763.58,-240.75 766.67,-240.75 769.75,-243.83 769.75,-246.92 769.75,-246.92 769.75,-253.08 769.75,-253.08 769.75,-256.17 766.67,-259.25 763.58,-259.25"/>
<text text-anchor="start" x="728.12" y="-246.7" font-family="Helvetica,sans-Serif" font-size="9.00">ease.ts</text>
</a>
</g>
</g>
<!-- src/ts/motion/fade.ts -->
<g id="node8" class="node">
<title>src/ts/motion/fade.ts</title>
<g id="a_node8"><a xlink:href="src/ts/motion/fade.ts" xlink:title="fade.ts">
<path fill="#ddfeff" stroke="black" d="M763.58,-228.25C763.58,-228.25 721.92,-228.25 721.92,-228.25 718.83,-228.25 715.75,-225.17 715.75,-222.08 715.75,-222.08 715.75,-215.92 715.75,-215.92 715.75,-212.83 718.83,-209.75 721.92,-209.75 721.92,-209.75 763.58,-209.75 763.58,-209.75 766.67,-209.75 769.75,-212.83 769.75,-215.92 769.75,-215.92 769.75,-222.08 769.75,-222.08 769.75,-225.17 766.67,-228.25 763.58,-228.25"/>
<text text-anchor="start" x="729.25" y="-215.7" font-family="Helvetica,sans-Serif" font-size="9.00">fade.ts</text>
</a>
</g>
</g>
<!-- src/ts/motion/fade.ts&#45;&gt;src/ts/motion/duration.ts -->
<g id="edge4" class="edge">
<title>src/ts/motion/fade.ts&#45;&gt;src/ts/motion/duration.ts</title>
<path fill="none" stroke="#000000" stroke-width="2" stroke-opacity="0.200000" d="M769.98,-221.75C792.24,-224.09 824.45,-227.46 849.4,-230.08"/>
<polygon fill="#000000" fill-opacity="0.200000" stroke="#000000" stroke-width="2" stroke-opacity="0.200000" points="849.04,-232.16 855.23,-230.69 849.48,-227.98 849.04,-232.16"/>
</g>
<!-- src/ts/store/uiState/uiStateStore.ts -->
<g id="node10" class="node">
<title>src/ts/store/uiState/uiStateStore.ts</title>
<g id="a_node10"><a xlink:href="src/ts/store/uiState/uiStateStore.ts" xlink:title="uiStateStore.ts">
<path fill="#ddfeff" stroke="black" d="M619.33,-119.25C619.33,-119.25 556.42,-119.25 556.42,-119.25 553.33,-119.25 550.25,-116.17 550.25,-113.08 550.25,-113.08 550.25,-106.92 550.25,-106.92 550.25,-103.83 553.33,-100.75 556.42,-100.75 556.42,-100.75 619.33,-100.75 619.33,-100.75 622.42,-100.75 625.5,-103.83 625.5,-106.92 625.5,-106.92 625.5,-113.08 625.5,-113.08 625.5,-116.17 622.42,-119.25 619.33,-119.25"/>
<text text-anchor="start" x="558.25" y="-106.7" font-family="Helvetica,sans-Serif" font-size="9.00">uiStateStore.ts</text>
</a>
</g>
</g>
<!-- src/ts/types/index.ts -->
<g id="node11" class="node">
<title>src/ts/types/index.ts</title>
<g id="a_node11"><a xlink:href="src/ts/types/index.ts" xlink:title="index.ts">
<path fill="#ddfeff" stroke="black" d="M763.58,-131.25C763.58,-131.25 721.92,-131.25 721.92,-131.25 718.83,-131.25 715.75,-128.17 715.75,-125.08 715.75,-125.08 715.75,-118.92 715.75,-118.92 715.75,-115.83 718.83,-112.75 721.92,-112.75 721.92,-112.75 763.58,-112.75 763.58,-112.75 766.67,-112.75 769.75,-115.83 769.75,-118.92 769.75,-118.92 769.75,-125.08 769.75,-125.08 769.75,-128.17 766.67,-131.25 763.58,-131.25"/>
<text text-anchor="start" x="727" y="-118.7" font-family="Helvetica,sans-Serif" font-size="9.00">index.ts</text>
</a>
</g>
</g>
<!-- src/ts/store/uiState/uiStateStore.ts&#45;&gt;src/ts/types/index.ts -->
<g id="edge5" class="edge">
<title>src/ts/store/uiState/uiStateStore.ts&#45;&gt;src/ts/types/index.ts</title>
<path fill="none" stroke="#000000" stroke-width="2" stroke-opacity="0.200000" d="M625.88,-112.9C650.49,-114.84 682.6,-117.36 706.77,-119.25"/>
<polygon fill="#000000" fill-opacity="0.200000" stroke="#000000" stroke-width="2" stroke-opacity="0.200000" points="706.45,-121.34 712.6,-119.71 706.78,-117.15 706.45,-121.34"/>
</g>
<!-- src/ts/types/project.ts -->
<g id="node12" class="node">
<title>src/ts/types/project.ts</title>
<g id="a_node12"><a xlink:href="src/ts/types/project.ts" xlink:title="project.ts">
<path fill="#ddfeff" stroke="black" d="M908.58,-147.25C908.58,-147.25 866.92,-147.25 866.92,-147.25 863.83,-147.25 860.75,-144.17 860.75,-141.08 860.75,-141.08 860.75,-134.92 860.75,-134.92 860.75,-131.83 863.83,-128.75 866.92,-128.75 866.92,-128.75 908.58,-128.75 908.58,-128.75 911.67,-128.75 914.75,-131.83 914.75,-134.92 914.75,-134.92 914.75,-141.08 914.75,-141.08 914.75,-144.17 911.67,-147.25 908.58,-147.25"/>
<text text-anchor="start" x="869.38" y="-134.7" font-family="Helvetica,sans-Serif" font-size="9.00">project.ts</text>
</a>
</g>
</g>
<!-- src/ts/types/index.ts&#45;&gt;src/ts/types/project.ts -->
<g id="edge6" class="edge">
<title>src/ts/types/index.ts&#45;&gt;src/ts/types/project.ts</title>
<path fill="none" stroke="#000000" stroke-width="2" stroke-opacity="0.200000" d="M769.98,-124.93C793.56,-127.57 828.31,-131.46 853.77,-134.31"/>
<polygon fill="#000000" fill-opacity="0.200000" stroke="#000000" stroke-width="2" stroke-opacity="0.200000" points="859.46,-137.06 853.73,-134.31 859.93,-132.89 859.46,-137.06"/>
</g>
<!-- src/ts/types/theme.ts -->
<g id="node13" class="node">
<title>src/ts/types/theme.ts</title>
<g id="a_node13"><a xlink:href="src/ts/types/theme.ts" xlink:title="theme.ts">
<path fill="#ddfeff" stroke="black" d="M908.58,-116.25C908.58,-116.25 866.92,-116.25 866.92,-116.25 863.83,-116.25 860.75,-113.17 860.75,-110.08 860.75,-110.08 860.75,-103.92 860.75,-103.92 860.75,-100.83 863.83,-97.75 866.92,-97.75 866.92,-97.75 908.58,-97.75 908.58,-97.75 911.67,-97.75 914.75,-100.83 914.75,-103.92 914.75,-103.92 914.75,-110.08 914.75,-110.08 914.75,-113.17 911.67,-116.25 908.58,-116.25"/>
<text text-anchor="start" x="870.5" y="-103.7" font-family="Helvetica,sans-Serif" font-size="9.00">theme.ts</text>
</a>
</g>
</g>
<!-- src/ts/types/index.ts&#45;&gt;src/ts/types/theme.ts -->
<g id="edge7" class="edge">
<title>src/ts/types/index.ts&#45;&gt;src/ts/types/theme.ts</title>
<path fill="none" stroke="#000000" stroke-width="2" stroke-opacity="0.200000" d="M769.98,-119.25C793.56,-116.77 828.31,-113.13 853.77,-110.46"/>
<polygon fill="#000000" fill-opacity="0.200000" stroke="#000000" stroke-width="2" stroke-opacity="0.200000" points="859.91,-111.93 853.73,-110.46 859.47,-107.75 859.91,-111.93"/>
</g>
<!-- src/ts/ui/component/button/text/ButtonText.tsx -->
<g id="node20" class="node">
<title>src/ts/ui/component/button/text/ButtonText.tsx</title>
<g id="a_node20"><a xlink:href="src/ts/ui/component/button/text/ButtonText.tsx" xlink:title="ButtonText.tsx">
<path fill="#bbfeff" stroke="black" d="M617.83,-879.25C617.83,-879.25 557.92,-879.25 557.92,-879.25 554.83,-879.25 551.75,-876.17 551.75,-873.08 551.75,-873.08 551.75,-866.92 551.75,-866.92 551.75,-863.83 554.83,-860.75 557.92,-860.75 557.92,-860.75 617.83,-860.75 617.83,-860.75 620.92,-860.75 624,-863.83 624,-866.92 624,-866.92 624,-873.08 624,-873.08 624,-876.17 620.92,-879.25 617.83,-879.25"/>
<text text-anchor="start" x="559.75" y="-866.7" font-family="Helvetica,sans-Serif" font-size="9.00">ButtonText.tsx</text>
</a>
</g>
</g>
<!-- src/ts/ui/site/footer/SiteFooter.tsx&#45;&gt;src/ts/ui/component/button/text/ButtonText.tsx -->
<g id="edge41" class="edge">
<title>src/ts/ui/site/footer/SiteFooter.tsx&#45;&gt;src/ts/ui/component/button/text/ButtonText.tsx</title>
<path fill="none" stroke="#000000" stroke-width="2" stroke-opacity="0.200000" d="M309.01,-983.42C311.23,-933.27 324.27,-701.69 376.5,-659 423.99,-620.19 470.01,-616.78 514.5,-659 529.11,-672.86 512.81,-823.25 524,-840 528.84,-847.24 535.93,-852.78 543.62,-857.01"/>
<polygon fill="#000000" fill-opacity="0.200000" stroke="#000000" stroke-width="2" stroke-opacity="0.200000" points="542.41,-858.76 548.73,-859.48 544.25,-854.98 542.41,-858.76"/>
</g>
<!-- src/ts/ui/site/footer/SiteFooter.module.css -->
<g id="node38" class="node">
<title>src/ts/ui/site/footer/SiteFooter.module.css</title>
<g id="a_node38"><a xlink:href="src/ts/ui/site/footer/SiteFooter.module.css" xlink:title="SiteFooter.module.css">
<path fill="#ffffcc" stroke="black" d="M498.08,-1002.25C498.08,-1002.25 404.42,-1002.25 404.42,-1002.25 401.33,-1002.25 398.25,-999.17 398.25,-996.08 398.25,-996.08 398.25,-989.92 398.25,-989.92 398.25,-986.83 401.33,-983.75 404.42,-983.75 404.42,-983.75 498.08,-983.75 498.08,-983.75 501.17,-983.75 504.25,-986.83 504.25,-989.92 504.25,-989.92 504.25,-996.08 504.25,-996.08 504.25,-999.17 501.17,-1002.25 498.08,-1002.25"/>
<text text-anchor="start" x="406.25" y="-989.7" font-family="Helvetica,sans-Serif" font-size="9.00">SiteFooter.module.css</text>
</a>
</g>
</g>
<!-- src/ts/ui/site/footer/SiteFooter.tsx&#45;&gt;src/ts/ui/site/footer/SiteFooter.module.css -->
<g id="edge42" class="edge">
<title>src/ts/ui/site/footer/SiteFooter.tsx&#45;&gt;src/ts/ui/site/footer/SiteFooter.module.css</title>
<path fill="none" stroke="#000000" stroke-width="2" stroke-opacity="0.200000" d="M343.27,-993C357.16,-993 373.58,-993 389.34,-993"/>
<polygon fill="#000000" fill-opacity="0.200000" stroke="#000000" stroke-width="2" stroke-opacity="0.200000" points="388.98,-995.1 394.98,-993 388.98,-990.9 388.98,-995.1"/>
</g>
<!-- src/ts/ui/site/header/SiteHeader.module.css -->
<g id="node39" class="node">
<title>src/ts/ui/site/header/SiteHeader.module.css</title>
<g id="a_node39"><a xlink:href="src/ts/ui/site/header/SiteHeader.module.css" xlink:title="SiteHeader.module.css">
<path fill="#ffffcc" stroke="black" d="M500.33,-1063.25C500.33,-1063.25 402.17,-1063.25 402.17,-1063.25 399.08,-1063.25 396,-1060.17 396,-1057.08 396,-1057.08 396,-1050.92 396,-1050.92 396,-1047.83 399.08,-1044.75 402.17,-1044.75 402.17,-1044.75 500.33,-1044.75 500.33,-1044.75 503.42,-1044.75 506.5,-1047.83 506.5,-1050.92 506.5,-1050.92 506.5,-1057.08 506.5,-1057.08 506.5,-1060.17 503.42,-1063.25 500.33,-1063.25"/>
<text text-anchor="start" x="404" y="-1050.7" font-family="Helvetica,sans-Serif" font-size="9.00">SiteHeader.module.css</text>
</a>
</g>
</g>
<!-- src/ts/ui/site/header/SiteHeader.tsx&#45;&gt;src/ts/ui/site/header/SiteHeader.module.css -->
<g id="edge43" class="edge">
<title>src/ts/ui/site/header/SiteHeader.tsx&#45;&gt;src/ts/ui/site/header/SiteHeader.module.css</title>
<path fill="none" stroke="#000000" stroke-width="2" stroke-opacity="0.200000" d="M345.47,-1054C358.16,-1054 372.76,-1054 386.95,-1054"/>
<polygon fill="#000000" fill-opacity="0.200000" stroke="#000000" stroke-width="2" stroke-opacity="0.200000" points="386.69,-1056.1 392.69,-1054 386.69,-1051.9 386.69,-1056.1"/>
</g>
<!-- src/ts/ui/site/project/SiteProject.tsx&#45;&gt;src/ts/motion/duration.ts -->
<g id="edge44" class="edge">
<title>src/ts/ui/site/project/SiteProject.tsx&#45;&gt;src/ts/motion/duration.ts</title>
<path fill="none" stroke="#000000" stroke-width="2" stroke-opacity="0.200000" d="M344.88,-1109.3C354.06,-1106.05 362.89,-1100.97 368.5,-1093 382.28,-1073.45 360.8,-250.04 376.5,-232 440.23,-158.75 717.2,-185.47 812.5,-204 829,-207.21 846.48,-214.08 860.33,-220.43"/>
<polygon fill="#000000" fill-opacity="0.200000" stroke="#000000" stroke-width="2" stroke-opacity="0.200000" points="859.39,-222.31 865.71,-222.99 861.19,-218.52 859.39,-222.31"/>
</g>
<!-- src/ts/ui/site/project/SiteProject.tsx&#45;&gt;src/ts/motion/ease.ts -->
<g id="edge45" class="edge">
<title>src/ts/ui/site/project/SiteProject.tsx&#45;&gt;src/ts/motion/ease.ts</title>
<path fill="none" stroke="#000000" stroke-width="2" stroke-opacity="0.200000" d="M344.87,-1109.29C354.04,-1106.05 362.88,-1100.96 368.5,-1093 379.58,-1077.32 369.73,-419.96 376.5,-402 412,-307.76 432.5,-272.07 524,-230 585.28,-201.83 610.11,-214.5 675.75,-230 679.62,-230.91 680.04,-232.58 683.75,-234 691.2,-236.86 699.36,-239.44 707.16,-241.64"/>
<polygon fill="#000000" fill-opacity="0.200000" stroke="#000000" stroke-width="2" stroke-opacity="0.200000" points="706.15,-243.55 712.5,-243.1 707.26,-239.49 706.15,-243.55"/>
</g>
<!-- src/ts/ui/component/viewer/MediaViewer.tsx -->
<g id="node23" class="node">
<title>src/ts/ui/component/viewer/MediaViewer.tsx</title>
<g id="a_node23"><a xlink:href="src/ts/ui/component/viewer/MediaViewer.tsx" xlink:title="MediaViewer.tsx">
<path fill="#bbfeff" stroke="black" d="M623.08,-688.25C623.08,-688.25 552.67,-688.25 552.67,-688.25 549.58,-688.25 546.5,-685.17 546.5,-682.08 546.5,-682.08 546.5,-675.92 546.5,-675.92 546.5,-672.83 549.58,-669.75 552.67,-669.75 552.67,-669.75 623.08,-669.75 623.08,-669.75 626.17,-669.75 629.25,-672.83 629.25,-675.92 629.25,-675.92 629.25,-682.08 629.25,-682.08 629.25,-685.17 626.17,-688.25 623.08,-688.25"/>
<text text-anchor="start" x="554.5" y="-675.7" font-family="Helvetica,sans-Serif" font-size="9.00">MediaViewer.tsx</text>
</a>
</g>
</g>
<!-- src/ts/ui/site/project/SiteProject.tsx&#45;&gt;src/ts/ui/component/viewer/MediaViewer.tsx -->
<g id="edge46" class="edge">
<title>src/ts/ui/site/project/SiteProject.tsx&#45;&gt;src/ts/ui/component/viewer/MediaViewer.tsx</title>
<path fill="none" stroke="#000000" stroke-width="2" stroke-opacity="0.200000" d="M344.84,-1109.27C354.01,-1106.02 362.85,-1100.94 368.5,-1093 382.32,-1073.58 359.49,-680.7 376.5,-664 425.23,-616.17 514.6,-645.98 559.54,-665.7"/>
<polygon fill="#000000" fill-opacity="0.200000" stroke="#000000" stroke-width="2" stroke-opacity="0.200000" points="558.56,-667.56 564.89,-668.12 560.29,-663.74 558.56,-667.56"/>
</g>
<!-- src/ts/ui/site/project/SiteProject.module.css -->
<g id="node40" class="node">
<title>src/ts/ui/site/project/SiteProject.module.css</title>
<g id="a_node40"><a xlink:href="src/ts/ui/site/project/SiteProject.module.css" xlink:title="SiteProject.module.css">
<path fill="#ffffcc" stroke="black" d="M499.58,-1124.25C499.58,-1124.25 402.92,-1124.25 402.92,-1124.25 399.83,-1124.25 396.75,-1121.17 396.75,-1118.08 396.75,-1118.08 396.75,-1111.92 396.75,-1111.92 396.75,-1108.83 399.83,-1105.75 402.92,-1105.75 402.92,-1105.75 499.58,-1105.75 499.58,-1105.75 502.67,-1105.75 505.75,-1108.83 505.75,-1111.92 505.75,-1111.92 505.75,-1118.08 505.75,-1118.08 505.75,-1121.17 502.67,-1124.25 499.58,-1124.25"/>
<text text-anchor="start" x="404.75" y="-1111.7" font-family="Helvetica,sans-Serif" font-size="9.00">SiteProject.module.css</text>
</a>
</g>
</g>
<!-- src/ts/ui/site/project/SiteProject.tsx&#45;&gt;src/ts/ui/site/project/SiteProject.module.css -->
<g id="edge47" class="edge">
<title>src/ts/ui/site/project/SiteProject.tsx&#45;&gt;src/ts/ui/site/project/SiteProject.module.css</title>
<path fill="none" stroke="#000000" stroke-width="2" stroke-opacity="0.200000" d="M344.73,-1115C357.69,-1115 372.72,-1115 387.29,-1115"/>
<polygon fill="#000000" fill-opacity="0.200000" stroke="#000000" stroke-width="2" stroke-opacity="0.200000" points="387.26,-1117.1 393.26,-1115 387.26,-1112.9 387.26,-1117.1"/>
</g>
<!-- src/ts/ui/site/project/text/SiteProjectText.tsx -->
<g id="node41" class="node">
<title>src/ts/ui/site/project/text/SiteProjectText.tsx</title>
<g id="a_node41"><a xlink:href="src/ts/ui/site/project/text/SiteProjectText.tsx" xlink:title="SiteProjectText.tsx">
<path fill="#bbfeff" stroke="black" d="M490.21,-1158.25C490.21,-1158.25 412.29,-1158.25 412.29,-1158.25 409.21,-1158.25 406.12,-1155.17 406.12,-1152.08 406.12,-1152.08 406.12,-1145.92 406.12,-1145.92 406.12,-1142.83 409.21,-1139.75 412.29,-1139.75 412.29,-1139.75 490.21,-1139.75 490.21,-1139.75 493.29,-1139.75 496.38,-1142.83 496.38,-1145.92 496.38,-1145.92 496.38,-1152.08 496.38,-1152.08 496.38,-1155.17 493.29,-1158.25 490.21,-1158.25"/>
<text text-anchor="start" x="414.12" y="-1145.7" font-family="Helvetica,sans-Serif" font-size="9.00">SiteProjectText.tsx</text>
</a>
</g>
</g>
<!-- src/ts/ui/site/project/SiteProject.tsx&#45;&gt;src/ts/ui/site/project/text/SiteProjectText.tsx -->
<g id="edge48" class="edge">
<title>src/ts/ui/site/project/SiteProject.tsx&#45;&gt;src/ts/ui/site/project/text/SiteProjectText.tsx</title>
<path fill="none" stroke="#000000" stroke-width="2" stroke-opacity="0.200000" d="M344.96,-1119.42C353.03,-1121.34 361.31,-1124.08 368.5,-1128 372.91,-1130.41 372.04,-1133.68 376.5,-1136 382.97,-1139.37 390.14,-1141.88 397.39,-1143.76"/>
<polygon fill="#000000" fill-opacity="0.200000" stroke="#000000" stroke-width="2" stroke-opacity="0.200000" points="396.65,-1145.74 402.96,-1145.01 397.57,-1141.64 396.65,-1145.74"/>
</g>
<!-- src/ts/ui/component/button/text/ButtonText.module.css -->
<g id="node18" class="node">
<title>src/ts/ui/component/button/text/ButtonText.module.css</title>
<g id="a_node18"><a xlink:href="src/ts/ui/component/button/text/ButtonText.module.css" xlink:title="ButtonText.module.css">
<path fill="#ffffcc" stroke="black" d="M790.33,-879.25C790.33,-879.25 695.17,-879.25 695.17,-879.25 692.08,-879.25 689,-876.17 689,-873.08 689,-873.08 689,-866.92 689,-866.92 689,-863.83 692.08,-860.75 695.17,-860.75 695.17,-860.75 790.33,-860.75 790.33,-860.75 793.42,-860.75 796.5,-863.83 796.5,-866.92 796.5,-866.92 796.5,-873.08 796.5,-873.08 796.5,-876.17 793.42,-879.25 790.33,-879.25"/>
<text text-anchor="start" x="697" y="-866.7" font-family="Helvetica,sans-Serif" font-size="9.00">ButtonText.module.css</text>
</a>
</g>
</g>
<!-- src/ts/ui/component/button/text/ButtonText.stories.tsx -->
<g id="node19" class="node">
<title>src/ts/ui/component/button/text/ButtonText.stories.tsx</title>
<g id="a_node19"><a xlink:href="src/ts/ui/component/button/text/ButtonText.stories.tsx" xlink:title="ButtonText.stories.tsx">
<path fill="#bbfeff" stroke="black" d="M495.83,-879.25C495.83,-879.25 406.67,-879.25 406.67,-879.25 403.58,-879.25 400.5,-876.17 400.5,-873.08 400.5,-873.08 400.5,-866.92 400.5,-866.92 400.5,-863.83 403.58,-860.75 406.67,-860.75 406.67,-860.75 495.83,-860.75 495.83,-860.75 498.92,-860.75 502,-863.83 502,-866.92 502,-866.92 502,-873.08 502,-873.08 502,-876.17 498.92,-879.25 495.83,-879.25"/>
<text text-anchor="start" x="408.5" y="-866.7" font-family="Helvetica,sans-Serif" font-size="9.00">ButtonText.stories.tsx</text>
</a>
</g>
</g>
<!-- src/ts/ui/component/button/text/ButtonText.stories.tsx&#45;&gt;src/ts/ui/component/button/text/ButtonText.tsx -->
<g id="edge13" class="edge">
<title>src/ts/ui/component/button/text/ButtonText.stories.tsx&#45;&gt;src/ts/ui/component/button/text/ButtonText.tsx</title>
<path fill="none" stroke="#000000" stroke-width="2" stroke-opacity="0.200000" d="M502.38,-870C515.62,-870 529.81,-870 542.71,-870"/>
<polygon fill="#000000" fill-opacity="0.200000" stroke="#000000" stroke-width="2" stroke-opacity="0.200000" points="542.38,-872.1 548.38,-870 542.38,-867.9 542.38,-872.1"/>
</g>
<!-- src/ts/ui/component/button/text/ButtonText.tsx&#45;&gt;src/ts/motion/duration.ts -->
<g id="edge14" class="edge">
<title>src/ts/ui/component/button/text/ButtonText.tsx&#45;&gt;src/ts/motion/duration.ts</title>
<path fill="none" stroke="#000000" stroke-width="2" stroke-opacity="0.200000" d="M624.47,-867.03C642.83,-863.51 663.82,-855.98 675.75,-840 687.79,-823.87 677.73,-678.21 683.75,-659 715.8,-556.69 766.49,-551.84 812.5,-455 846.77,-382.88 872.32,-290.67 882.23,-252.16"/>
<polygon fill="#000000" fill-opacity="0.200000" stroke="#000000" stroke-width="2" stroke-opacity="0.200000" points="884.23,-252.84 883.67,-246.51 880.15,-251.81 884.23,-252.84"/>
</g>
<!-- src/ts/ui/component/button/text/ButtonText.tsx&#45;&gt;src/ts/motion/ease.ts -->
<g id="edge15" class="edge">
<title>src/ts/ui/component/button/text/ButtonText.tsx&#45;&gt;src/ts/motion/ease.ts</title>
<path fill="none" stroke="#000000" stroke-width="2" stroke-opacity="0.200000" d="M624.13,-867.19C642.62,-863.73 663.85,-856.21 675.75,-840 685.06,-827.32 682.06,-572.64 683.75,-557 695.7,-446.26 725.8,-315.64 737.24,-268.29"/>
<polygon fill="#000000" fill-opacity="0.200000" stroke="#000000" stroke-width="2" stroke-opacity="0.200000" points="739.23,-268.99 738.61,-262.66 735.15,-268 739.23,-268.99"/>
</g>
<!-- src/ts/ui/component/button/text/ButtonText.tsx&#45;&gt;src/ts/ui/component/button/text/ButtonText.module.css -->
<g id="edge16" class="edge">
<title>src/ts/ui/component/button/text/ButtonText.tsx&#45;&gt;src/ts/ui/component/button/text/ButtonText.module.css</title>
<path fill="none" stroke="#000000" stroke-width="2" stroke-opacity="0.200000" d="M624.33,-870C640.86,-870 661.01,-870 679.92,-870"/>
<polygon fill="#000000" fill-opacity="0.200000" stroke="#000000" stroke-width="2" stroke-opacity="0.200000" points="679.76,-872.1 685.76,-870 679.76,-867.9 679.76,-872.1"/>
</g>
<!-- src/ts/ui/component/viewer/MediaViewer.module.css -->
<g id="node21" class="node">
<title>src/ts/ui/component/viewer/MediaViewer.module.css</title>
<g id="a_node21"><a xlink:href="src/ts/ui/component/viewer/MediaViewer.module.css" xlink:title="MediaViewer.module.css">
<path fill="#ffffcc" stroke="black" d="M795.58,-688.25C795.58,-688.25 689.92,-688.25 689.92,-688.25 686.83,-688.25 683.75,-685.17 683.75,-682.08 683.75,-682.08 683.75,-675.92 683.75,-675.92 683.75,-672.83 686.83,-669.75 689.92,-669.75 689.92,-669.75 795.58,-669.75 795.58,-669.75 798.67,-669.75 801.75,-672.83 801.75,-675.92 801.75,-675.92 801.75,-682.08 801.75,-682.08 801.75,-685.17 798.67,-688.25 795.58,-688.25"/>
<text text-anchor="start" x="691.75" y="-675.7" font-family="Helvetica,sans-Serif" font-size="9.00">MediaViewer.module.css</text>
</a>
</g>
</g>
<!-- src/ts/ui/component/viewer/MediaViewer.stories.tsx -->
<g id="node22" class="node">
<title>src/ts/ui/component/viewer/MediaViewer.stories.tsx</title>
<g id="a_node22"><a xlink:href="src/ts/ui/component/viewer/MediaViewer.stories.tsx" xlink:title="MediaViewer.stories.tsx">
<path fill="#bbfeff" stroke="black" d="M501.08,-688.25C501.08,-688.25 401.42,-688.25 401.42,-688.25 398.33,-688.25 395.25,-685.17 395.25,-682.08 395.25,-682.08 395.25,-675.92 395.25,-675.92 395.25,-672.83 398.33,-669.75 401.42,-669.75 401.42,-669.75 501.08,-669.75 501.08,-669.75 504.17,-669.75 507.25,-672.83 507.25,-675.92 507.25,-675.92 507.25,-682.08 507.25,-682.08 507.25,-685.17 504.17,-688.25 501.08,-688.25"/>
<text text-anchor="start" x="403.25" y="-675.7" font-family="Helvetica,sans-Serif" font-size="9.00">MediaViewer.stories.tsx</text>
</a>
</g>
</g>
<!-- src/ts/ui/component/viewer/MediaViewer.stories.tsx&#45;&gt;src/ts/ui/component/viewer/MediaViewer.tsx -->
<g id="edge17" class="edge">
<title>src/ts/ui/component/viewer/MediaViewer.stories.tsx&#45;&gt;src/ts/ui/component/viewer/MediaViewer.tsx</title>
<path fill="none" stroke="#000000" stroke-width="2" stroke-opacity="0.200000" d="M507.4,-679C517.29,-679 527.55,-679 537.28,-679"/>
<polygon fill="#000000" fill-opacity="0.200000" stroke="#000000" stroke-width="2" stroke-opacity="0.200000" points="537.01,-681.1 543.01,-679 537.01,-676.9 537.01,-681.1"/>
</g>
<!-- src/ts/ui/component/viewer/MediaViewer.tsx&#45;&gt;src/ts/motion/duration.ts -->
<g id="edge18" class="edge">
<title>src/ts/ui/component/viewer/MediaViewer.tsx&#45;&gt;src/ts/motion/duration.ts</title>
<path fill="none" stroke="#000000" stroke-width="2" stroke-opacity="0.200000" d="M599.37,-669.47C617.25,-652.72 653.82,-616.26 675.75,-579 681.03,-570.03 679.18,-566.35 683.75,-557 744.27,-433.27 840.43,-297.4 874.39,-250.78"/>
<polygon fill="#000000" fill-opacity="0.200000" stroke="#000000" stroke-width="2" stroke-opacity="0.200000" points="876,-252.13 877.85,-246.04 872.61,-249.65 876,-252.13"/>
</g>
<!-- src/ts/ui/component/viewer/MediaViewer.tsx&#45;&gt;src/ts/motion/ease.ts -->
<g id="edge19" class="edge">
<title>src/ts/ui/component/viewer/MediaViewer.tsx&#45;&gt;src/ts/motion/ease.ts</title>
<path fill="none" stroke="#000000" stroke-width="2" stroke-opacity="0.200000" d="M601.49,-669.28C621.43,-653.06 659.62,-618.37 675.75,-579 686.56,-552.63 678.88,-479.08 683.75,-451 695.77,-381.69 722.8,-302.2 735.25,-267.61"/>
<polygon fill="#000000" fill-opacity="0.200000" stroke="#000000" stroke-width="2" stroke-opacity="0.200000" points="737.11,-268.65 737.18,-262.29 733.16,-267.22 737.11,-268.65"/>
</g>
<!-- src/ts/ui/component/viewer/MediaViewer.tsx&#45;&gt;src/ts/ui/component/viewer/MediaViewer.module.css -->
<g id="edge21" class="edge">
<title>src/ts/ui/component/viewer/MediaViewer.tsx&#45;&gt;src/ts/ui/component/viewer/MediaViewer.module.css</title>
<path fill="none" stroke="#000000" stroke-width="2" stroke-opacity="0.200000" d="M629.44,-679C643.27,-679 659.12,-679 674.47,-679"/>
<polygon fill="#000000" fill-opacity="0.200000" stroke="#000000" stroke-width="2" stroke-opacity="0.200000" points="674.41,-681.1 680.41,-679 674.41,-676.9 674.41,-681.1"/>
</g>
<!-- src/ts/ui/component/viewer/holder/MediaItem.tsx -->
<g id="node24" class="node">
<title>src/ts/ui/component/viewer/holder/MediaItem.tsx</title>
<g id="a_node24"><a xlink:href="src/ts/ui/component/viewer/holder/MediaItem.tsx" xlink:title="MediaItem.tsx">
<path fill="#bbfeff" stroke="black" d="M772.71,-722.25C772.71,-722.25 712.79,-722.25 712.79,-722.25 709.71,-722.25 706.62,-719.17 706.62,-716.08 706.62,-716.08 706.62,-709.92 706.62,-709.92 706.62,-706.83 709.71,-703.75 712.79,-703.75 712.79,-703.75 772.71,-703.75 772.71,-703.75 775.79,-703.75 778.88,-706.83 778.88,-709.92 778.88,-709.92 778.88,-716.08 778.88,-716.08 778.88,-719.17 775.79,-722.25 772.71,-722.25"/>
<text text-anchor="start" x="714.62" y="-709.7" font-family="Helvetica,sans-Serif" font-size="9.00">MediaItem.tsx</text>
</a>
</g>
</g>
<!-- src/ts/ui/component/viewer/MediaViewer.tsx&#45;&gt;src/ts/ui/component/viewer/holder/MediaItem.tsx -->
<g id="edge20" class="edge">
<title>src/ts/ui/component/viewer/MediaViewer.tsx&#45;&gt;src/ts/ui/component/viewer/holder/MediaItem.tsx</title>
<path fill="none" stroke="#000000" stroke-width="2" stroke-opacity="0.200000" d="M629.44,-688.02C650.43,-692.69 676.09,-698.4 697.58,-703.18"/>
<polygon fill="#000000" fill-opacity="0.200000" stroke="#000000" stroke-width="2" stroke-opacity="0.200000" points="696.94,-705.18 703.25,-704.44 697.85,-701.08 696.94,-705.18"/>
</g>
<!-- src/ts/ui/component/viewer/navigation/MediaNavigation.tsx -->
<g id="node25" class="node">
<title>src/ts/ui/component/viewer/navigation/MediaNavigation.tsx</title>
<g id="a_node25"><a xlink:href="src/ts/ui/component/viewer/navigation/MediaNavigation.tsx" xlink:title="MediaNavigation.tsx">
<path fill="#bbfeff" stroke="black" d="M786.21,-783.25C786.21,-783.25 699.29,-783.25 699.29,-783.25 696.21,-783.25 693.12,-780.17 693.12,-777.08 693.12,-777.08 693.12,-770.92 693.12,-770.92 693.12,-767.83 696.21,-764.75 699.29,-764.75 699.29,-764.75 786.21,-764.75 786.21,-764.75 789.29,-764.75 792.38,-767.83 792.38,-770.92 792.38,-770.92 792.38,-777.08 792.38,-777.08 792.38,-780.17 789.29,-783.25 786.21,-783.25"/>
<text text-anchor="start" x="701.12" y="-770.7" font-family="Helvetica,sans-Serif" font-size="9.00">MediaNavigation.tsx</text>
</a>
</g>
</g>
<!-- src/ts/ui/component/viewer/MediaViewer.tsx&#45;&gt;src/ts/ui/component/viewer/navigation/MediaNavigation.tsx -->
<g id="edge22" class="edge">
<title>src/ts/ui/component/viewer/MediaViewer.tsx&#45;&gt;src/ts/ui/component/viewer/navigation/MediaNavigation.tsx</title>
<path fill="none" stroke="#000000" stroke-width="2" stroke-opacity="0.200000" d="M599.24,-688.65C615.96,-703.8 650.36,-733.36 683.75,-752 689.77,-755.36 696.4,-758.41 702.96,-761.11"/>
<polygon fill="#000000" fill-opacity="0.200000" stroke="#000000" stroke-width="2" stroke-opacity="0.200000" points="702.02,-762.99 708.37,-763.22 703.54,-759.08 702.02,-762.99"/>
</g>
<!-- src/ts/ui/component/viewer/holder/MediaItem.module.css -->
<g id="node26" class="node">
<title>src/ts/ui/component/viewer/holder/MediaItem.module.css</title>
<g id="a_node26"><a xlink:href="src/ts/ui/component/viewer/holder/MediaItem.module.css" xlink:title="MediaItem.module.css">
<path fill="#ffffcc" stroke="black" d="M935.33,-722.25C935.33,-722.25 840.17,-722.25 840.17,-722.25 837.08,-722.25 834,-719.17 834,-716.08 834,-716.08 834,-709.92 834,-709.92 834,-706.83 837.08,-703.75 840.17,-703.75 840.17,-703.75 935.33,-703.75 935.33,-703.75 938.42,-703.75 941.5,-706.83 941.5,-709.92 941.5,-709.92 941.5,-716.08 941.5,-716.08 941.5,-719.17 938.42,-722.25 935.33,-722.25"/>
<text text-anchor="start" x="842" y="-709.7" font-family="Helvetica,sans-Serif" font-size="9.00">MediaItem.module.css</text>
</a>
</g>
</g>
<!-- src/ts/ui/component/viewer/holder/MediaItem.tsx&#45;&gt;src/ts/ui/component/viewer/holder/MediaItem.module.css -->
<g id="edge23" class="edge">
<title>src/ts/ui/component/viewer/holder/MediaItem.tsx&#45;&gt;src/ts/ui/component/viewer/holder/MediaItem.module.css</title>
<path fill="none" stroke="#000000" stroke-width="2" stroke-opacity="0.200000" d="M779.1,-713C792.99,-713 809.34,-713 825.05,-713"/>
<polygon fill="#000000" fill-opacity="0.200000" stroke="#000000" stroke-width="2" stroke-opacity="0.200000" points="824.67,-715.1 830.67,-713 824.67,-710.9 824.67,-715.1"/>
</g>
<!-- src/ts/ui/component/viewer/navigation/MediaNavigation.module.css -->
<g id="node27" class="node">
<title>src/ts/ui/component/viewer/navigation/MediaNavigation.module.css</title>
<g id="a_node27"><a xlink:href="src/ts/ui/component/viewer/navigation/MediaNavigation.module.css" xlink:title="MediaNavigation.module.css">
<path fill="#ffffcc" stroke="black" d="M948.83,-783.25C948.83,-783.25 826.67,-783.25 826.67,-783.25 823.58,-783.25 820.5,-780.17 820.5,-777.08 820.5,-777.08 820.5,-770.92 820.5,-770.92 820.5,-767.83 823.58,-764.75 826.67,-764.75 826.67,-764.75 948.83,-764.75 948.83,-764.75 951.92,-764.75 955,-767.83 955,-770.92 955,-770.92 955,-777.08 955,-777.08 955,-780.17 951.92,-783.25 948.83,-783.25"/>
<text text-anchor="start" x="828.5" y="-770.7" font-family="Helvetica,sans-Serif" font-size="9.00">MediaNavigation.module.css</text>
</a>
</g>
</g>
<!-- src/ts/ui/component/viewer/navigation/MediaNavigation.tsx&#45;&gt;src/ts/ui/component/viewer/navigation/MediaNavigation.module.css -->
<g id="edge24" class="edge">
<title>src/ts/ui/component/viewer/navigation/MediaNavigation.tsx&#45;&gt;src/ts/ui/component/viewer/navigation/MediaNavigation.module.css</title>
<path fill="none" stroke="#000000" stroke-width="2" stroke-opacity="0.200000" d="M792.56,-774C798.68,-774 805.05,-774 811.45,-774"/>
<polygon fill="#000000" fill-opacity="0.200000" stroke="#000000" stroke-width="2" stroke-opacity="0.200000" points="811.17,-776.1 817.17,-774 811.17,-771.9 811.17,-776.1"/>
</g>
<!-- src/ts/ui/overlay/site&#45;control/UISiteControl.tsx&#45;&gt;src/ts/motion/fade.ts -->
<g id="edge28" class="edge">
<title>src/ts/ui/overlay/site&#45;control/UISiteControl.tsx&#45;&gt;src/ts/motion/fade.ts</title>
<path fill="none" stroke="#000000" stroke-width="2" stroke-opacity="0.200000" d="M350.01,-472.72C357.14,-470.44 363.76,-466.78 368.5,-461 385.5,-440.29 357.27,-238.65 376.5,-220 422.67,-175.22 625.02,-200.78 707.04,-213.32"/>
<polygon fill="#000000" fill-opacity="0.200000" stroke="#000000" stroke-width="2" stroke-opacity="0.200000" points="706.27,-215.33 712.52,-214.17 706.91,-211.18 706.27,-215.33"/>
</g>
<!-- src/ts/ui/overlay/site&#45;control/UISiteControl.module.css -->
<g id="node31" class="node">
<title>src/ts/ui/overlay/site&#45;control/UISiteControl.module.css</title>
<g id="a_node31"><a xlink:href="src/ts/ui/overlay/site-control/UISiteControl.module.css" xlink:title="UISiteControl.module.css">
<path fill="#ffffcc" stroke="black" d="M504.83,-484.25C504.83,-484.25 397.67,-484.25 397.67,-484.25 394.58,-484.25 391.5,-481.17 391.5,-478.08 391.5,-478.08 391.5,-471.92 391.5,-471.92 391.5,-468.83 394.58,-465.75 397.67,-465.75 397.67,-465.75 504.83,-465.75 504.83,-465.75 507.92,-465.75 511,-468.83 511,-471.92 511,-471.92 511,-478.08 511,-478.08 511,-481.17 507.92,-484.25 504.83,-484.25"/>
<text text-anchor="start" x="399.5" y="-471.7" font-family="Helvetica,sans-Serif" font-size="9.00">UISiteControl.module.css</text>
</a>
</g>
</g>
<!-- src/ts/ui/overlay/site&#45;control/UISiteControl.tsx&#45;&gt;src/ts/ui/overlay/site&#45;control/UISiteControl.module.css -->
<g id="edge31" class="edge">
<title>src/ts/ui/overlay/site&#45;control/UISiteControl.tsx&#45;&gt;src/ts/ui/overlay/site&#45;control/UISiteControl.module.css</title>
<path fill="none" stroke="#000000" stroke-width="2" stroke-opacity="0.200000" d="M349.97,-475C360.15,-475 371.32,-475 382.39,-475"/>
<polygon fill="#000000" fill-opacity="0.200000" stroke="#000000" stroke-width="2" stroke-opacity="0.200000" points="382.2,-477.1 388.2,-475 382.2,-472.9 382.2,-477.1"/>
</g>
<!-- src/ts/ui/overlay/site&#45;control/scroll/ScrollProgress.tsx -->
<g id="node32" class="node">
<title>src/ts/ui/overlay/site&#45;control/scroll/ScrollProgress.tsx</title>
<g id="a_node32"><a xlink:href="src/ts/ui/overlay/site-control/scroll/ScrollProgress.tsx" xlink:title="ScrollProgress.tsx">
<path fill="#bbfeff" stroke="black" d="M489.83,-518.25C489.83,-518.25 412.67,-518.25 412.67,-518.25 409.58,-518.25 406.5,-515.17 406.5,-512.08 406.5,-512.08 406.5,-505.92 406.5,-505.92 406.5,-502.83 409.58,-499.75 412.67,-499.75 412.67,-499.75 489.83,-499.75 489.83,-499.75 492.92,-499.75 496,-502.83 496,-505.92 496,-505.92 496,-512.08 496,-512.08 496,-515.17 492.92,-518.25 489.83,-518.25"/>
<text text-anchor="start" x="414.5" y="-505.7" font-family="Helvetica,sans-Serif" font-size="9.00">ScrollProgress.tsx</text>
</a>
</g>
</g>
<!-- src/ts/ui/overlay/site&#45;control/UISiteControl.tsx&#45;&gt;src/ts/ui/overlay/site&#45;control/scroll/ScrollProgress.tsx -->
<g id="edge29" class="edge">
<title>src/ts/ui/overlay/site&#45;control/UISiteControl.tsx&#45;&gt;src/ts/ui/overlay/site&#45;control/scroll/ScrollProgress.tsx</title>
<path fill="none" stroke="#000000" stroke-width="2" stroke-opacity="0.200000" d="M337.14,-484.69C349.19,-488.56 363.43,-492.84 376.5,-496 383.4,-497.67 390.72,-499.22 397.95,-500.62"/>
<polygon fill="#000000" fill-opacity="0.200000" stroke="#000000" stroke-width="2" stroke-opacity="0.200000" points="397.13,-502.6 403.41,-501.64 397.9,-498.47 397.13,-502.6"/>
</g>
<!-- src/ts/ui/overlay/site&#45;control/theme/ThemeSwitcher.tsx -->
<g id="node33" class="node">
<title>src/ts/ui/overlay/site&#45;control/theme/ThemeSwitcher.tsx</title>
<g id="a_node33"><a xlink:href="src/ts/ui/overlay/site-control/theme/ThemeSwitcher.tsx" xlink:title="ThemeSwitcher.tsx">
<path fill="#bbfeff" stroke="black" d="M491.33,-431.25C491.33,-431.25 411.17,-431.25 411.17,-431.25 408.08,-431.25 405,-428.17 405,-425.08 405,-425.08 405,-418.92 405,-418.92 405,-415.83 408.08,-412.75 411.17,-412.75 411.17,-412.75 491.33,-412.75 491.33,-412.75 494.42,-412.75 497.5,-415.83 497.5,-418.92 497.5,-418.92 497.5,-425.08 497.5,-425.08 497.5,-428.17 494.42,-431.25 491.33,-431.25"/>
<text text-anchor="start" x="413" y="-418.7" font-family="Helvetica,sans-Serif" font-size="9.00">ThemeSwitcher.tsx</text>
</a>
</g>
</g>
<!-- src/ts/ui/overlay/site&#45;control/UISiteControl.tsx&#45;&gt;src/ts/ui/overlay/site&#45;control/theme/ThemeSwitcher.tsx -->
<g id="edge30" class="edge">
<title>src/ts/ui/overlay/site&#45;control/UISiteControl.tsx&#45;&gt;src/ts/ui/overlay/site&#45;control/theme/ThemeSwitcher.tsx</title>
<path fill="none" stroke="#000000" stroke-width="2" stroke-opacity="0.200000" d="M350.1,-471.26C356.88,-469.07 363.35,-465.81 368.5,-461 377.34,-452.75 367.44,-443 376.5,-435 382.1,-430.05 388.91,-426.67 396.1,-424.4"/>
<polygon fill="#000000" fill-opacity="0.200000" stroke="#000000" stroke-width="2" stroke-opacity="0.200000" points="396.43,-426.48 401.73,-422.97 395.39,-422.41 396.43,-426.48"/>
</g>
<!-- src/ts/ui/overlay/surface/UIOverlaySurface.tsx&#45;&gt;src/ts/store/uiState/uiStateStore.ts -->
<g id="edge40" class="edge">
<title>src/ts/ui/overlay/surface/UIOverlaySurface.tsx&#45;&gt;src/ts/store/uiState/uiStateStore.ts</title>
<path fill="none" stroke="#000000" stroke-width="2" stroke-opacity="0.200000" d="M358.72,-347.81C362.42,-345.81 365.76,-343.26 368.5,-340 382.17,-323.75 362.58,-165.04 376.5,-149 416.61,-102.78 492.22,-99.9 541.03,-103.71"/>
<polygon fill="#000000" fill-opacity="0.200000" stroke="#000000" stroke-width="2" stroke-opacity="0.200000" points="540.64,-105.79 546.8,-104.23 541.01,-101.6 540.64,-105.79"/>
</g>
<!-- src/ts/ui/overlay/site&#45;control/scroll/ScrollProgress.tsx&#45;&gt;src/ts/hook/useScrollProgress.ts -->
<g id="edge32" class="edge">
<title>src/ts/ui/overlay/site&#45;control/scroll/ScrollProgress.tsx&#45;&gt;src/ts/hook/useScrollProgress.ts</title>
<path fill="none" stroke="#000000" stroke-width="2" stroke-opacity="0.200000" d="M496.48,-507C503.32,-504.8 509.7,-501.33 514.5,-496 528.55,-480.39 518.88,-422.36 524,-402 536.76,-351.27 563.45,-295.32 577.6,-267.59"/>
<polygon fill="#000000" fill-opacity="0.200000" stroke="#000000" stroke-width="2" stroke-opacity="0.200000" points="579.44,-268.6 580.33,-262.31 575.71,-266.67 579.44,-268.6"/>
</g>
<!-- src/ts/ui/overlay/site&#45;control/scroll/ScrollProgress.module.css -->
<g id="node34" class="node">
<title>src/ts/ui/overlay/site&#45;control/scroll/ScrollProgress.module.css</title>
<g id="a_node34"><a xlink:href="src/ts/ui/overlay/site-control/scroll/ScrollProgress.module.css" xlink:title="ScrollProgress.module.css">
<path fill="#ffffcc" stroke="black" d="M644.08,-549.25C644.08,-549.25 531.67,-549.25 531.67,-549.25 528.58,-549.25 525.5,-546.17 525.5,-543.08 525.5,-543.08 525.5,-536.92 525.5,-536.92 525.5,-533.83 528.58,-530.75 531.67,-530.75 531.67,-530.75 644.08,-530.75 644.08,-530.75 647.17,-530.75 650.25,-533.83 650.25,-536.92 650.25,-536.92 650.25,-543.08 650.25,-543.08 650.25,-546.17 647.17,-549.25 644.08,-549.25"/>
<text text-anchor="start" x="533.5" y="-536.7" font-family="Helvetica,sans-Serif" font-size="9.00">ScrollProgress.module.css</text>
</a>
</g>
</g>
<!-- src/ts/ui/overlay/site&#45;control/scroll/ScrollProgress.tsx&#45;&gt;src/ts/ui/overlay/site&#45;control/scroll/ScrollProgress.module.css -->
<g id="edge33" class="edge">
<title>src/ts/ui/overlay/site&#45;control/scroll/ScrollProgress.tsx&#45;&gt;src/ts/ui/overlay/site&#45;control/scroll/ScrollProgress.module.css</title>
<path fill="none" stroke="#000000" stroke-width="2" stroke-opacity="0.200000" d="M494.48,-518.72C507.76,-521.78 522.56,-525.19 536.36,-528.37"/>
<polygon fill="#000000" fill-opacity="0.200000" stroke="#000000" stroke-width="2" stroke-opacity="0.200000" points="535.53,-530.33 541.85,-529.63 536.47,-526.24 535.53,-530.33"/>
</g>
<!-- src/ts/ui/overlay/site&#45;control/scroll/ScrollProgressAnimator.ts -->
<g id="node35" class="node">
<title>src/ts/ui/overlay/site&#45;control/scroll/ScrollProgressAnimator.ts</title>
<g id="a_node35"><a xlink:href="src/ts/ui/overlay/site-control/scroll/ScrollProgressAnimator.ts" xlink:title="ScrollProgressAnimator.ts">
<path fill="#ddfeff" stroke="black" d="M642.21,-518.25C642.21,-518.25 533.54,-518.25 533.54,-518.25 530.46,-518.25 527.38,-515.17 527.38,-512.08 527.38,-512.08 527.38,-505.92 527.38,-505.92 527.38,-502.83 530.46,-499.75 533.54,-499.75 533.54,-499.75 642.21,-499.75 642.21,-499.75 645.29,-499.75 648.38,-502.83 648.38,-505.92 648.38,-505.92 648.38,-512.08 648.38,-512.08 648.38,-515.17 645.29,-518.25 642.21,-518.25"/>
<text text-anchor="start" x="535.38" y="-505.7" font-family="Helvetica,sans-Serif" font-size="9.00">ScrollProgressAnimator.ts</text>
</a>
</g>
</g>
<!-- src/ts/ui/overlay/site&#45;control/scroll/ScrollProgress.tsx&#45;&gt;src/ts/ui/overlay/site&#45;control/scroll/ScrollProgressAnimator.ts -->
<g id="edge34" class="edge">
<title>src/ts/ui/overlay/site&#45;control/scroll/ScrollProgress.tsx&#45;&gt;src/ts/ui/overlay/site&#45;control/scroll/ScrollProgressAnimator.ts</title>
<path fill="none" stroke="#000000" stroke-width="2" stroke-opacity="0.200000" d="M496.33,-509C503.39,-509 510.83,-509 518.29,-509"/>
<polygon fill="#000000" fill-opacity="0.200000" stroke="#000000" stroke-width="2" stroke-opacity="0.200000" points="518.02,-511.1 524.02,-509 518.02,-506.9 518.02,-511.1"/>
</g>
<!-- src/ts/ui/overlay/site&#45;control/theme/ThemeSwitcher.tsx&#45;&gt;src/ts/store/uiState/uiStateStore.ts -->
<g id="edge37" class="edge">
<title>src/ts/ui/overlay/site&#45;control/theme/ThemeSwitcher.tsx&#45;&gt;src/ts/store/uiState/uiStateStore.ts</title>
<path fill="none" stroke="#000000" stroke-width="2" stroke-opacity="0.200000" d="M453.45,-412.54C458.04,-378.71 476.71,-261.33 524,-178 535.73,-157.33 554.87,-137.86 568.96,-125.09"/>
<polygon fill="#000000" fill-opacity="0.200000" stroke="#000000" stroke-width="2" stroke-opacity="0.200000" points="570.04,-126.94 573.15,-121.39 567.26,-123.79 570.04,-126.94"/>
</g>
<!-- src/ts/ui/overlay/site&#45;control/theme/ThemeSwitcher.tsx&#45;&gt;src/ts/types/index.ts -->
<g id="edge38" class="edge">
<title>src/ts/ui/overlay/site&#45;control/theme/ThemeSwitcher.tsx&#45;&gt;src/ts/types/index.ts</title>
<path fill="none" stroke="#000000" stroke-width="2" stroke-opacity="0.200000" d="M453.35,-412.33C457.27,-381.82 473.23,-286.28 524,-230 537.71,-214.8 655.74,-160.6 712.07,-135.25"/>
<polygon fill="#000000" fill-opacity="0.200000" stroke="#000000" stroke-width="2" stroke-opacity="0.200000" points="712.86,-137.19 717.47,-132.82 711.14,-133.36 712.86,-137.19"/>
</g>
<!-- src/ts/ui/overlay/site&#45;control/theme/ThemeSwitcher.module.css -->
<g id="node36" class="node">
<title>src/ts/ui/overlay/site&#45;control/theme/ThemeSwitcher.module.css</title>
<g id="a_node36"><a xlink:href="src/ts/ui/overlay/site-control/theme/ThemeSwitcher.module.css" xlink:title="ThemeSwitcher.module.css">
<path fill="#ffffcc" stroke="black" d="M645.58,-431.25C645.58,-431.25 530.17,-431.25 530.17,-431.25 527.08,-431.25 524,-428.17 524,-425.08 524,-425.08 524,-418.92 524,-418.92 524,-415.83 527.08,-412.75 530.17,-412.75 530.17,-412.75 645.58,-412.75 645.58,-412.75 648.67,-412.75 651.75,-415.83 651.75,-418.92 651.75,-418.92 651.75,-425.08 651.75,-425.08 651.75,-428.17 648.67,-431.25 645.58,-431.25"/>
<text text-anchor="start" x="532" y="-418.7" font-family="Helvetica,sans-Serif" font-size="9.00">ThemeSwitcher.module.css</text>
</a>
</g>
</g>
<!-- src/ts/ui/overlay/site&#45;control/theme/ThemeSwitcher.tsx&#45;&gt;src/ts/ui/overlay/site&#45;control/theme/ThemeSwitcher.module.css -->
<g id="edge39" class="edge">
<title>src/ts/ui/overlay/site&#45;control/theme/ThemeSwitcher.tsx&#45;&gt;src/ts/ui/overlay/site&#45;control/theme/ThemeSwitcher.module.css</title>
<path fill="none" stroke="#000000" stroke-width="2" stroke-opacity="0.200000" d="M497.83,-422C503.47,-422 509.33,-422 515.24,-422"/>
<polygon fill="#000000" fill-opacity="0.200000" stroke="#000000" stroke-width="2" stroke-opacity="0.200000" points="514.88,-424.1 520.88,-422 514.88,-419.9 514.88,-424.1"/>
</g>
<!-- src/ts/ui/overlay/site&#45;control/theme/ThemeSwitcher.stories.tsx -->
<g id="node37" class="node">
<title>src/ts/ui/overlay/site&#45;control/theme/ThemeSwitcher.stories.tsx</title>
<g id="a_node37"><a xlink:href="src/ts/ui/overlay/site-control/theme/ThemeSwitcher.stories.tsx" xlink:title="ThemeSwitcher.stories.tsx">
<path fill="#bbfeff" stroke="black" d="M362.33,-431.25C362.33,-431.25 252.92,-431.25 252.92,-431.25 249.83,-431.25 246.75,-428.17 246.75,-425.08 246.75,-425.08 246.75,-418.92 246.75,-418.92 246.75,-415.83 249.83,-412.75 252.92,-412.75 252.92,-412.75 362.33,-412.75 362.33,-412.75 365.42,-412.75 368.5,-415.83 368.5,-418.92 368.5,-418.92 368.5,-425.08 368.5,-425.08 368.5,-428.17 365.42,-431.25 362.33,-431.25"/>
<text text-anchor="start" x="254.75" y="-418.7" font-family="Helvetica,sans-Serif" font-size="9.00">ThemeSwitcher.stories.tsx</text>
</a>
</g>
</g>
<!-- src/ts/ui/overlay/site&#45;control/theme/ThemeSwitcher.stories.tsx&#45;&gt;src/ts/store/uiState/uiStateStore.ts -->
<g id="edge35" class="edge">
<title>src/ts/ui/overlay/site&#45;control/theme/ThemeSwitcher.stories.tsx&#45;&gt;src/ts/store/uiState/uiStateStore.ts</title>
<path fill="none" stroke="#000000" stroke-width="2" stroke-opacity="0.200000" d="M342.78,-412.34C352.72,-407.8 362.51,-401.28 368.5,-392 380.56,-373.31 363.59,-210.11 376.5,-192 386.95,-177.35 490.59,-141.55 548.4,-122.46"/>
<polygon fill="#000000" fill-opacity="0.200000" stroke="#000000" stroke-width="2" stroke-opacity="0.200000" points="549,-124.47 554.04,-120.6 547.69,-120.48 549,-124.47"/>
</g>
<!-- src/ts/ui/overlay/site&#45;control/theme/ThemeSwitcher.stories.tsx&#45;&gt;src/ts/ui/overlay/site&#45;control/theme/ThemeSwitcher.tsx -->
<g id="edge36" class="edge">
<title>src/ts/ui/overlay/site&#45;control/theme/ThemeSwitcher.stories.tsx&#45;&gt;src/ts/ui/overlay/site&#45;control/theme/ThemeSwitcher.tsx</title>
<path fill="none" stroke="#000000" stroke-width="2" stroke-opacity="0.200000" d="M368.69,-422C377.73,-422 387.02,-422 395.94,-422"/>
<polygon fill="#000000" fill-opacity="0.200000" stroke="#000000" stroke-width="2" stroke-opacity="0.200000" points="395.68,-424.1 401.68,-422 395.68,-419.9 395.68,-424.1"/>
</g>
<!-- src/ts/ui/site/project/text/SiteProjectText.tsx&#45;&gt;src/ts/ui/component/button/text/ButtonText.tsx -->
<g id="edge49" class="edge">
<title>src/ts/ui/site/project/text/SiteProjectText.tsx&#45;&gt;src/ts/ui/component/button/text/ButtonText.tsx</title>
<path fill="none" stroke="#000000" stroke-width="2" stroke-opacity="0.200000" d="M496.73,-1146C503.3,-1143.88 509.52,-1140.69 514.5,-1136 551.31,-1101.33 576.66,-942.66 584.39,-888.32"/>
<polygon fill="#000000" fill-opacity="0.200000" stroke="#000000" stroke-width="2" stroke-opacity="0.200000" points="586.43,-888.94 585.18,-882.7 582.27,-888.36 586.43,-888.94"/>
</g>
<!-- src/ts/ui/site/project/text/SiteProjectText.module.css -->
<g id="node42" class="node">
<title>src/ts/ui/site/project/text/SiteProjectText.module.css</title>
<g id="a_node42"><a xlink:href="src/ts/ui/site/project/text/SiteProjectText.module.css" xlink:title="SiteProjectText.module.css">
<path fill="#ffffcc" stroke="black" d="M644.46,-1158.25C644.46,-1158.25 531.29,-1158.25 531.29,-1158.25 528.21,-1158.25 525.12,-1155.17 525.12,-1152.08 525.12,-1152.08 525.12,-1145.92 525.12,-1145.92 525.12,-1142.83 528.21,-1139.75 531.29,-1139.75 531.29,-1139.75 644.46,-1139.75 644.46,-1139.75 647.54,-1139.75 650.62,-1142.83 650.62,-1145.92 650.62,-1145.92 650.62,-1152.08 650.62,-1152.08 650.62,-1155.17 647.54,-1158.25 644.46,-1158.25"/>
<text text-anchor="start" x="533.12" y="-1145.7" font-family="Helvetica,sans-Serif" font-size="9.00">SiteProjectText.module.css</text>
</a>
</g>
</g>
<!-- src/ts/ui/site/project/text/SiteProjectText.tsx&#45;&gt;src/ts/ui/site/project/text/SiteProjectText.module.css -->
<g id="edge50" class="edge">
<title>src/ts/ui/site/project/text/SiteProjectText.tsx&#45;&gt;src/ts/ui/site/project/text/SiteProjectText.module.css</title>
<path fill="none" stroke="#000000" stroke-width="2" stroke-opacity="0.200000" d="M496.7,-1149C502.92,-1149 509.43,-1149 515.98,-1149"/>
<polygon fill="#000000" fill-opacity="0.200000" stroke="#000000" stroke-width="2" stroke-opacity="0.200000" points="515.89,-1151.1 521.89,-1149 515.89,-1146.9 515.89,-1151.1"/>
</g>
</g>
</svg>
