<?xml version="1.0" encoding="UTF-8" standalone="no"?>
<!DOCTYPE svg PUBLIC "-//W3C//DTD SVG 1.1//EN"
 "http://www.w3.org/Graphics/SVG/1.1/DTD/svg11.dtd">
<!-- Generated by graphviz version 12.2.1 (20241206.2353)
 -->
<!-- Title: dependency&#45;cruiser output Pages: 1 -->
<svg width="1090pt" height="1701pt"
 viewBox="0.00 0.00 1089.75 1701.00" xmlns="http://www.w3.org/2000/svg" xmlns:xlink="http://www.w3.org/1999/xlink">
<g id="graph0" class="graph" transform="scale(1 1) rotate(0) translate(4 1697)">
<title>dependency&#45;cruiser output</title>
<polygon fill="white" stroke="none" points="-4,4 -4,-1697 1085.75,-1697 1085.75,4 -4,4"/>
<g id="clust1" class="cluster">
<title>cluster_src</title>
<path fill="#ffffff" stroke="black" stroke-width="2" d="M20,-8C20,-8 1061.75,-8 1061.75,-8 1067.75,-8 1073.75,-14 1073.75,-20 1073.75,-20 1073.75,-1673 1073.75,-1673 1073.75,-1679 1067.75,-1685 1061.75,-1685 1061.75,-1685 20,-1685 20,-1685 14,-1685 8,-1679 8,-1673 8,-1673 8,-20 8,-20 8,-14 14,-8 20,-8"/>
<text text-anchor="middle" x="540.88" y="-1672.45" font-family="Helvetica,sans-Serif" font-weight="bold" font-size="9.00">src</text>
</g>
<g id="clust2" class="cluster">
<title>cluster_src/ts</title>
<path fill="#ffffff" stroke="black" stroke-width="2" d="M28,-16C28,-16 1053.75,-16 1053.75,-16 1059.75,-16 1065.75,-22 1065.75,-28 1065.75,-28 1065.75,-1646 1065.75,-1646 1065.75,-1652 1059.75,-1658 1053.75,-1658 1053.75,-1658 28,-1658 28,-1658 22,-1658 16,-1652 16,-1646 16,-1646 16,-28 16,-28 16,-22 22,-16 28,-16"/>
<text text-anchor="middle" x="540.88" y="-1645.45" font-family="Helvetica,sans-Serif" font-weight="bold" font-size="9.00">ts</text>
</g>
<g id="clust3" class="cluster">
<title>cluster_src/ts/hook</title>
<path fill="#ffffff" stroke="black" stroke-width="2" d="M542.62,-120C542.62,-120 634.62,-120 634.62,-120 640.62,-120 646.62,-126 646.62,-132 646.62,-132 646.62,-161 646.62,-161 646.62,-167 640.62,-173 634.62,-173 634.62,-173 542.62,-173 542.62,-173 536.62,-173 530.62,-167 530.62,-161 530.62,-161 530.62,-132 530.62,-132 530.62,-126 536.62,-120 542.62,-120"/>
<text text-anchor="middle" x="588.62" y="-160.45" font-family="Helvetica,sans-Serif" font-weight="bold" font-size="9.00">hook</text>
</g>
<g id="clust4" class="cluster">
<title>cluster_src/ts/motion</title>
<path fill="#ffffff" stroke="black" stroke-width="2" d="M720.5,-1547C720.5,-1547 913.88,-1547 913.88,-1547 919.88,-1547 925.88,-1553 925.88,-1559 925.88,-1559 925.88,-1619 925.88,-1619 925.88,-1625 919.88,-1631 913.88,-1631 913.88,-1631 720.5,-1631 720.5,-1631 714.5,-1631 708.5,-1625 708.5,-1619 708.5,-1619 708.5,-1559 708.5,-1559 708.5,-1553 714.5,-1547 720.5,-1547"/>
<text text-anchor="middle" x="817.19" y="-1618.45" font-family="Helvetica,sans-Serif" font-weight="bold" font-size="9.00">motion</text>
</g>
<g id="clust5" class="cluster">
<title>cluster_src/ts/store</title>
<path fill="#ffffff" stroke="black" stroke-width="2" d="M701.88,-24C701.88,-24 785.12,-24 785.12,-24 791.12,-24 797.12,-30 797.12,-36 797.12,-36 797.12,-161 797.12,-161 797.12,-167 791.12,-173 785.12,-173 785.12,-173 701.88,-173 701.88,-173 695.88,-173 689.88,-167 689.88,-161 689.88,-161 689.88,-36 689.88,-36 689.88,-30 695.88,-24 701.88,-24"/>
<text text-anchor="middle" x="743.5" y="-160.45" font-family="Helvetica,sans-Serif" font-weight="bold" font-size="9.00">store</text>
</g>
<g id="clust6" class="cluster">
<title>cluster_src/ts/store/project</title>
<path fill="#ffffff" stroke="black" stroke-width="2" d="M710.25,-32C710.25,-32 776.75,-32 776.75,-32 782.75,-32 788.75,-38 788.75,-44 788.75,-44 788.75,-73 788.75,-73 788.75,-79 782.75,-85 776.75,-85 776.75,-85 710.25,-85 710.25,-85 704.25,-85 698.25,-79 698.25,-73 698.25,-73 698.25,-44 698.25,-44 698.25,-38 704.25,-32 710.25,-32"/>
<text text-anchor="middle" x="743.5" y="-72.45" font-family="Helvetica,sans-Serif" font-weight="bold" font-size="9.00">project</text>
</g>
<g id="clust7" class="cluster">
<title>cluster_src/ts/store/uiState</title>
<path fill="#ffffff" stroke="black" stroke-width="2" d="M709.88,-93C709.88,-93 777.12,-93 777.12,-93 783.12,-93 789.12,-99 789.12,-105 789.12,-105 789.12,-134 789.12,-134 789.12,-140 783.12,-146 777.12,-146 777.12,-146 709.88,-146 709.88,-146 703.88,-146 697.88,-140 697.88,-134 697.88,-134 697.88,-105 697.88,-105 697.88,-99 703.88,-93 709.88,-93"/>
<text text-anchor="middle" x="743.5" y="-133.45" font-family="Helvetica,sans-Serif" font-weight="bold" font-size="9.00">uiState</text>
</g>
<g id="clust8" class="cluster">
<title>cluster_src/ts/types</title>
<path fill="#ffffff" stroke="black" stroke-width="2" d="M865.5,-82C865.5,-82 1045.75,-82 1045.75,-82 1051.75,-82 1057.75,-88 1057.75,-94 1057.75,-94 1057.75,-154 1057.75,-154 1057.75,-160 1051.75,-166 1045.75,-166 1045.75,-166 865.5,-166 865.5,-166 859.5,-166 853.5,-160 853.5,-154 853.5,-154 853.5,-94 853.5,-94 853.5,-88 859.5,-82 865.5,-82"/>
<text text-anchor="middle" x="955.62" y="-153.45" font-family="Helvetica,sans-Serif" font-weight="bold" font-size="9.00">types</text>
</g>
<g id="clust9" class="cluster">
<title>cluster_src/ts/ui</title>
<path fill="#ffffff" stroke="black" stroke-width="2" d="M119.5,-181C119.5,-181 975.75,-181 975.75,-181 981.75,-181 987.75,-187 987.75,-193 987.75,-193 987.75,-1527 987.75,-1527 987.75,-1533 981.75,-1539 975.75,-1539 975.75,-1539 119.5,-1539 119.5,-1539 113.5,-1539 107.5,-1533 107.5,-1527 107.5,-1527 107.5,-193 107.5,-193 107.5,-187 113.5,-181 119.5,-181"/>
<text text-anchor="middle" x="547.62" y="-1526.45" font-family="Helvetica,sans-Serif" font-weight="bold" font-size="9.00">ui</text>
</g>
<g id="clust10" class="cluster">
<title>cluster_src/ts/ui/background</title>
<path fill="#ffffff" stroke="black" stroke-width="2" d="M127.5,-556C127.5,-556 646.88,-556 646.88,-556 652.88,-556 658.88,-562 658.88,-568 658.88,-568 658.88,-881 658.88,-881 658.88,-887 652.88,-893 646.88,-893 646.88,-893 127.5,-893 127.5,-893 121.5,-893 115.5,-887 115.5,-881 115.5,-881 115.5,-568 115.5,-568 115.5,-562 121.5,-556 127.5,-556"/>
<text text-anchor="middle" x="387.19" y="-880.45" font-family="Helvetica,sans-Serif" font-weight="bold" font-size="9.00">background</text>
</g>
<g id="clust11" class="cluster">
<title>cluster_src/ts/ui/background/camera</title>
<path fill="#ffffff" stroke="black" stroke-width="2" d="M407.12,-564C407.12,-564 496.88,-564 496.88,-564 502.88,-564 508.88,-570 508.88,-576 508.88,-576 508.88,-605 508.88,-605 508.88,-611 502.88,-617 496.88,-617 496.88,-617 407.12,-617 407.12,-617 401.12,-617 395.12,-611 395.12,-605 395.12,-605 395.12,-576 395.12,-576 395.12,-570 401.12,-564 407.12,-564"/>
<text text-anchor="middle" x="452" y="-604.45" font-family="Helvetica,sans-Serif" font-weight="bold" font-size="9.00">camera</text>
</g>
<g id="clust12" class="cluster">
<title>cluster_src/ts/ui/background/content</title>
<path fill="#ffffff" stroke="black" stroke-width="2" d="M407.5,-625C407.5,-625 638.88,-625 638.88,-625 644.88,-625 650.88,-631 650.88,-637 650.88,-637 650.88,-732 650.88,-732 650.88,-738 644.88,-744 638.88,-744 638.88,-744 407.5,-744 407.5,-744 401.5,-744 395.5,-738 395.5,-732 395.5,-732 395.5,-637 395.5,-637 395.5,-631 401.5,-625 407.5,-625"/>
<text text-anchor="middle" x="523.19" y="-731.45" font-family="Helvetica,sans-Serif" font-weight="bold" font-size="9.00">content</text>
</g>
<g id="clust13" class="cluster">
<title>cluster_src/ts/ui/background/content/cursor</title>
<path fill="#ffffff" stroke="black" stroke-width="2" d="M546.38,-633C546.38,-633 630.88,-633 630.88,-633 636.88,-633 642.88,-639 642.88,-645 642.88,-645 642.88,-705 642.88,-705 642.88,-711 636.88,-717 630.88,-717 630.88,-717 546.38,-717 546.38,-717 540.38,-717 534.38,-711 534.38,-705 534.38,-705 534.38,-645 534.38,-645 534.38,-639 540.38,-633 546.38,-633"/>
<text text-anchor="middle" x="588.62" y="-704.45" font-family="Helvetica,sans-Serif" font-weight="bold" font-size="9.00">cursor</text>
</g>
<g id="clust14" class="cluster">
<title>cluster_src/ts/ui/background/light</title>
<path fill="#ffffff" stroke="black" stroke-width="2" d="M413.5,-752C413.5,-752 490.5,-752 490.5,-752 496.5,-752 502.5,-758 502.5,-764 502.5,-764 502.5,-793 502.5,-793 502.5,-799 496.5,-805 490.5,-805 490.5,-805 413.5,-805 413.5,-805 407.5,-805 401.5,-799 401.5,-793 401.5,-793 401.5,-764 401.5,-764 401.5,-758 407.5,-752 413.5,-752"/>
<text text-anchor="middle" x="452" y="-792.45" font-family="Helvetica,sans-Serif" font-weight="bold" font-size="9.00">light</text>
</g>
<g id="clust15" class="cluster">
<title>cluster_src/ts/ui/background/render</title>
<path fill="#ffffff" stroke="black" stroke-width="2" d="M408.25,-813C408.25,-813 495.75,-813 495.75,-813 501.75,-813 507.75,-819 507.75,-825 507.75,-825 507.75,-854 507.75,-854 507.75,-860 501.75,-866 495.75,-866 495.75,-866 408.25,-866 408.25,-866 402.25,-866 396.25,-860 396.25,-854 396.25,-854 396.25,-825 396.25,-825 396.25,-819 402.25,-813 408.25,-813"/>
<text text-anchor="middle" x="452" y="-853.45" font-family="Helvetica,sans-Serif" font-weight="bold" font-size="9.00">render</text>
</g>
<g id="clust16" class="cluster">
<title>cluster_src/ts/ui/component</title>
<path fill="#ffffff" stroke="black" stroke-width="2" d="M389.25,-1206C389.25,-1206 967.75,-1206 967.75,-1206 973.75,-1206 979.75,-1212 979.75,-1218 979.75,-1218 979.75,-1500 979.75,-1500 979.75,-1506 973.75,-1512 967.75,-1512 967.75,-1512 389.25,-1512 389.25,-1512 383.25,-1512 377.25,-1506 377.25,-1500 377.25,-1500 377.25,-1218 377.25,-1218 377.25,-1212 383.25,-1206 389.25,-1206"/>
<text text-anchor="middle" x="678.5" y="-1499.45" font-family="Helvetica,sans-Serif" font-weight="bold" font-size="9.00">component</text>
</g>
<g id="clust17" class="cluster">
<title>cluster_src/ts/ui/component/button</title>
<path fill="#ffffff" stroke="black" stroke-width="2" d="M397.25,-1214C397.25,-1214 801.25,-1214 801.25,-1214 807.25,-1214 813.25,-1220 813.25,-1226 813.25,-1226 813.25,-1290 813.25,-1290 813.25,-1296 807.25,-1302 801.25,-1302 801.25,-1302 397.25,-1302 397.25,-1302 391.25,-1302 385.25,-1296 385.25,-1290 385.25,-1290 385.25,-1226 385.25,-1226 385.25,-1220 391.25,-1214 397.25,-1214"/>
<text text-anchor="middle" x="599.25" y="-1289.45" font-family="Helvetica,sans-Serif" font-weight="bold" font-size="9.00">button</text>
</g>
<g id="clust18" class="cluster">
<title>cluster_src/ts/ui/component/button/text</title>
<path fill="#ffffff" stroke="black" stroke-width="2" d="M405.25,-1222C405.25,-1222 793.25,-1222 793.25,-1222 799.25,-1222 805.25,-1228 805.25,-1234 805.25,-1234 805.25,-1263 805.25,-1263 805.25,-1269 799.25,-1275 793.25,-1275 793.25,-1275 405.25,-1275 405.25,-1275 399.25,-1275 393.25,-1269 393.25,-1263 393.25,-1263 393.25,-1234 393.25,-1234 393.25,-1228 399.25,-1222 405.25,-1222"/>
<text text-anchor="middle" x="599.25" y="-1262.45" font-family="Helvetica,sans-Serif" font-weight="bold" font-size="9.00">text</text>
</g>
<g id="clust19" class="cluster">
<title>cluster_src/ts/ui/component/viewer</title>
<path fill="#ffffff" stroke="black" stroke-width="2" d="M400,-1310C400,-1310 959.75,-1310 959.75,-1310 965.75,-1310 971.75,-1316 971.75,-1322 971.75,-1322 971.75,-1473 971.75,-1473 971.75,-1479 965.75,-1485 959.75,-1485 959.75,-1485 400,-1485 400,-1485 394,-1485 388,-1479 388,-1473 388,-1473 388,-1322 388,-1322 388,-1316 394,-1310 400,-1310"/>
<text text-anchor="middle" x="679.88" y="-1472.45" font-family="Helvetica,sans-Serif" font-weight="bold" font-size="9.00">viewer</text>
</g>
<g id="clust20" class="cluster">
<title>cluster_src/ts/ui/component/viewer/holder</title>
<path fill="#ffffff" stroke="black" stroke-width="2" d="M711.38,-1344C711.38,-1344 938.25,-1344 938.25,-1344 944.25,-1344 950.25,-1350 950.25,-1356 950.25,-1356 950.25,-1385 950.25,-1385 950.25,-1391 944.25,-1397 938.25,-1397 938.25,-1397 711.38,-1397 711.38,-1397 705.38,-1397 699.38,-1391 699.38,-1385 699.38,-1385 699.38,-1356 699.38,-1356 699.38,-1350 705.38,-1344 711.38,-1344"/>
<text text-anchor="middle" x="824.81" y="-1384.45" font-family="Helvetica,sans-Serif" font-weight="bold" font-size="9.00">holder</text>
</g>
<g id="clust21" class="cluster">
<title>cluster_src/ts/ui/component/viewer/navigation</title>
<path fill="#ffffff" stroke="black" stroke-width="2" d="M697.88,-1405C697.88,-1405 951.75,-1405 951.75,-1405 957.75,-1405 963.75,-1411 963.75,-1417 963.75,-1417 963.75,-1446 963.75,-1446 963.75,-1452 957.75,-1458 951.75,-1458 951.75,-1458 697.88,-1458 697.88,-1458 691.88,-1458 685.88,-1452 685.88,-1446 685.88,-1446 685.88,-1417 685.88,-1417 685.88,-1411 691.88,-1405 697.88,-1405"/>
<text text-anchor="middle" x="824.81" y="-1445.45" font-family="Helvetica,sans-Serif" font-weight="bold" font-size="9.00">navigation</text>
</g>
<g id="clust22" class="cluster">
<title>cluster_src/ts/ui/overlay</title>
<path fill="#ffffff" stroke="black" stroke-width="2" d="M136.88,-189C136.88,-189 664.5,-189 664.5,-189 670.5,-189 676.5,-195 676.5,-201 676.5,-201 676.5,-536 676.5,-536 676.5,-542 670.5,-548 664.5,-548 664.5,-548 136.88,-548 136.88,-548 130.88,-548 124.88,-542 124.88,-536 124.88,-536 124.88,-201 124.88,-201 124.88,-195 130.88,-189 136.88,-189"/>
<text text-anchor="middle" x="400.69" y="-535.45" font-family="Helvetica,sans-Serif" font-weight="bold" font-size="9.00">overlay</text>
</g>
<g id="clust23" class="cluster">
<title>cluster_src/ts/ui/overlay/site&#45;control</title>
<path fill="#ffffff" stroke="black" stroke-width="2" d="M242.75,-284C242.75,-284 656.5,-284 656.5,-284 662.5,-284 668.5,-290 668.5,-296 668.5,-296 668.5,-509 668.5,-509 668.5,-515 662.5,-521 656.5,-521 656.5,-521 242.75,-521 242.75,-521 236.75,-521 230.75,-515 230.75,-509 230.75,-509 230.75,-296 230.75,-296 230.75,-290 236.75,-284 242.75,-284"/>
<text text-anchor="middle" x="449.62" y="-508.45" font-family="Helvetica,sans-Serif" font-weight="bold" font-size="9.00">site&#45;control</text>
</g>
<g id="clust24" class="cluster">
<title>cluster_src/ts/ui/overlay/site&#45;control/scroll</title>
<path fill="#ffffff" stroke="black" stroke-width="2" d="M411.25,-410C411.25,-410 647,-410 647,-410 653,-410 659,-416 659,-422 659,-422 659,-482 659,-482 659,-488 653,-494 647,-494 647,-494 411.25,-494 411.25,-494 405.25,-494 399.25,-488 399.25,-482 399.25,-482 399.25,-422 399.25,-422 399.25,-416 405.25,-410 411.25,-410"/>
<text text-anchor="middle" x="529.12" y="-481.45" font-family="Helvetica,sans-Serif" font-weight="bold" font-size="9.00">scroll</text>
</g>
<g id="clust25" class="cluster">
<title>cluster_src/ts/ui/overlay/site&#45;control/theme</title>
<path fill="#ffffff" stroke="black" stroke-width="2" d="M250.75,-292C250.75,-292 648.5,-292 648.5,-292 654.5,-292 660.5,-298 660.5,-304 660.5,-304 660.5,-364 660.5,-364 660.5,-370 654.5,-376 648.5,-376 648.5,-376 250.75,-376 250.75,-376 244.75,-376 238.75,-370 238.75,-364 238.75,-364 238.75,-304 238.75,-304 238.75,-298 244.75,-292 250.75,-292"/>
<text text-anchor="middle" x="449.62" y="-363.45" font-family="Helvetica,sans-Serif" font-weight="bold" font-size="9.00">theme</text>
</g>
<g id="clust26" class="cluster">
<title>cluster_src/ts/ui/overlay/surface</title>
<path fill="#ffffff" stroke="black" stroke-width="2" d="M260.88,-223C260.88,-223 354.38,-223 354.38,-223 360.38,-223 366.38,-229 366.38,-235 366.38,-235 366.38,-264 366.38,-264 366.38,-270 360.38,-276 354.38,-276 354.38,-276 260.88,-276 260.88,-276 254.88,-276 248.88,-270 248.88,-264 248.88,-264 248.88,-235 248.88,-235 248.88,-229 254.88,-223 260.88,-223"/>
<text text-anchor="middle" x="307.62" y="-263.45" font-family="Helvetica,sans-Serif" font-weight="bold" font-size="9.00">surface</text>
</g>
<g id="clust27" class="cluster">
<title>cluster_src/ts/ui/site</title>
<path fill="#ffffff" stroke="black" stroke-width="2" d="M266,-927C266,-927 663.38,-927 663.38,-927 669.38,-927 675.38,-933 675.38,-939 675.38,-939 675.38,-1186 675.38,-1186 675.38,-1192 669.38,-1198 663.38,-1198 663.38,-1198 266,-1198 266,-1198 260,-1198 254,-1192 254,-1186 254,-1186 254,-939 254,-939 254,-933 260,-927 266,-927"/>
<text text-anchor="middle" x="464.69" y="-1185.45" font-family="Helvetica,sans-Serif" font-weight="bold" font-size="9.00">site</text>
</g>
<g id="clust28" class="cluster">
<title>cluster_src/ts/ui/site/footer</title>
<path fill="#ffffff" stroke="black" stroke-width="2" d="M276.25,-935C276.25,-935 501,-935 501,-935 507,-935 513,-941 513,-947 513,-947 513,-976 513,-976 513,-982 507,-988 501,-988 501,-988 276.25,-988 276.25,-988 270.25,-988 264.25,-982 264.25,-976 264.25,-976 264.25,-947 264.25,-947 264.25,-941 270.25,-935 276.25,-935"/>
<text text-anchor="middle" x="388.62" y="-975.45" font-family="Helvetica,sans-Serif" font-weight="bold" font-size="9.00">footer</text>
</g>
<g id="clust29" class="cluster">
<title>cluster_src/ts/ui/site/header</title>
<path fill="#ffffff" stroke="black" stroke-width="2" d="M274,-996C274,-996 503.25,-996 503.25,-996 509.25,-996 515.25,-1002 515.25,-1008 515.25,-1008 515.25,-1037 515.25,-1037 515.25,-1043 509.25,-1049 503.25,-1049 503.25,-1049 274,-1049 274,-1049 268,-1049 262,-1043 262,-1037 262,-1037 262,-1008 262,-1008 262,-1002 268,-996 274,-996"/>
<text text-anchor="middle" x="388.62" y="-1036.45" font-family="Helvetica,sans-Serif" font-weight="bold" font-size="9.00">header</text>
</g>
<g id="clust30" class="cluster">
<title>cluster_src/ts/ui/site/project</title>
<path fill="#ffffff" stroke="black" stroke-width="2" d="M274.75,-1057C274.75,-1057 655.38,-1057 655.38,-1057 661.38,-1057 667.38,-1063 667.38,-1069 667.38,-1069 667.38,-1159 667.38,-1159 667.38,-1165 661.38,-1171 655.38,-1171 655.38,-1171 274.75,-1171 274.75,-1171 268.75,-1171 262.75,-1165 262.75,-1159 262.75,-1159 262.75,-1069 262.75,-1069 262.75,-1063 268.75,-1057 274.75,-1057"/>
<text text-anchor="middle" x="465.06" y="-1158.45" font-family="Helvetica,sans-Serif" font-weight="bold" font-size="9.00">project</text>
</g>
<g id="clust31" class="cluster">
<title>cluster_src/ts/ui/site/project/text</title>
<path fill="#ffffff" stroke="black" stroke-width="2" d="M410.88,-1091C410.88,-1091 647.38,-1091 647.38,-1091 653.38,-1091 659.38,-1097 659.38,-1103 659.38,-1103 659.38,-1132 659.38,-1132 659.38,-1138 653.38,-1144 647.38,-1144 647.38,-1144 410.88,-1144 410.88,-1144 404.88,-1144 398.88,-1138 398.88,-1132 398.88,-1132 398.88,-1103 398.88,-1103 398.88,-1097 404.88,-1091 410.88,-1091"/>
<text text-anchor="middle" x="529.12" y="-1131.45" font-family="Helvetica,sans-Serif" font-weight="bold" font-size="9.00">text</text>
</g>
<!-- src/ts/Application.module.css -->
<g id="node1" class="node">
<title>src/ts/Application.module.css</title>
<g id="a_node1"><a xlink:href="src/ts/Application.module.css" xlink:title="Application.module.css">
<path fill="#ffffcc" stroke="black" d="M216.58,-173.25C216.58,-173.25 118.42,-173.25 118.42,-173.25 115.33,-173.25 112.25,-170.17 112.25,-167.08 112.25,-167.08 112.25,-160.92 112.25,-160.92 112.25,-157.83 115.33,-154.75 118.42,-154.75 118.42,-154.75 216.58,-154.75 216.58,-154.75 219.67,-154.75 222.75,-157.83 222.75,-160.92 222.75,-160.92 222.75,-167.08 222.75,-167.08 222.75,-170.17 219.67,-173.25 216.58,-173.25"/>
<text text-anchor="start" x="120.25" y="-160.7" font-family="Helvetica,sans-Serif" font-size="9.00">Application.module.css</text>
</a>
</g>
</g>
<!-- src/ts/Application.tsx -->
<g id="node2" class="node">
<title>src/ts/Application.tsx</title>
<g id="a_node2"><a xlink:href="src/ts/Application.tsx" xlink:title="Application.tsx">
<path fill="#bbfeff" stroke="black" d="M93.08,-249.25C93.08,-249.25 30.17,-249.25 30.17,-249.25 27.08,-249.25 24,-246.17 24,-243.08 24,-243.08 24,-236.92 24,-236.92 24,-233.83 27.08,-230.75 30.17,-230.75 30.17,-230.75 93.08,-230.75 93.08,-230.75 96.17,-230.75 99.25,-233.83 99.25,-236.92 99.25,-236.92 99.25,-243.08 99.25,-243.08 99.25,-246.17 96.17,-249.25 93.08,-249.25"/>
<text text-anchor="start" x="32" y="-236.7" font-family="Helvetica,sans-Serif" font-size="9.00">Application.tsx</text>
</a>
</g>
</g>
<!-- src/ts/Application.tsx&#45;&gt;src/ts/Application.module.css -->
<g id="edge1" class="edge">
<title>src/ts/Application.tsx&#45;&gt;src/ts/Application.module.css</title>
<path fill="none" stroke="#000000" stroke-width="2" stroke-opacity="0.200000" d="M68.43,-230.29C76.02,-218.34 90.4,-198.13 107.5,-186 112.29,-182.6 117.67,-179.66 123.18,-177.13"/>
<polygon fill="#000000" fill-opacity="0.200000" stroke="#000000" stroke-width="2" stroke-opacity="0.200000" points="123.79,-179.15 128.51,-174.89 122.16,-175.28 123.79,-179.15"/>
</g>
<!-- src/ts/ui/overlay/UIOverlay.tsx -->
<g id="node3" class="node">
<title>src/ts/ui/overlay/UIOverlay.tsx</title>
<g id="a_node3"><a xlink:href="src/ts/ui/overlay/UIOverlay.tsx" xlink:title="UIOverlay.tsx">
<path fill="#bbfeff" stroke="black" d="M195.96,-249.25C195.96,-249.25 139.04,-249.25 139.04,-249.25 135.96,-249.25 132.88,-246.17 132.88,-243.08 132.88,-243.08 132.88,-236.92 132.88,-236.92 132.88,-233.83 135.96,-230.75 139.04,-230.75 139.04,-230.75 195.96,-230.75 195.96,-230.75 199.04,-230.75 202.12,-233.83 202.12,-236.92 202.12,-236.92 202.12,-243.08 202.12,-243.08 202.12,-246.17 199.04,-249.25 195.96,-249.25"/>
<text text-anchor="start" x="140.88" y="-236.7" font-family="Helvetica,sans-Serif" font-size="9.00">UIOverlay.tsx</text>
</a>
</g>
</g>
<!-- src/ts/Application.tsx&#45;&gt;src/ts/ui/overlay/UIOverlay.tsx -->
<g id="edge2" class="edge">
<title>src/ts/Application.tsx&#45;&gt;src/ts/ui/overlay/UIOverlay.tsx</title>
<path fill="none" stroke="#000000" stroke-width="2" stroke-opacity="0.200000" d="M99.54,-240C107.34,-240 115.63,-240 123.62,-240"/>
<polygon fill="#000000" fill-opacity="0.200000" stroke="#000000" stroke-width="2" stroke-opacity="0.200000" points="123.45,-242.1 129.45,-240 123.45,-237.9 123.45,-242.1"/>
</g>
<!-- src/ts/ui/UIContainer.tsx -->
<g id="node4" class="node">
<title>src/ts/ui/UIContainer.tsx</title>
<g id="a_node4"><a xlink:href="src/ts/ui/UIContainer.tsx" xlink:title="UIContainer.tsx">
<path fill="#bbfeff" stroke="black" d="M200.46,-940.25C200.46,-940.25 134.54,-940.25 134.54,-940.25 131.46,-940.25 128.38,-937.17 128.38,-934.08 128.38,-934.08 128.38,-927.92 128.38,-927.92 128.38,-924.83 131.46,-921.75 134.54,-921.75 134.54,-921.75 200.46,-921.75 200.46,-921.75 203.54,-921.75 206.62,-924.83 206.62,-927.92 206.62,-927.92 206.62,-934.08 206.62,-934.08 206.62,-937.17 203.54,-940.25 200.46,-940.25"/>
<text text-anchor="start" x="136.38" y="-927.7" font-family="Helvetica,sans-Serif" font-size="9.00">UIContainer.tsx</text>
</a>
</g>
</g>
<!-- src/ts/Application.tsx&#45;&gt;src/ts/ui/UIContainer.tsx -->
<g id="edge3" class="edge">
<title>src/ts/Application.tsx&#45;&gt;src/ts/ui/UIContainer.tsx</title>
<path fill="none" stroke="#000000" stroke-width="2" stroke-opacity="0.200000" d="M62.74,-249.35C63.78,-325.21 72.04,-838.4 107.5,-896 113.01,-904.94 121.72,-911.88 130.77,-917.13"/>
<polygon fill="#000000" fill-opacity="0.200000" stroke="#000000" stroke-width="2" stroke-opacity="0.200000" points="129.78,-918.98 136.07,-919.91 131.73,-915.26 129.78,-918.98"/>
</g>
<!-- src/ts/ui/overlay/UIOverlay.module.css -->
<g id="node37" class="node">
<title>src/ts/ui/overlay/UIOverlay.module.css</title>
<g id="a_node37"><a xlink:href="src/ts/ui/overlay/UIOverlay.module.css" xlink:title="UIOverlay.module.css">
<path fill="#ffffcc" stroke="black" d="M353.71,-215.25C353.71,-215.25 261.54,-215.25 261.54,-215.25 258.46,-215.25 255.38,-212.17 255.38,-209.08 255.38,-209.08 255.38,-202.92 255.38,-202.92 255.38,-199.83 258.46,-196.75 261.54,-196.75 261.54,-196.75 353.71,-196.75 353.71,-196.75 356.79,-196.75 359.88,-199.83 359.88,-202.92 359.88,-202.92 359.88,-209.08 359.88,-209.08 359.88,-212.17 356.79,-215.25 353.71,-215.25"/>
<text text-anchor="start" x="263.38" y="-202.7" font-family="Helvetica,sans-Serif" font-size="9.00">UIOverlay.module.css</text>
</a>
</g>
</g>
<!-- src/ts/ui/overlay/UIOverlay.tsx&#45;&gt;src/ts/ui/overlay/UIOverlay.module.css -->
<g id="edge38" class="edge">
<title>src/ts/ui/overlay/UIOverlay.tsx&#45;&gt;src/ts/ui/overlay/UIOverlay.module.css</title>
<path fill="none" stroke="#000000" stroke-width="2" stroke-opacity="0.200000" d="M202.4,-234.54C209.36,-232.7 216.47,-230.25 222.75,-227 226.95,-224.83 226.5,-222.06 230.75,-220 235.74,-217.59 241.09,-215.59 246.56,-213.93"/>
<polygon fill="#000000" fill-opacity="0.200000" stroke="#000000" stroke-width="2" stroke-opacity="0.200000" points="247.05,-215.98 252.3,-212.39 245.96,-211.92 247.05,-215.98"/>
</g>
<!-- src/ts/ui/overlay/site&#45;control/UISiteControl.tsx -->
<g id="node38" class="node">
<title>src/ts/ui/overlay/site&#45;control/UISiteControl.tsx</title>
<g id="a_node38"><a xlink:href="src/ts/ui/overlay/site-control/UISiteControl.tsx" xlink:title="UISiteControl.tsx">
<path fill="#bbfeff" stroke="black" d="M343.58,-402.25C343.58,-402.25 271.67,-402.25 271.67,-402.25 268.58,-402.25 265.5,-399.17 265.5,-396.08 265.5,-396.08 265.5,-389.92 265.5,-389.92 265.5,-386.83 268.58,-383.75 271.67,-383.75 271.67,-383.75 343.58,-383.75 343.58,-383.75 346.67,-383.75 349.75,-386.83 349.75,-389.92 349.75,-389.92 349.75,-396.08 349.75,-396.08 349.75,-399.17 346.67,-402.25 343.58,-402.25"/>
<text text-anchor="start" x="273.5" y="-389.7" font-family="Helvetica,sans-Serif" font-size="9.00">UISiteControl.tsx</text>
</a>
</g>
</g>
<!-- src/ts/ui/overlay/UIOverlay.tsx&#45;&gt;src/ts/ui/overlay/site&#45;control/UISiteControl.tsx -->
<g id="edge36" class="edge">
<title>src/ts/ui/overlay/UIOverlay.tsx&#45;&gt;src/ts/ui/overlay/site&#45;control/UISiteControl.tsx</title>
<path fill="none" stroke="#000000" stroke-width="2" stroke-opacity="0.200000" d="M169.74,-249.61C173.58,-275.17 187.72,-345.18 230.75,-379 238.09,-384.77 247.06,-388.44 256.23,-390.72"/>
<polygon fill="#000000" fill-opacity="0.200000" stroke="#000000" stroke-width="2" stroke-opacity="0.200000" points="255.77,-392.77 262.07,-391.9 256.6,-388.65 255.77,-392.77"/>
</g>
<!-- src/ts/ui/overlay/surface/UIOverlaySurface.tsx -->
<g id="node39" class="node">
<title>src/ts/ui/overlay/surface/UIOverlaySurface.tsx</title>
<g id="a_node39"><a xlink:href="src/ts/ui/overlay/surface/UIOverlaySurface.tsx" xlink:title="UIOverlaySurface.tsx">
<path fill="#bbfeff" stroke="black" d="M352.21,-249.25C352.21,-249.25 263.04,-249.25 263.04,-249.25 259.96,-249.25 256.88,-246.17 256.88,-243.08 256.88,-243.08 256.88,-236.92 256.88,-236.92 256.88,-233.83 259.96,-230.75 263.04,-230.75 263.04,-230.75 352.21,-230.75 352.21,-230.75 355.29,-230.75 358.38,-233.83 358.38,-236.92 358.38,-236.92 358.38,-243.08 358.38,-243.08 358.38,-246.17 355.29,-249.25 352.21,-249.25"/>
<text text-anchor="start" x="264.88" y="-236.7" font-family="Helvetica,sans-Serif" font-size="9.00">UIOverlaySurface.tsx</text>
</a>
</g>
</g>
<!-- src/ts/ui/overlay/UIOverlay.tsx&#45;&gt;src/ts/ui/overlay/surface/UIOverlaySurface.tsx -->
<g id="edge37" class="edge">
<title>src/ts/ui/overlay/UIOverlay.tsx&#45;&gt;src/ts/ui/overlay/surface/UIOverlaySurface.tsx</title>
<path fill="none" stroke="#000000" stroke-width="2" stroke-opacity="0.200000" d="M202.29,-240C215.91,-240 232.03,-240 247.48,-240"/>
<polygon fill="#000000" fill-opacity="0.200000" stroke="#000000" stroke-width="2" stroke-opacity="0.200000" points="247.44,-242.1 253.44,-240 247.44,-237.9 247.44,-242.1"/>
</g>
<!-- src/ts/store/project/projectStore.ts -->
<g id="node9" class="node">
<title>src/ts/store/project/projectStore.ts</title>
<g id="a_node9"><a xlink:href="src/ts/store/project/projectStore.ts" xlink:title="projectStore.ts">
<path fill="#ddfeff" stroke="black" d="M774.58,-58.25C774.58,-58.25 712.42,-58.25 712.42,-58.25 709.33,-58.25 706.25,-55.17 706.25,-52.08 706.25,-52.08 706.25,-45.92 706.25,-45.92 706.25,-42.83 709.33,-39.75 712.42,-39.75 712.42,-39.75 774.58,-39.75 774.58,-39.75 777.67,-39.75 780.75,-42.83 780.75,-45.92 780.75,-45.92 780.75,-52.08 780.75,-52.08 780.75,-55.17 777.67,-58.25 774.58,-58.25"/>
<text text-anchor="start" x="714.25" y="-45.7" font-family="Helvetica,sans-Serif" font-size="9.00">projectStore.ts</text>
</a>
</g>
</g>
<!-- src/ts/ui/UIContainer.tsx&#45;&gt;src/ts/store/project/projectStore.ts -->
<g id="edge8" class="edge">
<title>src/ts/ui/UIContainer.tsx&#45;&gt;src/ts/store/project/projectStore.ts</title>
<path fill="none" stroke="#000000" stroke-width="2" stroke-opacity="0.200000" d="M193.79,-921.26C204.74,-915.63 216.46,-907.38 222.75,-896 241.82,-861.47 215.04,-222.18 230.75,-186 266.62,-103.39 295.34,-83.44 377.25,-46 498.35,9.34 544.41,-15.26 676.5,-32 685.22,-33.1 694.43,-35 703.12,-37.13"/>
<polygon fill="#000000" fill-opacity="0.200000" stroke="#000000" stroke-width="2" stroke-opacity="0.200000" points="702.32,-39.1 708.66,-38.56 703.38,-35.03 702.32,-39.1"/>
</g>
<!-- src/ts/ui/UIContainer.module.css -->
<g id="node14" class="node">
<title>src/ts/ui/UIContainer.module.css</title>
<g id="a_node14"><a xlink:href="src/ts/ui/UIContainer.module.css" xlink:title="UIContainer.module.css">
<path fill="#ffffcc" stroke="black" d="M358.21,-919.25C358.21,-919.25 257.04,-919.25 257.04,-919.25 253.96,-919.25 250.88,-916.17 250.88,-913.08 250.88,-913.08 250.88,-906.92 250.88,-906.92 250.88,-903.83 253.96,-900.75 257.04,-900.75 257.04,-900.75 358.21,-900.75 358.21,-900.75 361.29,-900.75 364.38,-903.83 364.38,-906.92 364.38,-906.92 364.38,-913.08 364.38,-913.08 364.38,-916.17 361.29,-919.25 358.21,-919.25"/>
<text text-anchor="start" x="258.88" y="-906.7" font-family="Helvetica,sans-Serif" font-size="9.00">UIContainer.module.css</text>
</a>
</g>
</g>
<!-- src/ts/ui/UIContainer.tsx&#45;&gt;src/ts/ui/UIContainer.module.css -->
<g id="edge12" class="edge">
<title>src/ts/ui/UIContainer.tsx&#45;&gt;src/ts/ui/UIContainer.module.css</title>
<path fill="none" stroke="#000000" stroke-width="2" stroke-opacity="0.200000" d="M206.98,-925.15C217.83,-923.5 229.95,-921.66 241.9,-919.84"/>
<polygon fill="#000000" fill-opacity="0.200000" stroke="#000000" stroke-width="2" stroke-opacity="0.200000" points="241.93,-921.96 247.55,-918.98 241.3,-917.81 241.93,-921.96"/>
</g>
<!-- src/ts/ui/site/footer/SiteFooter.tsx -->
<g id="node15" class="node">
<title>src/ts/ui/site/footer/SiteFooter.tsx</title>
<g id="a_node15"><a xlink:href="src/ts/ui/site/footer/SiteFooter.tsx" xlink:title="SiteFooter.tsx">
<path fill="#bbfeff" stroke="black" d="M336.83,-961.25C336.83,-961.25 278.42,-961.25 278.42,-961.25 275.33,-961.25 272.25,-958.17 272.25,-955.08 272.25,-955.08 272.25,-948.92 272.25,-948.92 272.25,-945.83 275.33,-942.75 278.42,-942.75 278.42,-942.75 336.83,-942.75 336.83,-942.75 339.92,-942.75 343,-945.83 343,-948.92 343,-948.92 343,-955.08 343,-955.08 343,-958.17 339.92,-961.25 336.83,-961.25"/>
<text text-anchor="start" x="280.25" y="-948.7" font-family="Helvetica,sans-Serif" font-size="9.00">SiteFooter.tsx</text>
</a>
</g>
</g>
<!-- src/ts/ui/UIContainer.tsx&#45;&gt;src/ts/ui/site/footer/SiteFooter.tsx -->
<g id="edge9" class="edge">
<title>src/ts/ui/UIContainer.tsx&#45;&gt;src/ts/ui/site/footer/SiteFooter.tsx</title>
<path fill="none" stroke="#000000" stroke-width="2" stroke-opacity="0.200000" d="M206.98,-936.85C224.54,-939.52 245.4,-942.69 263.5,-945.44"/>
<polygon fill="#000000" fill-opacity="0.200000" stroke="#000000" stroke-width="2" stroke-opacity="0.200000" points="262.89,-947.47 269.13,-946.3 263.52,-943.32 262.89,-947.47"/>
</g>
<!-- src/ts/ui/site/header/SiteHeader.tsx -->
<g id="node16" class="node">
<title>src/ts/ui/site/header/SiteHeader.tsx</title>
<g id="a_node16"><a xlink:href="src/ts/ui/site/header/SiteHeader.tsx" xlink:title="SiteHeader.tsx">
<path fill="#bbfeff" stroke="black" d="M339.08,-1022.25C339.08,-1022.25 276.17,-1022.25 276.17,-1022.25 273.08,-1022.25 270,-1019.17 270,-1016.08 270,-1016.08 270,-1009.92 270,-1009.92 270,-1006.83 273.08,-1003.75 276.17,-1003.75 276.17,-1003.75 339.08,-1003.75 339.08,-1003.75 342.17,-1003.75 345.25,-1006.83 345.25,-1009.92 345.25,-1009.92 345.25,-1016.08 345.25,-1016.08 345.25,-1019.17 342.17,-1022.25 339.08,-1022.25"/>
<text text-anchor="start" x="278" y="-1009.7" font-family="Helvetica,sans-Serif" font-size="9.00">SiteHeader.tsx</text>
</a>
</g>
</g>
<!-- src/ts/ui/UIContainer.tsx&#45;&gt;src/ts/ui/site/header/SiteHeader.tsx -->
<g id="edge10" class="edge">
<title>src/ts/ui/UIContainer.tsx&#45;&gt;src/ts/ui/site/header/SiteHeader.tsx</title>
<path fill="none" stroke="#000000" stroke-width="2" stroke-opacity="0.200000" d="M175.87,-940.59C186.56,-953.84 207.62,-977.62 230.75,-991 240.02,-996.37 250.7,-1000.51 261.07,-1003.67"/>
<polygon fill="#000000" fill-opacity="0.200000" stroke="#000000" stroke-width="2" stroke-opacity="0.200000" points="260.4,-1005.66 266.75,-1005.28 261.55,-1001.62 260.4,-1005.66"/>
</g>
<!-- src/ts/ui/site/project/SiteProject.tsx -->
<g id="node17" class="node">
<title>src/ts/ui/site/project/SiteProject.tsx</title>
<g id="a_node17"><a xlink:href="src/ts/ui/site/project/SiteProject.tsx" xlink:title="SiteProject.tsx">
<path fill="#bbfeff" stroke="black" d="M338.33,-1130.25C338.33,-1130.25 276.92,-1130.25 276.92,-1130.25 273.83,-1130.25 270.75,-1127.17 270.75,-1124.08 270.75,-1124.08 270.75,-1117.92 270.75,-1117.92 270.75,-1114.83 273.83,-1111.75 276.92,-1111.75 276.92,-1111.75 338.33,-1111.75 338.33,-1111.75 341.42,-1111.75 344.5,-1114.83 344.5,-1117.92 344.5,-1117.92 344.5,-1124.08 344.5,-1124.08 344.5,-1127.17 341.42,-1130.25 338.33,-1130.25"/>
<text text-anchor="start" x="278.75" y="-1117.7" font-family="Helvetica,sans-Serif" font-size="9.00">SiteProject.tsx</text>
</a>
</g>
</g>
<!-- src/ts/ui/UIContainer.tsx&#45;&gt;src/ts/ui/site/project/SiteProject.tsx -->
<g id="edge11" class="edge">
<title>src/ts/ui/UIContainer.tsx&#45;&gt;src/ts/ui/site/project/SiteProject.tsx</title>
<path fill="none" stroke="#000000" stroke-width="2" stroke-opacity="0.200000" d="M172.01,-940.45C180.18,-961.74 202.01,-1014.5 230.75,-1052 246.91,-1073.08 269.99,-1093.02 286.45,-1105.99"/>
<polygon fill="#000000" fill-opacity="0.200000" stroke="#000000" stroke-width="2" stroke-opacity="0.200000" points="285.07,-1107.58 291.1,-1109.59 287.64,-1104.26 285.07,-1107.58"/>
</g>
<!-- src/ts/hook/useScrollProgress.ts -->
<g id="node5" class="node">
<title>src/ts/hook/useScrollProgress.ts</title>
<g id="a_node5"><a xlink:href="src/ts/hook/useScrollProgress.ts" xlink:title="useScrollProgress.ts">
<path fill="#ddfeff" stroke="black" d="M632.46,-146.25C632.46,-146.25 544.79,-146.25 544.79,-146.25 541.71,-146.25 538.62,-143.17 538.62,-140.08 538.62,-140.08 538.62,-133.92 538.62,-133.92 538.62,-130.83 541.71,-127.75 544.79,-127.75 544.79,-127.75 632.46,-127.75 632.46,-127.75 635.54,-127.75 638.62,-130.83 638.62,-133.92 638.62,-133.92 638.62,-140.08 638.62,-140.08 638.62,-143.17 635.54,-146.25 632.46,-146.25"/>
<text text-anchor="start" x="546.62" y="-133.7" font-family="Helvetica,sans-Serif" font-size="9.00">useScrollProgress.ts</text>
</a>
</g>
</g>
<!-- src/ts/motion/duration.ts -->
<g id="node6" class="node">
<title>src/ts/motion/duration.ts</title>
<g id="a_node6"><a xlink:href="src/ts/motion/duration.ts" xlink:title="duration.ts">
<path fill="#ddfeff" stroke="black" d="M911.71,-1588.25C911.71,-1588.25 865.29,-1588.25 865.29,-1588.25 862.21,-1588.25 859.12,-1585.17 859.12,-1582.08 859.12,-1582.08 859.12,-1575.92 859.12,-1575.92 859.12,-1572.83 862.21,-1569.75 865.29,-1569.75 865.29,-1569.75 911.71,-1569.75 911.71,-1569.75 914.79,-1569.75 917.88,-1572.83 917.88,-1575.92 917.88,-1575.92 917.88,-1582.08 917.88,-1582.08 917.88,-1585.17 914.79,-1588.25 911.71,-1588.25"/>
<text text-anchor="start" x="867.12" y="-1575.7" font-family="Helvetica,sans-Serif" font-size="9.00">duration.ts</text>
</a>
</g>
</g>
<!-- src/ts/motion/ease.ts -->
<g id="node7" class="node">
<title>src/ts/motion/ease.ts</title>
<g id="a_node7"><a xlink:href="src/ts/motion/ease.ts" xlink:title="ease.ts">
<path fill="#ddfeff" stroke="black" d="M764.33,-1573.25C764.33,-1573.25 722.67,-1573.25 722.67,-1573.25 719.58,-1573.25 716.5,-1570.17 716.5,-1567.08 716.5,-1567.08 716.5,-1560.92 716.5,-1560.92 716.5,-1557.83 719.58,-1554.75 722.67,-1554.75 722.67,-1554.75 764.33,-1554.75 764.33,-1554.75 767.42,-1554.75 770.5,-1557.83 770.5,-1560.92 770.5,-1560.92 770.5,-1567.08 770.5,-1567.08 770.5,-1570.17 767.42,-1573.25 764.33,-1573.25"/>
<text text-anchor="start" x="728.88" y="-1560.7" font-family="Helvetica,sans-Serif" font-size="9.00">ease.ts</text>
</a>
</g>
</g>
<!-- src/ts/motion/fade.ts -->
<g id="node8" class="node">
<title>src/ts/motion/fade.ts</title>
<g id="a_node8"><a xlink:href="src/ts/motion/fade.ts" xlink:title="fade.ts">
<path fill="#ddfeff" stroke="black" d="M764.33,-1604.25C764.33,-1604.25 722.67,-1604.25 722.67,-1604.25 719.58,-1604.25 716.5,-1601.17 716.5,-1598.08 716.5,-1598.08 716.5,-1591.92 716.5,-1591.92 716.5,-1588.83 719.58,-1585.75 722.67,-1585.75 722.67,-1585.75 764.33,-1585.75 764.33,-1585.75 767.42,-1585.75 770.5,-1588.83 770.5,-1591.92 770.5,-1591.92 770.5,-1598.08 770.5,-1598.08 770.5,-1601.17 767.42,-1604.25 764.33,-1604.25"/>
<text text-anchor="start" x="730" y="-1591.7" font-family="Helvetica,sans-Serif" font-size="9.00">fade.ts</text>
</a>
</g>
</g>
<!-- src/ts/motion/fade.ts&#45;&gt;src/ts/motion/duration.ts -->
<g id="edge4" class="edge">
<title>src/ts/motion/fade.ts&#45;&gt;src/ts/motion/duration.ts</title>
<path fill="none" stroke="#000000" stroke-width="2" stroke-opacity="0.200000" d="M770.73,-1592.07C792.99,-1589.57 825.2,-1585.97 850.15,-1583.18"/>
<polygon fill="#000000" fill-opacity="0.200000" stroke="#000000" stroke-width="2" stroke-opacity="0.200000" points="850.25,-1585.28 855.98,-1582.53 849.78,-1581.11 850.25,-1585.28"/>
</g>
<!-- src/ts/store/uiState/uiStateStore.ts -->
<g id="node10" class="node">
<title>src/ts/store/uiState/uiStateStore.ts</title>
<g id="a_node10"><a xlink:href="src/ts/store/uiState/uiStateStore.ts" xlink:title="uiStateStore.ts">
<path fill="#ddfeff" stroke="black" d="M774.96,-119.25C774.96,-119.25 712.04,-119.25 712.04,-119.25 708.96,-119.25 705.88,-116.17 705.88,-113.08 705.88,-113.08 705.88,-106.92 705.88,-106.92 705.88,-103.83 708.96,-100.75 712.04,-100.75 712.04,-100.75 774.96,-100.75 774.96,-100.75 778.04,-100.75 781.12,-103.83 781.12,-106.92 781.12,-106.92 781.12,-113.08 781.12,-113.08 781.12,-116.17 778.04,-119.25 774.96,-119.25"/>
<text text-anchor="start" x="713.88" y="-106.7" font-family="Helvetica,sans-Serif" font-size="9.00">uiStateStore.ts</text>
</a>
</g>
</g>
<!-- src/ts/types/index.ts -->
<g id="node11" class="node">
<title>src/ts/types/index.ts</title>
<g id="a_node11"><a xlink:href="src/ts/types/index.ts" xlink:title="index.ts">
<path fill="#ddfeff" stroke="black" d="M909.33,-132.25C909.33,-132.25 867.67,-132.25 867.67,-132.25 864.58,-132.25 861.5,-129.17 861.5,-126.08 861.5,-126.08 861.5,-119.92 861.5,-119.92 861.5,-116.83 864.58,-113.75 867.67,-113.75 867.67,-113.75 909.33,-113.75 909.33,-113.75 912.42,-113.75 915.5,-116.83 915.5,-119.92 915.5,-119.92 915.5,-126.08 915.5,-126.08 915.5,-129.17 912.42,-132.25 909.33,-132.25"/>
<text text-anchor="start" x="872.75" y="-119.7" font-family="Helvetica,sans-Serif" font-size="9.00">index.ts</text>
</a>
</g>
</g>
<!-- src/ts/store/uiState/uiStateStore.ts&#45;&gt;src/ts/types/index.ts -->
<g id="edge5" class="edge">
<title>src/ts/store/uiState/uiStateStore.ts&#45;&gt;src/ts/types/index.ts</title>
<path fill="none" stroke="#000000" stroke-width="2" stroke-opacity="0.200000" d="M781.33,-113.35C803.19,-115.34 830.77,-117.84 852.34,-119.8"/>
<polygon fill="#000000" fill-opacity="0.200000" stroke="#000000" stroke-width="2" stroke-opacity="0.200000" points="852,-121.88 858.17,-120.33 852.38,-117.7 852,-121.88"/>
</g>
<!-- src/ts/types/project.ts -->
<g id="node12" class="node">
<title>src/ts/types/project.ts</title>
<g id="a_node12"><a xlink:href="src/ts/types/project.ts" xlink:title="project.ts">
<path fill="#ddfeff" stroke="black" d="M1043.58,-108.25C1043.58,-108.25 1001.92,-108.25 1001.92,-108.25 998.83,-108.25 995.75,-105.17 995.75,-102.08 995.75,-102.08 995.75,-95.92 995.75,-95.92 995.75,-92.83 998.83,-89.75 1001.92,-89.75 1001.92,-89.75 1043.58,-89.75 1043.58,-89.75 1046.67,-89.75 1049.75,-92.83 1049.75,-95.92 1049.75,-95.92 1049.75,-102.08 1049.75,-102.08 1049.75,-105.17 1046.67,-108.25 1043.58,-108.25"/>
<text text-anchor="start" x="1004.38" y="-95.7" font-family="Helvetica,sans-Serif" font-size="9.00">project.ts</text>
</a>
</g>
</g>
<!-- src/ts/types/index.ts&#45;&gt;src/ts/types/project.ts -->
<g id="edge6" class="edge">
<title>src/ts/types/index.ts&#45;&gt;src/ts/types/project.ts</title>
<path fill="none" stroke="#000000" stroke-width="2" stroke-opacity="0.200000" d="M915.94,-118.2C936.76,-114.42 965.89,-109.14 988.32,-105.07"/>
<polygon fill="#000000" fill-opacity="0.200000" stroke="#000000" stroke-width="2" stroke-opacity="0.200000" points="994.74,-106.04 988.46,-105.04 993.99,-101.9 994.74,-106.04"/>
</g>
<!-- src/ts/types/theme.ts -->
<g id="node13" class="node">
<title>src/ts/types/theme.ts</title>
<g id="a_node13"><a xlink:href="src/ts/types/theme.ts" xlink:title="theme.ts">
<path fill="#ddfeff" stroke="black" d="M1043.58,-139.25C1043.58,-139.25 1001.92,-139.25 1001.92,-139.25 998.83,-139.25 995.75,-136.17 995.75,-133.08 995.75,-133.08 995.75,-126.92 995.75,-126.92 995.75,-123.83 998.83,-120.75 1001.92,-120.75 1001.92,-120.75 1043.58,-120.75 1043.58,-120.75 1046.67,-120.75 1049.75,-123.83 1049.75,-126.92 1049.75,-126.92 1049.75,-133.08 1049.75,-133.08 1049.75,-136.17 1046.67,-139.25 1043.58,-139.25"/>
<text text-anchor="start" x="1005.5" y="-126.7" font-family="Helvetica,sans-Serif" font-size="9.00">theme.ts</text>
</a>
</g>
</g>
<!-- src/ts/types/index.ts&#45;&gt;src/ts/types/theme.ts -->
<g id="edge7" class="edge">
<title>src/ts/types/index.ts&#45;&gt;src/ts/types/theme.ts</title>
<path fill="none" stroke="#000000" stroke-width="2" stroke-opacity="0.200000" d="M915.94,-124.4C936.76,-125.5 965.89,-127.04 988.32,-128.23"/>
<polygon fill="#000000" fill-opacity="0.200000" stroke="#000000" stroke-width="2" stroke-opacity="0.200000" points="994.24,-130.65 988.36,-128.23 994.46,-126.45 994.24,-130.65"/>
</g>
<!-- src/ts/ui/component/button/text/ButtonText.tsx -->
<g id="node29" class="node">
<title>src/ts/ui/component/button/text/ButtonText.tsx</title>
<g id="a_node29"><a xlink:href="src/ts/ui/component/button/text/ButtonText.tsx" xlink:title="ButtonText.tsx">
<path fill="#bbfeff" stroke="black" d="M618.58,-1248.25C618.58,-1248.25 558.67,-1248.25 558.67,-1248.25 555.58,-1248.25 552.5,-1245.17 552.5,-1242.08 552.5,-1242.08 552.5,-1235.92 552.5,-1235.92 552.5,-1232.83 555.58,-1229.75 558.67,-1229.75 558.67,-1229.75 618.58,-1229.75 618.58,-1229.75 621.67,-1229.75 624.75,-1232.83 624.75,-1235.92 624.75,-1235.92 624.75,-1242.08 624.75,-1242.08 624.75,-1245.17 621.67,-1248.25 618.58,-1248.25"/>
<text text-anchor="start" x="560.5" y="-1235.7" font-family="Helvetica,sans-Serif" font-size="9.00">ButtonText.tsx</text>
</a>
</g>
</g>
<!-- src/ts/ui/site/footer/SiteFooter.tsx&#45;&gt;src/ts/ui/component/button/text/ButtonText.tsx -->
<g id="edge53" class="edge">
<title>src/ts/ui/site/footer/SiteFooter.tsx&#45;&gt;src/ts/ui/component/button/text/ButtonText.tsx</title>
<path fill="none" stroke="#000000" stroke-width="2" stroke-opacity="0.200000" d="M332.82,-961.62C346.11,-968.29 361.45,-978.59 369.25,-993 382.34,-1017.19 357.65,-1468.71 377.25,-1488 399.11,-1509.51 493,-1509.11 515.25,-1488 529.86,-1474.14 516.92,-1325.55 524.75,-1307 533.83,-1285.49 552.84,-1266.5 567.6,-1254.09"/>
<polygon fill="#000000" fill-opacity="0.200000" stroke="#000000" stroke-width="2" stroke-opacity="0.200000" points="568.75,-1255.86 572.08,-1250.45 566.1,-1252.6 568.75,-1255.86"/>
</g>
<!-- src/ts/ui/site/footer/SiteFooter.module.css -->
<g id="node48" class="node">
<title>src/ts/ui/site/footer/SiteFooter.module.css</title>
<g id="a_node48"><a xlink:href="src/ts/ui/site/footer/SiteFooter.module.css" xlink:title="SiteFooter.module.css">
<path fill="#ffffcc" stroke="black" d="M498.83,-961.25C498.83,-961.25 405.17,-961.25 405.17,-961.25 402.08,-961.25 399,-958.17 399,-955.08 399,-955.08 399,-948.92 399,-948.92 399,-945.83 402.08,-942.75 405.17,-942.75 405.17,-942.75 498.83,-942.75 498.83,-942.75 501.92,-942.75 505,-945.83 505,-948.92 505,-948.92 505,-955.08 505,-955.08 505,-958.17 501.92,-961.25 498.83,-961.25"/>
<text text-anchor="start" x="407" y="-948.7" font-family="Helvetica,sans-Serif" font-size="9.00">SiteFooter.module.css</text>
</a>
</g>
</g>
<!-- src/ts/ui/site/footer/SiteFooter.tsx&#45;&gt;src/ts/ui/site/footer/SiteFooter.module.css -->
<g id="edge54" class="edge">
<title>src/ts/ui/site/footer/SiteFooter.tsx&#45;&gt;src/ts/ui/site/footer/SiteFooter.module.css</title>
<path fill="none" stroke="#000000" stroke-width="2" stroke-opacity="0.200000" d="M343.45,-952C357.48,-952 374.09,-952 390.01,-952"/>
<polygon fill="#000000" fill-opacity="0.200000" stroke="#000000" stroke-width="2" stroke-opacity="0.200000" points="389.73,-954.1 395.73,-952 389.73,-949.9 389.73,-954.1"/>
</g>
<!-- src/ts/ui/site/header/SiteHeader.module.css -->
<g id="node49" class="node">
<title>src/ts/ui/site/header/SiteHeader.module.css</title>
<g id="a_node49"><a xlink:href="src/ts/ui/site/header/SiteHeader.module.css" xlink:title="SiteHeader.module.css">
<path fill="#ffffcc" stroke="black" d="M501.08,-1022.25C501.08,-1022.25 402.92,-1022.25 402.92,-1022.25 399.83,-1022.25 396.75,-1019.17 396.75,-1016.08 396.75,-1016.08 396.75,-1009.92 396.75,-1009.92 396.75,-1006.83 399.83,-1003.75 402.92,-1003.75 402.92,-1003.75 501.08,-1003.75 501.08,-1003.75 504.17,-1003.75 507.25,-1006.83 507.25,-1009.92 507.25,-1009.92 507.25,-1016.08 507.25,-1016.08 507.25,-1019.17 504.17,-1022.25 501.08,-1022.25"/>
<text text-anchor="start" x="404.75" y="-1009.7" font-family="Helvetica,sans-Serif" font-size="9.00">SiteHeader.module.css</text>
</a>
</g>
</g>
<!-- src/ts/ui/site/header/SiteHeader.tsx&#45;&gt;src/ts/ui/site/header/SiteHeader.module.css -->
<g id="edge55" class="edge">
<title>src/ts/ui/site/header/SiteHeader.tsx&#45;&gt;src/ts/ui/site/header/SiteHeader.module.css</title>
<path fill="none" stroke="#000000" stroke-width="2" stroke-opacity="0.200000" d="M345.66,-1013C358.49,-1013 373.25,-1013 387.59,-1013"/>
<polygon fill="#000000" fill-opacity="0.200000" stroke="#000000" stroke-width="2" stroke-opacity="0.200000" points="387.42,-1015.1 393.42,-1013 387.42,-1010.9 387.42,-1015.1"/>
</g>
<!-- src/ts/ui/site/project/SiteProject.tsx&#45;&gt;src/ts/motion/duration.ts -->
<g id="edge56" class="edge">
<title>src/ts/ui/site/project/SiteProject.tsx&#45;&gt;src/ts/motion/duration.ts</title>
<path fill="none" stroke="#000000" stroke-width="2" stroke-opacity="0.200000" d="M308.95,-1130.59C311,-1186.58 323.94,-1470.87 377.25,-1536 501.74,-1688.1 620.53,-1648.62 813.25,-1610 830.2,-1606.6 848.1,-1599.25 862.09,-1592.56"/>
<polygon fill="#000000" fill-opacity="0.200000" stroke="#000000" stroke-width="2" stroke-opacity="0.200000" points="862.67,-1594.61 867.12,-1590.07 860.81,-1590.85 862.67,-1594.61"/>
</g>
<!-- src/ts/ui/site/project/SiteProject.tsx&#45;&gt;src/ts/motion/ease.ts -->
<g id="edge57" class="edge">
<title>src/ts/ui/site/project/SiteProject.tsx&#45;&gt;src/ts/motion/ease.ts</title>
<path fill="none" stroke="#000000" stroke-width="2" stroke-opacity="0.200000" d="M308.82,-1130.68C310.12,-1185.9 319.49,-1460.58 377.25,-1516 467.98,-1603.05 634.76,-1584.71 707.28,-1571.51"/>
<polygon fill="#000000" fill-opacity="0.200000" stroke="#000000" stroke-width="2" stroke-opacity="0.200000" points="707.57,-1573.59 713.08,-1570.41 706.79,-1569.46 707.57,-1573.59"/>
</g>
<!-- src/ts/ui/component/viewer/MediaViewer.tsx -->
<g id="node32" class="node">
<title>src/ts/ui/component/viewer/MediaViewer.tsx</title>
<g id="a_node32"><a xlink:href="src/ts/ui/component/viewer/MediaViewer.tsx" xlink:title="MediaViewer.tsx">
<path fill="#bbfeff" stroke="black" d="M623.83,-1444.25C623.83,-1444.25 553.42,-1444.25 553.42,-1444.25 550.33,-1444.25 547.25,-1441.17 547.25,-1438.08 547.25,-1438.08 547.25,-1431.92 547.25,-1431.92 547.25,-1428.83 550.33,-1425.75 553.42,-1425.75 553.42,-1425.75 623.83,-1425.75 623.83,-1425.75 626.92,-1425.75 630,-1428.83 630,-1431.92 630,-1431.92 630,-1438.08 630,-1438.08 630,-1441.17 626.92,-1444.25 623.83,-1444.25"/>
<text text-anchor="start" x="555.25" y="-1431.7" font-family="Helvetica,sans-Serif" font-size="9.00">MediaViewer.tsx</text>
</a>
</g>
</g>
<!-- src/ts/ui/site/project/SiteProject.tsx&#45;&gt;src/ts/ui/component/viewer/MediaViewer.tsx -->
<g id="edge58" class="edge">
<title>src/ts/ui/site/project/SiteProject.tsx&#45;&gt;src/ts/ui/component/viewer/MediaViewer.tsx</title>
<path fill="none" stroke="#000000" stroke-width="2" stroke-opacity="0.200000" d="M308.78,-1130.41C309.87,-1184.06 318.23,-1450.71 377.25,-1500 424.32,-1539.32 457.98,-1521.94 515.25,-1500 540.69,-1490.25 562.8,-1466.99 575.68,-1451.1"/>
<polygon fill="#000000" fill-opacity="0.200000" stroke="#000000" stroke-width="2" stroke-opacity="0.200000" points="577.02,-1452.8 579.06,-1446.78 573.71,-1450.21 577.02,-1452.8"/>
</g>
<!-- src/ts/ui/site/project/SiteProject.module.css -->
<g id="node50" class="node">
<title>src/ts/ui/site/project/SiteProject.module.css</title>
<g id="a_node50"><a xlink:href="src/ts/ui/site/project/SiteProject.module.css" xlink:title="SiteProject.module.css">
<path fill="#ffffcc" stroke="black" d="M500.33,-1083.25C500.33,-1083.25 403.67,-1083.25 403.67,-1083.25 400.58,-1083.25 397.5,-1080.17 397.5,-1077.08 397.5,-1077.08 397.5,-1070.92 397.5,-1070.92 397.5,-1067.83 400.58,-1064.75 403.67,-1064.75 403.67,-1064.75 500.33,-1064.75 500.33,-1064.75 503.42,-1064.75 506.5,-1067.83 506.5,-1070.92 506.5,-1070.92 506.5,-1077.08 506.5,-1077.08 506.5,-1080.17 503.42,-1083.25 500.33,-1083.25"/>
<text text-anchor="start" x="405.5" y="-1070.7" font-family="Helvetica,sans-Serif" font-size="9.00">SiteProject.module.css</text>
</a>
</g>
</g>
<!-- src/ts/ui/site/project/SiteProject.tsx&#45;&gt;src/ts/ui/site/project/SiteProject.module.css -->
<g id="edge59" class="edge">
<title>src/ts/ui/site/project/SiteProject.tsx&#45;&gt;src/ts/ui/site/project/SiteProject.module.css</title>
<path fill="none" stroke="#000000" stroke-width="2" stroke-opacity="0.200000" d="M325.59,-1111.3C339.17,-1103.92 358.92,-1094.03 377.25,-1088 380.9,-1086.8 384.69,-1085.69 388.53,-1084.66"/>
<polygon fill="#000000" fill-opacity="0.200000" stroke="#000000" stroke-width="2" stroke-opacity="0.200000" points="388.76,-1086.77 394.07,-1083.29 387.74,-1082.7 388.76,-1086.77"/>
</g>
<!-- src/ts/ui/site/project/text/SiteProjectText.tsx -->
<g id="node51" class="node">
<title>src/ts/ui/site/project/text/SiteProjectText.tsx</title>
<g id="a_node51"><a xlink:href="src/ts/ui/site/project/text/SiteProjectText.tsx" xlink:title="SiteProjectText.tsx">
<path fill="#bbfeff" stroke="black" d="M490.96,-1117.25C490.96,-1117.25 413.04,-1117.25 413.04,-1117.25 409.96,-1117.25 406.88,-1114.17 406.88,-1111.08 406.88,-1111.08 406.88,-1104.92 406.88,-1104.92 406.88,-1101.83 409.96,-1098.75 413.04,-1098.75 413.04,-1098.75 490.96,-1098.75 490.96,-1098.75 494.04,-1098.75 497.12,-1101.83 497.12,-1104.92 497.12,-1104.92 497.12,-1111.08 497.12,-1111.08 497.12,-1114.17 494.04,-1117.25 490.96,-1117.25"/>
<text text-anchor="start" x="414.88" y="-1104.7" font-family="Helvetica,sans-Serif" font-size="9.00">SiteProjectText.tsx</text>
</a>
</g>
</g>
<!-- src/ts/ui/site/project/SiteProject.tsx&#45;&gt;src/ts/ui/site/project/text/SiteProjectText.tsx -->
<g id="edge60" class="edge">
<title>src/ts/ui/site/project/SiteProject.tsx&#45;&gt;src/ts/ui/site/project/text/SiteProjectText.tsx</title>
<path fill="none" stroke="#000000" stroke-width="2" stroke-opacity="0.200000" d="M344.92,-1117.69C361.06,-1116.21 380.39,-1114.45 398.09,-1112.83"/>
<polygon fill="#000000" fill-opacity="0.200000" stroke="#000000" stroke-width="2" stroke-opacity="0.200000" points="397.83,-1114.96 403.62,-1112.33 397.45,-1110.78 397.83,-1114.96"/>
</g>
<!-- src/ts/ui/background/BackgroundController.ts -->
<g id="node18" class="node">
<title>src/ts/ui/background/BackgroundController.ts</title>
<g id="a_node18"><a xlink:href="src/ts/ui/background/BackgroundController.ts" xlink:title="BackgroundController.ts">
<path fill="#ddfeff" stroke="black" d="M358.58,-624.25C358.58,-624.25 256.67,-624.25 256.67,-624.25 253.58,-624.25 250.5,-621.17 250.5,-618.08 250.5,-618.08 250.5,-611.92 250.5,-611.92 250.5,-608.83 253.58,-605.75 256.67,-605.75 256.67,-605.75 358.58,-605.75 358.58,-605.75 361.67,-605.75 364.75,-608.83 364.75,-611.92 364.75,-611.92 364.75,-618.08 364.75,-618.08 364.75,-621.17 361.67,-624.25 358.58,-624.25"/>
<text text-anchor="start" x="258.5" y="-611.7" font-family="Helvetica,sans-Serif" font-size="9.00">BackgroundController.ts</text>
</a>
</g>
</g>
<!-- src/ts/ui/background/BackgroundController.ts&#45;&gt;src/ts/store/uiState/uiStateStore.ts -->
<g id="edge13" class="edge">
<title>src/ts/ui/background/BackgroundController.ts&#45;&gt;src/ts/store/uiState/uiStateStore.ts</title>
<path fill="none" stroke="#000000" stroke-width="2" stroke-opacity="0.200000" d="M317.78,-605.35C331.92,-589.72 358.57,-557.26 369.25,-524 385.23,-474.25 359.91,-338.29 377.25,-289 413.56,-185.82 426.94,-140.95 524.75,-92 584.85,-61.92 666.07,-82.1 710.38,-97.38"/>
<polygon fill="#000000" fill-opacity="0.200000" stroke="#000000" stroke-width="2" stroke-opacity="0.200000" points="709.53,-99.3 715.88,-99.34 710.94,-95.35 709.53,-99.3"/>
</g>
<!-- src/ts/ui/background/camera/CameraController.ts -->
<g id="node19" class="node">
<title>src/ts/ui/background/camera/CameraController.ts</title>
<g id="a_node19"><a xlink:href="src/ts/ui/background/camera/CameraController.ts" xlink:title="CameraController.ts">
<path fill="#ddfeff" stroke="black" d="M494.71,-590.25C494.71,-590.25 409.29,-590.25 409.29,-590.25 406.21,-590.25 403.12,-587.17 403.12,-584.08 403.12,-584.08 403.12,-577.92 403.12,-577.92 403.12,-574.83 406.21,-571.75 409.29,-571.75 409.29,-571.75 494.71,-571.75 494.71,-571.75 497.79,-571.75 500.88,-574.83 500.88,-577.92 500.88,-577.92 500.88,-584.08 500.88,-584.08 500.88,-587.17 497.79,-590.25 494.71,-590.25"/>
<text text-anchor="start" x="411.12" y="-577.7" font-family="Helvetica,sans-Serif" font-size="9.00">CameraController.ts</text>
</a>
</g>
</g>
<!-- src/ts/ui/background/BackgroundController.ts&#45;&gt;src/ts/ui/background/camera/CameraController.ts -->
<g id="edge14" class="edge">
<title>src/ts/ui/background/BackgroundController.ts&#45;&gt;src/ts/ui/background/camera/CameraController.ts</title>
<path fill="none" stroke="#000000" stroke-width="2" stroke-opacity="0.200000" d="M349.42,-605.26C365.66,-601.38 384.49,-596.88 401.49,-592.82"/>
<polygon fill="#000000" fill-opacity="0.200000" stroke="#000000" stroke-width="2" stroke-opacity="0.200000" points="401.9,-594.88 407.25,-591.45 400.93,-590.8 401.9,-594.88"/>
</g>
<!-- src/ts/ui/background/content/ContentController.ts -->
<g id="node20" class="node">
<title>src/ts/ui/background/content/ContentController.ts</title>
<g id="a_node20"><a xlink:href="src/ts/ui/background/content/ContentController.ts" xlink:title="ContentController.ts">
<path fill="#ddfeff" stroke="black" d="M494.33,-659.25C494.33,-659.25 409.67,-659.25 409.67,-659.25 406.58,-659.25 403.5,-656.17 403.5,-653.08 403.5,-653.08 403.5,-646.92 403.5,-646.92 403.5,-643.83 406.58,-640.75 409.67,-640.75 409.67,-640.75 494.33,-640.75 494.33,-640.75 497.42,-640.75 500.5,-643.83 500.5,-646.92 500.5,-646.92 500.5,-653.08 500.5,-653.08 500.5,-656.17 497.42,-659.25 494.33,-659.25"/>
<text text-anchor="start" x="411.5" y="-646.7" font-family="Helvetica,sans-Serif" font-size="9.00">ContentController.ts</text>
</a>
</g>
</g>
<!-- src/ts/ui/background/BackgroundController.ts&#45;&gt;src/ts/ui/background/content/ContentController.ts -->
<g id="edge15" class="edge">
<title>src/ts/ui/background/BackgroundController.ts&#45;&gt;src/ts/ui/background/content/ContentController.ts</title>
<path fill="none" stroke="#000000" stroke-width="2" stroke-opacity="0.200000" d="M348.28,-624.75C365.25,-628.92 385.22,-633.83 403.02,-638.2"/>
<polygon fill="#000000" fill-opacity="0.200000" stroke="#000000" stroke-width="2" stroke-opacity="0.200000" points="402.29,-640.19 408.61,-639.58 403.29,-636.11 402.29,-640.19"/>
</g>
<!-- src/ts/ui/background/light/LightController.ts -->
<g id="node21" class="node">
<title>src/ts/ui/background/light/LightController.ts</title>
<g id="a_node21"><a xlink:href="src/ts/ui/background/light/LightController.ts" xlink:title="LightController.ts">
<path fill="#ddfeff" stroke="black" d="M488.33,-778.25C488.33,-778.25 415.67,-778.25 415.67,-778.25 412.58,-778.25 409.5,-775.17 409.5,-772.08 409.5,-772.08 409.5,-765.92 409.5,-765.92 409.5,-762.83 412.58,-759.75 415.67,-759.75 415.67,-759.75 488.33,-759.75 488.33,-759.75 491.42,-759.75 494.5,-762.83 494.5,-765.92 494.5,-765.92 494.5,-772.08 494.5,-772.08 494.5,-775.17 491.42,-778.25 488.33,-778.25"/>
<text text-anchor="start" x="417.5" y="-765.7" font-family="Helvetica,sans-Serif" font-size="9.00">LightController.ts</text>
</a>
</g>
</g>
<!-- src/ts/ui/background/BackgroundController.ts&#45;&gt;src/ts/ui/background/light/LightController.ts -->
<g id="edge16" class="edge">
<title>src/ts/ui/background/BackgroundController.ts&#45;&gt;src/ts/ui/background/light/LightController.ts</title>
<path fill="none" stroke="#000000" stroke-width="2" stroke-opacity="0.200000" d="M362.35,-624.69C364.9,-626.48 367.24,-628.57 369.25,-631 385.71,-650.91 361.11,-726.83 377.25,-747 383.26,-754.51 391.72,-759.53 400.77,-762.88"/>
<polygon fill="#000000" fill-opacity="0.200000" stroke="#000000" stroke-width="2" stroke-opacity="0.200000" points="399.96,-764.83 406.32,-764.6 401.21,-760.81 399.96,-764.83"/>
</g>
<!-- src/ts/ui/background/render/RenderController.ts -->
<g id="node22" class="node">
<title>src/ts/ui/background/render/RenderController.ts</title>
<g id="a_node22"><a xlink:href="src/ts/ui/background/render/RenderController.ts" xlink:title="RenderController.ts">
<path fill="#ddfeff" stroke="black" d="M493.58,-839.25C493.58,-839.25 410.42,-839.25 410.42,-839.25 407.33,-839.25 404.25,-836.17 404.25,-833.08 404.25,-833.08 404.25,-826.92 404.25,-826.92 404.25,-823.83 407.33,-820.75 410.42,-820.75 410.42,-820.75 493.58,-820.75 493.58,-820.75 496.67,-820.75 499.75,-823.83 499.75,-826.92 499.75,-826.92 499.75,-833.08 499.75,-833.08 499.75,-836.17 496.67,-839.25 493.58,-839.25"/>
<text text-anchor="start" x="412.25" y="-826.7" font-family="Helvetica,sans-Serif" font-size="9.00">RenderController.ts</text>
</a>
</g>
</g>
<!-- src/ts/ui/background/BackgroundController.ts&#45;&gt;src/ts/ui/background/render/RenderController.ts -->
<g id="edge17" class="edge">
<title>src/ts/ui/background/BackgroundController.ts&#45;&gt;src/ts/ui/background/render/RenderController.ts</title>
<path fill="none" stroke="#000000" stroke-width="2" stroke-opacity="0.200000" d="M362.42,-624.64C364.96,-626.44 367.27,-628.54 369.25,-631 381.61,-646.32 365.13,-792.48 377.25,-808 382.14,-814.26 388.74,-818.8 395.99,-822.08"/>
<polygon fill="#000000" fill-opacity="0.200000" stroke="#000000" stroke-width="2" stroke-opacity="0.200000" points="394.88,-823.91 401.24,-824.09 396.38,-819.99 394.88,-823.91"/>
</g>
<!-- src/ts/ui/background/content/cursor/Cursor.ts -->
<g id="node25" class="node">
<title>src/ts/ui/background/content/cursor/Cursor.ts</title>
<g id="a_node25"><a xlink:href="src/ts/ui/background/content/cursor/Cursor.ts" xlink:title="Cursor.ts">
<path fill="#ddfeff" stroke="black" d="M609.46,-659.25C609.46,-659.25 567.79,-659.25 567.79,-659.25 564.71,-659.25 561.62,-656.17 561.62,-653.08 561.62,-653.08 561.62,-646.92 561.62,-646.92 561.62,-643.83 564.71,-640.75 567.79,-640.75 567.79,-640.75 609.46,-640.75 609.46,-640.75 612.54,-640.75 615.62,-643.83 615.62,-646.92 615.62,-646.92 615.62,-653.08 615.62,-653.08 615.62,-656.17 612.54,-659.25 609.46,-659.25"/>
<text text-anchor="start" x="570.62" y="-646.7" font-family="Helvetica,sans-Serif" font-size="9.00">Cursor.ts</text>
</a>
</g>
</g>
<!-- src/ts/ui/background/content/ContentController.ts&#45;&gt;src/ts/ui/background/content/cursor/Cursor.ts -->
<g id="edge21" class="edge">
<title>src/ts/ui/background/content/ContentController.ts&#45;&gt;src/ts/ui/background/content/cursor/Cursor.ts</title>
<path fill="none" stroke="#000000" stroke-width="2" stroke-opacity="0.200000" d="M500.84,-650C517.9,-650 536.78,-650 552.57,-650"/>
<polygon fill="#000000" fill-opacity="0.200000" stroke="#000000" stroke-width="2" stroke-opacity="0.200000" points="552.44,-652.1 558.44,-650 552.44,-647.9 552.44,-652.1"/>
</g>
<!-- src/ts/ui/background/content/cursor/CursorController.ts -->
<g id="node26" class="node">
<title>src/ts/ui/background/content/cursor/CursorController.ts</title>
<g id="a_node26"><a xlink:href="src/ts/ui/background/content/cursor/CursorController.ts" xlink:title="CursorController.ts">
<path fill="#ddfeff" stroke="black" d="M628.71,-690.25C628.71,-690.25 548.54,-690.25 548.54,-690.25 545.46,-690.25 542.38,-687.17 542.38,-684.08 542.38,-684.08 542.38,-677.92 542.38,-677.92 542.38,-674.83 545.46,-671.75 548.54,-671.75 548.54,-671.75 628.71,-671.75 628.71,-671.75 631.79,-671.75 634.88,-674.83 634.88,-677.92 634.88,-677.92 634.88,-684.08 634.88,-684.08 634.88,-687.17 631.79,-690.25 628.71,-690.25"/>
<text text-anchor="start" x="550.38" y="-677.7" font-family="Helvetica,sans-Serif" font-size="9.00">CursorController.ts</text>
</a>
</g>
</g>
<!-- src/ts/ui/background/content/ContentController.ts&#45;&gt;src/ts/ui/background/content/cursor/CursorController.ts -->
<g id="edge22" class="edge">
<title>src/ts/ui/background/content/ContentController.ts&#45;&gt;src/ts/ui/background/content/cursor/CursorController.ts</title>
<path fill="none" stroke="#000000" stroke-width="2" stroke-opacity="0.200000" d="M495.23,-659.72C508.51,-662.78 523.31,-666.19 537.11,-669.37"/>
<polygon fill="#000000" fill-opacity="0.200000" stroke="#000000" stroke-width="2" stroke-opacity="0.200000" points="536.28,-671.33 542.6,-670.63 537.22,-667.24 536.28,-671.33"/>
</g>
<!-- src/ts/ui/background/UIBackground.module.css -->
<g id="node23" class="node">
<title>src/ts/ui/background/UIBackground.module.css</title>
<g id="a_node23"><a xlink:href="src/ts/ui/background/UIBackground.module.css" xlink:title="UIBackground.module.css">
<path fill="#ffffcc" stroke="black" d="M363.08,-655.25C363.08,-655.25 252.17,-655.25 252.17,-655.25 249.08,-655.25 246,-652.17 246,-649.08 246,-649.08 246,-642.92 246,-642.92 246,-639.83 249.08,-636.75 252.17,-636.75 252.17,-636.75 363.08,-636.75 363.08,-636.75 366.17,-636.75 369.25,-639.83 369.25,-642.92 369.25,-642.92 369.25,-649.08 369.25,-649.08 369.25,-652.17 366.17,-655.25 363.08,-655.25"/>
<text text-anchor="start" x="254" y="-642.7" font-family="Helvetica,sans-Serif" font-size="9.00">UIBackground.module.css</text>
</a>
</g>
</g>
<!-- src/ts/ui/background/UIBackground.tsx -->
<g id="node24" class="node">
<title>src/ts/ui/background/UIBackground.tsx</title>
<g id="a_node24"><a xlink:href="src/ts/ui/background/UIBackground.tsx" xlink:title="UIBackground.tsx">
<path fill="#bbfeff" stroke="black" d="M205.33,-624.25C205.33,-624.25 129.67,-624.25 129.67,-624.25 126.58,-624.25 123.5,-621.17 123.5,-618.08 123.5,-618.08 123.5,-611.92 123.5,-611.92 123.5,-608.83 126.58,-605.75 129.67,-605.75 129.67,-605.75 205.33,-605.75 205.33,-605.75 208.42,-605.75 211.5,-608.83 211.5,-611.92 211.5,-611.92 211.5,-618.08 211.5,-618.08 211.5,-621.17 208.42,-624.25 205.33,-624.25"/>
<text text-anchor="start" x="131.5" y="-611.7" font-family="Helvetica,sans-Serif" font-size="9.00">UIBackground.tsx</text>
</a>
</g>
</g>
<!-- src/ts/ui/background/UIBackground.tsx&#45;&gt;src/ts/store/uiState/uiStateStore.ts -->
<g id="edge18" class="edge">
<title>src/ts/ui/background/UIBackground.tsx&#45;&gt;src/ts/store/uiState/uiStateStore.ts</title>
<path fill="none" stroke="#000000" stroke-width="2" stroke-opacity="0.200000" d="M180.25,-605.62C193.42,-594.29 214.07,-573.88 222.75,-551 237.14,-513.07 214.39,-223.12 230.75,-186 267.06,-103.58 293.66,-79.52 377.25,-46 408.11,-33.62 650.88,-24.8 676.5,-46 691.14,-58.11 672.28,-73.44 684.5,-88 688.09,-92.28 692.6,-95.72 697.52,-98.5"/>
<polygon fill="#000000" fill-opacity="0.200000" stroke="#000000" stroke-width="2" stroke-opacity="0.200000" points="696.46,-100.32 702.78,-101.03 698.28,-96.54 696.46,-100.32"/>
</g>
<!-- src/ts/ui/background/UIBackground.tsx&#45;&gt;src/ts/ui/background/BackgroundController.ts -->
<g id="edge19" class="edge">
<title>src/ts/ui/background/UIBackground.tsx&#45;&gt;src/ts/ui/background/BackgroundController.ts</title>
<path fill="none" stroke="#000000" stroke-width="2" stroke-opacity="0.200000" d="M211.82,-615C221.25,-615 231.42,-615 241.48,-615"/>
<polygon fill="#000000" fill-opacity="0.200000" stroke="#000000" stroke-width="2" stroke-opacity="0.200000" points="241.24,-617.1 247.24,-615 241.24,-612.9 241.24,-617.1"/>
</g>
<!-- src/ts/ui/background/UIBackground.tsx&#45;&gt;src/ts/ui/background/UIBackground.module.css -->
<g id="edge20" class="edge">
<title>src/ts/ui/background/UIBackground.tsx&#45;&gt;src/ts/ui/background/UIBackground.module.css</title>
<path fill="none" stroke="#000000" stroke-width="2" stroke-opacity="0.200000" d="M209.09,-624.68C213.7,-625.79 218.33,-626.92 222.75,-628 226.31,-628.87 227.18,-629.18 230.75,-630 237.21,-631.49 243.99,-632.99 250.72,-634.46"/>
<polygon fill="#000000" fill-opacity="0.200000" stroke="#000000" stroke-width="2" stroke-opacity="0.200000" points="249.94,-636.44 256.25,-635.65 250.83,-632.33 249.94,-636.44"/>
</g>
<!-- src/ts/ui/background/content/cursor/CursorController.ts&#45;&gt;src/ts/store/uiState/uiStateStore.ts -->
<g id="edge23" class="edge">
<title>src/ts/ui/background/content/cursor/CursorController.ts&#45;&gt;src/ts/store/uiState/uiStateStore.ts</title>
<path fill="none" stroke="#000000" stroke-width="2" stroke-opacity="0.200000" d="M634.95,-682.93C650.14,-681.17 665.9,-676.3 676.5,-665 714.18,-624.84 736.93,-219.55 741.6,-128.22"/>
<polygon fill="#000000" fill-opacity="0.200000" stroke="#000000" stroke-width="2" stroke-opacity="0.200000" points="743.69,-128.43 741.9,-122.33 739.5,-128.22 743.69,-128.43"/>
</g>
<!-- src/ts/ui/component/button/text/ButtonText.module.css -->
<g id="node27" class="node">
<title>src/ts/ui/component/button/text/ButtonText.module.css</title>
<g id="a_node27"><a xlink:href="src/ts/ui/component/button/text/ButtonText.module.css" xlink:title="ButtonText.module.css">
<path fill="#ffffcc" stroke="black" d="M791.08,-1248.25C791.08,-1248.25 695.92,-1248.25 695.92,-1248.25 692.83,-1248.25 689.75,-1245.17 689.75,-1242.08 689.75,-1242.08 689.75,-1235.92 689.75,-1235.92 689.75,-1232.83 692.83,-1229.75 695.92,-1229.75 695.92,-1229.75 791.08,-1229.75 791.08,-1229.75 794.17,-1229.75 797.25,-1232.83 797.25,-1235.92 797.25,-1235.92 797.25,-1242.08 797.25,-1242.08 797.25,-1245.17 794.17,-1248.25 791.08,-1248.25"/>
<text text-anchor="start" x="697.75" y="-1235.7" font-family="Helvetica,sans-Serif" font-size="9.00">ButtonText.module.css</text>
</a>
</g>
</g>
<!-- src/ts/ui/component/button/text/ButtonText.stories.tsx -->
<g id="node28" class="node">
<title>src/ts/ui/component/button/text/ButtonText.stories.tsx</title>
<g id="a_node28"><a xlink:href="src/ts/ui/component/button/text/ButtonText.stories.tsx" xlink:title="ButtonText.stories.tsx">
<path fill="#bbfeff" stroke="black" d="M496.58,-1248.25C496.58,-1248.25 407.42,-1248.25 407.42,-1248.25 404.33,-1248.25 401.25,-1245.17 401.25,-1242.08 401.25,-1242.08 401.25,-1235.92 401.25,-1235.92 401.25,-1232.83 404.33,-1229.75 407.42,-1229.75 407.42,-1229.75 496.58,-1229.75 496.58,-1229.75 499.67,-1229.75 502.75,-1232.83 502.75,-1235.92 502.75,-1235.92 502.75,-1242.08 502.75,-1242.08 502.75,-1245.17 499.67,-1248.25 496.58,-1248.25"/>
<text text-anchor="start" x="409.25" y="-1235.7" font-family="Helvetica,sans-Serif" font-size="9.00">ButtonText.stories.tsx</text>
</a>
</g>
</g>
<!-- src/ts/ui/component/button/text/ButtonText.stories.tsx&#45;&gt;src/ts/ui/component/button/text/ButtonText.tsx -->
<g id="edge24" class="edge">
<title>src/ts/ui/component/button/text/ButtonText.stories.tsx&#45;&gt;src/ts/ui/component/button/text/ButtonText.tsx</title>
<path fill="none" stroke="#000000" stroke-width="2" stroke-opacity="0.200000" d="M503.13,-1239C516.37,-1239 530.56,-1239 543.46,-1239"/>
<polygon fill="#000000" fill-opacity="0.200000" stroke="#000000" stroke-width="2" stroke-opacity="0.200000" points="543.13,-1241.1 549.13,-1239 543.13,-1236.9 543.13,-1241.1"/>
</g>
<!-- src/ts/ui/component/button/text/ButtonText.tsx&#45;&gt;src/ts/motion/duration.ts -->
<g id="edge25" class="edge">
<title>src/ts/ui/component/button/text/ButtonText.tsx&#45;&gt;src/ts/motion/duration.ts</title>
<path fill="none" stroke="#000000" stroke-width="2" stroke-opacity="0.200000" d="M610.37,-1248.64C631.2,-1259.55 662.19,-1279.47 676.5,-1307 692.3,-1337.41 664.88,-1432.9 684.5,-1461 720.12,-1512.02 760.32,-1483.28 813.25,-1516 835.25,-1529.6 857.47,-1549.44 871.79,-1563.21"/>
<polygon fill="#000000" fill-opacity="0.200000" stroke="#000000" stroke-width="2" stroke-opacity="0.200000" points="870.23,-1564.62 875.99,-1567.31 873.16,-1561.61 870.23,-1564.62"/>
</g>
<!-- src/ts/ui/component/button/text/ButtonText.tsx&#45;&gt;src/ts/motion/ease.ts -->
<g id="edge26" class="edge">
<title>src/ts/ui/component/button/text/ButtonText.tsx&#45;&gt;src/ts/motion/ease.ts</title>
<path fill="none" stroke="#000000" stroke-width="2" stroke-opacity="0.200000" d="M610.45,-1248.6C631.34,-1259.48 662.38,-1279.37 676.5,-1307 697.55,-1348.19 664.22,-1473.43 684.5,-1515 691.54,-1529.42 705,-1541.21 717.18,-1549.6"/>
<polygon fill="#000000" fill-opacity="0.200000" stroke="#000000" stroke-width="2" stroke-opacity="0.200000" points="715.82,-1551.22 721.99,-1552.74 718.11,-1547.7 715.82,-1551.22"/>
</g>
<!-- src/ts/ui/component/button/text/ButtonText.tsx&#45;&gt;src/ts/ui/component/button/text/ButtonText.module.css -->
<g id="edge27" class="edge">
<title>src/ts/ui/component/button/text/ButtonText.tsx&#45;&gt;src/ts/ui/component/button/text/ButtonText.module.css</title>
<path fill="none" stroke="#000000" stroke-width="2" stroke-opacity="0.200000" d="M625.08,-1239C641.61,-1239 661.76,-1239 680.67,-1239"/>
<polygon fill="#000000" fill-opacity="0.200000" stroke="#000000" stroke-width="2" stroke-opacity="0.200000" points="680.51,-1241.1 686.51,-1239 680.51,-1236.9 680.51,-1241.1"/>
</g>
<!-- src/ts/ui/component/viewer/MediaViewer.module.css -->
<g id="node30" class="node">
<title>src/ts/ui/component/viewer/MediaViewer.module.css</title>
<g id="a_node30"><a xlink:href="src/ts/ui/component/viewer/MediaViewer.module.css" xlink:title="MediaViewer.module.css">
<path fill="#ffffcc" stroke="black" d="M796.33,-1336.25C796.33,-1336.25 690.67,-1336.25 690.67,-1336.25 687.58,-1336.25 684.5,-1333.17 684.5,-1330.08 684.5,-1330.08 684.5,-1323.92 684.5,-1323.92 684.5,-1320.83 687.58,-1317.75 690.67,-1317.75 690.67,-1317.75 796.33,-1317.75 796.33,-1317.75 799.42,-1317.75 802.5,-1320.83 802.5,-1323.92 802.5,-1323.92 802.5,-1330.08 802.5,-1330.08 802.5,-1333.17 799.42,-1336.25 796.33,-1336.25"/>
<text text-anchor="start" x="692.5" y="-1323.7" font-family="Helvetica,sans-Serif" font-size="9.00">MediaViewer.module.css</text>
</a>
</g>
</g>
<!-- src/ts/ui/component/viewer/MediaViewer.stories.tsx -->
<g id="node31" class="node">
<title>src/ts/ui/component/viewer/MediaViewer.stories.tsx</title>
<g id="a_node31"><a xlink:href="src/ts/ui/component/viewer/MediaViewer.stories.tsx" xlink:title="MediaViewer.stories.tsx">
<path fill="#bbfeff" stroke="black" d="M501.83,-1444.25C501.83,-1444.25 402.17,-1444.25 402.17,-1444.25 399.08,-1444.25 396,-1441.17 396,-1438.08 396,-1438.08 396,-1431.92 396,-1431.92 396,-1428.83 399.08,-1425.75 402.17,-1425.75 402.17,-1425.75 501.83,-1425.75 501.83,-1425.75 504.92,-1425.75 508,-1428.83 508,-1431.92 508,-1431.92 508,-1438.08 508,-1438.08 508,-1441.17 504.92,-1444.25 501.83,-1444.25"/>
<text text-anchor="start" x="404" y="-1431.7" font-family="Helvetica,sans-Serif" font-size="9.00">MediaViewer.stories.tsx</text>
</a>
</g>
</g>
<!-- src/ts/ui/component/viewer/MediaViewer.stories.tsx&#45;&gt;src/ts/ui/component/viewer/MediaViewer.tsx -->
<g id="edge28" class="edge">
<title>src/ts/ui/component/viewer/MediaViewer.stories.tsx&#45;&gt;src/ts/ui/component/viewer/MediaViewer.tsx</title>
<path fill="none" stroke="#000000" stroke-width="2" stroke-opacity="0.200000" d="M508.15,-1435C518.04,-1435 528.3,-1435 538.03,-1435"/>
<polygon fill="#000000" fill-opacity="0.200000" stroke="#000000" stroke-width="2" stroke-opacity="0.200000" points="537.76,-1437.1 543.76,-1435 537.76,-1432.9 537.76,-1437.1"/>
</g>
<!-- src/ts/ui/component/viewer/MediaViewer.tsx&#45;&gt;src/ts/motion/duration.ts -->
<g id="edge29" class="edge">
<title>src/ts/ui/component/viewer/MediaViewer.tsx&#45;&gt;src/ts/motion/duration.ts</title>
<path fill="none" stroke="#000000" stroke-width="2" stroke-opacity="0.200000" d="M598.29,-1444.71C613.88,-1461.56 648.37,-1496.22 684.5,-1515 737.01,-1542.3 757.09,-1530.32 813.25,-1549 828.11,-1553.94 844.26,-1560.34 857.7,-1565.96"/>
<polygon fill="#000000" fill-opacity="0.200000" stroke="#000000" stroke-width="2" stroke-opacity="0.200000" points="856.55,-1567.75 862.89,-1568.16 858.18,-1563.88 856.55,-1567.75"/>
</g>
<!-- src/ts/ui/component/viewer/MediaViewer.tsx&#45;&gt;src/ts/motion/ease.ts -->
<g id="edge30" class="edge">
<title>src/ts/ui/component/viewer/MediaViewer.tsx&#45;&gt;src/ts/motion/ease.ts</title>
<path fill="none" stroke="#000000" stroke-width="2" stroke-opacity="0.200000" d="M596.5,-1444.59C610.91,-1464.14 646.16,-1509.13 684.5,-1537 691.71,-1542.24 700.1,-1546.85 708.22,-1550.71"/>
<polygon fill="#000000" fill-opacity="0.200000" stroke="#000000" stroke-width="2" stroke-opacity="0.200000" points="707.11,-1552.51 713.44,-1553.06 708.83,-1548.68 707.11,-1552.51"/>
</g>
<!-- src/ts/ui/component/viewer/MediaViewer.tsx&#45;&gt;src/ts/ui/component/viewer/MediaViewer.module.css -->
<g id="edge32" class="edge">
<title>src/ts/ui/component/viewer/MediaViewer.tsx&#45;&gt;src/ts/ui/component/viewer/MediaViewer.module.css</title>
<path fill="none" stroke="#000000" stroke-width="2" stroke-opacity="0.200000" d="M596.49,-1425.28C610.63,-1406.04 645.01,-1363.03 684.5,-1341 684.86,-1340.8 685.23,-1340.6 685.59,-1340.4"/>
<polygon fill="#000000" fill-opacity="0.200000" stroke="#000000" stroke-width="2" stroke-opacity="0.200000" points="686.32,-1342.38 690.89,-1337.96 684.56,-1338.57 686.32,-1342.38"/>
</g>
<!-- src/ts/ui/component/viewer/holder/MediaItem.tsx -->
<g id="node33" class="node">
<title>src/ts/ui/component/viewer/holder/MediaItem.tsx</title>
<g id="a_node33"><a xlink:href="src/ts/ui/component/viewer/holder/MediaItem.tsx" xlink:title="MediaItem.tsx">
<path fill="#bbfeff" stroke="black" d="M773.46,-1370.25C773.46,-1370.25 713.54,-1370.25 713.54,-1370.25 710.46,-1370.25 707.38,-1367.17 707.38,-1364.08 707.38,-1364.08 707.38,-1357.92 707.38,-1357.92 707.38,-1354.83 710.46,-1351.75 713.54,-1351.75 713.54,-1351.75 773.46,-1351.75 773.46,-1351.75 776.54,-1351.75 779.62,-1354.83 779.62,-1357.92 779.62,-1357.92 779.62,-1364.08 779.62,-1364.08 779.62,-1367.17 776.54,-1370.25 773.46,-1370.25"/>
<text text-anchor="start" x="715.38" y="-1357.7" font-family="Helvetica,sans-Serif" font-size="9.00">MediaItem.tsx</text>
</a>
</g>
</g>
<!-- src/ts/ui/component/viewer/MediaViewer.tsx&#45;&gt;src/ts/ui/component/viewer/holder/MediaItem.tsx -->
<g id="edge31" class="edge">
<title>src/ts/ui/component/viewer/MediaViewer.tsx&#45;&gt;src/ts/ui/component/viewer/holder/MediaItem.tsx</title>
<path fill="none" stroke="#000000" stroke-width="2" stroke-opacity="0.200000" d="M609.61,-1425.33C636.39,-1412.36 684.06,-1389.29 714.43,-1374.59"/>
<polygon fill="#000000" fill-opacity="0.200000" stroke="#000000" stroke-width="2" stroke-opacity="0.200000" points="715.3,-1376.5 719.78,-1372 713.47,-1372.72 715.3,-1376.5"/>
</g>
<!-- src/ts/ui/component/viewer/navigation/MediaNavigation.tsx -->
<g id="node34" class="node">
<title>src/ts/ui/component/viewer/navigation/MediaNavigation.tsx</title>
<g id="a_node34"><a xlink:href="src/ts/ui/component/viewer/navigation/MediaNavigation.tsx" xlink:title="MediaNavigation.tsx">
<path fill="#bbfeff" stroke="black" d="M786.96,-1431.25C786.96,-1431.25 700.04,-1431.25 700.04,-1431.25 696.96,-1431.25 693.88,-1428.17 693.88,-1425.08 693.88,-1425.08 693.88,-1418.92 693.88,-1418.92 693.88,-1415.83 696.96,-1412.75 700.04,-1412.75 700.04,-1412.75 786.96,-1412.75 786.96,-1412.75 790.04,-1412.75 793.12,-1415.83 793.12,-1418.92 793.12,-1418.92 793.12,-1425.08 793.12,-1425.08 793.12,-1428.17 790.04,-1431.25 786.96,-1431.25"/>
<text text-anchor="start" x="701.88" y="-1418.7" font-family="Helvetica,sans-Serif" font-size="9.00">MediaNavigation.tsx</text>
</a>
</g>
</g>
<!-- src/ts/ui/component/viewer/MediaViewer.tsx&#45;&gt;src/ts/ui/component/viewer/navigation/MediaNavigation.tsx -->
<g id="edge33" class="edge">
<title>src/ts/ui/component/viewer/MediaViewer.tsx&#45;&gt;src/ts/ui/component/viewer/navigation/MediaNavigation.tsx</title>
<path fill="none" stroke="#000000" stroke-width="2" stroke-opacity="0.200000" d="M630.19,-1431.55C646.92,-1430.13 666.6,-1428.45 684.78,-1426.91"/>
<polygon fill="#000000" fill-opacity="0.200000" stroke="#000000" stroke-width="2" stroke-opacity="0.200000" points="684.75,-1429.02 690.55,-1426.42 684.4,-1424.83 684.75,-1429.02"/>
</g>
<!-- src/ts/ui/component/viewer/holder/MediaItem.module.css -->
<g id="node35" class="node">
<title>src/ts/ui/component/viewer/holder/MediaItem.module.css</title>
<g id="a_node35"><a xlink:href="src/ts/ui/component/viewer/holder/MediaItem.module.css" xlink:title="MediaItem.module.css">
<path fill="#ffffcc" stroke="black" d="M936.08,-1370.25C936.08,-1370.25 840.92,-1370.25 840.92,-1370.25 837.83,-1370.25 834.75,-1367.17 834.75,-1364.08 834.75,-1364.08 834.75,-1357.92 834.75,-1357.92 834.75,-1354.83 837.83,-1351.75 840.92,-1351.75 840.92,-1351.75 936.08,-1351.75 936.08,-1351.75 939.17,-1351.75 942.25,-1354.83 942.25,-1357.92 942.25,-1357.92 942.25,-1364.08 942.25,-1364.08 942.25,-1367.17 939.17,-1370.25 936.08,-1370.25"/>
<text text-anchor="start" x="842.75" y="-1357.7" font-family="Helvetica,sans-Serif" font-size="9.00">MediaItem.module.css</text>
</a>
</g>
</g>
<!-- src/ts/ui/component/viewer/holder/MediaItem.tsx&#45;&gt;src/ts/ui/component/viewer/holder/MediaItem.module.css -->
<g id="edge34" class="edge">
<title>src/ts/ui/component/viewer/holder/MediaItem.tsx&#45;&gt;src/ts/ui/component/viewer/holder/MediaItem.module.css</title>
<path fill="none" stroke="#000000" stroke-width="2" stroke-opacity="0.200000" d="M779.85,-1361C793.74,-1361 810.09,-1361 825.8,-1361"/>
<polygon fill="#000000" fill-opacity="0.200000" stroke="#000000" stroke-width="2" stroke-opacity="0.200000" points="825.42,-1363.1 831.42,-1361 825.42,-1358.9 825.42,-1363.1"/>
</g>
<!-- src/ts/ui/component/viewer/navigation/MediaNavigation.module.css -->
<g id="node36" class="node">
<title>src/ts/ui/component/viewer/navigation/MediaNavigation.module.css</title>
<g id="a_node36"><a xlink:href="src/ts/ui/component/viewer/navigation/MediaNavigation.module.css" xlink:title="MediaNavigation.module.css">
<path fill="#ffffcc" stroke="black" d="M949.58,-1431.25C949.58,-1431.25 827.42,-1431.25 827.42,-1431.25 824.33,-1431.25 821.25,-1428.17 821.25,-1425.08 821.25,-1425.08 821.25,-1418.92 821.25,-1418.92 821.25,-1415.83 824.33,-1412.75 827.42,-1412.75 827.42,-1412.75 949.58,-1412.75 949.58,-1412.75 952.67,-1412.75 955.75,-1415.83 955.75,-1418.92 955.75,-1418.92 955.75,-1425.08 955.75,-1425.08 955.75,-1428.17 952.67,-1431.25 949.58,-1431.25"/>
<text text-anchor="start" x="829.25" y="-1418.7" font-family="Helvetica,sans-Serif" font-size="9.00">MediaNavigation.module.css</text>
</a>
</g>
</g>
<!-- src/ts/ui/component/viewer/navigation/MediaNavigation.tsx&#45;&gt;src/ts/ui/component/viewer/navigation/MediaNavigation.module.css -->
<g id="edge35" class="edge">
<title>src/ts/ui/component/viewer/navigation/MediaNavigation.tsx&#45;&gt;src/ts/ui/component/viewer/navigation/MediaNavigation.module.css</title>
<path fill="none" stroke="#000000" stroke-width="2" stroke-opacity="0.200000" d="M793.31,-1422C799.43,-1422 805.8,-1422 812.2,-1422"/>
<polygon fill="#000000" fill-opacity="0.200000" stroke="#000000" stroke-width="2" stroke-opacity="0.200000" points="811.92,-1424.1 817.92,-1422 811.92,-1419.9 811.92,-1424.1"/>
</g>
<!-- src/ts/ui/overlay/site&#45;control/UISiteControl.tsx&#45;&gt;src/ts/motion/fade.ts -->
<g id="edge39" class="edge">
<title>src/ts/ui/overlay/site&#45;control/UISiteControl.tsx&#45;&gt;src/ts/motion/fade.ts</title>
<path fill="none" stroke="#000000" stroke-width="2" stroke-opacity="0.200000" d="M313.55,-402.39C325.9,-426.55 358.03,-493.15 369.25,-553 371.64,-565.76 369.44,-1477.63 377.25,-1488 456.15,-1592.72 632.19,-1599.39 707.37,-1597.09"/>
<polygon fill="#000000" fill-opacity="0.200000" stroke="#000000" stroke-width="2" stroke-opacity="0.200000" points="707.08,-1599.2 713,-1596.88 706.92,-1595 707.08,-1599.2"/>
</g>
<!-- src/ts/ui/overlay/site&#45;control/UISiteControl.module.css -->
<g id="node40" class="node">
<title>src/ts/ui/overlay/site&#45;control/UISiteControl.module.css</title>
<g id="a_node40"><a xlink:href="src/ts/ui/overlay/site-control/UISiteControl.module.css" xlink:title="UISiteControl.module.css">
<path fill="#ffffcc" stroke="black" d="M505.58,-402.25C505.58,-402.25 398.42,-402.25 398.42,-402.25 395.33,-402.25 392.25,-399.17 392.25,-396.08 392.25,-396.08 392.25,-389.92 392.25,-389.92 392.25,-386.83 395.33,-383.75 398.42,-383.75 398.42,-383.75 505.58,-383.75 505.58,-383.75 508.67,-383.75 511.75,-386.83 511.75,-389.92 511.75,-389.92 511.75,-396.08 511.75,-396.08 511.75,-399.17 508.67,-402.25 505.58,-402.25"/>
<text text-anchor="start" x="400.25" y="-389.7" font-family="Helvetica,sans-Serif" font-size="9.00">UISiteControl.module.css</text>
</a>
</g>
</g>
<!-- src/ts/ui/overlay/site&#45;control/UISiteControl.tsx&#45;&gt;src/ts/ui/overlay/site&#45;control/UISiteControl.module.css -->
<g id="edge42" class="edge">
<title>src/ts/ui/overlay/site&#45;control/UISiteControl.tsx&#45;&gt;src/ts/ui/overlay/site&#45;control/UISiteControl.module.css</title>
<path fill="none" stroke="#000000" stroke-width="2" stroke-opacity="0.200000" d="M350.19,-393C360.49,-393 371.79,-393 382.99,-393"/>
<polygon fill="#000000" fill-opacity="0.200000" stroke="#000000" stroke-width="2" stroke-opacity="0.200000" points="382.9,-395.1 388.9,-393 382.9,-390.9 382.9,-395.1"/>
</g>
<!-- src/ts/ui/overlay/site&#45;control/scroll/ScrollProgress.tsx -->
<g id="node41" class="node">
<title>src/ts/ui/overlay/site&#45;control/scroll/ScrollProgress.tsx</title>
<g id="a_node41"><a xlink:href="src/ts/ui/overlay/site-control/scroll/ScrollProgress.tsx" xlink:title="ScrollProgress.tsx">
<path fill="#bbfeff" stroke="black" d="M490.58,-436.25C490.58,-436.25 413.42,-436.25 413.42,-436.25 410.33,-436.25 407.25,-433.17 407.25,-430.08 407.25,-430.08 407.25,-423.92 407.25,-423.92 407.25,-420.83 410.33,-417.75 413.42,-417.75 413.42,-417.75 490.58,-417.75 490.58,-417.75 493.67,-417.75 496.75,-420.83 496.75,-423.92 496.75,-423.92 496.75,-430.08 496.75,-430.08 496.75,-433.17 493.67,-436.25 490.58,-436.25"/>
<text text-anchor="start" x="415.25" y="-423.7" font-family="Helvetica,sans-Serif" font-size="9.00">ScrollProgress.tsx</text>
</a>
</g>
</g>
<!-- src/ts/ui/overlay/site&#45;control/UISiteControl.tsx&#45;&gt;src/ts/ui/overlay/site&#45;control/scroll/ScrollProgress.tsx -->
<g id="edge40" class="edge">
<title>src/ts/ui/overlay/site&#45;control/UISiteControl.tsx&#45;&gt;src/ts/ui/overlay/site&#45;control/scroll/ScrollProgress.tsx</title>
<path fill="none" stroke="#000000" stroke-width="2" stroke-opacity="0.200000" d="M337.46,-402.68C349.64,-406.55 364.04,-410.83 377.25,-414 384.16,-415.66 391.47,-417.2 398.71,-418.6"/>
<polygon fill="#000000" fill-opacity="0.200000" stroke="#000000" stroke-width="2" stroke-opacity="0.200000" points="397.88,-420.58 404.16,-419.62 398.65,-416.45 397.88,-420.58"/>
</g>
<!-- src/ts/ui/overlay/site&#45;control/theme/ThemeSwitcher.tsx -->
<g id="node42" class="node">
<title>src/ts/ui/overlay/site&#45;control/theme/ThemeSwitcher.tsx</title>
<g id="a_node42"><a xlink:href="src/ts/ui/overlay/site-control/theme/ThemeSwitcher.tsx" xlink:title="ThemeSwitcher.tsx">
<path fill="#bbfeff" stroke="black" d="M492.08,-318.25C492.08,-318.25 411.92,-318.25 411.92,-318.25 408.83,-318.25 405.75,-315.17 405.75,-312.08 405.75,-312.08 405.75,-305.92 405.75,-305.92 405.75,-302.83 408.83,-299.75 411.92,-299.75 411.92,-299.75 492.08,-299.75 492.08,-299.75 495.17,-299.75 498.25,-302.83 498.25,-305.92 498.25,-305.92 498.25,-312.08 498.25,-312.08 498.25,-315.17 495.17,-318.25 492.08,-318.25"/>
<text text-anchor="start" x="413.75" y="-305.7" font-family="Helvetica,sans-Serif" font-size="9.00">ThemeSwitcher.tsx</text>
</a>
</g>
</g>
<!-- src/ts/ui/overlay/site&#45;control/UISiteControl.tsx&#45;&gt;src/ts/ui/overlay/site&#45;control/theme/ThemeSwitcher.tsx -->
<g id="edge41" class="edge">
<title>src/ts/ui/overlay/site&#45;control/UISiteControl.tsx&#45;&gt;src/ts/ui/overlay/site&#45;control/theme/ThemeSwitcher.tsx</title>
<path fill="none" stroke="#000000" stroke-width="2" stroke-opacity="0.200000" d="M350.04,-390.4C357.29,-388.15 364.14,-384.58 369.25,-379 386.53,-360.14 359.48,-340.4 377.25,-322 382.57,-316.49 389.35,-312.82 396.64,-310.45"/>
<polygon fill="#000000" fill-opacity="0.200000" stroke="#000000" stroke-width="2" stroke-opacity="0.200000" points="397.14,-312.49 402.43,-308.97 396.1,-308.42 397.14,-312.49"/>
</g>
<!-- src/ts/ui/overlay/surface/UIOverlaySurface.tsx&#45;&gt;src/ts/store/uiState/uiStateStore.ts -->
<g id="edge52" class="edge">
<title>src/ts/ui/overlay/surface/UIOverlaySurface.tsx&#45;&gt;src/ts/store/uiState/uiStateStore.ts</title>
<path fill="none" stroke="#000000" stroke-width="2" stroke-opacity="0.200000" d="M358.75,-235.16C362.72,-233.11 366.32,-230.44 369.25,-227 380.92,-213.27 364.2,-77.43 377.25,-65 401.33,-42.08 649.4,-45.73 676.5,-65 685.32,-71.27 676.95,-80.24 684.5,-88 688.29,-91.9 692.85,-95.12 697.72,-97.77"/>
<polygon fill="#000000" fill-opacity="0.200000" stroke="#000000" stroke-width="2" stroke-opacity="0.200000" points="696.51,-99.52 702.83,-100.2 698.31,-95.73 696.51,-99.52"/>
</g>
<!-- src/ts/ui/overlay/site&#45;control/scroll/ScrollProgress.tsx&#45;&gt;src/ts/hook/useScrollProgress.ts -->
<g id="edge43" class="edge">
<title>src/ts/ui/overlay/site&#45;control/scroll/ScrollProgress.tsx&#45;&gt;src/ts/hook/useScrollProgress.ts</title>
<path fill="none" stroke="#000000" stroke-width="2" stroke-opacity="0.200000" d="M497.03,-425.2C503.98,-422.99 510.44,-419.48 515.25,-414 533.63,-393.06 518.29,-316.1 524.75,-289 536.88,-238.12 563.84,-182.23 578.2,-154.55"/>
<polygon fill="#000000" fill-opacity="0.200000" stroke="#000000" stroke-width="2" stroke-opacity="0.200000" points="580.04,-155.56 580.98,-149.28 576.32,-153.61 580.04,-155.56"/>
</g>
<!-- src/ts/ui/overlay/site&#45;control/scroll/ScrollProgress.module.css -->
<g id="node43" class="node">
<title>src/ts/ui/overlay/site&#45;control/scroll/ScrollProgress.module.css</title>
<g id="a_node43"><a xlink:href="src/ts/ui/overlay/site-control/scroll/ScrollProgress.module.css" xlink:title="ScrollProgress.module.css">
<path fill="#ffffcc" stroke="black" d="M644.83,-436.25C644.83,-436.25 532.42,-436.25 532.42,-436.25 529.33,-436.25 526.25,-433.17 526.25,-430.08 526.25,-430.08 526.25,-423.92 526.25,-423.92 526.25,-420.83 529.33,-417.75 532.42,-417.75 532.42,-417.75 644.83,-417.75 644.83,-417.75 647.92,-417.75 651,-420.83 651,-423.92 651,-423.92 651,-430.08 651,-430.08 651,-433.17 647.92,-436.25 644.83,-436.25"/>
<text text-anchor="start" x="534.25" y="-423.7" font-family="Helvetica,sans-Serif" font-size="9.00">ScrollProgress.module.css</text>
</a>
</g>
</g>
<!-- src/ts/ui/overlay/site&#45;control/scroll/ScrollProgress.tsx&#45;&gt;src/ts/ui/overlay/site&#45;control/scroll/ScrollProgress.module.css -->
<g id="edge44" class="edge">
<title>src/ts/ui/overlay/site&#45;control/scroll/ScrollProgress.tsx&#45;&gt;src/ts/ui/overlay/site&#45;control/scroll/ScrollProgress.module.css</title>
<path fill="none" stroke="#000000" stroke-width="2" stroke-opacity="0.200000" d="M497.08,-427C503.55,-427 510.35,-427 517.19,-427"/>
<polygon fill="#000000" fill-opacity="0.200000" stroke="#000000" stroke-width="2" stroke-opacity="0.200000" points="516.83,-429.1 522.83,-427 516.83,-424.9 516.83,-429.1"/>
</g>
<!-- src/ts/ui/overlay/site&#45;control/scroll/ScrollProgressAnimator.ts -->
<g id="node44" class="node">
<title>src/ts/ui/overlay/site&#45;control/scroll/ScrollProgressAnimator.ts</title>
<g id="a_node44"><a xlink:href="src/ts/ui/overlay/site-control/scroll/ScrollProgressAnimator.ts" xlink:title="ScrollProgressAnimator.ts">
<path fill="#ddfeff" stroke="black" d="M642.96,-467.25C642.96,-467.25 534.29,-467.25 534.29,-467.25 531.21,-467.25 528.12,-464.17 528.12,-461.08 528.12,-461.08 528.12,-454.92 528.12,-454.92 528.12,-451.83 531.21,-448.75 534.29,-448.75 534.29,-448.75 642.96,-448.75 642.96,-448.75 646.04,-448.75 649.12,-451.83 649.12,-454.92 649.12,-454.92 649.12,-461.08 649.12,-461.08 649.12,-464.17 646.04,-467.25 642.96,-467.25"/>
<text text-anchor="start" x="536.12" y="-454.7" font-family="Helvetica,sans-Serif" font-size="9.00">ScrollProgressAnimator.ts</text>
</a>
</g>
</g>
<!-- src/ts/ui/overlay/site&#45;control/scroll/ScrollProgress.tsx&#45;&gt;src/ts/ui/overlay/site&#45;control/scroll/ScrollProgressAnimator.ts -->
<g id="edge45" class="edge">
<title>src/ts/ui/overlay/site&#45;control/scroll/ScrollProgress.tsx&#45;&gt;src/ts/ui/overlay/site&#45;control/scroll/ScrollProgressAnimator.ts</title>
<path fill="none" stroke="#000000" stroke-width="2" stroke-opacity="0.200000" d="M495.23,-436.72C508.51,-439.78 523.31,-443.19 537.11,-446.37"/>
<polygon fill="#000000" fill-opacity="0.200000" stroke="#000000" stroke-width="2" stroke-opacity="0.200000" points="536.28,-448.33 542.6,-447.63 537.22,-444.24 536.28,-448.33"/>
</g>
<!-- src/ts/ui/overlay/site&#45;control/theme/ThemeSwitcher.tsx&#45;&gt;src/ts/store/uiState/uiStateStore.ts -->
<g id="edge48" class="edge">
<title>src/ts/ui/overlay/site&#45;control/theme/ThemeSwitcher.tsx&#45;&gt;src/ts/store/uiState/uiStateStore.ts</title>
<path fill="none" stroke="#000000" stroke-width="2" stroke-opacity="0.200000" d="M452.89,-299.61C453.09,-266.33 458.78,-153.58 524.75,-107 551.43,-88.16 641.26,-96.12 696.87,-103.28"/>
<polygon fill="#000000" fill-opacity="0.200000" stroke="#000000" stroke-width="2" stroke-opacity="0.200000" points="696.26,-105.32 702.48,-104.02 696.81,-101.15 696.26,-105.32"/>
</g>
<!-- src/ts/ui/overlay/site&#45;control/theme/ThemeSwitcher.tsx&#45;&gt;src/ts/types/index.ts -->
<g id="edge49" class="edge">
<title>src/ts/ui/overlay/site&#45;control/theme/ThemeSwitcher.tsx&#45;&gt;src/ts/types/index.ts</title>
<path fill="none" stroke="#000000" stroke-width="2" stroke-opacity="0.200000" d="M453.08,-299.61C453.94,-267.38 461.6,-160.82 524.75,-117 538.6,-107.39 663.21,-106.62 676.5,-117 688.06,-126.02 672.94,-139.98 684.5,-149 729.6,-184.22 756.84,-158.59 813.25,-149 828.27,-146.45 844.3,-141.18 857.61,-136.05"/>
<polygon fill="#000000" fill-opacity="0.200000" stroke="#000000" stroke-width="2" stroke-opacity="0.200000" points="858.32,-138.03 863.11,-133.85 856.76,-134.13 858.32,-138.03"/>
</g>
<!-- src/ts/ui/overlay/site&#45;control/theme/ThemeSwitcher.module.css -->
<g id="node45" class="node">
<title>src/ts/ui/overlay/site&#45;control/theme/ThemeSwitcher.module.css</title>
<g id="a_node45"><a xlink:href="src/ts/ui/overlay/site-control/theme/ThemeSwitcher.module.css" xlink:title="ThemeSwitcher.module.css">
<path fill="#ffffcc" stroke="black" d="M646.33,-318.25C646.33,-318.25 530.92,-318.25 530.92,-318.25 527.83,-318.25 524.75,-315.17 524.75,-312.08 524.75,-312.08 524.75,-305.92 524.75,-305.92 524.75,-302.83 527.83,-299.75 530.92,-299.75 530.92,-299.75 646.33,-299.75 646.33,-299.75 649.42,-299.75 652.5,-302.83 652.5,-305.92 652.5,-305.92 652.5,-312.08 652.5,-312.08 652.5,-315.17 649.42,-318.25 646.33,-318.25"/>
<text text-anchor="start" x="532.75" y="-305.7" font-family="Helvetica,sans-Serif" font-size="9.00">ThemeSwitcher.module.css</text>
</a>
</g>
</g>
<!-- src/ts/ui/overlay/site&#45;control/theme/ThemeSwitcher.tsx&#45;&gt;src/ts/ui/overlay/site&#45;control/theme/ThemeSwitcher.module.css -->
<g id="edge50" class="edge">
<title>src/ts/ui/overlay/site&#45;control/theme/ThemeSwitcher.tsx&#45;&gt;src/ts/ui/overlay/site&#45;control/theme/ThemeSwitcher.module.css</title>
<path fill="none" stroke="#000000" stroke-width="2" stroke-opacity="0.200000" d="M498.58,-309C504.22,-309 510.08,-309 515.99,-309"/>
<polygon fill="#000000" fill-opacity="0.200000" stroke="#000000" stroke-width="2" stroke-opacity="0.200000" points="515.63,-311.1 521.63,-309 515.63,-306.9 515.63,-311.1"/>
</g>
<!-- src/ts/ui/overlay/site&#45;control/theme/ThemeSwitcherAnimator.ts -->
<g id="node47" class="node">
<title>src/ts/ui/overlay/site&#45;control/theme/ThemeSwitcherAnimator.ts</title>
<g id="a_node47"><a xlink:href="src/ts/ui/overlay/site-control/theme/ThemeSwitcherAnimator.ts" xlink:title="ThemeSwitcherAnimator.ts">
<path fill="#ddfeff" stroke="black" d="M644.83,-349.25C644.83,-349.25 532.42,-349.25 532.42,-349.25 529.33,-349.25 526.25,-346.17 526.25,-343.08 526.25,-343.08 526.25,-336.92 526.25,-336.92 526.25,-333.83 529.33,-330.75 532.42,-330.75 532.42,-330.75 644.83,-330.75 644.83,-330.75 647.92,-330.75 651,-333.83 651,-336.92 651,-336.92 651,-343.08 651,-343.08 651,-346.17 647.92,-349.25 644.83,-349.25"/>
<text text-anchor="start" x="534.25" y="-336.7" font-family="Helvetica,sans-Serif" font-size="9.00">ThemeSwitcherAnimator.ts</text>
</a>
</g>
</g>
<!-- src/ts/ui/overlay/site&#45;control/theme/ThemeSwitcher.tsx&#45;&gt;src/ts/ui/overlay/site&#45;control/theme/ThemeSwitcherAnimator.ts -->
<g id="edge51" class="edge">
<title>src/ts/ui/overlay/site&#45;control/theme/ThemeSwitcher.tsx&#45;&gt;src/ts/ui/overlay/site&#45;control/theme/ThemeSwitcherAnimator.ts</title>
<path fill="none" stroke="#000000" stroke-width="2" stroke-opacity="0.200000" d="M498.6,-318.32C504.21,-319.52 509.87,-320.77 515.25,-322 523.68,-323.93 532.63,-326.07 541.26,-328.19"/>
<polygon fill="#000000" fill-opacity="0.200000" stroke="#000000" stroke-width="2" stroke-opacity="0.200000" points="540.48,-330.16 546.81,-329.57 541.49,-326.09 540.48,-330.16"/>
</g>
<!-- src/ts/ui/overlay/site&#45;control/theme/ThemeSwitcher.stories.tsx -->
<g id="node46" class="node">
<title>src/ts/ui/overlay/site&#45;control/theme/ThemeSwitcher.stories.tsx</title>
<g id="a_node46"><a xlink:href="src/ts/ui/overlay/site-control/theme/ThemeSwitcher.stories.tsx" xlink:title="ThemeSwitcher.stories.tsx">
<path fill="#bbfeff" stroke="black" d="M362.33,-318.25C362.33,-318.25 252.92,-318.25 252.92,-318.25 249.83,-318.25 246.75,-315.17 246.75,-312.08 246.75,-312.08 246.75,-305.92 246.75,-305.92 246.75,-302.83 249.83,-299.75 252.92,-299.75 252.92,-299.75 362.33,-299.75 362.33,-299.75 365.42,-299.75 368.5,-302.83 368.5,-305.92 368.5,-305.92 368.5,-312.08 368.5,-312.08 368.5,-315.17 365.42,-318.25 362.33,-318.25"/>
<text text-anchor="start" x="254.75" y="-305.7" font-family="Helvetica,sans-Serif" font-size="9.00">ThemeSwitcher.stories.tsx</text>
</a>
</g>
</g>
<!-- src/ts/ui/overlay/site&#45;control/theme/ThemeSwitcher.stories.tsx&#45;&gt;src/ts/store/uiState/uiStateStore.ts -->
<g id="edge46" class="edge">
<title>src/ts/ui/overlay/site&#45;control/theme/ThemeSwitcher.stories.tsx&#45;&gt;src/ts/store/uiState/uiStateStore.ts</title>
<path fill="none" stroke="#000000" stroke-width="2" stroke-opacity="0.200000" d="M343.51,-299.29C353.47,-294.76 363.24,-288.26 369.25,-279 381.36,-260.34 361.21,-94.41 377.25,-79 401.23,-55.96 646.17,-65.38 676.5,-79 681.38,-81.19 680.09,-84.96 684.5,-88 689.39,-91.37 694.85,-94.3 700.43,-96.84"/>
<polygon fill="#000000" fill-opacity="0.200000" stroke="#000000" stroke-width="2" stroke-opacity="0.200000" points="699.48,-98.72 705.83,-99.1 701.1,-94.84 699.48,-98.72"/>
</g>
<!-- src/ts/ui/overlay/site&#45;control/theme/ThemeSwitcher.stories.tsx&#45;&gt;src/ts/ui/overlay/site&#45;control/theme/ThemeSwitcher.tsx -->
<g id="edge47" class="edge">
<title>src/ts/ui/overlay/site&#45;control/theme/ThemeSwitcher.stories.tsx&#45;&gt;src/ts/ui/overlay/site&#45;control/theme/ThemeSwitcher.tsx</title>
<path fill="none" stroke="#000000" stroke-width="2" stroke-opacity="0.200000" d="M368.59,-309C377.83,-309 387.32,-309 396.43,-309"/>
<polygon fill="#000000" fill-opacity="0.200000" stroke="#000000" stroke-width="2" stroke-opacity="0.200000" points="396.35,-311.1 402.35,-309 396.35,-306.9 396.35,-311.1"/>
</g>
<!-- src/ts/ui/site/project/text/SiteProjectText.tsx&#45;&gt;src/ts/ui/component/button/text/ButtonText.tsx -->
<g id="edge61" class="edge">
<title>src/ts/ui/site/project/text/SiteProjectText.tsx&#45;&gt;src/ts/ui/component/button/text/ButtonText.tsx</title>
<path fill="none" stroke="#000000" stroke-width="2" stroke-opacity="0.200000" d="M462.68,-1117.42C485.57,-1139.69 543.19,-1195.76 571.47,-1223.28"/>
<polygon fill="#000000" fill-opacity="0.200000" stroke="#000000" stroke-width="2" stroke-opacity="0.200000" points="569.73,-1224.52 575.5,-1227.2 572.66,-1221.51 569.73,-1224.52"/>
</g>
<!-- src/ts/ui/site/project/text/SiteProjectText.module.css -->
<g id="node52" class="node">
<title>src/ts/ui/site/project/text/SiteProjectText.module.css</title>
<g id="a_node52"><a xlink:href="src/ts/ui/site/project/text/SiteProjectText.module.css" xlink:title="SiteProjectText.module.css">
<path fill="#ffffcc" stroke="black" d="M645.21,-1117.25C645.21,-1117.25 532.04,-1117.25 532.04,-1117.25 528.96,-1117.25 525.88,-1114.17 525.88,-1111.08 525.88,-1111.08 525.88,-1104.92 525.88,-1104.92 525.88,-1101.83 528.96,-1098.75 532.04,-1098.75 532.04,-1098.75 645.21,-1098.75 645.21,-1098.75 648.29,-1098.75 651.38,-1101.83 651.38,-1104.92 651.38,-1104.92 651.38,-1111.08 651.38,-1111.08 651.38,-1114.17 648.29,-1117.25 645.21,-1117.25"/>
<text text-anchor="start" x="533.88" y="-1104.7" font-family="Helvetica,sans-Serif" font-size="9.00">SiteProjectText.module.css</text>
</a>
</g>
</g>
<!-- src/ts/ui/site/project/text/SiteProjectText.tsx&#45;&gt;src/ts/ui/site/project/text/SiteProjectText.module.css -->
<g id="edge62" class="edge">
<title>src/ts/ui/site/project/text/SiteProjectText.tsx&#45;&gt;src/ts/ui/site/project/text/SiteProjectText.module.css</title>
<path fill="none" stroke="#000000" stroke-width="2" stroke-opacity="0.200000" d="M497.45,-1108C503.67,-1108 510.18,-1108 516.73,-1108"/>
<polygon fill="#000000" fill-opacity="0.200000" stroke="#000000" stroke-width="2" stroke-opacity="0.200000" points="516.64,-1110.1 522.64,-1108 516.64,-1105.9 516.64,-1110.1"/>
</g>
</g>
</svg>
