<?xml version="1.0" encoding="UTF-8" standalone="no"?>
<!DOCTYPE svg PUBLIC "-//W3C//DTD SVG 1.1//EN"
 "http://www.w3.org/Graphics/SVG/1.1/DTD/svg11.dtd">
<!-- Generated by graphviz version 12.2.1 (20241206.2353)
 -->
<!-- Title: dependency&#45;cruiser output Pages: 1 -->
<svg width="389pt" height="234pt"
 viewBox="0.00 0.00 389.25 234.00" xmlns="http://www.w3.org/2000/svg" xmlns:xlink="http://www.w3.org/1999/xlink">
<g id="graph0" class="graph" transform="scale(1 1) rotate(0) translate(4 230)">
<title>dependency&#45;cruiser output</title>
<polygon fill="white" stroke="none" points="-4,4 -4,-230 385.25,-230 385.25,4 -4,4"/>
<g id="clust1" class="cluster">
<title>cluster_src</title>
<path fill="#ffffff" stroke="black" stroke-width="2" d="M20,-8C20,-8 361.25,-8 361.25,-8 367.25,-8 373.25,-14 373.25,-20 373.25,-20 373.25,-206 373.25,-206 373.25,-212 367.25,-218 361.25,-218 361.25,-218 20,-218 20,-218 14,-218 8,-212 8,-206 8,-206 8,-20 8,-20 8,-14 14,-8 20,-8"/>
<text text-anchor="middle" x="190.62" y="-205.45" font-family="Helvetica,sans-Serif" font-weight="bold" font-size="9.00">src</text>
</g>
<g id="clust2" class="cluster">
<title>cluster_src/ts</title>
<path fill="#ffffff" stroke="black" stroke-width="2" d="M28,-16C28,-16 353.25,-16 353.25,-16 359.25,-16 365.25,-22 365.25,-28 365.25,-28 365.25,-179 365.25,-179 365.25,-185 359.25,-191 353.25,-191 353.25,-191 28,-191 28,-191 22,-191 16,-185 16,-179 16,-179 16,-28 16,-28 16,-22 22,-16 28,-16"/>
<text text-anchor="middle" x="190.62" y="-178.45" font-family="Helvetica,sans-Serif" font-weight="bold" font-size="9.00">ts</text>
</g>
<g id="clust3" class="cluster">
<title>cluster_src/ts/engine</title>
<path fill="#ffffff" stroke="black" stroke-width="2" d="M144.38,-50C144.38,-50 190.62,-50 190.62,-50 196.62,-50 202.62,-56 202.62,-62 202.62,-62 202.62,-91 202.62,-91 202.62,-97 196.62,-103 190.62,-103 190.62,-103 144.38,-103 144.38,-103 138.38,-103 132.38,-97 132.38,-91 132.38,-91 132.38,-62 132.38,-62 132.38,-56 138.38,-50 144.38,-50"/>
<text text-anchor="middle" x="167.5" y="-90.45" font-family="Helvetica,sans-Serif" font-weight="bold" font-size="9.00">engine</text>
</g>
<g id="clust4" class="cluster">
<title>cluster_src/ts/ui</title>
<path fill="#ffffff" stroke="black" stroke-width="2" d="M132.38,-111C132.38,-111 345.25,-111 345.25,-111 351.25,-111 357.25,-117 357.25,-123 357.25,-123 357.25,-152 357.25,-152 357.25,-158 351.25,-164 345.25,-164 345.25,-164 132.38,-164 132.38,-164 126.38,-164 120.38,-158 120.38,-152 120.38,-152 120.38,-123 120.38,-123 120.38,-117 126.38,-111 132.38,-111"/>
<text text-anchor="middle" x="238.81" y="-151.45" font-family="Helvetica,sans-Serif" font-weight="bold" font-size="9.00">ui</text>
</g>
<!-- src/ts/Application.module.css -->
<g id="node1" class="node">
<title>src/ts/Application.module.css</title>
<g id="a_node1"><a xlink:href="src/ts/Application.module.css" xlink:title="Application.module.css">
<path fill="#ffffcc" stroke="black" d="M216.58,-42.25C216.58,-42.25 118.42,-42.25 118.42,-42.25 115.33,-42.25 112.25,-39.17 112.25,-36.08 112.25,-36.08 112.25,-29.92 112.25,-29.92 112.25,-26.83 115.33,-23.75 118.42,-23.75 118.42,-23.75 216.58,-23.75 216.58,-23.75 219.67,-23.75 222.75,-26.83 222.75,-29.92 222.75,-29.92 222.75,-36.08 222.75,-36.08 222.75,-39.17 219.67,-42.25 216.58,-42.25"/>
<text text-anchor="start" x="120.25" y="-29.7" font-family="Helvetica,sans-Serif" font-size="9.00">Application.module.css</text>
</a>
</g>
</g>
<!-- src/ts/Application.tsx -->
<g id="node2" class="node">
<title>src/ts/Application.tsx</title>
<g id="a_node2"><a xlink:href="src/ts/Application.tsx" xlink:title="Application.tsx">
<path fill="#bbfeff" stroke="black" d="M93.08,-76.25C93.08,-76.25 30.17,-76.25 30.17,-76.25 27.08,-76.25 24,-73.17 24,-70.08 24,-70.08 24,-63.92 24,-63.92 24,-60.83 27.08,-57.75 30.17,-57.75 30.17,-57.75 93.08,-57.75 93.08,-57.75 96.17,-57.75 99.25,-60.83 99.25,-63.92 99.25,-63.92 99.25,-70.08 99.25,-70.08 99.25,-73.17 96.17,-76.25 93.08,-76.25"/>
<text text-anchor="start" x="32" y="-63.7" font-family="Helvetica,sans-Serif" font-size="9.00">Application.tsx</text>
</a>
</g>
</g>
<!-- src/ts/Application.tsx&#45;&gt;src/ts/Application.module.css -->
<g id="edge1" class="edge">
<title>src/ts/Application.tsx&#45;&gt;src/ts/Application.module.css</title>
<path fill="none" stroke="#000000" stroke-width="2" stroke-opacity="0.200000" d="M84.63,-57.41C93.16,-53.89 103.07,-50.02 112.25,-47 114.09,-46.39 115.97,-45.8 117.88,-45.22"/>
<polygon fill="#000000" fill-opacity="0.200000" stroke="#000000" stroke-width="2" stroke-opacity="0.200000" points="118.26,-47.29 123.43,-43.59 117.08,-43.26 118.26,-47.29"/>
</g>
<!-- src/ts/engine/Engine.ts -->
<g id="node3" class="node">
<title>src/ts/engine/Engine.ts</title>
<g id="a_node3"><a xlink:href="src/ts/engine/Engine.ts" xlink:title="Engine.ts">
<path fill="#ddfeff" stroke="black" d="M188.46,-76.25C188.46,-76.25 146.54,-76.25 146.54,-76.25 143.46,-76.25 140.38,-73.17 140.38,-70.08 140.38,-70.08 140.38,-63.92 140.38,-63.92 140.38,-60.83 143.46,-57.75 146.54,-57.75 146.54,-57.75 188.46,-57.75 188.46,-57.75 191.54,-57.75 194.62,-60.83 194.62,-63.92 194.62,-63.92 194.62,-70.08 194.62,-70.08 194.62,-73.17 191.54,-76.25 188.46,-76.25"/>
<text text-anchor="start" x="148.38" y="-63.7" font-family="Helvetica,sans-Serif" font-size="9.00">Engine.ts</text>
</a>
</g>
</g>
<!-- src/ts/Application.tsx&#45;&gt;src/ts/engine/Engine.ts -->
<g id="edge2" class="edge">
<title>src/ts/Application.tsx&#45;&gt;src/ts/engine/Engine.ts</title>
<path fill="none" stroke="#000000" stroke-width="2" stroke-opacity="0.200000" d="M99.54,-67C109.91,-67 121.16,-67 131.42,-67"/>
<polygon fill="#000000" fill-opacity="0.200000" stroke="#000000" stroke-width="2" stroke-opacity="0.200000" points="131.12,-69.1 137.12,-67 131.12,-64.9 131.12,-69.1"/>
</g>
<!-- src/ts/ui/UIContainer.tsx -->
<g id="node4" class="node">
<title>src/ts/ui/UIContainer.tsx</title>
<g id="a_node4"><a xlink:href="src/ts/ui/UIContainer.tsx" xlink:title="UIContainer.tsx">
<path fill="#bbfeff" stroke="black" d="M200.46,-137.25C200.46,-137.25 134.54,-137.25 134.54,-137.25 131.46,-137.25 128.38,-134.17 128.38,-131.08 128.38,-131.08 128.38,-124.92 128.38,-124.92 128.38,-121.83 131.46,-118.75 134.54,-118.75 134.54,-118.75 200.46,-118.75 200.46,-118.75 203.54,-118.75 206.62,-121.83 206.62,-124.92 206.62,-124.92 206.62,-131.08 206.62,-131.08 206.62,-134.17 203.54,-137.25 200.46,-137.25"/>
<text text-anchor="start" x="136.38" y="-124.7" font-family="Helvetica,sans-Serif" font-size="9.00">UIContainer.tsx</text>
</a>
</g>
</g>
<!-- src/ts/Application.tsx&#45;&gt;src/ts/ui/UIContainer.tsx -->
<g id="edge3" class="edge">
<title>src/ts/Application.tsx&#45;&gt;src/ts/ui/UIContainer.tsx</title>
<path fill="none" stroke="#000000" stroke-width="2" stroke-opacity="0.200000" d="M73.03,-76.61C82.66,-85.14 97.65,-97.53 112.25,-106 117.81,-109.23 123.93,-112.2 130.01,-114.85"/>
<polygon fill="#000000" fill-opacity="0.200000" stroke="#000000" stroke-width="2" stroke-opacity="0.200000" points="129.05,-116.73 135.4,-117.1 130.66,-112.85 129.05,-116.73"/>
</g>
<!-- src/ts/ui/UIContainer.module.css -->
<g id="node5" class="node">
<title>src/ts/ui/UIContainer.module.css</title>
<g id="a_node5"><a xlink:href="src/ts/ui/UIContainer.module.css" xlink:title="UIContainer.module.css">
<path fill="#ffffcc" stroke="black" d="M343.08,-137.25C343.08,-137.25 241.92,-137.25 241.92,-137.25 238.83,-137.25 235.75,-134.17 235.75,-131.08 235.75,-131.08 235.75,-124.92 235.75,-124.92 235.75,-121.83 238.83,-118.75 241.92,-118.75 241.92,-118.75 343.08,-118.75 343.08,-118.75 346.17,-118.75 349.25,-121.83 349.25,-124.92 349.25,-124.92 349.25,-131.08 349.25,-131.08 349.25,-134.17 346.17,-137.25 343.08,-137.25"/>
<text text-anchor="start" x="243.75" y="-124.7" font-family="Helvetica,sans-Serif" font-size="9.00">UIContainer.module.css</text>
</a>
</g>
</g>
<!-- src/ts/ui/UIContainer.tsx&#45;&gt;src/ts/ui/UIContainer.module.css -->
<g id="edge4" class="edge">
<title>src/ts/ui/UIContainer.tsx&#45;&gt;src/ts/ui/UIContainer.module.css</title>
<path fill="none" stroke="#000000" stroke-width="2" stroke-opacity="0.200000" d="M207.08,-128C213.42,-128 220.14,-128 226.91,-128"/>
<polygon fill="#000000" fill-opacity="0.200000" stroke="#000000" stroke-width="2" stroke-opacity="0.200000" points="226.46,-130.1 232.46,-128 226.46,-125.9 226.46,-130.1"/>
</g>
</g>
</svg>
