<?xml version="1.0" encoding="UTF-8" standalone="no"?>
<!DOCTYPE svg PUBLIC "-//W3C//DTD SVG 1.1//EN"
 "http://www.w3.org/Graphics/SVG/1.1/DTD/svg11.dtd">
<!-- Generated by graphviz version 12.2.1 (20241206.2353)
 -->
<!-- Title: dependency&#45;cruiser output Pages: 1 -->
<svg width="1164pt" height="1396pt"
 viewBox="0.00 0.00 1164.12 1396.00" xmlns="http://www.w3.org/2000/svg" xmlns:xlink="http://www.w3.org/1999/xlink">
<g id="graph0" class="graph" transform="scale(1 1) rotate(0) translate(4 1392)">
<title>dependency&#45;cruiser output</title>
<polygon fill="white" stroke="none" points="-4,4 -4,-1392 1160.12,-1392 1160.12,4 -4,4"/>
<g id="clust1" class="cluster">
<title>cluster_src</title>
<path fill="#ffffff" stroke="black" stroke-width="2" d="M20,-8C20,-8 1136.12,-8 1136.12,-8 1142.12,-8 1148.12,-14 1148.12,-20 1148.12,-20 1148.12,-1368 1148.12,-1368 1148.12,-1374 1142.12,-1380 1136.12,-1380 1136.12,-1380 20,-1380 20,-1380 14,-1380 8,-1374 8,-1368 8,-1368 8,-20 8,-20 8,-14 14,-8 20,-8"/>
<text text-anchor="middle" x="578.06" y="-1367.45" font-family="Helvetica,sans-Serif" font-weight="bold" font-size="9.00">src</text>
</g>
<g id="clust2" class="cluster">
<title>cluster_src/ts</title>
<path fill="#ffffff" stroke="black" stroke-width="2" d="M28,-16C28,-16 1128.12,-16 1128.12,-16 1134.12,-16 1140.12,-22 1140.12,-28 1140.12,-28 1140.12,-1341 1140.12,-1341 1140.12,-1347 1134.12,-1353 1128.12,-1353 1128.12,-1353 28,-1353 28,-1353 22,-1353 16,-1347 16,-1341 16,-1341 16,-28 16,-28 16,-22 22,-16 28,-16"/>
<text text-anchor="middle" x="578.06" y="-1340.45" font-family="Helvetica,sans-Serif" font-weight="bold" font-size="9.00">ts</text>
</g>
<g id="clust3" class="cluster">
<title>cluster_src/ts/hook</title>
<path fill="#ffffff" stroke="black" stroke-width="2" d="M544,-1116C544,-1116 636,-1116 636,-1116 642,-1116 648,-1122 648,-1128 648,-1128 648,-1157 648,-1157 648,-1163 642,-1169 636,-1169 636,-1169 544,-1169 544,-1169 538,-1169 532,-1163 532,-1157 532,-1157 532,-1128 532,-1128 532,-1122 538,-1116 544,-1116"/>
<text text-anchor="middle" x="590" y="-1156.45" font-family="Helvetica,sans-Serif" font-weight="bold" font-size="9.00">hook</text>
</g>
<g id="clust4" class="cluster">
<title>cluster_src/ts/motion</title>
<path fill="#ffffff" stroke="black" stroke-width="2" d="M864.88,-1091C864.88,-1091 1058.25,-1091 1058.25,-1091 1064.25,-1091 1070.25,-1097 1070.25,-1103 1070.25,-1103 1070.25,-1163 1070.25,-1163 1070.25,-1169 1064.25,-1175 1058.25,-1175 1058.25,-1175 864.88,-1175 864.88,-1175 858.88,-1175 852.88,-1169 852.88,-1163 852.88,-1163 852.88,-1103 852.88,-1103 852.88,-1097 858.88,-1091 864.88,-1091"/>
<text text-anchor="middle" x="961.56" y="-1162.45" font-family="Helvetica,sans-Serif" font-weight="bold" font-size="9.00">motion</text>
</g>
<g id="clust5" class="cluster">
<title>cluster_src/ts/store</title>
<path fill="#ffffff" stroke="black" stroke-width="2" d="M548.38,-1177C548.38,-1177 631.62,-1177 631.62,-1177 637.62,-1177 643.62,-1183 643.62,-1189 643.62,-1189 643.62,-1314 643.62,-1314 643.62,-1320 637.62,-1326 631.62,-1326 631.62,-1326 548.38,-1326 548.38,-1326 542.38,-1326 536.38,-1320 536.38,-1314 536.38,-1314 536.38,-1189 536.38,-1189 536.38,-1183 542.38,-1177 548.38,-1177"/>
<text text-anchor="middle" x="590" y="-1313.45" font-family="Helvetica,sans-Serif" font-weight="bold" font-size="9.00">store</text>
</g>
<g id="clust6" class="cluster">
<title>cluster_src/ts/store/project</title>
<path fill="#ffffff" stroke="black" stroke-width="2" d="M556.75,-1246C556.75,-1246 623.25,-1246 623.25,-1246 629.25,-1246 635.25,-1252 635.25,-1258 635.25,-1258 635.25,-1287 635.25,-1287 635.25,-1293 629.25,-1299 623.25,-1299 623.25,-1299 556.75,-1299 556.75,-1299 550.75,-1299 544.75,-1293 544.75,-1287 544.75,-1287 544.75,-1258 544.75,-1258 544.75,-1252 550.75,-1246 556.75,-1246"/>
<text text-anchor="middle" x="590" y="-1286.45" font-family="Helvetica,sans-Serif" font-weight="bold" font-size="9.00">project</text>
</g>
<g id="clust7" class="cluster">
<title>cluster_src/ts/store/uiState</title>
<path fill="#ffffff" stroke="black" stroke-width="2" d="M556.38,-1185C556.38,-1185 623.62,-1185 623.62,-1185 629.62,-1185 635.62,-1191 635.62,-1197 635.62,-1197 635.62,-1226 635.62,-1226 635.62,-1232 629.62,-1238 623.62,-1238 623.62,-1238 556.38,-1238 556.38,-1238 550.38,-1238 544.38,-1232 544.38,-1226 544.38,-1226 544.38,-1197 544.38,-1197 544.38,-1191 550.38,-1185 556.38,-1185"/>
<text text-anchor="middle" x="590" y="-1225.45" font-family="Helvetica,sans-Serif" font-weight="bold" font-size="9.00">uiState</text>
</g>
<g id="clust8" class="cluster">
<title>cluster_src/ts/types</title>
<path fill="#ffffff" stroke="black" stroke-width="2" d="M726.38,-1184C726.38,-1184 910.88,-1184 910.88,-1184 916.88,-1184 922.88,-1190 922.88,-1196 922.88,-1196 922.88,-1256 922.88,-1256 922.88,-1262 916.88,-1268 910.88,-1268 910.88,-1268 726.38,-1268 726.38,-1268 720.38,-1268 714.38,-1262 714.38,-1256 714.38,-1256 714.38,-1196 714.38,-1196 714.38,-1190 720.38,-1184 726.38,-1184"/>
<text text-anchor="middle" x="818.62" y="-1255.45" font-family="Helvetica,sans-Serif" font-weight="bold" font-size="9.00">types</text>
</g>
<g id="clust9" class="cluster">
<title>cluster_src/ts/ui</title>
<path fill="#ffffff" stroke="black" stroke-width="2" d="M119.25,-50C119.25,-50 1120.12,-50 1120.12,-50 1126.12,-50 1132.12,-56 1132.12,-62 1132.12,-62 1132.12,-1071 1132.12,-1071 1132.12,-1077 1126.12,-1083 1120.12,-1083 1120.12,-1083 119.25,-1083 119.25,-1083 113.25,-1083 107.25,-1077 107.25,-1071 107.25,-1071 107.25,-62 107.25,-62 107.25,-56 113.25,-50 119.25,-50"/>
<text text-anchor="middle" x="619.69" y="-1070.45" font-family="Helvetica,sans-Serif" font-weight="bold" font-size="9.00">ui</text>
</g>
<g id="clust10" class="cluster">
<title>cluster_src/ts/ui/component</title>
<path fill="#ffffff" stroke="black" stroke-width="2" d="M527.25,-353C527.25,-353 1112.12,-353 1112.12,-353 1118.12,-353 1124.12,-359 1124.12,-365 1124.12,-365 1124.12,-708 1124.12,-708 1124.12,-714 1118.12,-720 1112.12,-720 1112.12,-720 527.25,-720 527.25,-720 521.25,-720 515.25,-714 515.25,-708 515.25,-708 515.25,-365 515.25,-365 515.25,-359 521.25,-353 527.25,-353"/>
<text text-anchor="middle" x="819.69" y="-707.45" font-family="Helvetica,sans-Serif" font-weight="bold" font-size="9.00">component</text>
</g>
<g id="clust11" class="cluster">
<title>cluster_src/ts/ui/component/button</title>
<path fill="#ffffff" stroke="black" stroke-width="2" d="M535.25,-544C535.25,-544 945.62,-544 945.62,-544 951.62,-544 957.62,-550 957.62,-556 957.62,-556 957.62,-620 957.62,-620 957.62,-626 951.62,-632 945.62,-632 945.62,-632 535.25,-632 535.25,-632 529.25,-632 523.25,-626 523.25,-620 523.25,-620 523.25,-556 523.25,-556 523.25,-550 529.25,-544 535.25,-544"/>
<text text-anchor="middle" x="740.44" y="-619.45" font-family="Helvetica,sans-Serif" font-weight="bold" font-size="9.00">button</text>
</g>
<g id="clust12" class="cluster">
<title>cluster_src/ts/ui/component/button/text</title>
<path fill="#ffffff" stroke="black" stroke-width="2" d="M543.25,-552C543.25,-552 937.62,-552 937.62,-552 943.62,-552 949.62,-558 949.62,-564 949.62,-564 949.62,-593 949.62,-593 949.62,-599 943.62,-605 937.62,-605 937.62,-605 543.25,-605 543.25,-605 537.25,-605 531.25,-599 531.25,-593 531.25,-593 531.25,-564 531.25,-564 531.25,-558 537.25,-552 543.25,-552"/>
<text text-anchor="middle" x="740.44" y="-592.45" font-family="Helvetica,sans-Serif" font-weight="bold" font-size="9.00">text</text>
</g>
<g id="clust13" class="cluster">
<title>cluster_src/ts/ui/component/text</title>
<path fill="#ffffff" stroke="black" stroke-width="2" d="M548.12,-640C548.12,-640 808.88,-640 808.88,-640 814.88,-640 820.88,-646 820.88,-652 820.88,-652 820.88,-681 820.88,-681 820.88,-687 814.88,-693 808.88,-693 808.88,-693 548.12,-693 548.12,-693 542.12,-693 536.12,-687 536.12,-681 536.12,-681 536.12,-652 536.12,-652 536.12,-646 542.12,-640 548.12,-640"/>
<text text-anchor="middle" x="678.5" y="-680.45" font-family="Helvetica,sans-Serif" font-weight="bold" font-size="9.00">text</text>
</g>
<g id="clust14" class="cluster">
<title>cluster_src/ts/ui/component/viewer</title>
<path fill="#ffffff" stroke="black" stroke-width="2" d="M538,-361C538,-361 1104.12,-361 1104.12,-361 1110.12,-361 1116.12,-367 1116.12,-373 1116.12,-373 1116.12,-524 1116.12,-524 1116.12,-530 1110.12,-536 1104.12,-536 1104.12,-536 538,-536 538,-536 532,-536 526,-530 526,-524 526,-524 526,-373 526,-373 526,-367 532,-361 538,-361"/>
<text text-anchor="middle" x="821.06" y="-523.45" font-family="Helvetica,sans-Serif" font-weight="bold" font-size="9.00">viewer</text>
</g>
<g id="clust15" class="cluster">
<title>cluster_src/ts/ui/component/viewer/holder</title>
<path fill="#ffffff" stroke="black" stroke-width="2" d="M843,-395C843,-395 1095.38,-395 1095.38,-395 1101.38,-395 1107.38,-401 1107.38,-407 1107.38,-407 1107.38,-436 1107.38,-436 1107.38,-442 1101.38,-448 1095.38,-448 1095.38,-448 843,-448 843,-448 837,-448 831,-442 831,-436 831,-436 831,-407 831,-407 831,-401 837,-395 843,-395"/>
<text text-anchor="middle" x="969.19" y="-435.45" font-family="Helvetica,sans-Serif" font-weight="bold" font-size="9.00">holder</text>
</g>
<g id="clust16" class="cluster">
<title>cluster_src/ts/ui/component/viewer/navigation</title>
<path fill="#ffffff" stroke="black" stroke-width="2" d="M842.25,-456C842.25,-456 1096.12,-456 1096.12,-456 1102.12,-456 1108.12,-462 1108.12,-468 1108.12,-468 1108.12,-497 1108.12,-497 1108.12,-503 1102.12,-509 1096.12,-509 1096.12,-509 842.25,-509 842.25,-509 836.25,-509 830.25,-503 830.25,-497 830.25,-497 830.25,-468 830.25,-468 830.25,-462 836.25,-456 842.25,-456"/>
<text text-anchor="middle" x="969.19" y="-496.45" font-family="Helvetica,sans-Serif" font-weight="bold" font-size="9.00">navigation</text>
</g>
<g id="clust17" class="cluster">
<title>cluster_src/ts/ui/overlay</title>
<path fill="#ffffff" stroke="black" stroke-width="2" d="M127.25,-728C127.25,-728 665.88,-728 665.88,-728 671.88,-728 677.88,-734 677.88,-740 677.88,-740 677.88,-1044 677.88,-1044 677.88,-1050 671.88,-1056 665.88,-1056 665.88,-1056 127.25,-1056 127.25,-1056 121.25,-1056 115.25,-1050 115.25,-1044 115.25,-1044 115.25,-740 115.25,-740 115.25,-734 121.25,-728 127.25,-728"/>
<text text-anchor="middle" x="396.56" y="-1043.45" font-family="Helvetica,sans-Serif" font-weight="bold" font-size="9.00">overlay</text>
</g>
<g id="clust18" class="cluster">
<title>cluster_src/ts/ui/overlay/site&#45;control</title>
<path fill="#ffffff" stroke="black" stroke-width="2" d="M135.25,-736C135.25,-736 657.88,-736 657.88,-736 663.88,-736 669.88,-742 669.88,-748 669.88,-748 669.88,-930 669.88,-930 669.88,-936 663.88,-942 657.88,-942 657.88,-942 135.25,-942 135.25,-942 129.25,-942 123.25,-936 123.25,-930 123.25,-930 123.25,-748 123.25,-748 123.25,-742 129.25,-736 135.25,-736"/>
<text text-anchor="middle" x="396.56" y="-929.45" font-family="Helvetica,sans-Serif" font-weight="bold" font-size="9.00">site&#45;control</text>
</g>
<g id="clust19" class="cluster">
<title>cluster_src/ts/ui/overlay/site&#45;control/scroll</title>
<path fill="#ffffff" stroke="black" stroke-width="2" d="M403.25,-770C403.25,-770 648.38,-770 648.38,-770 654.38,-770 660.38,-776 660.38,-782 660.38,-782 660.38,-842 660.38,-842 660.38,-848 654.38,-854 648.38,-854 648.38,-854 403.25,-854 403.25,-854 397.25,-854 391.25,-848 391.25,-842 391.25,-842 391.25,-782 391.25,-782 391.25,-776 397.25,-770 403.25,-770"/>
<text text-anchor="middle" x="525.81" y="-841.45" font-family="Helvetica,sans-Serif" font-weight="bold" font-size="9.00">scroll</text>
</g>
<g id="clust20" class="cluster">
<title>cluster_src/ts/ui/overlay/site&#45;control/theme</title>
<path fill="#ffffff" stroke="black" stroke-width="2" d="M401.75,-862C401.75,-862 649.88,-862 649.88,-862 655.88,-862 661.88,-868 661.88,-874 661.88,-874 661.88,-903 661.88,-903 661.88,-909 655.88,-915 649.88,-915 649.88,-915 401.75,-915 401.75,-915 395.75,-915 389.75,-909 389.75,-903 389.75,-903 389.75,-874 389.75,-874 389.75,-868 395.75,-862 401.75,-862"/>
<text text-anchor="middle" x="525.81" y="-902.45" font-family="Helvetica,sans-Serif" font-weight="bold" font-size="9.00">theme</text>
</g>
<g id="clust21" class="cluster">
<title>cluster_src/ts/ui/overlay/surface</title>
<path fill="#ffffff" stroke="black" stroke-width="2" d="M267.75,-976C267.75,-976 361.25,-976 361.25,-976 367.25,-976 373.25,-982 373.25,-988 373.25,-988 373.25,-1017 373.25,-1017 373.25,-1023 367.25,-1029 361.25,-1029 361.25,-1029 267.75,-1029 267.75,-1029 261.75,-1029 255.75,-1023 255.75,-1017 255.75,-1017 255.75,-988 255.75,-988 255.75,-982 261.75,-976 267.75,-976"/>
<text text-anchor="middle" x="314.5" y="-1016.45" font-family="Helvetica,sans-Serif" font-weight="bold" font-size="9.00">surface</text>
</g>
<g id="clust22" class="cluster">
<title>cluster_src/ts/ui/site</title>
<path fill="#ffffff" stroke="black" stroke-width="2" d="M272.88,-74C272.88,-74 664.75,-74 664.75,-74 670.75,-74 676.75,-80 676.75,-86 676.75,-86 676.75,-333 676.75,-333 676.75,-339 670.75,-345 664.75,-345 664.75,-345 272.88,-345 272.88,-345 266.88,-345 260.88,-339 260.88,-333 260.88,-333 260.88,-86 260.88,-86 260.88,-80 266.88,-74 272.88,-74"/>
<text text-anchor="middle" x="468.81" y="-332.45" font-family="Helvetica,sans-Serif" font-weight="bold" font-size="9.00">site</text>
</g>
<g id="clust23" class="cluster">
<title>cluster_src/ts/ui/site/footer</title>
<path fill="#ffffff" stroke="black" stroke-width="2" d="M283.12,-82C283.12,-82 493,-82 493,-82 499,-82 505,-88 505,-94 505,-94 505,-123 505,-123 505,-129 499,-135 493,-135 493,-135 283.12,-135 283.12,-135 277.12,-135 271.12,-129 271.12,-123 271.12,-123 271.12,-94 271.12,-94 271.12,-88 277.12,-82 283.12,-82"/>
<text text-anchor="middle" x="388.06" y="-122.45" font-family="Helvetica,sans-Serif" font-weight="bold" font-size="9.00">footer</text>
</g>
<g id="clust24" class="cluster">
<title>cluster_src/ts/ui/site/header</title>
<path fill="#ffffff" stroke="black" stroke-width="2" d="M280.88,-143C280.88,-143 495.25,-143 495.25,-143 501.25,-143 507.25,-149 507.25,-155 507.25,-155 507.25,-184 507.25,-184 507.25,-190 501.25,-196 495.25,-196 495.25,-196 280.88,-196 280.88,-196 274.88,-196 268.88,-190 268.88,-184 268.88,-184 268.88,-155 268.88,-155 268.88,-149 274.88,-143 280.88,-143"/>
<text text-anchor="middle" x="388.06" y="-183.45" font-family="Helvetica,sans-Serif" font-weight="bold" font-size="9.00">header</text>
</g>
<g id="clust25" class="cluster">
<title>cluster_src/ts/ui/site/project</title>
<path fill="#ffffff" stroke="black" stroke-width="2" d="M281.62,-204C281.62,-204 656.75,-204 656.75,-204 662.75,-204 668.75,-210 668.75,-216 668.75,-216 668.75,-306 668.75,-306 668.75,-312 662.75,-318 656.75,-318 656.75,-318 281.62,-318 281.62,-318 275.62,-318 269.62,-312 269.62,-306 269.62,-306 269.62,-216 269.62,-216 269.62,-210 275.62,-204 281.62,-204"/>
<text text-anchor="middle" x="469.19" y="-305.45" font-family="Helvetica,sans-Serif" font-weight="bold" font-size="9.00">project</text>
</g>
<g id="clust26" class="cluster">
<title>cluster_src/ts/ui/site/project/text</title>
<path fill="#ffffff" stroke="black" stroke-width="2" d="M402.88,-238C402.88,-238 648.75,-238 648.75,-238 654.75,-238 660.75,-244 660.75,-250 660.75,-250 660.75,-279 660.75,-279 660.75,-285 654.75,-291 648.75,-291 648.75,-291 402.88,-291 402.88,-291 396.88,-291 390.88,-285 390.88,-279 390.88,-279 390.88,-250 390.88,-250 390.88,-244 396.88,-238 402.88,-238"/>
<text text-anchor="middle" x="525.81" y="-278.45" font-family="Helvetica,sans-Serif" font-weight="bold" font-size="9.00">text</text>
</g>
<!-- src/ts/Application.module.css -->
<g id="node1" class="node">
<title>src/ts/Application.module.css</title>
<g id="a_node1"><a xlink:href="src/ts/Application.module.css" xlink:title="Application.module.css">
<path fill="#ffffcc" stroke="black" d="M237.08,-42.25C237.08,-42.25 138.92,-42.25 138.92,-42.25 135.83,-42.25 132.75,-39.17 132.75,-36.08 132.75,-36.08 132.75,-29.92 132.75,-29.92 132.75,-26.83 135.83,-23.75 138.92,-23.75 138.92,-23.75 237.08,-23.75 237.08,-23.75 240.17,-23.75 243.25,-26.83 243.25,-29.92 243.25,-29.92 243.25,-36.08 243.25,-36.08 243.25,-39.17 240.17,-42.25 237.08,-42.25"/>
<text text-anchor="start" x="140.75" y="-29.7" font-family="Helvetica,sans-Serif" font-size="9.00">Application.module.css</text>
</a>
</g>
</g>
<!-- src/ts/Application.tsx -->
<g id="node2" class="node">
<title>src/ts/Application.tsx</title>
<g id="a_node2"><a xlink:href="src/ts/Application.tsx" xlink:title="Application.tsx">
<path fill="#bbfeff" stroke="black" d="M93.08,-264.25C93.08,-264.25 30.17,-264.25 30.17,-264.25 27.08,-264.25 24,-261.17 24,-258.08 24,-258.08 24,-251.92 24,-251.92 24,-248.83 27.08,-245.75 30.17,-245.75 30.17,-245.75 93.08,-245.75 93.08,-245.75 96.17,-245.75 99.25,-248.83 99.25,-251.92 99.25,-251.92 99.25,-258.08 99.25,-258.08 99.25,-261.17 96.17,-264.25 93.08,-264.25"/>
<text text-anchor="start" x="32" y="-251.7" font-family="Helvetica,sans-Serif" font-size="9.00">Application.tsx</text>
</a>
</g>
</g>
<!-- src/ts/Application.tsx&#45;&gt;src/ts/Application.module.css -->
<g id="edge1" class="edge">
<title>src/ts/Application.tsx&#45;&gt;src/ts/Application.module.css</title>
<path fill="none" stroke="#000000" stroke-width="2" stroke-opacity="0.200000" d="M63.29,-245.49C66.06,-208.54 77.99,-75.18 107.25,-47 111.98,-42.44 117.65,-39.08 123.74,-36.63"/>
<polygon fill="#000000" fill-opacity="0.200000" stroke="#000000" stroke-width="2" stroke-opacity="0.200000" points="124.36,-38.64 129.4,-34.78 123.05,-34.65 124.36,-38.64"/>
</g>
<!-- src/ts/ui/overlay/UIOverlay.tsx -->
<g id="node3" class="node">
<title>src/ts/ui/overlay/UIOverlay.tsx</title>
<g id="a_node3"><a xlink:href="src/ts/ui/overlay/UIOverlay.tsx" xlink:title="UIOverlay.tsx">
<path fill="#bbfeff" stroke="black" d="M216.46,-968.25C216.46,-968.25 159.54,-968.25 159.54,-968.25 156.46,-968.25 153.38,-965.17 153.38,-962.08 153.38,-962.08 153.38,-955.92 153.38,-955.92 153.38,-952.83 156.46,-949.75 159.54,-949.75 159.54,-949.75 216.46,-949.75 216.46,-949.75 219.54,-949.75 222.62,-952.83 222.62,-955.92 222.62,-955.92 222.62,-962.08 222.62,-962.08 222.62,-965.17 219.54,-968.25 216.46,-968.25"/>
<text text-anchor="start" x="161.38" y="-955.7" font-family="Helvetica,sans-Serif" font-size="9.00">UIOverlay.tsx</text>
</a>
</g>
</g>
<!-- src/ts/Application.tsx&#45;&gt;src/ts/ui/overlay/UIOverlay.tsx -->
<g id="edge2" class="edge">
<title>src/ts/Application.tsx&#45;&gt;src/ts/ui/overlay/UIOverlay.tsx</title>
<path fill="none" stroke="#000000" stroke-width="2" stroke-opacity="0.200000" d="M62.54,-264.71C61.96,-344.61 59.73,-891.98 107.25,-945 116.49,-955.3 130.41,-959.75 144.05,-961.33"/>
<polygon fill="#000000" fill-opacity="0.200000" stroke="#000000" stroke-width="2" stroke-opacity="0.200000" points="143.77,-963.41 149.91,-961.76 144.08,-959.22 143.77,-963.41"/>
</g>
<!-- src/ts/ui/UIContainer.tsx -->
<g id="node4" class="node">
<title>src/ts/ui/UIContainer.tsx</title>
<g id="a_node4"><a xlink:href="src/ts/ui/UIContainer.tsx" xlink:title="UIContainer.tsx">
<path fill="#bbfeff" stroke="black" d="M220.96,-264.25C220.96,-264.25 155.04,-264.25 155.04,-264.25 151.96,-264.25 148.88,-261.17 148.88,-258.08 148.88,-258.08 148.88,-251.92 148.88,-251.92 148.88,-248.83 151.96,-245.75 155.04,-245.75 155.04,-245.75 220.96,-245.75 220.96,-245.75 224.04,-245.75 227.12,-248.83 227.12,-251.92 227.12,-251.92 227.12,-258.08 227.12,-258.08 227.12,-261.17 224.04,-264.25 220.96,-264.25"/>
<text text-anchor="start" x="156.88" y="-251.7" font-family="Helvetica,sans-Serif" font-size="9.00">UIContainer.tsx</text>
</a>
</g>
</g>
<!-- src/ts/Application.tsx&#45;&gt;src/ts/ui/UIContainer.tsx -->
<g id="edge3" class="edge">
<title>src/ts/Application.tsx&#45;&gt;src/ts/ui/UIContainer.tsx</title>
<path fill="none" stroke="#000000" stroke-width="2" stroke-opacity="0.200000" d="M99.6,-255C112.17,-255 126.39,-255 139.66,-255"/>
<polygon fill="#000000" fill-opacity="0.200000" stroke="#000000" stroke-width="2" stroke-opacity="0.200000" points="139.63,-257.1 145.63,-255 139.63,-252.9 139.63,-257.1"/>
</g>
<!-- src/ts/ui/overlay/UIOverlay.module.css -->
<g id="node31" class="node">
<title>src/ts/ui/overlay/UIOverlay.module.css</title>
<g id="a_node31"><a xlink:href="src/ts/ui/overlay/UIOverlay.module.css" xlink:title="UIOverlay.module.css">
<path fill="#ffffcc" stroke="black" d="M360.58,-968.25C360.58,-968.25 268.42,-968.25 268.42,-968.25 265.33,-968.25 262.25,-965.17 262.25,-962.08 262.25,-962.08 262.25,-955.92 262.25,-955.92 262.25,-952.83 265.33,-949.75 268.42,-949.75 268.42,-949.75 360.58,-949.75 360.58,-949.75 363.67,-949.75 366.75,-952.83 366.75,-955.92 366.75,-955.92 366.75,-962.08 366.75,-962.08 366.75,-965.17 363.67,-968.25 360.58,-968.25"/>
<text text-anchor="start" x="270.25" y="-955.7" font-family="Helvetica,sans-Serif" font-size="9.00">UIOverlay.module.css</text>
</a>
</g>
</g>
<!-- src/ts/ui/overlay/UIOverlay.tsx&#45;&gt;src/ts/ui/overlay/UIOverlay.module.css -->
<g id="edge27" class="edge">
<title>src/ts/ui/overlay/UIOverlay.tsx&#45;&gt;src/ts/ui/overlay/UIOverlay.module.css</title>
<path fill="none" stroke="#000000" stroke-width="2" stroke-opacity="0.200000" d="M223.02,-959C232.26,-959 242.56,-959 252.8,-959"/>
<polygon fill="#000000" fill-opacity="0.200000" stroke="#000000" stroke-width="2" stroke-opacity="0.200000" points="252.73,-961.1 258.73,-959 252.73,-956.9 252.73,-961.1"/>
</g>
<!-- src/ts/ui/overlay/site&#45;control/UISiteControl.tsx -->
<g id="node32" class="node">
<title>src/ts/ui/overlay/site&#45;control/UISiteControl.tsx</title>
<g id="a_node32"><a xlink:href="src/ts/ui/overlay/site-control/UISiteControl.tsx" xlink:title="UISiteControl.tsx">
<path fill="#bbfeff" stroke="black" d="M350.46,-888.25C350.46,-888.25 278.54,-888.25 278.54,-888.25 275.46,-888.25 272.38,-885.17 272.38,-882.08 272.38,-882.08 272.38,-875.92 272.38,-875.92 272.38,-872.83 275.46,-869.75 278.54,-869.75 278.54,-869.75 350.46,-869.75 350.46,-869.75 353.54,-869.75 356.62,-872.83 356.62,-875.92 356.62,-875.92 356.62,-882.08 356.62,-882.08 356.62,-885.17 353.54,-888.25 350.46,-888.25"/>
<text text-anchor="start" x="280.38" y="-875.7" font-family="Helvetica,sans-Serif" font-size="9.00">UISiteControl.tsx</text>
</a>
</g>
</g>
<!-- src/ts/ui/overlay/UIOverlay.tsx&#45;&gt;src/ts/ui/overlay/site&#45;control/UISiteControl.tsx -->
<g id="edge25" class="edge">
<title>src/ts/ui/overlay/UIOverlay.tsx&#45;&gt;src/ts/ui/overlay/site&#45;control/UISiteControl.tsx</title>
<path fill="none" stroke="#000000" stroke-width="2" stroke-opacity="0.200000" d="M223.11,-956.65C231.14,-954.55 239.02,-950.98 244.75,-945 261.41,-927.64 238.88,-909.15 255.75,-892 258.12,-889.59 260.84,-887.58 263.78,-885.91"/>
<polygon fill="#000000" fill-opacity="0.200000" stroke="#000000" stroke-width="2" stroke-opacity="0.200000" points="264.58,-887.85 269.2,-883.49 262.87,-884.02 264.58,-887.85"/>
</g>
<!-- src/ts/ui/overlay/surface/UIOverlaySurface.tsx -->
<g id="node33" class="node">
<title>src/ts/ui/overlay/surface/UIOverlaySurface.tsx</title>
<g id="a_node33"><a xlink:href="src/ts/ui/overlay/surface/UIOverlaySurface.tsx" xlink:title="UIOverlaySurface.tsx">
<path fill="#bbfeff" stroke="black" d="M359.08,-1002.25C359.08,-1002.25 269.92,-1002.25 269.92,-1002.25 266.83,-1002.25 263.75,-999.17 263.75,-996.08 263.75,-996.08 263.75,-989.92 263.75,-989.92 263.75,-986.83 266.83,-983.75 269.92,-983.75 269.92,-983.75 359.08,-983.75 359.08,-983.75 362.17,-983.75 365.25,-986.83 365.25,-989.92 365.25,-989.92 365.25,-996.08 365.25,-996.08 365.25,-999.17 362.17,-1002.25 359.08,-1002.25"/>
<text text-anchor="start" x="271.75" y="-989.7" font-family="Helvetica,sans-Serif" font-size="9.00">UIOverlaySurface.tsx</text>
</a>
</g>
</g>
<!-- src/ts/ui/overlay/UIOverlay.tsx&#45;&gt;src/ts/ui/overlay/surface/UIOverlaySurface.tsx -->
<g id="edge26" class="edge">
<title>src/ts/ui/overlay/UIOverlay.tsx&#45;&gt;src/ts/ui/overlay/surface/UIOverlaySurface.tsx</title>
<path fill="none" stroke="#000000" stroke-width="2" stroke-opacity="0.200000" d="M218.09,-968.73C229.73,-972.47 243.32,-976.65 255.75,-980 257.18,-980.39 258.64,-980.77 260.11,-981.15"/>
<polygon fill="#000000" fill-opacity="0.200000" stroke="#000000" stroke-width="2" stroke-opacity="0.200000" points="259.37,-983.13 265.7,-982.55 260.39,-979.06 259.37,-983.13"/>
</g>
<!-- src/ts/store/project/projectStore.ts -->
<g id="node9" class="node">
<title>src/ts/store/project/projectStore.ts</title>
<g id="a_node9"><a xlink:href="src/ts/store/project/projectStore.ts" xlink:title="projectStore.ts">
<path fill="#ddfeff" stroke="black" d="M621.08,-1272.25C621.08,-1272.25 558.92,-1272.25 558.92,-1272.25 555.83,-1272.25 552.75,-1269.17 552.75,-1266.08 552.75,-1266.08 552.75,-1259.92 552.75,-1259.92 552.75,-1256.83 555.83,-1253.75 558.92,-1253.75 558.92,-1253.75 621.08,-1253.75 621.08,-1253.75 624.17,-1253.75 627.25,-1256.83 627.25,-1259.92 627.25,-1259.92 627.25,-1266.08 627.25,-1266.08 627.25,-1269.17 624.17,-1272.25 621.08,-1272.25"/>
<text text-anchor="start" x="560.75" y="-1259.7" font-family="Helvetica,sans-Serif" font-size="9.00">projectStore.ts</text>
</a>
</g>
</g>
<!-- src/ts/ui/UIContainer.tsx&#45;&gt;src/ts/store/project/projectStore.ts -->
<g id="edge8" class="edge">
<title>src/ts/ui/UIContainer.tsx&#45;&gt;src/ts/store/project/projectStore.ts</title>
<path fill="none" stroke="#000000" stroke-width="2" stroke-opacity="0.200000" d="M190.43,-264.73C197.63,-314.32 230.27,-543.9 244.75,-733 247.29,-766.15 241.76,-1001.84 255.75,-1032 318.09,-1166.33 381.97,-1176.44 515.25,-1241 524.27,-1245.37 534.34,-1249.07 544.07,-1252.11"/>
<polygon fill="#000000" fill-opacity="0.200000" stroke="#000000" stroke-width="2" stroke-opacity="0.200000" points="543.24,-1254.06 549.59,-1253.76 544.44,-1250.03 543.24,-1254.06"/>
</g>
<!-- src/ts/ui/UIContainer.module.css -->
<g id="node15" class="node">
<title>src/ts/ui/UIContainer.module.css</title>
<g id="a_node15"><a xlink:href="src/ts/ui/UIContainer.module.css" xlink:title="UIContainer.module.css">
<path fill="#ffffcc" stroke="black" d="M365.08,-371.25C365.08,-371.25 263.92,-371.25 263.92,-371.25 260.83,-371.25 257.75,-368.17 257.75,-365.08 257.75,-365.08 257.75,-358.92 257.75,-358.92 257.75,-355.83 260.83,-352.75 263.92,-352.75 263.92,-352.75 365.08,-352.75 365.08,-352.75 368.17,-352.75 371.25,-355.83 371.25,-358.92 371.25,-358.92 371.25,-365.08 371.25,-365.08 371.25,-368.17 368.17,-371.25 365.08,-371.25"/>
<text text-anchor="start" x="265.75" y="-358.7" font-family="Helvetica,sans-Serif" font-size="9.00">UIContainer.module.css</text>
</a>
</g>
</g>
<!-- src/ts/ui/UIContainer.tsx&#45;&gt;src/ts/ui/UIContainer.module.css -->
<g id="edge12" class="edge">
<title>src/ts/ui/UIContainer.tsx&#45;&gt;src/ts/ui/UIContainer.module.css</title>
<path fill="none" stroke="#000000" stroke-width="2" stroke-opacity="0.200000" d="M197.63,-264.45C209.94,-277.72 233.54,-302.34 255.75,-321 267.07,-330.51 280.5,-340.13 291.56,-347.66"/>
<polygon fill="#000000" fill-opacity="0.200000" stroke="#000000" stroke-width="2" stroke-opacity="0.200000" points="290.11,-349.22 296.27,-350.83 292.46,-345.74 290.11,-349.22"/>
</g>
<!-- src/ts/ui/site/footer/SiteFooter.tsx -->
<g id="node16" class="node">
<title>src/ts/ui/site/footer/SiteFooter.tsx</title>
<g id="a_node16"><a xlink:href="src/ts/ui/site/footer/SiteFooter.tsx" xlink:title="SiteFooter.tsx">
<path fill="#bbfeff" stroke="black" d="M343.71,-108.25C343.71,-108.25 285.29,-108.25 285.29,-108.25 282.21,-108.25 279.12,-105.17 279.12,-102.08 279.12,-102.08 279.12,-95.92 279.12,-95.92 279.12,-92.83 282.21,-89.75 285.29,-89.75 285.29,-89.75 343.71,-89.75 343.71,-89.75 346.79,-89.75 349.88,-92.83 349.88,-95.92 349.88,-95.92 349.88,-102.08 349.88,-102.08 349.88,-105.17 346.79,-108.25 343.71,-108.25"/>
<text text-anchor="start" x="287.12" y="-95.7" font-family="Helvetica,sans-Serif" font-size="9.00">SiteFooter.tsx</text>
</a>
</g>
</g>
<!-- src/ts/ui/UIContainer.tsx&#45;&gt;src/ts/ui/site/footer/SiteFooter.tsx -->
<g id="edge9" class="edge">
<title>src/ts/ui/UIContainer.tsx&#45;&gt;src/ts/ui/site/footer/SiteFooter.tsx</title>
<path fill="none" stroke="#000000" stroke-width="2" stroke-opacity="0.200000" d="M227.51,-252.54C234.06,-250.45 240.2,-247.13 244.75,-242 259.86,-224.93 244.22,-159.67 255.75,-140 262.36,-128.73 273.42,-119.76 284.11,-113.11"/>
<polygon fill="#000000" fill-opacity="0.200000" stroke="#000000" stroke-width="2" stroke-opacity="0.200000" points="285,-115.03 289.14,-110.2 282.89,-111.39 285,-115.03"/>
</g>
<!-- src/ts/ui/site/header/SiteHeader.tsx -->
<g id="node17" class="node">
<title>src/ts/ui/site/header/SiteHeader.tsx</title>
<g id="a_node17"><a xlink:href="src/ts/ui/site/header/SiteHeader.tsx" xlink:title="SiteHeader.tsx">
<path fill="#bbfeff" stroke="black" d="M345.96,-169.25C345.96,-169.25 283.04,-169.25 283.04,-169.25 279.96,-169.25 276.88,-166.17 276.88,-163.08 276.88,-163.08 276.88,-156.92 276.88,-156.92 276.88,-153.83 279.96,-150.75 283.04,-150.75 283.04,-150.75 345.96,-150.75 345.96,-150.75 349.04,-150.75 352.12,-153.83 352.12,-156.92 352.12,-156.92 352.12,-163.08 352.12,-163.08 352.12,-166.17 349.04,-169.25 345.96,-169.25"/>
<text text-anchor="start" x="284.88" y="-156.7" font-family="Helvetica,sans-Serif" font-size="9.00">SiteHeader.tsx</text>
</a>
</g>
</g>
<!-- src/ts/ui/UIContainer.tsx&#45;&gt;src/ts/ui/site/header/SiteHeader.tsx -->
<g id="edge10" class="edge">
<title>src/ts/ui/UIContainer.tsx&#45;&gt;src/ts/ui/site/header/SiteHeader.tsx</title>
<path fill="none" stroke="#000000" stroke-width="2" stroke-opacity="0.200000" d="M227.47,-251.78C233.87,-249.73 239.96,-246.63 244.75,-242 258.31,-228.88 244.98,-216.49 255.75,-201 263.38,-190.03 274.93,-180.99 285.7,-174.22"/>
<polygon fill="#000000" fill-opacity="0.200000" stroke="#000000" stroke-width="2" stroke-opacity="0.200000" points="286.65,-176.1 290.74,-171.23 284.51,-172.48 286.65,-176.1"/>
</g>
<!-- src/ts/ui/site/project/SiteProject.tsx -->
<g id="node18" class="node">
<title>src/ts/ui/site/project/SiteProject.tsx</title>
<g id="a_node18"><a xlink:href="src/ts/ui/site/project/SiteProject.tsx" xlink:title="SiteProject.tsx">
<path fill="#bbfeff" stroke="black" d="M345.21,-264.25C345.21,-264.25 283.79,-264.25 283.79,-264.25 280.71,-264.25 277.62,-261.17 277.62,-258.08 277.62,-258.08 277.62,-251.92 277.62,-251.92 277.62,-248.83 280.71,-245.75 283.79,-245.75 283.79,-245.75 345.21,-245.75 345.21,-245.75 348.29,-245.75 351.38,-248.83 351.38,-251.92 351.38,-251.92 351.38,-258.08 351.38,-258.08 351.38,-261.17 348.29,-264.25 345.21,-264.25"/>
<text text-anchor="start" x="285.62" y="-251.7" font-family="Helvetica,sans-Serif" font-size="9.00">SiteProject.tsx</text>
</a>
</g>
</g>
<!-- src/ts/ui/UIContainer.tsx&#45;&gt;src/ts/ui/site/project/SiteProject.tsx -->
<g id="edge11" class="edge">
<title>src/ts/ui/UIContainer.tsx&#45;&gt;src/ts/ui/site/project/SiteProject.tsx</title>
<path fill="none" stroke="#000000" stroke-width="2" stroke-opacity="0.200000" d="M227.37,-255C240.38,-255 255.03,-255 268.51,-255"/>
<polygon fill="#000000" fill-opacity="0.200000" stroke="#000000" stroke-width="2" stroke-opacity="0.200000" points="268.14,-257.1 274.14,-255 268.14,-252.9 268.14,-257.1"/>
</g>
<!-- src/ts/hook/useScrollProgress.ts -->
<g id="node5" class="node">
<title>src/ts/hook/useScrollProgress.ts</title>
<g id="a_node5"><a xlink:href="src/ts/hook/useScrollProgress.ts" xlink:title="useScrollProgress.ts">
<path fill="#ddfeff" stroke="black" d="M633.83,-1142.25C633.83,-1142.25 546.17,-1142.25 546.17,-1142.25 543.08,-1142.25 540,-1139.17 540,-1136.08 540,-1136.08 540,-1129.92 540,-1129.92 540,-1126.83 543.08,-1123.75 546.17,-1123.75 546.17,-1123.75 633.83,-1123.75 633.83,-1123.75 636.92,-1123.75 640,-1126.83 640,-1129.92 640,-1129.92 640,-1136.08 640,-1136.08 640,-1139.17 636.92,-1142.25 633.83,-1142.25"/>
<text text-anchor="start" x="548" y="-1129.7" font-family="Helvetica,sans-Serif" font-size="9.00">useScrollProgress.ts</text>
</a>
</g>
</g>
<!-- src/ts/motion/duration.ts -->
<g id="node6" class="node">
<title>src/ts/motion/duration.ts</title>
<g id="a_node6"><a xlink:href="src/ts/motion/duration.ts" xlink:title="duration.ts">
<path fill="#ddfeff" stroke="black" d="M1056.08,-1117.25C1056.08,-1117.25 1009.67,-1117.25 1009.67,-1117.25 1006.58,-1117.25 1003.5,-1114.17 1003.5,-1111.08 1003.5,-1111.08 1003.5,-1104.92 1003.5,-1104.92 1003.5,-1101.83 1006.58,-1098.75 1009.67,-1098.75 1009.67,-1098.75 1056.08,-1098.75 1056.08,-1098.75 1059.17,-1098.75 1062.25,-1101.83 1062.25,-1104.92 1062.25,-1104.92 1062.25,-1111.08 1062.25,-1111.08 1062.25,-1114.17 1059.17,-1117.25 1056.08,-1117.25"/>
<text text-anchor="start" x="1011.5" y="-1104.7" font-family="Helvetica,sans-Serif" font-size="9.00">duration.ts</text>
</a>
</g>
</g>
<!-- src/ts/motion/ease.ts -->
<g id="node7" class="node">
<title>src/ts/motion/ease.ts</title>
<g id="a_node7"><a xlink:href="src/ts/motion/ease.ts" xlink:title="ease.ts">
<path fill="#ddfeff" stroke="black" d="M908.71,-1117.25C908.71,-1117.25 867.04,-1117.25 867.04,-1117.25 863.96,-1117.25 860.88,-1114.17 860.88,-1111.08 860.88,-1111.08 860.88,-1104.92 860.88,-1104.92 860.88,-1101.83 863.96,-1098.75 867.04,-1098.75 867.04,-1098.75 908.71,-1098.75 908.71,-1098.75 911.79,-1098.75 914.88,-1101.83 914.88,-1104.92 914.88,-1104.92 914.88,-1111.08 914.88,-1111.08 914.88,-1114.17 911.79,-1117.25 908.71,-1117.25"/>
<text text-anchor="start" x="873.25" y="-1104.7" font-family="Helvetica,sans-Serif" font-size="9.00">ease.ts</text>
</a>
</g>
</g>
<!-- src/ts/motion/fade.ts -->
<g id="node8" class="node">
<title>src/ts/motion/fade.ts</title>
<g id="a_node8"><a xlink:href="src/ts/motion/fade.ts" xlink:title="fade.ts">
<path fill="#ddfeff" stroke="black" d="M908.71,-1148.25C908.71,-1148.25 867.04,-1148.25 867.04,-1148.25 863.96,-1148.25 860.88,-1145.17 860.88,-1142.08 860.88,-1142.08 860.88,-1135.92 860.88,-1135.92 860.88,-1132.83 863.96,-1129.75 867.04,-1129.75 867.04,-1129.75 908.71,-1129.75 908.71,-1129.75 911.79,-1129.75 914.88,-1132.83 914.88,-1135.92 914.88,-1135.92 914.88,-1142.08 914.88,-1142.08 914.88,-1145.17 911.79,-1148.25 908.71,-1148.25"/>
<text text-anchor="start" x="874.38" y="-1135.7" font-family="Helvetica,sans-Serif" font-size="9.00">fade.ts</text>
</a>
</g>
</g>
<!-- src/ts/motion/fade.ts&#45;&gt;src/ts/motion/duration.ts -->
<g id="edge4" class="edge">
<title>src/ts/motion/fade.ts&#45;&gt;src/ts/motion/duration.ts</title>
<path fill="none" stroke="#000000" stroke-width="2" stroke-opacity="0.200000" d="M915.1,-1133.31C937.46,-1128.47 969.86,-1121.44 994.86,-1116.03"/>
<polygon fill="#000000" fill-opacity="0.200000" stroke="#000000" stroke-width="2" stroke-opacity="0.200000" points="994.98,-1118.15 1000.4,-1114.82 994.09,-1114.04 994.98,-1118.15"/>
</g>
<!-- src/ts/store/uiState/uiStateStore.ts -->
<g id="node10" class="node">
<title>src/ts/store/uiState/uiStateStore.ts</title>
<g id="a_node10"><a xlink:href="src/ts/store/uiState/uiStateStore.ts" xlink:title="uiStateStore.ts">
<path fill="#ddfeff" stroke="black" d="M621.46,-1211.25C621.46,-1211.25 558.54,-1211.25 558.54,-1211.25 555.46,-1211.25 552.38,-1208.17 552.38,-1205.08 552.38,-1205.08 552.38,-1198.92 552.38,-1198.92 552.38,-1195.83 555.46,-1192.75 558.54,-1192.75 558.54,-1192.75 621.46,-1192.75 621.46,-1192.75 624.54,-1192.75 627.62,-1195.83 627.62,-1198.92 627.62,-1198.92 627.62,-1205.08 627.62,-1205.08 627.62,-1208.17 624.54,-1211.25 621.46,-1211.25"/>
<text text-anchor="start" x="560.38" y="-1198.7" font-family="Helvetica,sans-Serif" font-size="9.00">uiStateStore.ts</text>
</a>
</g>
</g>
<!-- src/ts/types/index.ts -->
<g id="node11" class="node">
<title>src/ts/types/index.ts</title>
<g id="a_node11"><a xlink:href="src/ts/types/index.ts" xlink:title="index.ts">
<path fill="#ddfeff" stroke="black" d="M770.21,-1210.25C770.21,-1210.25 728.54,-1210.25 728.54,-1210.25 725.46,-1210.25 722.38,-1207.17 722.38,-1204.08 722.38,-1204.08 722.38,-1197.92 722.38,-1197.92 722.38,-1194.83 725.46,-1191.75 728.54,-1191.75 728.54,-1191.75 770.21,-1191.75 770.21,-1191.75 773.29,-1191.75 776.38,-1194.83 776.38,-1197.92 776.38,-1197.92 776.38,-1204.08 776.38,-1204.08 776.38,-1207.17 773.29,-1210.25 770.21,-1210.25"/>
<text text-anchor="start" x="733.62" y="-1197.7" font-family="Helvetica,sans-Serif" font-size="9.00">index.ts</text>
</a>
</g>
</g>
<!-- src/ts/store/uiState/uiStateStore.ts&#45;&gt;src/ts/types/index.ts -->
<g id="edge5" class="edge">
<title>src/ts/store/uiState/uiStateStore.ts&#45;&gt;src/ts/types/index.ts</title>
<path fill="none" stroke="#000000" stroke-width="2" stroke-opacity="0.200000" d="M627.9,-1201.77C653.63,-1201.6 687.76,-1201.39 713.12,-1201.22"/>
<polygon fill="#000000" fill-opacity="0.200000" stroke="#000000" stroke-width="2" stroke-opacity="0.200000" points="713.02,-1203.32 719.01,-1201.19 713,-1199.12 713.02,-1203.32"/>
</g>
<!-- src/ts/types/project.ts -->
<g id="node12" class="node">
<title>src/ts/types/project.ts</title>
<g id="a_node12"><a xlink:href="src/ts/types/project.ts" xlink:title="project.ts">
<path fill="#ddfeff" stroke="black" d="M908.71,-1210.25C908.71,-1210.25 867.04,-1210.25 867.04,-1210.25 863.96,-1210.25 860.88,-1207.17 860.88,-1204.08 860.88,-1204.08 860.88,-1197.92 860.88,-1197.92 860.88,-1194.83 863.96,-1191.75 867.04,-1191.75 867.04,-1191.75 908.71,-1191.75 908.71,-1191.75 911.79,-1191.75 914.88,-1194.83 914.88,-1197.92 914.88,-1197.92 914.88,-1204.08 914.88,-1204.08 914.88,-1207.17 911.79,-1210.25 908.71,-1210.25"/>
<text text-anchor="start" x="869.5" y="-1197.7" font-family="Helvetica,sans-Serif" font-size="9.00">project.ts</text>
</a>
</g>
</g>
<!-- src/ts/types/index.ts&#45;&gt;src/ts/types/project.ts -->
<g id="edge6" class="edge">
<title>src/ts/types/index.ts&#45;&gt;src/ts/types/project.ts</title>
<path fill="none" stroke="#000000" stroke-width="2" stroke-opacity="0.200000" d="M776.69,-1201C798.6,-1201 829.91,-1201 853.56,-1201"/>
<polygon fill="#000000" fill-opacity="0.200000" stroke="#000000" stroke-width="2" stroke-opacity="0.200000" points="859.64,-1203.1 853.64,-1201 859.64,-1198.9 859.64,-1203.1"/>
</g>
<!-- src/ts/types/theme.ts -->
<g id="node13" class="node">
<title>src/ts/types/theme.ts</title>
<g id="a_node13"><a xlink:href="src/ts/types/theme.ts" xlink:title="theme.ts">
<path fill="#ddfeff" stroke="black" d="M908.71,-1241.25C908.71,-1241.25 867.04,-1241.25 867.04,-1241.25 863.96,-1241.25 860.88,-1238.17 860.88,-1235.08 860.88,-1235.08 860.88,-1228.92 860.88,-1228.92 860.88,-1225.83 863.96,-1222.75 867.04,-1222.75 867.04,-1222.75 908.71,-1222.75 908.71,-1222.75 911.79,-1222.75 914.88,-1225.83 914.88,-1228.92 914.88,-1228.92 914.88,-1235.08 914.88,-1235.08 914.88,-1238.17 911.79,-1241.25 908.71,-1241.25"/>
<text text-anchor="start" x="870.62" y="-1228.7" font-family="Helvetica,sans-Serif" font-size="9.00">theme.ts</text>
</a>
</g>
</g>
<!-- src/ts/types/index.ts&#45;&gt;src/ts/types/theme.ts -->
<g id="edge7" class="edge">
<title>src/ts/types/index.ts&#45;&gt;src/ts/types/theme.ts</title>
<path fill="none" stroke="#000000" stroke-width="2" stroke-opacity="0.200000" d="M776.82,-1207C790.05,-1210 806.31,-1213.69 820.88,-1217 831.59,-1219.43 843.28,-1222.09 853.81,-1224.48"/>
<polygon fill="#000000" fill-opacity="0.200000" stroke="#000000" stroke-width="2" stroke-opacity="0.200000" points="859.1,-1227.84 853.71,-1224.46 860.03,-1223.74 859.1,-1227.84"/>
</g>
<!-- src/ts/types/vector.ts -->
<g id="node14" class="node">
<title>src/ts/types/vector.ts</title>
<g id="a_node14"><a xlink:href="src/ts/types/vector.ts" xlink:title="vector.ts">
<path fill="#ccffcc" stroke="black" d="M770.21,-1241.25C770.21,-1241.25 728.54,-1241.25 728.54,-1241.25 725.46,-1241.25 722.38,-1238.17 722.38,-1235.08 722.38,-1235.08 722.38,-1228.92 722.38,-1228.92 722.38,-1225.83 725.46,-1222.75 728.54,-1222.75 728.54,-1222.75 770.21,-1222.75 770.21,-1222.75 773.29,-1222.75 776.38,-1225.83 776.38,-1228.92 776.38,-1228.92 776.38,-1235.08 776.38,-1235.08 776.38,-1238.17 773.29,-1241.25 770.21,-1241.25"/>
<text text-anchor="start" x="732.88" y="-1228.7" font-family="Helvetica,sans-Serif" font-size="9.00">vector.ts</text>
</a>
</g>
</g>
<!-- src/ts/ui/component/button/text/ButtonText.tsx -->
<g id="node21" class="node">
<title>src/ts/ui/component/button/text/ButtonText.tsx</title>
<g id="a_node21"><a xlink:href="src/ts/ui/component/button/text/ButtonText.tsx" xlink:title="ButtonText.tsx">
<path fill="#bbfeff" stroke="black" d="M779.33,-578.25C779.33,-578.25 719.42,-578.25 719.42,-578.25 716.33,-578.25 713.25,-575.17 713.25,-572.08 713.25,-572.08 713.25,-565.92 713.25,-565.92 713.25,-562.83 716.33,-559.75 719.42,-559.75 719.42,-559.75 779.33,-559.75 779.33,-559.75 782.42,-559.75 785.5,-562.83 785.5,-565.92 785.5,-565.92 785.5,-572.08 785.5,-572.08 785.5,-575.17 782.42,-578.25 779.33,-578.25"/>
<text text-anchor="start" x="721.25" y="-565.7" font-family="Helvetica,sans-Serif" font-size="9.00">ButtonText.tsx</text>
</a>
</g>
</g>
<!-- src/ts/ui/site/footer/SiteFooter.tsx&#45;&gt;src/ts/ui/component/button/text/ButtonText.tsx -->
<g id="edge40" class="edge">
<title>src/ts/ui/site/footer/SiteFooter.tsx&#45;&gt;src/ts/ui/component/button/text/ButtonText.tsx</title>
<path fill="none" stroke="#000000" stroke-width="2" stroke-opacity="0.200000" d="M344.2,-89.32C382.67,-77.99 452.45,-63.23 507.25,-84 601.94,-119.88 635.08,-143.22 677.88,-235 692.15,-265.62 667.5,-510.64 685.88,-539 690.59,-546.27 697.59,-551.83 705.23,-556.06"/>
<polygon fill="#000000" fill-opacity="0.200000" stroke="#000000" stroke-width="2" stroke-opacity="0.200000" points="703.98,-557.78 710.29,-558.53 705.82,-554.01 703.98,-557.78"/>
</g>
<!-- src/ts/ui/site/footer/SiteFooter.module.css -->
<g id="node41" class="node">
<title>src/ts/ui/site/footer/SiteFooter.module.css</title>
<g id="a_node41"><a xlink:href="src/ts/ui/site/footer/SiteFooter.module.css" xlink:title="SiteFooter.module.css">
<path fill="#ffffcc" stroke="black" d="M490.83,-108.25C490.83,-108.25 397.17,-108.25 397.17,-108.25 394.08,-108.25 391,-105.17 391,-102.08 391,-102.08 391,-95.92 391,-95.92 391,-92.83 394.08,-89.75 397.17,-89.75 397.17,-89.75 490.83,-89.75 490.83,-89.75 493.92,-89.75 497,-92.83 497,-95.92 497,-95.92 497,-102.08 497,-102.08 497,-105.17 493.92,-108.25 490.83,-108.25"/>
<text text-anchor="start" x="399" y="-95.7" font-family="Helvetica,sans-Serif" font-size="9.00">SiteFooter.module.css</text>
</a>
</g>
</g>
<!-- src/ts/ui/site/footer/SiteFooter.tsx&#45;&gt;src/ts/ui/site/footer/SiteFooter.module.css -->
<g id="edge41" class="edge">
<title>src/ts/ui/site/footer/SiteFooter.tsx&#45;&gt;src/ts/ui/site/footer/SiteFooter.module.css</title>
<path fill="none" stroke="#000000" stroke-width="2" stroke-opacity="0.200000" d="M350.34,-99C360.23,-99 371.3,-99 382.25,-99"/>
<polygon fill="#000000" fill-opacity="0.200000" stroke="#000000" stroke-width="2" stroke-opacity="0.200000" points="381.95,-101.1 387.95,-99 381.95,-96.9 381.95,-101.1"/>
</g>
<!-- src/ts/ui/site/header/SiteHeader.module.css -->
<g id="node42" class="node">
<title>src/ts/ui/site/header/SiteHeader.module.css</title>
<g id="a_node42"><a xlink:href="src/ts/ui/site/header/SiteHeader.module.css" xlink:title="SiteHeader.module.css">
<path fill="#ffffcc" stroke="black" d="M493.08,-169.25C493.08,-169.25 394.92,-169.25 394.92,-169.25 391.83,-169.25 388.75,-166.17 388.75,-163.08 388.75,-163.08 388.75,-156.92 388.75,-156.92 388.75,-153.83 391.83,-150.75 394.92,-150.75 394.92,-150.75 493.08,-150.75 493.08,-150.75 496.17,-150.75 499.25,-153.83 499.25,-156.92 499.25,-156.92 499.25,-163.08 499.25,-163.08 499.25,-166.17 496.17,-169.25 493.08,-169.25"/>
<text text-anchor="start" x="396.75" y="-156.7" font-family="Helvetica,sans-Serif" font-size="9.00">SiteHeader.module.css</text>
</a>
</g>
</g>
<!-- src/ts/ui/site/header/SiteHeader.tsx&#45;&gt;src/ts/ui/site/header/SiteHeader.module.css -->
<g id="edge42" class="edge">
<title>src/ts/ui/site/header/SiteHeader.tsx&#45;&gt;src/ts/ui/site/header/SiteHeader.module.css</title>
<path fill="none" stroke="#000000" stroke-width="2" stroke-opacity="0.200000" d="M352.38,-160C360.96,-160 370.34,-160 379.71,-160"/>
<polygon fill="#000000" fill-opacity="0.200000" stroke="#000000" stroke-width="2" stroke-opacity="0.200000" points="379.63,-162.1 385.63,-160 379.63,-157.9 379.63,-162.1"/>
</g>
<!-- src/ts/ui/site/project/SiteProject.tsx&#45;&gt;src/ts/motion/duration.ts -->
<g id="edge43" class="edge">
<title>src/ts/ui/site/project/SiteProject.tsx&#45;&gt;src/ts/motion/duration.ts</title>
<path fill="none" stroke="#000000" stroke-width="2" stroke-opacity="0.200000" d="M351.6,-255.72C359.9,-257.69 367.87,-261.38 373.25,-268 396.05,-296.01 367.49,-886.01 384.25,-918 436.23,-1017.23 476.98,-1065 589,-1065 589,-1065 589,-1065 750.38,-1065 838.89,-1065 941.28,-1086.03 994.84,-1098.68"/>
<polygon fill="#000000" fill-opacity="0.200000" stroke="#000000" stroke-width="2" stroke-opacity="0.200000" points="994.06,-1100.65 1000.38,-1100 995.03,-1096.56 994.06,-1100.65"/>
</g>
<!-- src/ts/ui/site/project/SiteProject.tsx&#45;&gt;src/ts/motion/ease.ts -->
<g id="edge44" class="edge">
<title>src/ts/ui/site/project/SiteProject.tsx&#45;&gt;src/ts/motion/ease.ts</title>
<path fill="none" stroke="#000000" stroke-width="2" stroke-opacity="0.200000" d="M351.61,-255.71C359.92,-257.68 367.88,-261.38 373.25,-268 401.29,-302.56 353.8,-1036.54 384.25,-1069 392.27,-1077.55 738.84,-1099.1 851.73,-1105.91"/>
<polygon fill="#000000" fill-opacity="0.200000" stroke="#000000" stroke-width="2" stroke-opacity="0.200000" points="851.55,-1108 857.67,-1106.26 851.8,-1103.81 851.55,-1108"/>
</g>
<!-- src/ts/ui/component/viewer/MediaViewer.tsx -->
<g id="node26" class="node">
<title>src/ts/ui/component/viewer/MediaViewer.tsx</title>
<g id="a_node26"><a xlink:href="src/ts/ui/component/viewer/MediaViewer.tsx" xlink:title="MediaViewer.tsx">
<path fill="#bbfeff" stroke="black" d="M784.58,-404.25C784.58,-404.25 714.17,-404.25 714.17,-404.25 711.08,-404.25 708,-401.17 708,-398.08 708,-398.08 708,-391.92 708,-391.92 708,-388.83 711.08,-385.75 714.17,-385.75 714.17,-385.75 784.58,-385.75 784.58,-385.75 787.67,-385.75 790.75,-388.83 790.75,-391.92 790.75,-391.92 790.75,-398.08 790.75,-398.08 790.75,-401.17 787.67,-404.25 784.58,-404.25"/>
<text text-anchor="start" x="716" y="-391.7" font-family="Helvetica,sans-Serif" font-size="9.00">MediaViewer.tsx</text>
</a>
</g>
</g>
<!-- src/ts/ui/site/project/SiteProject.tsx&#45;&gt;src/ts/ui/component/viewer/MediaViewer.tsx -->
<g id="edge45" class="edge">
<title>src/ts/ui/site/project/SiteProject.tsx&#45;&gt;src/ts/ui/component/viewer/MediaViewer.tsx</title>
<path fill="none" stroke="#000000" stroke-width="2" stroke-opacity="0.200000" d="M330.22,-245.42C343.96,-235.57 363.73,-218.91 373.25,-199 384.8,-174.84 364.47,-97.05 384.25,-79 424.63,-42.15 456.29,-59.22 507.25,-79 603.04,-116.19 617.96,-151.53 677.88,-235 711.08,-281.26 733.48,-345.64 743.08,-376.74"/>
<polygon fill="#000000" fill-opacity="0.200000" stroke="#000000" stroke-width="2" stroke-opacity="0.200000" points="741.03,-377.23 744.77,-382.37 745.05,-376.02 741.03,-377.23"/>
</g>
<!-- src/ts/ui/site/project/SiteProject.module.css -->
<g id="node43" class="node">
<title>src/ts/ui/site/project/SiteProject.module.css</title>
<g id="a_node43"><a xlink:href="src/ts/ui/site/project/SiteProject.module.css" xlink:title="SiteProject.module.css">
<path fill="#ffffcc" stroke="black" d="M492.33,-230.25C492.33,-230.25 395.67,-230.25 395.67,-230.25 392.58,-230.25 389.5,-227.17 389.5,-224.08 389.5,-224.08 389.5,-217.92 389.5,-217.92 389.5,-214.83 392.58,-211.75 395.67,-211.75 395.67,-211.75 492.33,-211.75 492.33,-211.75 495.42,-211.75 498.5,-214.83 498.5,-217.92 498.5,-217.92 498.5,-224.08 498.5,-224.08 498.5,-227.17 495.42,-230.25 492.33,-230.25"/>
<text text-anchor="start" x="397.5" y="-217.7" font-family="Helvetica,sans-Serif" font-size="9.00">SiteProject.module.css</text>
</a>
</g>
</g>
<!-- src/ts/ui/site/project/SiteProject.tsx&#45;&gt;src/ts/ui/site/project/SiteProject.module.css -->
<g id="edge46" class="edge">
<title>src/ts/ui/site/project/SiteProject.tsx&#45;&gt;src/ts/ui/site/project/SiteProject.module.css</title>
<path fill="none" stroke="#000000" stroke-width="2" stroke-opacity="0.200000" d="M347.59,-245.31C359.11,-241.92 372.23,-238.18 384.25,-235 386.99,-234.28 389.8,-233.55 392.64,-232.83"/>
<polygon fill="#000000" fill-opacity="0.200000" stroke="#000000" stroke-width="2" stroke-opacity="0.200000" points="392.96,-234.91 398.28,-231.42 391.95,-230.84 392.96,-234.91"/>
</g>
<!-- src/ts/ui/site/project/text/SiteProjectText.tsx -->
<g id="node44" class="node">
<title>src/ts/ui/site/project/text/SiteProjectText.tsx</title>
<g id="a_node44"><a xlink:href="src/ts/ui/site/project/text/SiteProjectText.tsx" xlink:title="SiteProjectText.tsx">
<path fill="#bbfeff" stroke="black" d="M482.96,-264.25C482.96,-264.25 405.04,-264.25 405.04,-264.25 401.96,-264.25 398.88,-261.17 398.88,-258.08 398.88,-258.08 398.88,-251.92 398.88,-251.92 398.88,-248.83 401.96,-245.75 405.04,-245.75 405.04,-245.75 482.96,-245.75 482.96,-245.75 486.04,-245.75 489.12,-248.83 489.12,-251.92 489.12,-251.92 489.12,-258.08 489.12,-258.08 489.12,-261.17 486.04,-264.25 482.96,-264.25"/>
<text text-anchor="start" x="406.88" y="-251.7" font-family="Helvetica,sans-Serif" font-size="9.00">SiteProjectText.tsx</text>
</a>
</g>
</g>
<!-- src/ts/ui/site/project/SiteProject.tsx&#45;&gt;src/ts/ui/site/project/text/SiteProjectText.tsx -->
<g id="edge47" class="edge">
<title>src/ts/ui/site/project/SiteProject.tsx&#45;&gt;src/ts/ui/site/project/text/SiteProjectText.tsx</title>
<path fill="none" stroke="#000000" stroke-width="2" stroke-opacity="0.200000" d="M351.7,-255C363.54,-255 376.95,-255 389.78,-255"/>
<polygon fill="#000000" fill-opacity="0.200000" stroke="#000000" stroke-width="2" stroke-opacity="0.200000" points="389.52,-257.1 395.52,-255 389.52,-252.9 389.52,-257.1"/>
</g>
<!-- src/ts/ui/component/button/text/ButtonText.module.css -->
<g id="node19" class="node">
<title>src/ts/ui/component/button/text/ButtonText.module.css</title>
<g id="a_node19"><a xlink:href="src/ts/ui/component/button/text/ButtonText.module.css" xlink:title="ButtonText.module.css">
<path fill="#ffffcc" stroke="black" d="M935.46,-578.25C935.46,-578.25 840.29,-578.25 840.29,-578.25 837.21,-578.25 834.12,-575.17 834.12,-572.08 834.12,-572.08 834.12,-565.92 834.12,-565.92 834.12,-562.83 837.21,-559.75 840.29,-559.75 840.29,-559.75 935.46,-559.75 935.46,-559.75 938.54,-559.75 941.62,-562.83 941.62,-565.92 941.62,-565.92 941.62,-572.08 941.62,-572.08 941.62,-575.17 938.54,-578.25 935.46,-578.25"/>
<text text-anchor="start" x="842.12" y="-565.7" font-family="Helvetica,sans-Serif" font-size="9.00">ButtonText.module.css</text>
</a>
</g>
</g>
<!-- src/ts/ui/component/button/text/ButtonText.stories.tsx -->
<g id="node20" class="node">
<title>src/ts/ui/component/button/text/ButtonText.stories.tsx</title>
<g id="a_node20"><a xlink:href="src/ts/ui/component/button/text/ButtonText.stories.tsx" xlink:title="ButtonText.stories.tsx">
<path fill="#bbfeff" stroke="black" d="M634.58,-578.25C634.58,-578.25 545.42,-578.25 545.42,-578.25 542.33,-578.25 539.25,-575.17 539.25,-572.08 539.25,-572.08 539.25,-565.92 539.25,-565.92 539.25,-562.83 542.33,-559.75 545.42,-559.75 545.42,-559.75 634.58,-559.75 634.58,-559.75 637.67,-559.75 640.75,-562.83 640.75,-565.92 640.75,-565.92 640.75,-572.08 640.75,-572.08 640.75,-575.17 637.67,-578.25 634.58,-578.25"/>
<text text-anchor="start" x="547.25" y="-565.7" font-family="Helvetica,sans-Serif" font-size="9.00">ButtonText.stories.tsx</text>
</a>
</g>
</g>
<!-- src/ts/ui/component/button/text/ButtonText.stories.tsx&#45;&gt;src/ts/ui/component/button/text/ButtonText.tsx -->
<g id="edge13" class="edge">
<title>src/ts/ui/component/button/text/ButtonText.stories.tsx&#45;&gt;src/ts/ui/component/button/text/ButtonText.tsx</title>
<path fill="none" stroke="#000000" stroke-width="2" stroke-opacity="0.200000" d="M641.23,-569C661.42,-569 684.5,-569 704.05,-569"/>
<polygon fill="#000000" fill-opacity="0.200000" stroke="#000000" stroke-width="2" stroke-opacity="0.200000" points="704.03,-571.1 710.03,-569 704.03,-566.9 704.03,-571.1"/>
</g>
<!-- src/ts/ui/component/button/text/ButtonText.tsx&#45;&gt;src/ts/motion/duration.ts -->
<g id="edge14" class="edge">
<title>src/ts/ui/component/button/text/ButtonText.tsx&#45;&gt;src/ts/motion/duration.ts</title>
<path fill="none" stroke="#000000" stroke-width="2" stroke-opacity="0.200000" d="M762,-578.57C776.75,-591.06 802.47,-614.05 820.88,-637 893.83,-728.01 910.06,-754.5 957.62,-861 994.22,-942.93 1019.02,-1047.94 1028.07,-1089.7"/>
<polygon fill="#000000" fill-opacity="0.200000" stroke="#000000" stroke-width="2" stroke-opacity="0.200000" points="1025.96,-1089.87 1029.26,-1095.3 1030.06,-1089 1025.96,-1089.87"/>
</g>
<!-- src/ts/ui/component/button/text/ButtonText.tsx&#45;&gt;src/ts/motion/ease.ts -->
<g id="edge15" class="edge">
<title>src/ts/ui/component/button/text/ButtonText.tsx&#45;&gt;src/ts/motion/ease.ts</title>
<path fill="none" stroke="#000000" stroke-width="2" stroke-opacity="0.200000" d="M765.04,-578.56C781.59,-590.22 807.9,-611.55 820.88,-637 862.5,-718.67 881.57,-1012.97 885.9,-1089.64"/>
<polygon fill="#000000" fill-opacity="0.200000" stroke="#000000" stroke-width="2" stroke-opacity="0.200000" points="883.8,-1089.71 886.22,-1095.58 887.99,-1089.48 883.8,-1089.71"/>
</g>
<!-- src/ts/ui/component/button/text/ButtonText.tsx&#45;&gt;src/ts/ui/component/button/text/ButtonText.module.css -->
<g id="edge16" class="edge">
<title>src/ts/ui/component/button/text/ButtonText.tsx&#45;&gt;src/ts/ui/component/button/text/ButtonText.module.css</title>
<path fill="none" stroke="#000000" stroke-width="2" stroke-opacity="0.200000" d="M785.88,-569C797.87,-569 811.62,-569 825.04,-569"/>
<polygon fill="#000000" fill-opacity="0.200000" stroke="#000000" stroke-width="2" stroke-opacity="0.200000" points="824.77,-571.1 830.77,-569 824.77,-566.9 824.77,-571.1"/>
</g>
<!-- src/ts/ui/component/text/TextProjectTitle.module.css -->
<g id="node22" class="node">
<title>src/ts/ui/component/text/TextProjectTitle.module.css</title>
<g id="a_node22"><a xlink:href="src/ts/ui/component/text/TextProjectTitle.module.css" xlink:title="TextProjectTitle.module.css">
<path fill="#ffffcc" stroke="black" d="M806.71,-666.25C806.71,-666.25 692.04,-666.25 692.04,-666.25 688.96,-666.25 685.88,-663.17 685.88,-660.08 685.88,-660.08 685.88,-653.92 685.88,-653.92 685.88,-650.83 688.96,-647.75 692.04,-647.75 692.04,-647.75 806.71,-647.75 806.71,-647.75 809.79,-647.75 812.88,-650.83 812.88,-653.92 812.88,-653.92 812.88,-660.08 812.88,-660.08 812.88,-663.17 809.79,-666.25 806.71,-666.25"/>
<text text-anchor="start" x="693.88" y="-653.7" font-family="Helvetica,sans-Serif" font-size="9.00">TextProjectTitle.module.css</text>
</a>
</g>
</g>
<!-- src/ts/ui/component/text/TextProjectTitle.tsx -->
<g id="node23" class="node">
<title>src/ts/ui/component/text/TextProjectTitle.tsx</title>
<g id="a_node23"><a xlink:href="src/ts/ui/component/text/TextProjectTitle.tsx" xlink:title="TextProjectTitle.tsx">
<path fill="#bbfeff" stroke="black" d="M629.71,-666.25C629.71,-666.25 550.29,-666.25 550.29,-666.25 547.21,-666.25 544.12,-663.17 544.12,-660.08 544.12,-660.08 544.12,-653.92 544.12,-653.92 544.12,-650.83 547.21,-647.75 550.29,-647.75 550.29,-647.75 629.71,-647.75 629.71,-647.75 632.79,-647.75 635.88,-650.83 635.88,-653.92 635.88,-653.92 635.88,-660.08 635.88,-660.08 635.88,-663.17 632.79,-666.25 629.71,-666.25"/>
<text text-anchor="start" x="552.12" y="-653.7" font-family="Helvetica,sans-Serif" font-size="9.00">TextProjectTitle.tsx</text>
</a>
</g>
</g>
<!-- src/ts/ui/component/text/TextProjectTitle.tsx&#45;&gt;src/ts/motion/duration.ts -->
<g id="edge17" class="edge">
<title>src/ts/ui/component/text/TextProjectTitle.tsx&#45;&gt;src/ts/motion/duration.ts</title>
<path fill="none" stroke="#000000" stroke-width="2" stroke-opacity="0.200000" d="M600.21,-666.42C655.79,-723.28 946.49,-1020.65 1016.63,-1092.41"/>
<polygon fill="#000000" fill-opacity="0.200000" stroke="#000000" stroke-width="2" stroke-opacity="0.200000" points="1014.91,-1093.64 1020.6,-1096.47 1017.91,-1090.71 1014.91,-1093.64"/>
</g>
<!-- src/ts/ui/component/text/TextProjectTitle.tsx&#45;&gt;src/ts/ui/component/text/TextProjectTitle.module.css -->
<g id="edge18" class="edge">
<title>src/ts/ui/component/text/TextProjectTitle.tsx&#45;&gt;src/ts/ui/component/text/TextProjectTitle.module.css</title>
<path fill="none" stroke="#000000" stroke-width="2" stroke-opacity="0.200000" d="M636.1,-657C648.69,-657 662.69,-657 676.42,-657"/>
<polygon fill="#000000" fill-opacity="0.200000" stroke="#000000" stroke-width="2" stroke-opacity="0.200000" points="676.36,-659.1 682.36,-657 676.36,-654.9 676.36,-659.1"/>
</g>
<!-- src/ts/ui/component/viewer/MediaViewer.module.css -->
<g id="node24" class="node">
<title>src/ts/ui/component/viewer/MediaViewer.module.css</title>
<g id="a_node24"><a xlink:href="src/ts/ui/component/viewer/MediaViewer.module.css" xlink:title="MediaViewer.module.css">
<path fill="#ffffcc" stroke="black" d="M940.71,-387.25C940.71,-387.25 835.04,-387.25 835.04,-387.25 831.96,-387.25 828.88,-384.17 828.88,-381.08 828.88,-381.08 828.88,-374.92 828.88,-374.92 828.88,-371.83 831.96,-368.75 835.04,-368.75 835.04,-368.75 940.71,-368.75 940.71,-368.75 943.79,-368.75 946.88,-371.83 946.88,-374.92 946.88,-374.92 946.88,-381.08 946.88,-381.08 946.88,-384.17 943.79,-387.25 940.71,-387.25"/>
<text text-anchor="start" x="836.88" y="-374.7" font-family="Helvetica,sans-Serif" font-size="9.00">MediaViewer.module.css</text>
</a>
</g>
</g>
<!-- src/ts/ui/component/viewer/MediaViewer.stories.tsx -->
<g id="node25" class="node">
<title>src/ts/ui/component/viewer/MediaViewer.stories.tsx</title>
<g id="a_node25"><a xlink:href="src/ts/ui/component/viewer/MediaViewer.stories.tsx" xlink:title="MediaViewer.stories.tsx">
<path fill="#bbfeff" stroke="black" d="M639.83,-404.25C639.83,-404.25 540.17,-404.25 540.17,-404.25 537.08,-404.25 534,-401.17 534,-398.08 534,-398.08 534,-391.92 534,-391.92 534,-388.83 537.08,-385.75 540.17,-385.75 540.17,-385.75 639.83,-385.75 639.83,-385.75 642.92,-385.75 646,-388.83 646,-391.92 646,-391.92 646,-398.08 646,-398.08 646,-401.17 642.92,-404.25 639.83,-404.25"/>
<text text-anchor="start" x="542" y="-391.7" font-family="Helvetica,sans-Serif" font-size="9.00">MediaViewer.stories.tsx</text>
</a>
</g>
</g>
<!-- src/ts/ui/component/viewer/MediaViewer.stories.tsx&#45;&gt;src/ts/ui/component/viewer/MediaViewer.tsx -->
<g id="edge19" class="edge">
<title>src/ts/ui/component/viewer/MediaViewer.stories.tsx&#45;&gt;src/ts/ui/component/viewer/MediaViewer.tsx</title>
<path fill="none" stroke="#000000" stroke-width="2" stroke-opacity="0.200000" d="M646.48,-395C663.51,-395 682.12,-395 698.73,-395"/>
<polygon fill="#000000" fill-opacity="0.200000" stroke="#000000" stroke-width="2" stroke-opacity="0.200000" points="698.7,-397.1 704.7,-395 698.7,-392.9 698.7,-397.1"/>
</g>
<!-- src/ts/ui/component/viewer/MediaViewer.tsx&#45;&gt;src/ts/ui/component/viewer/MediaViewer.module.css -->
<g id="edge21" class="edge">
<title>src/ts/ui/component/viewer/MediaViewer.tsx&#45;&gt;src/ts/ui/component/viewer/MediaViewer.module.css</title>
<path fill="none" stroke="#000000" stroke-width="2" stroke-opacity="0.200000" d="M790.96,-389.95C799.99,-388.82 809.79,-387.6 819.56,-386.38"/>
<polygon fill="#000000" fill-opacity="0.200000" stroke="#000000" stroke-width="2" stroke-opacity="0.200000" points="819.81,-388.47 825.51,-385.64 819.29,-384.3 819.81,-388.47"/>
</g>
<!-- src/ts/ui/component/viewer/holder/MediaItemImage.tsx -->
<g id="node27" class="node">
<title>src/ts/ui/component/viewer/holder/MediaItemImage.tsx</title>
<g id="a_node27"><a xlink:href="src/ts/ui/component/viewer/holder/MediaItemImage.tsx" xlink:title="MediaItemImage.tsx">
<path fill="#bbfeff" stroke="black" d="M930.58,-421.25C930.58,-421.25 845.17,-421.25 845.17,-421.25 842.08,-421.25 839,-418.17 839,-415.08 839,-415.08 839,-408.92 839,-408.92 839,-405.83 842.08,-402.75 845.17,-402.75 845.17,-402.75 930.58,-402.75 930.58,-402.75 933.67,-402.75 936.75,-405.83 936.75,-408.92 936.75,-408.92 936.75,-415.08 936.75,-415.08 936.75,-418.17 933.67,-421.25 930.58,-421.25"/>
<text text-anchor="start" x="847" y="-408.7" font-family="Helvetica,sans-Serif" font-size="9.00">MediaItemImage.tsx</text>
</a>
</g>
</g>
<!-- src/ts/ui/component/viewer/MediaViewer.tsx&#45;&gt;src/ts/ui/component/viewer/holder/MediaItemImage.tsx -->
<g id="edge20" class="edge">
<title>src/ts/ui/component/viewer/MediaViewer.tsx&#45;&gt;src/ts/ui/component/viewer/holder/MediaItemImage.tsx</title>
<path fill="none" stroke="#000000" stroke-width="2" stroke-opacity="0.200000" d="M790.96,-400.05C803.34,-401.6 817.18,-403.32 830.41,-404.97"/>
<polygon fill="#000000" fill-opacity="0.200000" stroke="#000000" stroke-width="2" stroke-opacity="0.200000" points="829.77,-407 835.99,-405.66 830.29,-402.84 829.77,-407"/>
</g>
<!-- src/ts/ui/component/viewer/navigation/MediaNavigation.tsx -->
<g id="node28" class="node">
<title>src/ts/ui/component/viewer/navigation/MediaNavigation.tsx</title>
<g id="a_node28"><a xlink:href="src/ts/ui/component/viewer/navigation/MediaNavigation.tsx" xlink:title="MediaNavigation.tsx">
<path fill="#bbfeff" stroke="black" d="M931.33,-482.25C931.33,-482.25 844.42,-482.25 844.42,-482.25 841.33,-482.25 838.25,-479.17 838.25,-476.08 838.25,-476.08 838.25,-469.92 838.25,-469.92 838.25,-466.83 841.33,-463.75 844.42,-463.75 844.42,-463.75 931.33,-463.75 931.33,-463.75 934.42,-463.75 937.5,-466.83 937.5,-469.92 937.5,-469.92 937.5,-476.08 937.5,-476.08 937.5,-479.17 934.42,-482.25 931.33,-482.25"/>
<text text-anchor="start" x="846.25" y="-469.7" font-family="Helvetica,sans-Serif" font-size="9.00">MediaNavigation.tsx</text>
</a>
</g>
</g>
<!-- src/ts/ui/component/viewer/MediaViewer.tsx&#45;&gt;src/ts/ui/component/viewer/navigation/MediaNavigation.tsx -->
<g id="edge22" class="edge">
<title>src/ts/ui/component/viewer/MediaViewer.tsx&#45;&gt;src/ts/ui/component/viewer/navigation/MediaNavigation.tsx</title>
<path fill="none" stroke="#000000" stroke-width="2" stroke-opacity="0.200000" d="M761.98,-404.75C776.78,-416.81 803.48,-437.42 828.88,-451 835.08,-454.32 841.91,-457.38 848.62,-460.1"/>
<polygon fill="#000000" fill-opacity="0.200000" stroke="#000000" stroke-width="2" stroke-opacity="0.200000" points="847.84,-462.05 854.2,-462.25 849.36,-458.13 847.84,-462.05"/>
</g>
<!-- src/ts/ui/component/viewer/holder/MediaItemImage.module.css -->
<g id="node29" class="node">
<title>src/ts/ui/component/viewer/holder/MediaItemImage.module.css</title>
<g id="a_node29"><a xlink:href="src/ts/ui/component/viewer/holder/MediaItemImage.module.css" xlink:title="MediaItemImage.module.css">
<path fill="#ffffcc" stroke="black" d="M1093.21,-421.25C1093.21,-421.25 972.54,-421.25 972.54,-421.25 969.46,-421.25 966.38,-418.17 966.38,-415.08 966.38,-415.08 966.38,-408.92 966.38,-408.92 966.38,-405.83 969.46,-402.75 972.54,-402.75 972.54,-402.75 1093.21,-402.75 1093.21,-402.75 1096.29,-402.75 1099.38,-405.83 1099.38,-408.92 1099.38,-408.92 1099.38,-415.08 1099.38,-415.08 1099.38,-418.17 1096.29,-421.25 1093.21,-421.25"/>
<text text-anchor="start" x="974.38" y="-408.7" font-family="Helvetica,sans-Serif" font-size="9.00">MediaItemImage.module.css</text>
</a>
</g>
</g>
<!-- src/ts/ui/component/viewer/holder/MediaItemImage.tsx&#45;&gt;src/ts/ui/component/viewer/holder/MediaItemImage.module.css -->
<g id="edge23" class="edge">
<title>src/ts/ui/component/viewer/holder/MediaItemImage.tsx&#45;&gt;src/ts/ui/component/viewer/holder/MediaItemImage.module.css</title>
<path fill="none" stroke="#000000" stroke-width="2" stroke-opacity="0.200000" d="M936.89,-412C943.45,-412 950.31,-412 957.21,-412"/>
<polygon fill="#000000" fill-opacity="0.200000" stroke="#000000" stroke-width="2" stroke-opacity="0.200000" points="956.92,-414.1 962.92,-412 956.92,-409.9 956.92,-414.1"/>
</g>
<!-- src/ts/ui/component/viewer/navigation/MediaNavigation.module.css -->
<g id="node30" class="node">
<title>src/ts/ui/component/viewer/navigation/MediaNavigation.module.css</title>
<g id="a_node30"><a xlink:href="src/ts/ui/component/viewer/navigation/MediaNavigation.module.css" xlink:title="MediaNavigation.module.css">
<path fill="#ffffcc" stroke="black" d="M1093.96,-482.25C1093.96,-482.25 971.79,-482.25 971.79,-482.25 968.71,-482.25 965.62,-479.17 965.62,-476.08 965.62,-476.08 965.62,-469.92 965.62,-469.92 965.62,-466.83 968.71,-463.75 971.79,-463.75 971.79,-463.75 1093.96,-463.75 1093.96,-463.75 1097.04,-463.75 1100.12,-466.83 1100.12,-469.92 1100.12,-469.92 1100.12,-476.08 1100.12,-476.08 1100.12,-479.17 1097.04,-482.25 1093.96,-482.25"/>
<text text-anchor="start" x="973.62" y="-469.7" font-family="Helvetica,sans-Serif" font-size="9.00">MediaNavigation.module.css</text>
</a>
</g>
</g>
<!-- src/ts/ui/component/viewer/navigation/MediaNavigation.tsx&#45;&gt;src/ts/ui/component/viewer/navigation/MediaNavigation.module.css -->
<g id="edge24" class="edge">
<title>src/ts/ui/component/viewer/navigation/MediaNavigation.tsx&#45;&gt;src/ts/ui/component/viewer/navigation/MediaNavigation.module.css</title>
<path fill="none" stroke="#000000" stroke-width="2" stroke-opacity="0.200000" d="M937.69,-473C943.81,-473 950.17,-473 956.58,-473"/>
<polygon fill="#000000" fill-opacity="0.200000" stroke="#000000" stroke-width="2" stroke-opacity="0.200000" points="956.29,-475.1 962.29,-473 956.29,-470.9 956.29,-475.1"/>
</g>
<!-- src/ts/ui/overlay/site&#45;control/UISiteControl.tsx&#45;&gt;src/ts/motion/fade.ts -->
<g id="edge29" class="edge">
<title>src/ts/ui/overlay/site&#45;control/UISiteControl.tsx&#45;&gt;src/ts/motion/fade.ts</title>
<path fill="none" stroke="#000000" stroke-width="2" stroke-opacity="0.200000" d="M357.05,-881.5C363.26,-883.66 369,-886.98 373.25,-892 400.75,-924.42 354.86,-1052.28 384.25,-1083 406.92,-1106.7 645.29,-1109.31 677.88,-1113 739.01,-1119.93 810.08,-1128.98 851.6,-1134.37"/>
<polygon fill="#000000" fill-opacity="0.200000" stroke="#000000" stroke-width="2" stroke-opacity="0.200000" points="851.28,-1136.45 857.5,-1135.14 851.82,-1132.28 851.28,-1136.45"/>
</g>
<!-- src/ts/ui/overlay/site&#45;control/UISiteControl.module.css -->
<g id="node34" class="node">
<title>src/ts/ui/overlay/site&#45;control/UISiteControl.module.css</title>
<g id="a_node34"><a xlink:href="src/ts/ui/overlay/site-control/UISiteControl.module.css" xlink:title="UISiteControl.module.css">
<path fill="#ffffcc" stroke="black" d="M497.58,-762.25C497.58,-762.25 390.42,-762.25 390.42,-762.25 387.33,-762.25 384.25,-759.17 384.25,-756.08 384.25,-756.08 384.25,-749.92 384.25,-749.92 384.25,-746.83 387.33,-743.75 390.42,-743.75 390.42,-743.75 497.58,-743.75 497.58,-743.75 500.67,-743.75 503.75,-746.83 503.75,-749.92 503.75,-749.92 503.75,-756.08 503.75,-756.08 503.75,-759.17 500.67,-762.25 497.58,-762.25"/>
<text text-anchor="start" x="392.25" y="-749.7" font-family="Helvetica,sans-Serif" font-size="9.00">UISiteControl.module.css</text>
</a>
</g>
</g>
<!-- src/ts/ui/overlay/site&#45;control/UISiteControl.tsx&#45;&gt;src/ts/ui/overlay/site&#45;control/UISiteControl.module.css -->
<g id="edge32" class="edge">
<title>src/ts/ui/overlay/site&#45;control/UISiteControl.tsx&#45;&gt;src/ts/ui/overlay/site&#45;control/UISiteControl.module.css</title>
<path fill="none" stroke="#000000" stroke-width="2" stroke-opacity="0.200000" d="M357.12,-876.2C363.24,-874.06 368.93,-870.82 373.25,-866 400.93,-835.07 360.61,-804.28 383.79,-769.41"/>
<polygon fill="#000000" fill-opacity="0.200000" stroke="#000000" stroke-width="2" stroke-opacity="0.200000" points="385.38,-770.77 387.44,-764.76 382.08,-768.18 385.38,-770.77"/>
</g>
<!-- src/ts/ui/overlay/site&#45;control/scroll/ScrollProgress.tsx -->
<g id="node36" class="node">
<title>src/ts/ui/overlay/site&#45;control/scroll/ScrollProgress.tsx</title>
<g id="a_node36"><a xlink:href="src/ts/ui/overlay/site-control/scroll/ScrollProgress.tsx" xlink:title="ScrollProgress.tsx">
<path fill="#bbfeff" stroke="black" d="M482.58,-827.25C482.58,-827.25 405.42,-827.25 405.42,-827.25 402.33,-827.25 399.25,-824.17 399.25,-821.08 399.25,-821.08 399.25,-814.92 399.25,-814.92 399.25,-811.83 402.33,-808.75 405.42,-808.75 405.42,-808.75 482.58,-808.75 482.58,-808.75 485.67,-808.75 488.75,-811.83 488.75,-814.92 488.75,-814.92 488.75,-821.08 488.75,-821.08 488.75,-824.17 485.67,-827.25 482.58,-827.25"/>
<text text-anchor="start" x="407.25" y="-814.7" font-family="Helvetica,sans-Serif" font-size="9.00">ScrollProgress.tsx</text>
</a>
</g>
</g>
<!-- src/ts/ui/overlay/site&#45;control/UISiteControl.tsx&#45;&gt;src/ts/ui/overlay/site&#45;control/scroll/ScrollProgress.tsx -->
<g id="edge30" class="edge">
<title>src/ts/ui/overlay/site&#45;control/UISiteControl.tsx&#45;&gt;src/ts/ui/overlay/site&#45;control/scroll/ScrollProgress.tsx</title>
<path fill="none" stroke="#000000" stroke-width="2" stroke-opacity="0.200000" d="M356.82,-871.73C362.45,-870.15 368.07,-868.26 373.25,-866 375.94,-864.82 402.45,-846.42 421.99,-832.74"/>
<polygon fill="#000000" fill-opacity="0.200000" stroke="#000000" stroke-width="2" stroke-opacity="0.200000" points="423.14,-834.5 426.85,-829.34 420.73,-831.06 423.14,-834.5"/>
</g>
<!-- src/ts/ui/overlay/site&#45;control/theme/ThemeSwitcher.tsx -->
<g id="node37" class="node">
<title>src/ts/ui/overlay/site&#45;control/theme/ThemeSwitcher.tsx</title>
<g id="a_node37"><a xlink:href="src/ts/ui/overlay/site-control/theme/ThemeSwitcher.tsx" xlink:title="ThemeSwitcher.tsx">
<path fill="#bbfeff" stroke="black" d="M484.08,-888.25C484.08,-888.25 403.92,-888.25 403.92,-888.25 400.83,-888.25 397.75,-885.17 397.75,-882.08 397.75,-882.08 397.75,-875.92 397.75,-875.92 397.75,-872.83 400.83,-869.75 403.92,-869.75 403.92,-869.75 484.08,-869.75 484.08,-869.75 487.17,-869.75 490.25,-872.83 490.25,-875.92 490.25,-875.92 490.25,-882.08 490.25,-882.08 490.25,-885.17 487.17,-888.25 484.08,-888.25"/>
<text text-anchor="start" x="405.75" y="-875.7" font-family="Helvetica,sans-Serif" font-size="9.00">ThemeSwitcher.tsx</text>
</a>
</g>
</g>
<!-- src/ts/ui/overlay/site&#45;control/UISiteControl.tsx&#45;&gt;src/ts/ui/overlay/site&#45;control/theme/ThemeSwitcher.tsx -->
<g id="edge31" class="edge">
<title>src/ts/ui/overlay/site&#45;control/UISiteControl.tsx&#45;&gt;src/ts/ui/overlay/site&#45;control/theme/ThemeSwitcher.tsx</title>
<path fill="none" stroke="#000000" stroke-width="2" stroke-opacity="0.200000" d="M356.9,-879C367.01,-879 377.98,-879 388.6,-879"/>
<polygon fill="#000000" fill-opacity="0.200000" stroke="#000000" stroke-width="2" stroke-opacity="0.200000" points="388.38,-881.1 394.38,-879 388.38,-876.9 388.38,-881.1"/>
</g>
<!-- src/ts/ui/overlay/surface/UIOverlaySurface.tsx&#45;&gt;src/ts/store/uiState/uiStateStore.ts -->
<g id="edge39" class="edge">
<title>src/ts/ui/overlay/surface/UIOverlaySurface.tsx&#45;&gt;src/ts/store/uiState/uiStateStore.ts</title>
<path fill="none" stroke="#000000" stroke-width="2" stroke-opacity="0.200000" d="M318.78,-1002.55C326.74,-1024.46 349.04,-1078.88 384.25,-1111 430.19,-1152.9 498.58,-1177.96 543.48,-1190.86"/>
<polygon fill="#000000" fill-opacity="0.200000" stroke="#000000" stroke-width="2" stroke-opacity="0.200000" points="542.88,-1192.88 549.22,-1192.47 544.01,-1188.83 542.88,-1192.88"/>
</g>
<!-- src/ts/ui/overlay/site&#45;control/UISiteControl.stories.tsx -->
<g id="node35" class="node">
<title>src/ts/ui/overlay/site&#45;control/UISiteControl.stories.tsx</title>
<g id="a_node35"><a xlink:href="src/ts/ui/overlay/site-control/UISiteControl.stories.tsx" xlink:title="UISiteControl.stories.tsx">
<path fill="#bbfeff" stroke="black" d="M238.58,-888.25C238.58,-888.25 137.42,-888.25 137.42,-888.25 134.33,-888.25 131.25,-885.17 131.25,-882.08 131.25,-882.08 131.25,-875.92 131.25,-875.92 131.25,-872.83 134.33,-869.75 137.42,-869.75 137.42,-869.75 238.58,-869.75 238.58,-869.75 241.67,-869.75 244.75,-872.83 244.75,-875.92 244.75,-875.92 244.75,-882.08 244.75,-882.08 244.75,-885.17 241.67,-888.25 238.58,-888.25"/>
<text text-anchor="start" x="139.25" y="-875.7" font-family="Helvetica,sans-Serif" font-size="9.00">UISiteControl.stories.tsx</text>
</a>
</g>
</g>
<!-- src/ts/ui/overlay/site&#45;control/UISiteControl.stories.tsx&#45;&gt;src/ts/ui/overlay/site&#45;control/UISiteControl.tsx -->
<g id="edge28" class="edge">
<title>src/ts/ui/overlay/site&#45;control/UISiteControl.stories.tsx&#45;&gt;src/ts/ui/overlay/site&#45;control/UISiteControl.tsx</title>
<path fill="none" stroke="#000000" stroke-width="2" stroke-opacity="0.200000" d="M245.06,-879C251.13,-879 257.28,-879 263.28,-879"/>
<polygon fill="#000000" fill-opacity="0.200000" stroke="#000000" stroke-width="2" stroke-opacity="0.200000" points="262.89,-881.1 268.89,-879 262.89,-876.9 262.89,-881.1"/>
</g>
<!-- src/ts/ui/overlay/site&#45;control/scroll/ScrollProgress.tsx&#45;&gt;src/ts/hook/useScrollProgress.ts -->
<g id="edge33" class="edge">
<title>src/ts/ui/overlay/site&#45;control/scroll/ScrollProgress.tsx&#45;&gt;src/ts/hook/useScrollProgress.ts</title>
<path fill="none" stroke="#000000" stroke-width="2" stroke-opacity="0.200000" d="M468.88,-827.67C482.38,-834.41 498.29,-844.76 507.25,-859 521.34,-881.4 509.15,-892.25 515.25,-918 533.03,-993.05 566.64,-1078.81 581.56,-1115.19"/>
<polygon fill="#000000" fill-opacity="0.200000" stroke="#000000" stroke-width="2" stroke-opacity="0.200000" points="579.53,-1115.8 583.77,-1120.55 583.42,-1114.2 579.53,-1115.8"/>
</g>
<!-- src/ts/ui/overlay/site&#45;control/scroll/ScrollProgress.module.css -->
<g id="node38" class="node">
<title>src/ts/ui/overlay/site&#45;control/scroll/ScrollProgress.module.css</title>
<g id="a_node38"><a xlink:href="src/ts/ui/overlay/site-control/scroll/ScrollProgress.module.css" xlink:title="ScrollProgress.module.css">
<path fill="#ffffcc" stroke="black" d="M646.21,-796.25C646.21,-796.25 533.79,-796.25 533.79,-796.25 530.71,-796.25 527.62,-793.17 527.62,-790.08 527.62,-790.08 527.62,-783.92 527.62,-783.92 527.62,-780.83 530.71,-777.75 533.79,-777.75 533.79,-777.75 646.21,-777.75 646.21,-777.75 649.29,-777.75 652.38,-780.83 652.38,-783.92 652.38,-783.92 652.38,-790.08 652.38,-790.08 652.38,-793.17 649.29,-796.25 646.21,-796.25"/>
<text text-anchor="start" x="535.62" y="-783.7" font-family="Helvetica,sans-Serif" font-size="9.00">ScrollProgress.module.css</text>
</a>
</g>
</g>
<!-- src/ts/ui/overlay/site&#45;control/scroll/ScrollProgress.tsx&#45;&gt;src/ts/ui/overlay/site&#45;control/scroll/ScrollProgress.module.css -->
<g id="edge34" class="edge">
<title>src/ts/ui/overlay/site&#45;control/scroll/ScrollProgress.tsx&#45;&gt;src/ts/ui/overlay/site&#45;control/scroll/ScrollProgress.module.css</title>
<path fill="none" stroke="#000000" stroke-width="2" stroke-opacity="0.200000" d="M488.92,-809.05C495.08,-807.73 501.33,-806.36 507.25,-805 510.82,-804.18 511.68,-803.83 515.25,-803 521.48,-801.55 528.01,-800.07 534.51,-798.62"/>
<polygon fill="#000000" fill-opacity="0.200000" stroke="#000000" stroke-width="2" stroke-opacity="0.200000" points="534.95,-800.67 540.36,-797.33 534.05,-796.57 534.95,-800.67"/>
</g>
<!-- src/ts/ui/overlay/site&#45;control/scroll/ScrollProgressAnimator.ts -->
<g id="node39" class="node">
<title>src/ts/ui/overlay/site&#45;control/scroll/ScrollProgressAnimator.ts</title>
<g id="a_node39"><a xlink:href="src/ts/ui/overlay/site-control/scroll/ScrollProgressAnimator.ts" xlink:title="ScrollProgressAnimator.ts">
<path fill="#ddfeff" stroke="black" d="M644.33,-827.25C644.33,-827.25 535.67,-827.25 535.67,-827.25 532.58,-827.25 529.5,-824.17 529.5,-821.08 529.5,-821.08 529.5,-814.92 529.5,-814.92 529.5,-811.83 532.58,-808.75 535.67,-808.75 535.67,-808.75 644.33,-808.75 644.33,-808.75 647.42,-808.75 650.5,-811.83 650.5,-814.92 650.5,-814.92 650.5,-821.08 650.5,-821.08 650.5,-824.17 647.42,-827.25 644.33,-827.25"/>
<text text-anchor="start" x="537.5" y="-814.7" font-family="Helvetica,sans-Serif" font-size="9.00">ScrollProgressAnimator.ts</text>
</a>
</g>
</g>
<!-- src/ts/ui/overlay/site&#45;control/scroll/ScrollProgress.tsx&#45;&gt;src/ts/ui/overlay/site&#45;control/scroll/ScrollProgressAnimator.ts -->
<g id="edge35" class="edge">
<title>src/ts/ui/overlay/site&#45;control/scroll/ScrollProgress.tsx&#45;&gt;src/ts/ui/overlay/site&#45;control/scroll/ScrollProgressAnimator.ts</title>
<path fill="none" stroke="#000000" stroke-width="2" stroke-opacity="0.200000" d="M488.99,-818C498.87,-818 509.6,-818 520.22,-818"/>
<polygon fill="#000000" fill-opacity="0.200000" stroke="#000000" stroke-width="2" stroke-opacity="0.200000" points="520.08,-820.1 526.08,-818 520.08,-815.9 520.08,-820.1"/>
</g>
<!-- src/ts/ui/overlay/site&#45;control/theme/ThemeSwitcher.tsx&#45;&gt;src/ts/store/uiState/uiStateStore.ts -->
<g id="edge36" class="edge">
<title>src/ts/ui/overlay/site&#45;control/theme/ThemeSwitcher.tsx&#45;&gt;src/ts/store/uiState/uiStateStore.ts</title>
<path fill="none" stroke="#000000" stroke-width="2" stroke-opacity="0.200000" d="M446.76,-888.56C455.63,-936.52 495.9,-1149.49 515.25,-1172 522.79,-1180.77 533.28,-1187.01 543.98,-1191.44"/>
<polygon fill="#000000" fill-opacity="0.200000" stroke="#000000" stroke-width="2" stroke-opacity="0.200000" points="542.97,-1193.31 549.33,-1193.43 544.44,-1189.37 542.97,-1193.31"/>
</g>
<!-- src/ts/ui/overlay/site&#45;control/theme/ThemeSwitcher.tsx&#45;&gt;src/ts/types/index.ts -->
<g id="edge37" class="edge">
<title>src/ts/ui/overlay/site&#45;control/theme/ThemeSwitcher.tsx&#45;&gt;src/ts/types/index.ts</title>
<path fill="none" stroke="#000000" stroke-width="2" stroke-opacity="0.200000" d="M455.15,-888.44C488.33,-919.47 596.15,-1021.54 677.88,-1113 699.33,-1137.01 722.32,-1166.5 736.02,-1184.51"/>
<polygon fill="#000000" fill-opacity="0.200000" stroke="#000000" stroke-width="2" stroke-opacity="0.200000" points="734.17,-1185.55 739.46,-1189.07 737.52,-1183.01 734.17,-1185.55"/>
</g>
<!-- src/ts/ui/overlay/site&#45;control/theme/ThemeSwitcher.module.css -->
<g id="node40" class="node">
<title>src/ts/ui/overlay/site&#45;control/theme/ThemeSwitcher.module.css</title>
<g id="a_node40"><a xlink:href="src/ts/ui/overlay/site-control/theme/ThemeSwitcher.module.css" xlink:title="ThemeSwitcher.module.css">
<path fill="#ffffcc" stroke="black" d="M647.71,-888.25C647.71,-888.25 532.29,-888.25 532.29,-888.25 529.21,-888.25 526.12,-885.17 526.12,-882.08 526.12,-882.08 526.12,-875.92 526.12,-875.92 526.12,-872.83 529.21,-869.75 532.29,-869.75 532.29,-869.75 647.71,-869.75 647.71,-869.75 650.79,-869.75 653.88,-872.83 653.88,-875.92 653.88,-875.92 653.88,-882.08 653.88,-882.08 653.88,-885.17 650.79,-888.25 647.71,-888.25"/>
<text text-anchor="start" x="534.12" y="-875.7" font-family="Helvetica,sans-Serif" font-size="9.00">ThemeSwitcher.module.css</text>
</a>
</g>
</g>
<!-- src/ts/ui/overlay/site&#45;control/theme/ThemeSwitcher.tsx&#45;&gt;src/ts/ui/overlay/site&#45;control/theme/ThemeSwitcher.module.css -->
<g id="edge38" class="edge">
<title>src/ts/ui/overlay/site&#45;control/theme/ThemeSwitcher.tsx&#45;&gt;src/ts/ui/overlay/site&#45;control/theme/ThemeSwitcher.module.css</title>
<path fill="none" stroke="#000000" stroke-width="2" stroke-opacity="0.200000" d="M490.56,-879C498.97,-879 507.93,-879 516.89,-879"/>
<polygon fill="#000000" fill-opacity="0.200000" stroke="#000000" stroke-width="2" stroke-opacity="0.200000" points="516.81,-881.1 522.81,-879 516.81,-876.9 516.81,-881.1"/>
</g>
<!-- src/ts/ui/site/project/text/SiteProjectText.tsx&#45;&gt;src/ts/ui/component/button/text/ButtonText.tsx -->
<g id="edge48" class="edge">
<title>src/ts/ui/site/project/text/SiteProjectText.tsx&#45;&gt;src/ts/ui/component/button/text/ButtonText.tsx</title>
<path fill="none" stroke="#000000" stroke-width="2" stroke-opacity="0.200000" d="M477.35,-264.66C535.53,-282.75 654,-323.05 677.88,-358 700.58,-391.25 663.69,-505.41 685.88,-539 690.6,-546.16 697.54,-551.65 705.09,-555.86"/>
<polygon fill="#000000" fill-opacity="0.200000" stroke="#000000" stroke-width="2" stroke-opacity="0.200000" points="703.76,-557.54 710.07,-558.31 705.61,-553.78 703.76,-557.54"/>
</g>
<!-- src/ts/ui/site/project/text/SiteProjectText.tsx&#45;&gt;src/ts/ui/component/text/TextProjectTitle.tsx -->
<g id="edge49" class="edge">
<title>src/ts/ui/site/project/text/SiteProjectText.tsx&#45;&gt;src/ts/ui/component/text/TextProjectTitle.tsx</title>
<path fill="none" stroke="#000000" stroke-width="2" stroke-opacity="0.200000" d="M445.91,-264.62C450.85,-315.05 475.59,-548.82 515.25,-608 525.6,-623.44 542.63,-635.23 557.71,-643.37"/>
<polygon fill="#000000" fill-opacity="0.200000" stroke="#000000" stroke-width="2" stroke-opacity="0.200000" points="556.39,-645.05 562.69,-645.91 558.3,-641.31 556.39,-645.05"/>
</g>
<!-- src/ts/ui/site/project/text/SiteProjectText.module.css -->
<g id="node45" class="node">
<title>src/ts/ui/site/project/text/SiteProjectText.module.css</title>
<g id="a_node45"><a xlink:href="src/ts/ui/site/project/text/SiteProjectText.module.css" xlink:title="SiteProjectText.module.css">
<path fill="#ffffcc" stroke="black" d="M646.58,-264.25C646.58,-264.25 533.42,-264.25 533.42,-264.25 530.33,-264.25 527.25,-261.17 527.25,-258.08 527.25,-258.08 527.25,-251.92 527.25,-251.92 527.25,-248.83 530.33,-245.75 533.42,-245.75 533.42,-245.75 646.58,-245.75 646.58,-245.75 649.67,-245.75 652.75,-248.83 652.75,-251.92 652.75,-251.92 652.75,-258.08 652.75,-258.08 652.75,-261.17 649.67,-264.25 646.58,-264.25"/>
<text text-anchor="start" x="535.25" y="-251.7" font-family="Helvetica,sans-Serif" font-size="9.00">SiteProjectText.module.css</text>
</a>
</g>
</g>
<!-- src/ts/ui/site/project/text/SiteProjectText.tsx&#45;&gt;src/ts/ui/site/project/text/SiteProjectText.module.css -->
<g id="edge50" class="edge">
<title>src/ts/ui/site/project/text/SiteProjectText.tsx&#45;&gt;src/ts/ui/site/project/text/SiteProjectText.module.css</title>
<path fill="none" stroke="#000000" stroke-width="2" stroke-opacity="0.200000" d="M489.38,-255C498.43,-255 508.16,-255 517.87,-255"/>
<polygon fill="#000000" fill-opacity="0.200000" stroke="#000000" stroke-width="2" stroke-opacity="0.200000" points="517.74,-257.1 523.74,-255 517.74,-252.9 517.74,-257.1"/>
</g>
</g>
</svg>
